G04 EAGLE Gerber RS-274X export*
G75*
%MOMM*%
%FSLAX34Y34*%
%LPD*%
%INTop Copper*%
%IPPOS*%
%AMOC8*
5,1,8,0,0,1.08239X$1,22.5*%
G01*
%ADD10R,1.200000X1.200000*%
%ADD11C,1.200000*%
%ADD12R,0.800000X0.300000*%
%ADD13R,2.800000X2.800000*%
%ADD14R,0.650000X1.750000*%
%ADD15P,1.649562X8X22.500000*%
%ADD16R,1.600000X1.300000*%
%ADD17C,1.000000*%
%ADD18C,0.254000*%
%ADD19C,0.152400*%
%ADD20C,0.457200*%
%ADD21C,0.525000*%

G36*
X42511Y-1127D02*
X42511Y-1127D01*
X42608Y-1117D01*
X42632Y-1107D01*
X42658Y-1103D01*
X42744Y-1057D01*
X42833Y-1017D01*
X42852Y-1000D01*
X42875Y-987D01*
X42942Y-917D01*
X43014Y-851D01*
X43027Y-828D01*
X43045Y-809D01*
X43086Y-721D01*
X43133Y-635D01*
X43137Y-610D01*
X43148Y-586D01*
X43159Y-489D01*
X43176Y-393D01*
X43173Y-367D01*
X43176Y-342D01*
X43155Y-246D01*
X43141Y-150D01*
X43129Y-127D01*
X43123Y-101D01*
X43073Y-18D01*
X43029Y69D01*
X43010Y88D01*
X42997Y110D01*
X42923Y173D01*
X42854Y241D01*
X42825Y257D01*
X42810Y270D01*
X42779Y282D01*
X42707Y322D01*
X42568Y380D01*
X38480Y4468D01*
X36267Y9809D01*
X36267Y15591D01*
X38480Y20932D01*
X42568Y25020D01*
X47909Y27233D01*
X53691Y27233D01*
X59032Y25020D01*
X63120Y20932D01*
X65333Y15591D01*
X65333Y9809D01*
X63120Y4468D01*
X59032Y380D01*
X58893Y322D01*
X58810Y271D01*
X58725Y225D01*
X58707Y207D01*
X58684Y193D01*
X58622Y118D01*
X58555Y47D01*
X58544Y23D01*
X58528Y3D01*
X58493Y-88D01*
X58452Y-176D01*
X58449Y-202D01*
X58439Y-226D01*
X58435Y-324D01*
X58424Y-420D01*
X58430Y-446D01*
X58429Y-472D01*
X58456Y-566D01*
X58477Y-661D01*
X58490Y-683D01*
X58497Y-708D01*
X58553Y-788D01*
X58603Y-872D01*
X58623Y-889D01*
X58638Y-910D01*
X58716Y-968D01*
X58790Y-1032D01*
X58814Y-1042D01*
X58835Y-1057D01*
X58927Y-1087D01*
X59018Y-1124D01*
X59050Y-1127D01*
X59069Y-1133D01*
X59102Y-1133D01*
X59185Y-1142D01*
X144015Y-1142D01*
X144111Y-1127D01*
X144208Y-1117D01*
X144232Y-1107D01*
X144258Y-1103D01*
X144344Y-1057D01*
X144433Y-1017D01*
X144452Y-1000D01*
X144475Y-987D01*
X144542Y-917D01*
X144614Y-851D01*
X144627Y-828D01*
X144645Y-809D01*
X144686Y-721D01*
X144733Y-635D01*
X144737Y-610D01*
X144748Y-586D01*
X144759Y-489D01*
X144776Y-393D01*
X144773Y-367D01*
X144776Y-342D01*
X144755Y-246D01*
X144741Y-150D01*
X144729Y-127D01*
X144723Y-101D01*
X144673Y-18D01*
X144629Y69D01*
X144610Y88D01*
X144597Y110D01*
X144523Y173D01*
X144454Y241D01*
X144425Y257D01*
X144410Y270D01*
X144379Y282D01*
X144307Y322D01*
X144168Y380D01*
X140080Y4468D01*
X137867Y9809D01*
X137867Y15591D01*
X140080Y20932D01*
X144168Y25020D01*
X149509Y27233D01*
X155291Y27233D01*
X160632Y25020D01*
X164720Y20932D01*
X166933Y15591D01*
X166933Y9809D01*
X164720Y4468D01*
X160632Y380D01*
X160493Y322D01*
X160410Y271D01*
X160325Y225D01*
X160307Y207D01*
X160284Y193D01*
X160222Y118D01*
X160155Y47D01*
X160144Y23D01*
X160128Y3D01*
X160093Y-88D01*
X160052Y-176D01*
X160049Y-202D01*
X160039Y-226D01*
X160035Y-324D01*
X160024Y-420D01*
X160030Y-446D01*
X160029Y-472D01*
X160056Y-566D01*
X160077Y-661D01*
X160090Y-683D01*
X160097Y-708D01*
X160153Y-788D01*
X160203Y-872D01*
X160223Y-889D01*
X160238Y-910D01*
X160316Y-968D01*
X160390Y-1032D01*
X160414Y-1042D01*
X160435Y-1057D01*
X160527Y-1087D01*
X160618Y-1124D01*
X160650Y-1127D01*
X160669Y-1133D01*
X160702Y-1133D01*
X160785Y-1142D01*
X200916Y-1142D01*
X200936Y-1139D01*
X200955Y-1141D01*
X201057Y-1119D01*
X201159Y-1103D01*
X201176Y-1093D01*
X201196Y-1089D01*
X201285Y-1036D01*
X201376Y-987D01*
X201390Y-973D01*
X201407Y-963D01*
X201474Y-884D01*
X201546Y-809D01*
X201554Y-791D01*
X201567Y-776D01*
X201606Y-680D01*
X201649Y-586D01*
X201651Y-566D01*
X201659Y-548D01*
X201677Y-381D01*
X201677Y239671D01*
X201666Y239742D01*
X201664Y239814D01*
X201646Y239863D01*
X201638Y239914D01*
X201604Y239977D01*
X201579Y240045D01*
X201547Y240085D01*
X201522Y240131D01*
X201470Y240181D01*
X201426Y240237D01*
X201382Y240265D01*
X201344Y240301D01*
X201279Y240331D01*
X201219Y240370D01*
X201168Y240382D01*
X201121Y240404D01*
X201050Y240412D01*
X200980Y240430D01*
X200928Y240426D01*
X200877Y240432D01*
X200806Y240416D01*
X200735Y240411D01*
X200687Y240390D01*
X200636Y240379D01*
X200575Y240342D01*
X200509Y240314D01*
X200453Y240270D01*
X200425Y240253D01*
X200410Y240235D01*
X200378Y240210D01*
X199340Y239172D01*
X195664Y237649D01*
X191686Y237649D01*
X188010Y239172D01*
X185197Y241985D01*
X183674Y245661D01*
X183674Y249639D01*
X185197Y253315D01*
X188010Y256128D01*
X191686Y257651D01*
X195664Y257651D01*
X199340Y256128D01*
X200378Y255090D01*
X200436Y255049D01*
X200488Y254999D01*
X200535Y254977D01*
X200577Y254947D01*
X200646Y254926D01*
X200711Y254896D01*
X200763Y254890D01*
X200813Y254875D01*
X200884Y254876D01*
X200955Y254868D01*
X201006Y254880D01*
X201058Y254881D01*
X201126Y254906D01*
X201196Y254921D01*
X201241Y254947D01*
X201289Y254965D01*
X201345Y255010D01*
X201407Y255047D01*
X201441Y255086D01*
X201481Y255119D01*
X201520Y255179D01*
X201567Y255234D01*
X201586Y255282D01*
X201614Y255326D01*
X201632Y255395D01*
X201659Y255462D01*
X201667Y255533D01*
X201675Y255564D01*
X201673Y255588D01*
X201677Y255629D01*
X201677Y295699D01*
X201673Y295723D01*
X201676Y295747D01*
X201654Y295844D01*
X201638Y295942D01*
X201626Y295963D01*
X201621Y295987D01*
X201569Y296072D01*
X201522Y296160D01*
X201505Y296176D01*
X201492Y296197D01*
X201416Y296261D01*
X201344Y296329D01*
X201322Y296339D01*
X201304Y296355D01*
X201211Y296391D01*
X201121Y296433D01*
X201097Y296435D01*
X201075Y296444D01*
X200975Y296449D01*
X200877Y296460D01*
X200853Y296455D01*
X200829Y296456D01*
X200733Y296428D01*
X200636Y296407D01*
X200616Y296395D01*
X200592Y296388D01*
X200510Y296332D01*
X200425Y296281D01*
X200409Y296263D01*
X200390Y296249D01*
X200330Y296170D01*
X200265Y296094D01*
X200256Y296072D01*
X200242Y296053D01*
X200181Y295896D01*
X200124Y295683D01*
X199789Y295104D01*
X199316Y294631D01*
X198737Y294296D01*
X198091Y294123D01*
X191279Y294123D01*
X191279Y302402D01*
X191276Y302422D01*
X191278Y302441D01*
X191256Y302543D01*
X191239Y302645D01*
X191230Y302662D01*
X191226Y302682D01*
X191173Y302771D01*
X191124Y302862D01*
X191110Y302876D01*
X191100Y302893D01*
X191021Y302960D01*
X190946Y303031D01*
X190928Y303040D01*
X190913Y303053D01*
X190817Y303091D01*
X190723Y303135D01*
X190703Y303137D01*
X190685Y303145D01*
X190518Y303163D01*
X189755Y303163D01*
X189755Y303165D01*
X190518Y303165D01*
X190538Y303168D01*
X190557Y303166D01*
X190659Y303188D01*
X190761Y303205D01*
X190778Y303214D01*
X190798Y303218D01*
X190887Y303271D01*
X190978Y303320D01*
X190992Y303334D01*
X191009Y303344D01*
X191076Y303423D01*
X191147Y303498D01*
X191156Y303516D01*
X191169Y303531D01*
X191208Y303627D01*
X191251Y303721D01*
X191253Y303741D01*
X191261Y303759D01*
X191279Y303926D01*
X191279Y312205D01*
X198091Y312205D01*
X198737Y312032D01*
X199316Y311697D01*
X199789Y311224D01*
X200124Y310645D01*
X200181Y310432D01*
X200191Y310410D01*
X200195Y310386D01*
X200241Y310298D01*
X200282Y310207D01*
X200298Y310190D01*
X200310Y310168D01*
X200382Y310100D01*
X200449Y310027D01*
X200470Y310016D01*
X200488Y309999D01*
X200578Y309957D01*
X200665Y309910D01*
X200689Y309906D01*
X200711Y309895D01*
X200810Y309884D01*
X200908Y309867D01*
X200932Y309871D01*
X200955Y309868D01*
X201052Y309889D01*
X201151Y309904D01*
X201172Y309915D01*
X201196Y309921D01*
X201281Y309972D01*
X201369Y310017D01*
X201386Y310034D01*
X201407Y310047D01*
X201472Y310122D01*
X201541Y310194D01*
X201551Y310215D01*
X201567Y310234D01*
X201604Y310326D01*
X201647Y310416D01*
X201650Y310439D01*
X201659Y310462D01*
X201677Y310629D01*
X201677Y340006D01*
X201674Y340026D01*
X201676Y340045D01*
X201654Y340147D01*
X201638Y340249D01*
X201628Y340266D01*
X201624Y340286D01*
X201571Y340375D01*
X201522Y340466D01*
X201508Y340480D01*
X201498Y340497D01*
X201419Y340564D01*
X201344Y340636D01*
X201326Y340644D01*
X201311Y340657D01*
X201215Y340696D01*
X201121Y340739D01*
X201101Y340741D01*
X201083Y340749D01*
X200916Y340767D01*
X2794Y340767D01*
X2774Y340764D01*
X2755Y340766D01*
X2653Y340744D01*
X2551Y340728D01*
X2534Y340718D01*
X2514Y340714D01*
X2425Y340661D01*
X2334Y340612D01*
X2320Y340598D01*
X2303Y340588D01*
X2236Y340509D01*
X2164Y340434D01*
X2156Y340416D01*
X2143Y340401D01*
X2104Y340305D01*
X2061Y340211D01*
X2059Y340191D01*
X2051Y340173D01*
X2033Y340006D01*
X2033Y-381D01*
X2036Y-401D01*
X2034Y-420D01*
X2056Y-522D01*
X2072Y-624D01*
X2082Y-641D01*
X2086Y-661D01*
X2139Y-750D01*
X2188Y-841D01*
X2202Y-855D01*
X2212Y-872D01*
X2291Y-939D01*
X2366Y-1011D01*
X2384Y-1019D01*
X2399Y-1032D01*
X2495Y-1071D01*
X2589Y-1114D01*
X2609Y-1116D01*
X2627Y-1124D01*
X2794Y-1142D01*
X42415Y-1142D01*
X42511Y-1127D01*
G37*
%LPC*%
G36*
X112854Y56229D02*
X112854Y56229D01*
X110181Y57336D01*
X108136Y59381D01*
X107029Y62054D01*
X107029Y64946D01*
X108136Y67619D01*
X109723Y69206D01*
X109735Y69222D01*
X109750Y69234D01*
X109806Y69321D01*
X109867Y69405D01*
X109873Y69424D01*
X109883Y69441D01*
X109909Y69542D01*
X109939Y69640D01*
X109939Y69660D01*
X109943Y69680D01*
X109935Y69783D01*
X109933Y69886D01*
X109926Y69905D01*
X109924Y69925D01*
X109884Y70020D01*
X109848Y70117D01*
X109836Y70133D01*
X109828Y70151D01*
X109723Y70282D01*
X101489Y78516D01*
X100075Y79930D01*
X100075Y163435D01*
X100064Y163505D01*
X100062Y163577D01*
X100044Y163626D01*
X100036Y163677D01*
X100002Y163741D01*
X99977Y163808D01*
X99945Y163849D01*
X99920Y163895D01*
X99868Y163944D01*
X99824Y164000D01*
X99780Y164028D01*
X99742Y164064D01*
X99677Y164094D01*
X99617Y164133D01*
X99566Y164146D01*
X99519Y164168D01*
X99448Y164176D01*
X99378Y164193D01*
X99326Y164189D01*
X99275Y164195D01*
X99204Y164180D01*
X99133Y164174D01*
X99085Y164154D01*
X99034Y164143D01*
X98973Y164106D01*
X98907Y164078D01*
X98851Y164033D01*
X98823Y164017D01*
X98808Y163999D01*
X98776Y163973D01*
X98268Y163465D01*
X96854Y162051D01*
X96016Y162051D01*
X95901Y162033D01*
X95785Y162015D01*
X95779Y162013D01*
X95773Y162012D01*
X95670Y161957D01*
X95565Y161904D01*
X95561Y161899D01*
X95555Y161896D01*
X95475Y161811D01*
X95393Y161728D01*
X95390Y161722D01*
X95386Y161718D01*
X95378Y161701D01*
X95312Y161581D01*
X95064Y160981D01*
X93019Y158936D01*
X90346Y157829D01*
X87454Y157829D01*
X84781Y158936D01*
X82736Y160981D01*
X81629Y163654D01*
X81629Y166546D01*
X82736Y169219D01*
X84781Y171264D01*
X87454Y172371D01*
X90346Y172371D01*
X93019Y171264D01*
X95064Y169219D01*
X95567Y168003D01*
X95592Y167964D01*
X95607Y167921D01*
X95656Y167860D01*
X95697Y167794D01*
X95732Y167764D01*
X95761Y167729D01*
X95826Y167687D01*
X95887Y167637D01*
X95929Y167620D01*
X95968Y167596D01*
X96044Y167577D01*
X96116Y167549D01*
X96162Y167547D01*
X96207Y167536D01*
X96284Y167542D01*
X96362Y167538D01*
X96406Y167551D01*
X96452Y167555D01*
X96523Y167585D01*
X96598Y167607D01*
X96636Y167633D01*
X96678Y167651D01*
X96785Y167736D01*
X96800Y167747D01*
X96803Y167751D01*
X96809Y167756D01*
X98328Y169275D01*
X99965Y170912D01*
X108886Y179833D01*
X117715Y179833D01*
X117805Y179847D01*
X117896Y179855D01*
X117925Y179867D01*
X117957Y179872D01*
X118038Y179915D01*
X118122Y179951D01*
X118154Y179977D01*
X118175Y179988D01*
X118197Y180011D01*
X118253Y180056D01*
X124236Y186039D01*
X124289Y186113D01*
X124349Y186182D01*
X124361Y186213D01*
X124380Y186239D01*
X124407Y186326D01*
X124441Y186411D01*
X124445Y186452D01*
X124452Y186474D01*
X124451Y186506D01*
X124459Y186577D01*
X124459Y228776D01*
X124457Y228787D01*
X124458Y228795D01*
X124450Y228832D01*
X124445Y228866D01*
X124437Y228957D01*
X124425Y228987D01*
X124420Y229019D01*
X124377Y229100D01*
X124341Y229183D01*
X124315Y229216D01*
X124304Y229236D01*
X124281Y229258D01*
X124236Y229314D01*
X117632Y235919D01*
X117574Y235960D01*
X117522Y236010D01*
X117475Y236032D01*
X117433Y236062D01*
X117364Y236083D01*
X117299Y236113D01*
X117247Y236119D01*
X117197Y236134D01*
X117126Y236133D01*
X117055Y236140D01*
X117004Y236129D01*
X116952Y236128D01*
X116884Y236103D01*
X116814Y236088D01*
X116769Y236061D01*
X116721Y236044D01*
X116665Y235999D01*
X116603Y235962D01*
X116569Y235922D01*
X116529Y235890D01*
X116490Y235830D01*
X116443Y235775D01*
X116424Y235727D01*
X116396Y235683D01*
X116378Y235614D01*
X116351Y235547D01*
X116343Y235476D01*
X116335Y235444D01*
X116337Y235421D01*
X116333Y235380D01*
X116333Y223436D01*
X116352Y223322D01*
X116369Y223206D01*
X116371Y223200D01*
X116372Y223194D01*
X116427Y223091D01*
X116480Y222986D01*
X116485Y222982D01*
X116488Y222976D01*
X116572Y222896D01*
X116656Y222814D01*
X116662Y222810D01*
X116666Y222807D01*
X116683Y222799D01*
X116719Y222779D01*
X116723Y222776D01*
X116732Y222772D01*
X116803Y222733D01*
X118419Y222064D01*
X120464Y220019D01*
X121571Y217346D01*
X121571Y214454D01*
X120464Y211781D01*
X118419Y209736D01*
X115746Y208629D01*
X112854Y208629D01*
X110181Y209736D01*
X108136Y211781D01*
X107029Y214454D01*
X107029Y217346D01*
X108136Y220019D01*
X110181Y222064D01*
X111797Y222733D01*
X111897Y222795D01*
X111915Y222806D01*
X111942Y222820D01*
X111946Y222824D01*
X111997Y222855D01*
X112001Y222859D01*
X112006Y222863D01*
X112081Y222953D01*
X112157Y223042D01*
X112159Y223047D01*
X112163Y223052D01*
X112205Y223161D01*
X112249Y223270D01*
X112250Y223277D01*
X112251Y223282D01*
X112252Y223300D01*
X112267Y223436D01*
X112267Y236291D01*
X112252Y236384D01*
X112244Y236478D01*
X112232Y236505D01*
X112228Y236534D01*
X112184Y236617D01*
X112146Y236703D01*
X112123Y236732D01*
X112112Y236751D01*
X112089Y236774D01*
X112040Y236834D01*
X89654Y258892D01*
X89613Y258921D01*
X88833Y259701D01*
X88831Y259702D01*
X88829Y259705D01*
X88086Y260438D01*
X88084Y260441D01*
X88061Y260463D01*
X88018Y260516D01*
X85677Y262857D01*
X85603Y262910D01*
X85534Y262969D01*
X85504Y262981D01*
X85478Y263000D01*
X85391Y263027D01*
X85306Y263061D01*
X85265Y263066D01*
X85243Y263073D01*
X85210Y263072D01*
X85139Y263080D01*
X76140Y263080D01*
X76069Y263068D01*
X75997Y263066D01*
X75948Y263048D01*
X75897Y263040D01*
X75834Y263007D01*
X75766Y262982D01*
X75726Y262949D01*
X75680Y262925D01*
X75630Y262873D01*
X75574Y262828D01*
X75546Y262784D01*
X75510Y262747D01*
X75480Y262682D01*
X75441Y262621D01*
X75429Y262571D01*
X75407Y262524D01*
X75399Y262452D01*
X75381Y262383D01*
X75385Y262331D01*
X75380Y262279D01*
X75395Y262209D01*
X75400Y262138D01*
X75421Y262090D01*
X75432Y262039D01*
X75469Y261977D01*
X75497Y261911D01*
X75541Y261855D01*
X75558Y261828D01*
X75576Y261812D01*
X75601Y261780D01*
X75666Y261716D01*
X71041Y257091D01*
X71029Y257075D01*
X71014Y257063D01*
X70958Y256975D01*
X70898Y256892D01*
X70892Y256873D01*
X70881Y256856D01*
X70855Y256755D01*
X70825Y256656D01*
X70826Y256636D01*
X70821Y256617D01*
X70829Y256514D01*
X70832Y256411D01*
X70838Y256392D01*
X70840Y256372D01*
X70880Y256277D01*
X70916Y256180D01*
X70928Y256164D01*
X70936Y256146D01*
X71041Y256015D01*
X71041Y256014D01*
X71057Y256003D01*
X71070Y255987D01*
X71157Y255931D01*
X71241Y255871D01*
X71260Y255865D01*
X71277Y255854D01*
X71377Y255829D01*
X71476Y255799D01*
X71496Y255799D01*
X71515Y255794D01*
X71618Y255802D01*
X71722Y255805D01*
X71741Y255812D01*
X71761Y255813D01*
X71855Y255854D01*
X71953Y255889D01*
X71969Y255902D01*
X71987Y255910D01*
X72118Y256014D01*
X76743Y260639D01*
X77501Y259880D01*
X77836Y259301D01*
X78009Y258655D01*
X78009Y257892D01*
X78024Y257802D01*
X78031Y257711D01*
X78044Y257681D01*
X78049Y257649D01*
X78091Y257569D01*
X78127Y257485D01*
X78153Y257453D01*
X78164Y257432D01*
X78187Y257410D01*
X78232Y257354D01*
X80275Y255311D01*
X80275Y254258D01*
X79244Y253228D01*
X79239Y253220D01*
X79231Y253215D01*
X79166Y253120D01*
X79100Y253028D01*
X79098Y253019D01*
X79092Y253012D01*
X79061Y252901D01*
X79028Y252793D01*
X79028Y252784D01*
X79026Y252775D01*
X79031Y252661D01*
X79034Y252547D01*
X79037Y252538D01*
X79038Y252529D01*
X79079Y252424D01*
X79119Y252316D01*
X79124Y252309D01*
X79128Y252300D01*
X79229Y252167D01*
X79850Y251509D01*
X79931Y251447D01*
X80009Y251381D01*
X80029Y251373D01*
X80046Y251360D01*
X80142Y251327D01*
X80173Y251315D01*
X104141Y227347D01*
X104141Y201690D01*
X104155Y201600D01*
X104163Y201509D01*
X104175Y201479D01*
X104180Y201448D01*
X104223Y201367D01*
X104259Y201283D01*
X104285Y201251D01*
X104296Y201230D01*
X104319Y201208D01*
X104364Y201152D01*
X108978Y196537D01*
X108995Y196526D01*
X109007Y196510D01*
X109094Y196454D01*
X109178Y196394D01*
X109197Y196388D01*
X109214Y196377D01*
X109314Y196352D01*
X109413Y196321D01*
X109433Y196322D01*
X109452Y196317D01*
X109555Y196325D01*
X109659Y196328D01*
X109678Y196335D01*
X109698Y196336D01*
X109793Y196377D01*
X109890Y196412D01*
X109906Y196425D01*
X109924Y196433D01*
X110055Y196537D01*
X110181Y196664D01*
X112854Y197771D01*
X115746Y197771D01*
X118419Y196664D01*
X120464Y194619D01*
X121571Y191946D01*
X121571Y189054D01*
X120464Y186381D01*
X118419Y184336D01*
X115746Y183229D01*
X112854Y183229D01*
X110181Y184336D01*
X108136Y186381D01*
X107029Y189054D01*
X107029Y191946D01*
X107066Y192035D01*
X107093Y192148D01*
X107121Y192263D01*
X107121Y192269D01*
X107122Y192275D01*
X107111Y192391D01*
X107102Y192508D01*
X107100Y192513D01*
X107099Y192520D01*
X107051Y192627D01*
X107006Y192734D01*
X107001Y192740D01*
X106999Y192744D01*
X106987Y192758D01*
X106901Y192865D01*
X98314Y201452D01*
X98240Y201505D01*
X98171Y201565D01*
X98140Y201577D01*
X98114Y201596D01*
X98027Y201623D01*
X97942Y201657D01*
X97901Y201661D01*
X97879Y201668D01*
X97847Y201667D01*
X97776Y201675D01*
X82310Y201675D01*
X82220Y201661D01*
X82129Y201653D01*
X82100Y201641D01*
X82068Y201636D01*
X81987Y201593D01*
X81903Y201557D01*
X81871Y201531D01*
X81850Y201520D01*
X81828Y201497D01*
X81772Y201452D01*
X55102Y174782D01*
X55060Y174724D01*
X55011Y174672D01*
X54989Y174625D01*
X54958Y174583D01*
X54937Y174514D01*
X54907Y174449D01*
X54901Y174397D01*
X54886Y174347D01*
X54888Y174276D01*
X54880Y174205D01*
X54891Y174154D01*
X54892Y174102D01*
X54917Y174034D01*
X54932Y173964D01*
X54959Y173919D01*
X54977Y173871D01*
X55022Y173815D01*
X55058Y173753D01*
X55098Y173719D01*
X55131Y173679D01*
X55191Y173640D01*
X55245Y173593D01*
X55294Y173574D01*
X55338Y173546D01*
X55407Y173528D01*
X55474Y173501D01*
X55545Y173493D01*
X55576Y173485D01*
X55599Y173487D01*
X55640Y173483D01*
X58115Y173483D01*
X60199Y171399D01*
X60199Y168453D01*
X58115Y166369D01*
X56275Y166369D01*
X56185Y166355D01*
X56094Y166347D01*
X56065Y166335D01*
X56033Y166330D01*
X55952Y166287D01*
X55868Y166251D01*
X55836Y166225D01*
X55815Y166214D01*
X55793Y166191D01*
X55737Y166146D01*
X41245Y151654D01*
X41192Y151580D01*
X41156Y151539D01*
X41153Y151536D01*
X41153Y151535D01*
X41132Y151511D01*
X41120Y151480D01*
X41101Y151454D01*
X41074Y151367D01*
X41069Y151355D01*
X41050Y151313D01*
X41049Y151304D01*
X41040Y151282D01*
X41036Y151241D01*
X41029Y151219D01*
X41030Y151187D01*
X41022Y151116D01*
X41022Y149720D01*
X38938Y147637D01*
X37476Y147637D01*
X37405Y147625D01*
X37333Y147623D01*
X37284Y147605D01*
X37233Y147597D01*
X37169Y147563D01*
X37102Y147539D01*
X37061Y147506D01*
X37015Y147482D01*
X36966Y147430D01*
X36910Y147385D01*
X36882Y147341D01*
X36846Y147304D01*
X36816Y147239D01*
X36777Y147178D01*
X36764Y147128D01*
X36742Y147081D01*
X36734Y147009D01*
X36717Y146940D01*
X36721Y146888D01*
X36715Y146836D01*
X36731Y146766D01*
X36736Y146695D01*
X36756Y146647D01*
X36768Y146596D01*
X36804Y146534D01*
X36832Y146468D01*
X36877Y146412D01*
X36894Y146385D01*
X36912Y146369D01*
X36937Y146337D01*
X38863Y144412D01*
X38863Y141465D01*
X36779Y139382D01*
X34939Y139382D01*
X34849Y139367D01*
X34758Y139360D01*
X34729Y139347D01*
X34697Y139342D01*
X34616Y139299D01*
X34532Y139264D01*
X34500Y139238D01*
X34479Y139227D01*
X34457Y139204D01*
X34401Y139159D01*
X24874Y129632D01*
X24863Y129616D01*
X24847Y129603D01*
X24791Y129516D01*
X24731Y129432D01*
X24725Y129413D01*
X24714Y129396D01*
X24689Y129296D01*
X24658Y129197D01*
X24659Y129177D01*
X24654Y129158D01*
X24662Y129055D01*
X24665Y128951D01*
X24671Y128932D01*
X24673Y128913D01*
X24713Y128818D01*
X24749Y128720D01*
X24762Y128705D01*
X24769Y128686D01*
X24874Y128555D01*
X24893Y128537D01*
X24893Y125590D01*
X22809Y123507D01*
X19863Y123507D01*
X17779Y125590D01*
X17779Y128537D01*
X19875Y130633D01*
X19888Y130635D01*
X19979Y130642D01*
X20008Y130655D01*
X20040Y130660D01*
X20121Y130703D01*
X20205Y130738D01*
X20237Y130764D01*
X20258Y130775D01*
X20280Y130798D01*
X20336Y130843D01*
X31526Y142034D01*
X31579Y142107D01*
X31639Y142177D01*
X31651Y142207D01*
X31670Y142233D01*
X31697Y142320D01*
X31731Y142405D01*
X31735Y142446D01*
X31742Y142468D01*
X31741Y142501D01*
X31749Y142572D01*
X31749Y144412D01*
X33833Y146495D01*
X35295Y146495D01*
X35366Y146507D01*
X35438Y146509D01*
X35487Y146527D01*
X35538Y146535D01*
X35602Y146569D01*
X35669Y146593D01*
X35710Y146626D01*
X35756Y146650D01*
X35805Y146702D01*
X35861Y146747D01*
X35889Y146791D01*
X35925Y146828D01*
X35955Y146893D01*
X35994Y146954D01*
X36007Y147004D01*
X36029Y147051D01*
X36037Y147123D01*
X36054Y147192D01*
X36050Y147244D01*
X36056Y147296D01*
X36040Y147366D01*
X36035Y147437D01*
X36015Y147485D01*
X36003Y147536D01*
X35967Y147598D01*
X35939Y147664D01*
X35894Y147720D01*
X35877Y147747D01*
X35859Y147763D01*
X35834Y147795D01*
X33908Y149720D01*
X33908Y151751D01*
X33897Y151821D01*
X33895Y151893D01*
X33877Y151942D01*
X33869Y151993D01*
X33835Y152057D01*
X33810Y152124D01*
X33778Y152165D01*
X33753Y152211D01*
X33701Y152260D01*
X33657Y152316D01*
X33613Y152344D01*
X33575Y152380D01*
X33510Y152410D01*
X33450Y152449D01*
X33399Y152462D01*
X33352Y152484D01*
X33281Y152492D01*
X33211Y152509D01*
X33159Y152505D01*
X33108Y152511D01*
X33037Y152496D01*
X32966Y152490D01*
X32918Y152470D01*
X32867Y152459D01*
X32806Y152422D01*
X32740Y152394D01*
X32684Y152349D01*
X32656Y152333D01*
X32641Y152315D01*
X32609Y152289D01*
X20194Y139874D01*
X20141Y139800D01*
X20081Y139731D01*
X20069Y139700D01*
X20050Y139674D01*
X20023Y139587D01*
X19989Y139502D01*
X19985Y139461D01*
X19978Y139439D01*
X19979Y139407D01*
X19971Y139336D01*
X19971Y138254D01*
X18864Y135581D01*
X16819Y133536D01*
X14146Y132429D01*
X11254Y132429D01*
X8581Y133536D01*
X6536Y135581D01*
X5429Y138254D01*
X5429Y141146D01*
X6536Y143819D01*
X8581Y145864D01*
X11254Y146971D01*
X14146Y146971D01*
X16819Y145864D01*
X18088Y144594D01*
X18104Y144583D01*
X18117Y144567D01*
X18204Y144511D01*
X18288Y144451D01*
X18307Y144445D01*
X18324Y144434D01*
X18424Y144409D01*
X18523Y144378D01*
X18543Y144379D01*
X18562Y144374D01*
X18665Y144382D01*
X18769Y144385D01*
X18788Y144392D01*
X18807Y144393D01*
X18902Y144434D01*
X19000Y144469D01*
X19015Y144482D01*
X19034Y144490D01*
X19165Y144594D01*
X32274Y157704D01*
X32316Y157762D01*
X32365Y157814D01*
X32387Y157861D01*
X32418Y157903D01*
X32439Y157972D01*
X32469Y158037D01*
X32475Y158089D01*
X32490Y158139D01*
X32488Y158210D01*
X32496Y158281D01*
X32485Y158332D01*
X32484Y158384D01*
X32459Y158452D01*
X32444Y158522D01*
X32417Y158566D01*
X32399Y158615D01*
X32354Y158671D01*
X32318Y158733D01*
X32278Y158767D01*
X32245Y158807D01*
X32185Y158846D01*
X32131Y158893D01*
X32082Y158912D01*
X32038Y158940D01*
X31969Y158958D01*
X31902Y158985D01*
X31831Y158993D01*
X31800Y159001D01*
X31777Y158999D01*
X31736Y159003D01*
X29007Y159003D01*
X26923Y161087D01*
X26923Y164338D01*
X26920Y164358D01*
X26922Y164377D01*
X26900Y164479D01*
X26884Y164581D01*
X26874Y164598D01*
X26870Y164618D01*
X26817Y164707D01*
X26768Y164798D01*
X26754Y164812D01*
X26744Y164829D01*
X26665Y164896D01*
X26590Y164968D01*
X26572Y164976D01*
X26557Y164989D01*
X26461Y165028D01*
X26367Y165071D01*
X26347Y165073D01*
X26329Y165081D01*
X26162Y165099D01*
X22911Y165099D01*
X21270Y166740D01*
X21212Y166782D01*
X21160Y166831D01*
X21113Y166853D01*
X21071Y166883D01*
X21002Y166904D01*
X20937Y166935D01*
X20885Y166940D01*
X20835Y166956D01*
X20764Y166954D01*
X20693Y166962D01*
X20642Y166951D01*
X20590Y166949D01*
X20522Y166925D01*
X20452Y166909D01*
X20407Y166883D01*
X20359Y166865D01*
X20303Y166820D01*
X20241Y166783D01*
X20207Y166744D01*
X20167Y166711D01*
X20128Y166651D01*
X20081Y166596D01*
X20062Y166548D01*
X20034Y166504D01*
X20016Y166435D01*
X19989Y166368D01*
X19981Y166297D01*
X19973Y166266D01*
X19975Y166242D01*
X19971Y166201D01*
X19971Y163654D01*
X18864Y160981D01*
X16819Y158936D01*
X14146Y157829D01*
X11254Y157829D01*
X8581Y158936D01*
X6536Y160981D01*
X5429Y163654D01*
X5429Y166546D01*
X6536Y169219D01*
X8581Y171264D01*
X11254Y172371D01*
X14146Y172371D01*
X15761Y171702D01*
X15828Y171686D01*
X15843Y171680D01*
X15861Y171678D01*
X15949Y171651D01*
X15975Y171652D01*
X16000Y171646D01*
X16097Y171655D01*
X16195Y171657D01*
X16219Y171666D01*
X16245Y171669D01*
X16334Y171708D01*
X16426Y171742D01*
X16446Y171758D01*
X16470Y171769D01*
X16542Y171835D01*
X16618Y171896D01*
X16632Y171918D01*
X16651Y171935D01*
X16698Y172021D01*
X16751Y172102D01*
X16757Y172128D01*
X16770Y172151D01*
X16787Y172247D01*
X16811Y172341D01*
X16809Y172367D01*
X16813Y172393D01*
X16799Y172489D01*
X16792Y172586D01*
X16781Y172610D01*
X16778Y172636D01*
X16733Y172723D01*
X16695Y172813D01*
X16675Y172838D01*
X16666Y172855D01*
X16643Y172879D01*
X16623Y172904D01*
X16616Y172914D01*
X16610Y172919D01*
X16591Y172943D01*
X15747Y173787D01*
X15747Y176733D01*
X16794Y177780D01*
X16847Y177854D01*
X16907Y177924D01*
X16919Y177954D01*
X16938Y177980D01*
X16965Y178067D01*
X16999Y178152D01*
X17003Y178193D01*
X17010Y178215D01*
X17009Y178247D01*
X17017Y178319D01*
X17017Y179051D01*
X17017Y179893D01*
X17623Y180499D01*
X17623Y180500D01*
X56165Y219083D01*
X56206Y219142D01*
X56254Y219192D01*
X56263Y219210D01*
X56277Y219227D01*
X56289Y219257D01*
X56308Y219283D01*
X56330Y219355D01*
X56358Y219415D01*
X56360Y219433D01*
X56369Y219455D01*
X56373Y219496D01*
X56380Y219518D01*
X56379Y219550D01*
X56387Y219621D01*
X56387Y221549D01*
X56373Y221639D01*
X56365Y221730D01*
X56353Y221760D01*
X56348Y221792D01*
X56305Y221872D01*
X56269Y221956D01*
X56243Y221988D01*
X56232Y222009D01*
X56209Y222031D01*
X56164Y222087D01*
X53100Y225151D01*
X53026Y225204D01*
X52957Y225264D01*
X52927Y225276D01*
X52901Y225295D01*
X52814Y225321D01*
X52729Y225356D01*
X52688Y225360D01*
X52666Y225367D01*
X52633Y225366D01*
X52562Y225374D01*
X51705Y225374D01*
X51615Y225359D01*
X51524Y225352D01*
X51495Y225340D01*
X51463Y225334D01*
X51382Y225292D01*
X51298Y225256D01*
X51266Y225230D01*
X51245Y225219D01*
X51223Y225196D01*
X51167Y225151D01*
X47976Y221960D01*
X47923Y221886D01*
X47863Y221816D01*
X47851Y221786D01*
X47832Y221760D01*
X47805Y221673D01*
X47771Y221588D01*
X47767Y221547D01*
X47760Y221525D01*
X47761Y221493D01*
X47753Y221421D01*
X47753Y219630D01*
X20194Y192071D01*
X20141Y191997D01*
X20081Y191928D01*
X20069Y191897D01*
X20050Y191871D01*
X20023Y191784D01*
X19989Y191699D01*
X19985Y191658D01*
X19978Y191636D01*
X19979Y191604D01*
X19971Y191533D01*
X19971Y189054D01*
X18864Y186381D01*
X16819Y184336D01*
X14146Y183229D01*
X11254Y183229D01*
X8581Y184336D01*
X6536Y186381D01*
X5429Y189054D01*
X5429Y191946D01*
X6536Y194619D01*
X8581Y196664D01*
X11254Y197771D01*
X14146Y197771D01*
X16819Y196664D01*
X17390Y196093D01*
X17406Y196081D01*
X17418Y196066D01*
X17505Y196010D01*
X17589Y195949D01*
X17608Y195943D01*
X17625Y195933D01*
X17726Y195907D01*
X17824Y195877D01*
X17844Y195877D01*
X17864Y195873D01*
X17967Y195881D01*
X18070Y195883D01*
X18089Y195890D01*
X18109Y195892D01*
X18204Y195932D01*
X18301Y195968D01*
X18317Y195980D01*
X18335Y195988D01*
X18466Y196093D01*
X39513Y217140D01*
X39555Y217198D01*
X39604Y217250D01*
X39626Y217297D01*
X39657Y217339D01*
X39678Y217408D01*
X39708Y217473D01*
X39714Y217525D01*
X39729Y217575D01*
X39727Y217646D01*
X39735Y217717D01*
X39724Y217768D01*
X39723Y217820D01*
X39698Y217888D01*
X39683Y217958D01*
X39656Y218002D01*
X39638Y218051D01*
X39593Y218107D01*
X39557Y218169D01*
X39517Y218203D01*
X39484Y218243D01*
X39424Y218282D01*
X39370Y218329D01*
X39321Y218348D01*
X39277Y218376D01*
X39208Y218394D01*
X39141Y218421D01*
X39070Y218429D01*
X39039Y218437D01*
X39016Y218435D01*
X38975Y218439D01*
X35738Y218439D01*
X33654Y220523D01*
X33654Y221982D01*
X33643Y222052D01*
X33641Y222124D01*
X33623Y222173D01*
X33615Y222224D01*
X33581Y222288D01*
X33556Y222355D01*
X33524Y222396D01*
X33499Y222442D01*
X33447Y222491D01*
X33403Y222547D01*
X33359Y222575D01*
X33321Y222611D01*
X33256Y222641D01*
X33196Y222680D01*
X33145Y222693D01*
X33098Y222715D01*
X33027Y222723D01*
X32957Y222740D01*
X32905Y222736D01*
X32854Y222742D01*
X32783Y222727D01*
X32712Y222721D01*
X32664Y222701D01*
X32613Y222690D01*
X32552Y222653D01*
X32486Y222625D01*
X32430Y222580D01*
X32402Y222564D01*
X32387Y222546D01*
X32355Y222520D01*
X29180Y219345D01*
X28545Y218710D01*
X28492Y218636D01*
X28432Y218567D01*
X28420Y218536D01*
X28401Y218510D01*
X28374Y218423D01*
X28367Y218405D01*
X23829Y213867D01*
X20236Y213867D01*
X20122Y213848D01*
X20006Y213831D01*
X20000Y213829D01*
X19994Y213828D01*
X19891Y213773D01*
X19786Y213720D01*
X19782Y213715D01*
X19776Y213712D01*
X19696Y213628D01*
X19614Y213544D01*
X19610Y213538D01*
X19607Y213534D01*
X19599Y213517D01*
X19533Y213397D01*
X18864Y211781D01*
X16819Y209736D01*
X14146Y208629D01*
X11254Y208629D01*
X8581Y209736D01*
X6536Y211781D01*
X5429Y214454D01*
X5429Y217346D01*
X6536Y220019D01*
X8581Y222064D01*
X11254Y223171D01*
X14146Y223171D01*
X16819Y222064D01*
X18864Y220019D01*
X19533Y218403D01*
X19595Y218303D01*
X19655Y218203D01*
X19659Y218199D01*
X19663Y218194D01*
X19753Y218119D01*
X19842Y218043D01*
X19847Y218041D01*
X19852Y218037D01*
X19961Y217995D01*
X20070Y217951D01*
X20077Y217950D01*
X20082Y217949D01*
X20100Y217948D01*
X20236Y217933D01*
X21830Y217933D01*
X21920Y217947D01*
X22011Y217955D01*
X22041Y217967D01*
X22072Y217972D01*
X22153Y218015D01*
X22237Y218051D01*
X22269Y218077D01*
X22290Y218088D01*
X22312Y218111D01*
X22368Y218156D01*
X23320Y219108D01*
X23332Y219124D01*
X23348Y219137D01*
X23379Y219185D01*
X23385Y219192D01*
X23391Y219205D01*
X23404Y219224D01*
X23464Y219308D01*
X23470Y219327D01*
X23481Y219344D01*
X23506Y219444D01*
X23536Y219543D01*
X23536Y219563D01*
X23541Y219582D01*
X23533Y219685D01*
X23530Y219789D01*
X23523Y219808D01*
X23522Y219827D01*
X23481Y219922D01*
X23446Y220020D01*
X23433Y220036D01*
X23425Y220054D01*
X23320Y220185D01*
X13207Y230298D01*
X13207Y283798D01*
X19080Y289671D01*
X19133Y289745D01*
X19193Y289814D01*
X19205Y289845D01*
X19224Y289871D01*
X19251Y289958D01*
X19285Y290043D01*
X19289Y290083D01*
X19296Y290106D01*
X19295Y290138D01*
X19303Y290209D01*
X19303Y298958D01*
X19300Y298978D01*
X19302Y298997D01*
X19280Y299099D01*
X19263Y299201D01*
X19254Y299218D01*
X19250Y299238D01*
X19197Y299327D01*
X19148Y299418D01*
X19134Y299432D01*
X19124Y299449D01*
X19045Y299516D01*
X18970Y299587D01*
X18952Y299596D01*
X18937Y299609D01*
X18841Y299647D01*
X18747Y299691D01*
X18727Y299693D01*
X18709Y299701D01*
X18542Y299719D01*
X17779Y299719D01*
X17779Y299721D01*
X18542Y299721D01*
X18562Y299724D01*
X18581Y299722D01*
X18683Y299744D01*
X18785Y299761D01*
X18802Y299770D01*
X18822Y299774D01*
X18911Y299827D01*
X19002Y299876D01*
X19016Y299890D01*
X19033Y299900D01*
X19100Y299979D01*
X19171Y300054D01*
X19180Y300072D01*
X19193Y300087D01*
X19232Y300183D01*
X19275Y300277D01*
X19277Y300297D01*
X19285Y300315D01*
X19303Y300482D01*
X19303Y309881D01*
X21989Y309881D01*
X25624Y306246D01*
X25682Y306204D01*
X25734Y306154D01*
X25781Y306133D01*
X25823Y306102D01*
X25892Y306081D01*
X25957Y306051D01*
X26009Y306045D01*
X26059Y306030D01*
X26130Y306032D01*
X26201Y306024D01*
X26252Y306035D01*
X26304Y306036D01*
X26372Y306061D01*
X26442Y306076D01*
X26487Y306103D01*
X26535Y306121D01*
X26591Y306165D01*
X26653Y306202D01*
X26687Y306242D01*
X26727Y306274D01*
X26766Y306335D01*
X26813Y306389D01*
X26832Y306437D01*
X26860Y306481D01*
X26878Y306551D01*
X26905Y306617D01*
X26913Y306689D01*
X26921Y306720D01*
X26919Y306743D01*
X26923Y306784D01*
X26923Y311484D01*
X31924Y316485D01*
X32120Y316485D01*
X32211Y316499D01*
X32301Y316507D01*
X32331Y316519D01*
X32363Y316524D01*
X32444Y316567D01*
X32528Y316603D01*
X32560Y316629D01*
X32581Y316640D01*
X32603Y316663D01*
X32659Y316708D01*
X33960Y318009D01*
X35880Y318009D01*
X35951Y318020D01*
X36023Y318022D01*
X36071Y318040D01*
X36123Y318048D01*
X36186Y318082D01*
X36254Y318107D01*
X36294Y318139D01*
X36340Y318164D01*
X36390Y318216D01*
X36446Y318260D01*
X36474Y318304D01*
X36510Y318342D01*
X36540Y318407D01*
X36579Y318467D01*
X36591Y318518D01*
X36613Y318565D01*
X36621Y318636D01*
X36639Y318706D01*
X36635Y318758D01*
X36640Y318809D01*
X36625Y318880D01*
X36619Y318951D01*
X36599Y318999D01*
X36588Y319050D01*
X36551Y319111D01*
X36523Y319177D01*
X36478Y319233D01*
X36462Y319261D01*
X36444Y319276D01*
X36418Y319308D01*
X34289Y321437D01*
X34289Y328803D01*
X39497Y334011D01*
X46863Y334011D01*
X52071Y328803D01*
X52071Y321437D01*
X47402Y316768D01*
X47360Y316710D01*
X47310Y316658D01*
X47288Y316611D01*
X47258Y316569D01*
X47237Y316500D01*
X47207Y316435D01*
X47201Y316383D01*
X47186Y316333D01*
X47188Y316262D01*
X47180Y316191D01*
X47191Y316140D01*
X47192Y316088D01*
X47217Y316020D01*
X47232Y315950D01*
X47259Y315905D01*
X47277Y315857D01*
X47321Y315801D01*
X47358Y315739D01*
X47398Y315705D01*
X47430Y315665D01*
X47491Y315626D01*
X47545Y315579D01*
X47593Y315560D01*
X47637Y315532D01*
X47707Y315514D01*
X47773Y315487D01*
X47845Y315479D01*
X47876Y315471D01*
X47899Y315473D01*
X47940Y315469D01*
X63820Y315469D01*
X63891Y315480D01*
X63963Y315482D01*
X64011Y315500D01*
X64063Y315508D01*
X64126Y315542D01*
X64194Y315567D01*
X64234Y315599D01*
X64280Y315624D01*
X64330Y315676D01*
X64386Y315720D01*
X64414Y315764D01*
X64450Y315802D01*
X64480Y315867D01*
X64519Y315927D01*
X64531Y315978D01*
X64553Y316025D01*
X64561Y316096D01*
X64579Y316166D01*
X64575Y316218D01*
X64580Y316269D01*
X64565Y316340D01*
X64559Y316411D01*
X64539Y316459D01*
X64528Y316510D01*
X64491Y316571D01*
X64463Y316637D01*
X64418Y316693D01*
X64402Y316721D01*
X64384Y316736D01*
X64358Y316768D01*
X59689Y321437D01*
X59689Y328803D01*
X64897Y334011D01*
X72263Y334011D01*
X77471Y328803D01*
X77471Y321437D01*
X72802Y316768D01*
X72760Y316710D01*
X72710Y316658D01*
X72688Y316611D01*
X72658Y316569D01*
X72637Y316500D01*
X72607Y316435D01*
X72601Y316383D01*
X72586Y316333D01*
X72588Y316262D01*
X72580Y316191D01*
X72591Y316140D01*
X72592Y316088D01*
X72617Y316020D01*
X72632Y315950D01*
X72659Y315905D01*
X72677Y315857D01*
X72721Y315801D01*
X72758Y315739D01*
X72798Y315705D01*
X72830Y315665D01*
X72891Y315626D01*
X72945Y315579D01*
X72993Y315560D01*
X73037Y315532D01*
X73107Y315514D01*
X73173Y315487D01*
X73245Y315479D01*
X73276Y315471D01*
X73299Y315473D01*
X73340Y315469D01*
X89220Y315469D01*
X89291Y315480D01*
X89363Y315482D01*
X89411Y315500D01*
X89463Y315508D01*
X89526Y315542D01*
X89594Y315567D01*
X89634Y315599D01*
X89680Y315624D01*
X89730Y315676D01*
X89786Y315720D01*
X89814Y315764D01*
X89850Y315802D01*
X89880Y315867D01*
X89919Y315927D01*
X89931Y315978D01*
X89953Y316025D01*
X89961Y316096D01*
X89979Y316166D01*
X89975Y316218D01*
X89980Y316269D01*
X89965Y316340D01*
X89959Y316411D01*
X89939Y316459D01*
X89928Y316510D01*
X89891Y316571D01*
X89863Y316637D01*
X89818Y316693D01*
X89802Y316721D01*
X89784Y316736D01*
X89758Y316768D01*
X85089Y321437D01*
X85089Y328803D01*
X90297Y334011D01*
X97663Y334011D01*
X102871Y328803D01*
X102871Y321437D01*
X98202Y316768D01*
X98160Y316710D01*
X98110Y316658D01*
X98088Y316611D01*
X98058Y316569D01*
X98037Y316500D01*
X98007Y316435D01*
X98001Y316383D01*
X97986Y316333D01*
X97988Y316262D01*
X97980Y316191D01*
X97991Y316140D01*
X97992Y316088D01*
X98017Y316020D01*
X98032Y315950D01*
X98059Y315905D01*
X98077Y315857D01*
X98121Y315801D01*
X98158Y315739D01*
X98198Y315705D01*
X98230Y315665D01*
X98291Y315626D01*
X98345Y315579D01*
X98393Y315560D01*
X98437Y315532D01*
X98507Y315514D01*
X98573Y315487D01*
X98645Y315479D01*
X98676Y315471D01*
X98699Y315473D01*
X98740Y315469D01*
X101680Y315469D01*
X110237Y306912D01*
X110237Y304988D01*
X110248Y304917D01*
X110250Y304845D01*
X110268Y304797D01*
X110276Y304745D01*
X110310Y304682D01*
X110335Y304614D01*
X110367Y304574D01*
X110392Y304528D01*
X110444Y304478D01*
X110488Y304422D01*
X110532Y304394D01*
X110570Y304358D01*
X110635Y304328D01*
X110695Y304289D01*
X110746Y304277D01*
X110793Y304255D01*
X110864Y304247D01*
X110934Y304229D01*
X110986Y304233D01*
X111037Y304228D01*
X111108Y304243D01*
X111179Y304249D01*
X111227Y304269D01*
X111278Y304280D01*
X111339Y304317D01*
X111405Y304345D01*
X111461Y304390D01*
X111489Y304406D01*
X111504Y304424D01*
X111536Y304450D01*
X115697Y308611D01*
X123063Y308611D01*
X128271Y303403D01*
X128271Y296037D01*
X123094Y290860D01*
X123052Y290802D01*
X123002Y290750D01*
X122980Y290703D01*
X122950Y290661D01*
X122929Y290592D01*
X122899Y290527D01*
X122893Y290475D01*
X122878Y290425D01*
X122880Y290354D01*
X122872Y290283D01*
X122883Y290232D01*
X122884Y290180D01*
X122909Y290112D01*
X122924Y290042D01*
X122951Y289997D01*
X122969Y289949D01*
X123013Y289893D01*
X123050Y289831D01*
X123090Y289797D01*
X123122Y289757D01*
X123183Y289718D01*
X123237Y289671D01*
X123285Y289652D01*
X123329Y289624D01*
X123399Y289606D01*
X123465Y289579D01*
X123537Y289571D01*
X123568Y289563D01*
X123591Y289565D01*
X123632Y289561D01*
X138732Y289561D01*
X138803Y289572D01*
X138874Y289574D01*
X138923Y289592D01*
X138975Y289600D01*
X139038Y289634D01*
X139105Y289659D01*
X139146Y289691D01*
X139192Y289716D01*
X139242Y289768D01*
X139298Y289812D01*
X139326Y289856D01*
X139362Y289894D01*
X139392Y289959D01*
X139431Y290019D01*
X139443Y290070D01*
X139465Y290117D01*
X139473Y290188D01*
X139491Y290258D01*
X139487Y290310D01*
X139492Y290361D01*
X139477Y290432D01*
X139471Y290503D01*
X139451Y290551D01*
X139440Y290602D01*
X139403Y290663D01*
X139375Y290729D01*
X139330Y290785D01*
X139314Y290813D01*
X139296Y290828D01*
X139270Y290860D01*
X134619Y295511D01*
X134619Y298197D01*
X144018Y298197D01*
X144038Y298200D01*
X144057Y298198D01*
X144159Y298220D01*
X144261Y298237D01*
X144278Y298246D01*
X144298Y298250D01*
X144387Y298303D01*
X144478Y298352D01*
X144492Y298366D01*
X144509Y298376D01*
X144576Y298455D01*
X144647Y298530D01*
X144656Y298548D01*
X144669Y298563D01*
X144707Y298659D01*
X144751Y298753D01*
X144753Y298773D01*
X144761Y298791D01*
X144779Y298958D01*
X144779Y299721D01*
X144781Y299721D01*
X144781Y298958D01*
X144784Y298938D01*
X144782Y298919D01*
X144804Y298817D01*
X144821Y298715D01*
X144830Y298698D01*
X144834Y298678D01*
X144887Y298589D01*
X144936Y298498D01*
X144950Y298484D01*
X144960Y298467D01*
X145039Y298400D01*
X145114Y298329D01*
X145132Y298320D01*
X145147Y298307D01*
X145243Y298268D01*
X145337Y298225D01*
X145357Y298223D01*
X145375Y298215D01*
X145542Y298197D01*
X154941Y298197D01*
X154941Y295511D01*
X150290Y290860D01*
X150248Y290802D01*
X150198Y290750D01*
X150177Y290703D01*
X150146Y290661D01*
X150125Y290592D01*
X150095Y290527D01*
X150089Y290475D01*
X150074Y290425D01*
X150076Y290354D01*
X150068Y290283D01*
X150079Y290232D01*
X150080Y290180D01*
X150105Y290112D01*
X150120Y290042D01*
X150147Y289997D01*
X150165Y289949D01*
X150209Y289893D01*
X150246Y289831D01*
X150286Y289797D01*
X150318Y289757D01*
X150379Y289718D01*
X150433Y289671D01*
X150481Y289652D01*
X150525Y289624D01*
X150595Y289606D01*
X150661Y289579D01*
X150733Y289571D01*
X150764Y289563D01*
X150787Y289565D01*
X150828Y289561D01*
X173054Y289561D01*
X180341Y282274D01*
X180341Y180481D01*
X180355Y180391D01*
X180363Y180300D01*
X180375Y180271D01*
X180380Y180239D01*
X180423Y180158D01*
X180459Y180074D01*
X180485Y180042D01*
X180496Y180021D01*
X180519Y179999D01*
X180564Y179943D01*
X188045Y172462D01*
X188140Y172393D01*
X188234Y172324D01*
X188240Y172322D01*
X188245Y172318D01*
X188356Y172284D01*
X188468Y172247D01*
X188474Y172248D01*
X188480Y172246D01*
X188597Y172249D01*
X188714Y172250D01*
X188721Y172252D01*
X188726Y172252D01*
X188743Y172258D01*
X188875Y172297D01*
X189054Y172371D01*
X191946Y172371D01*
X194619Y171264D01*
X196664Y169219D01*
X197771Y166546D01*
X197771Y163654D01*
X196664Y160981D01*
X194619Y158936D01*
X191946Y157829D01*
X189054Y157829D01*
X186381Y158936D01*
X184336Y160981D01*
X183229Y163654D01*
X183229Y166546D01*
X184336Y169218D01*
X184399Y169281D01*
X184411Y169298D01*
X184426Y169310D01*
X184482Y169397D01*
X184543Y169481D01*
X184549Y169500D01*
X184559Y169517D01*
X184585Y169617D01*
X184615Y169716D01*
X184615Y169736D01*
X184619Y169756D01*
X184611Y169859D01*
X184609Y169962D01*
X184602Y169981D01*
X184600Y170001D01*
X184560Y170096D01*
X184524Y170193D01*
X184512Y170209D01*
X184504Y170227D01*
X184399Y170358D01*
X176275Y178482D01*
X176275Y184108D01*
X176272Y184128D01*
X176274Y184147D01*
X176252Y184249D01*
X176236Y184351D01*
X176226Y184368D01*
X176222Y184388D01*
X176169Y184477D01*
X176120Y184568D01*
X176106Y184582D01*
X176096Y184599D01*
X176017Y184666D01*
X175942Y184738D01*
X175924Y184746D01*
X175909Y184759D01*
X175813Y184798D01*
X175719Y184841D01*
X175699Y184843D01*
X175681Y184851D01*
X175514Y184869D01*
X167674Y184869D01*
X166929Y185614D01*
X166929Y204166D01*
X167674Y204911D01*
X168910Y204911D01*
X168930Y204914D01*
X168949Y204912D01*
X169051Y204934D01*
X169153Y204950D01*
X169170Y204960D01*
X169190Y204964D01*
X169279Y205017D01*
X169370Y205066D01*
X169384Y205080D01*
X169401Y205090D01*
X169468Y205169D01*
X169540Y205244D01*
X169548Y205262D01*
X169561Y205277D01*
X169600Y205373D01*
X169643Y205467D01*
X169645Y205487D01*
X169653Y205505D01*
X169671Y205672D01*
X169671Y210047D01*
X169657Y210138D01*
X169649Y210228D01*
X169637Y210258D01*
X169632Y210290D01*
X169589Y210371D01*
X169553Y210455D01*
X169527Y210487D01*
X169516Y210508D01*
X169493Y210530D01*
X169448Y210586D01*
X168655Y211379D01*
X168655Y214325D01*
X170739Y216409D01*
X173685Y216409D01*
X174976Y215118D01*
X175034Y215076D01*
X175086Y215027D01*
X175133Y215005D01*
X175175Y214975D01*
X175244Y214954D01*
X175309Y214923D01*
X175361Y214918D01*
X175411Y214902D01*
X175482Y214904D01*
X175553Y214896D01*
X175604Y214907D01*
X175656Y214909D01*
X175724Y214933D01*
X175794Y214949D01*
X175839Y214975D01*
X175887Y214993D01*
X175943Y215038D01*
X176005Y215075D01*
X176039Y215114D01*
X176079Y215147D01*
X176118Y215207D01*
X176165Y215262D01*
X176184Y215310D01*
X176212Y215354D01*
X176230Y215423D01*
X176257Y215490D01*
X176265Y215561D01*
X176273Y215592D01*
X176271Y215616D01*
X176275Y215657D01*
X176275Y256608D01*
X176272Y256628D01*
X176274Y256647D01*
X176252Y256749D01*
X176236Y256851D01*
X176226Y256868D01*
X176222Y256888D01*
X176169Y256977D01*
X176120Y257068D01*
X176106Y257082D01*
X176096Y257099D01*
X176017Y257166D01*
X175942Y257238D01*
X175924Y257246D01*
X175909Y257259D01*
X175813Y257298D01*
X175719Y257341D01*
X175699Y257343D01*
X175681Y257351D01*
X175514Y257369D01*
X167674Y257369D01*
X166929Y258114D01*
X166929Y276666D01*
X167601Y277338D01*
X167643Y277396D01*
X167692Y277448D01*
X167714Y277495D01*
X167744Y277537D01*
X167765Y277606D01*
X167796Y277671D01*
X167801Y277723D01*
X167817Y277773D01*
X167815Y277844D01*
X167823Y277915D01*
X167812Y277966D01*
X167810Y278018D01*
X167786Y278086D01*
X167770Y278156D01*
X167744Y278201D01*
X167726Y278249D01*
X167681Y278305D01*
X167644Y278367D01*
X167605Y278401D01*
X167572Y278441D01*
X167512Y278480D01*
X167457Y278527D01*
X167409Y278546D01*
X167365Y278574D01*
X167296Y278592D01*
X167229Y278619D01*
X167158Y278627D01*
X167127Y278635D01*
X167103Y278633D01*
X167062Y278637D01*
X163138Y278637D01*
X163067Y278626D01*
X162995Y278624D01*
X162946Y278606D01*
X162895Y278598D01*
X162832Y278564D01*
X162764Y278539D01*
X162724Y278507D01*
X162677Y278482D01*
X162628Y278430D01*
X162572Y278386D01*
X162544Y278342D01*
X162508Y278304D01*
X162478Y278239D01*
X162439Y278179D01*
X162426Y278128D01*
X162404Y278081D01*
X162397Y278010D01*
X162379Y277940D01*
X162383Y277888D01*
X162377Y277837D01*
X162393Y277766D01*
X162398Y277695D01*
X162419Y277647D01*
X162430Y277596D01*
X162466Y277535D01*
X162495Y277469D01*
X162539Y277413D01*
X162556Y277385D01*
X162574Y277370D01*
X162599Y277338D01*
X163271Y276666D01*
X163271Y258114D01*
X162526Y257369D01*
X161995Y257369D01*
X161924Y257358D01*
X161852Y257356D01*
X161803Y257338D01*
X161752Y257330D01*
X161688Y257296D01*
X161621Y257271D01*
X161580Y257239D01*
X161534Y257214D01*
X161485Y257162D01*
X161429Y257118D01*
X161401Y257074D01*
X161365Y257036D01*
X161335Y256971D01*
X161296Y256911D01*
X161283Y256860D01*
X161261Y256813D01*
X161253Y256742D01*
X161236Y256672D01*
X161240Y256620D01*
X161234Y256569D01*
X161250Y256498D01*
X161255Y256427D01*
X161275Y256379D01*
X161287Y256328D01*
X161323Y256267D01*
X161351Y256201D01*
X161396Y256145D01*
X161413Y256117D01*
X161431Y256102D01*
X161456Y256070D01*
X162053Y255473D01*
X162053Y252527D01*
X159969Y250443D01*
X157023Y250443D01*
X154939Y252527D01*
X154939Y255473D01*
X155536Y256070D01*
X155578Y256128D01*
X155627Y256180D01*
X155649Y256227D01*
X155679Y256269D01*
X155700Y256338D01*
X155731Y256403D01*
X155736Y256455D01*
X155752Y256505D01*
X155750Y256576D01*
X155758Y256647D01*
X155747Y256698D01*
X155745Y256750D01*
X155721Y256818D01*
X155705Y256888D01*
X155679Y256933D01*
X155661Y256981D01*
X155616Y257037D01*
X155579Y257099D01*
X155540Y257133D01*
X155507Y257173D01*
X155447Y257212D01*
X155392Y257259D01*
X155344Y257278D01*
X155300Y257306D01*
X155231Y257324D01*
X155164Y257351D01*
X155093Y257359D01*
X155062Y257367D01*
X155038Y257365D01*
X154997Y257369D01*
X154974Y257369D01*
X154229Y258114D01*
X154229Y276666D01*
X154901Y277338D01*
X154943Y277396D01*
X154992Y277448D01*
X155014Y277495D01*
X155044Y277537D01*
X155065Y277606D01*
X155096Y277671D01*
X155101Y277723D01*
X155117Y277773D01*
X155115Y277844D01*
X155123Y277915D01*
X155112Y277966D01*
X155110Y278018D01*
X155086Y278086D01*
X155070Y278156D01*
X155044Y278201D01*
X155026Y278249D01*
X154981Y278305D01*
X154944Y278367D01*
X154905Y278401D01*
X154872Y278441D01*
X154812Y278480D01*
X154757Y278527D01*
X154709Y278546D01*
X154665Y278574D01*
X154596Y278592D01*
X154529Y278619D01*
X154458Y278627D01*
X154427Y278635D01*
X154403Y278633D01*
X154362Y278637D01*
X150438Y278637D01*
X150367Y278626D01*
X150295Y278624D01*
X150246Y278606D01*
X150195Y278598D01*
X150132Y278564D01*
X150064Y278539D01*
X150024Y278507D01*
X149977Y278482D01*
X149928Y278430D01*
X149872Y278386D01*
X149844Y278342D01*
X149808Y278304D01*
X149778Y278239D01*
X149739Y278179D01*
X149726Y278128D01*
X149704Y278081D01*
X149697Y278010D01*
X149679Y277940D01*
X149683Y277888D01*
X149677Y277837D01*
X149693Y277766D01*
X149698Y277695D01*
X149719Y277647D01*
X149730Y277596D01*
X149766Y277535D01*
X149795Y277469D01*
X149839Y277413D01*
X149856Y277385D01*
X149874Y277370D01*
X149899Y277338D01*
X150571Y276666D01*
X150571Y258114D01*
X149826Y257369D01*
X149098Y257369D01*
X149078Y257366D01*
X149059Y257368D01*
X148957Y257346D01*
X148855Y257330D01*
X148838Y257320D01*
X148818Y257316D01*
X148729Y257263D01*
X148638Y257214D01*
X148624Y257200D01*
X148607Y257190D01*
X148540Y257111D01*
X148468Y257036D01*
X148460Y257018D01*
X148447Y257003D01*
X148408Y256907D01*
X148365Y256813D01*
X148363Y256793D01*
X148355Y256775D01*
X148337Y256608D01*
X148337Y253158D01*
X144098Y248919D01*
X122950Y248919D01*
X122880Y248908D01*
X122808Y248906D01*
X122759Y248888D01*
X122708Y248880D01*
X122644Y248846D01*
X122577Y248821D01*
X122536Y248789D01*
X122490Y248764D01*
X122441Y248712D01*
X122385Y248668D01*
X122357Y248624D01*
X122321Y248586D01*
X122291Y248521D01*
X122252Y248461D01*
X122239Y248410D01*
X122217Y248363D01*
X122209Y248292D01*
X122192Y248222D01*
X122196Y248170D01*
X122190Y248119D01*
X122205Y248048D01*
X122211Y247977D01*
X122231Y247929D01*
X122242Y247878D01*
X122279Y247817D01*
X122307Y247751D01*
X122352Y247695D01*
X122368Y247667D01*
X122386Y247652D01*
X122412Y247620D01*
X148337Y221695D01*
X148337Y205672D01*
X148340Y205652D01*
X148338Y205633D01*
X148360Y205531D01*
X148376Y205429D01*
X148386Y205412D01*
X148390Y205392D01*
X148443Y205303D01*
X148492Y205212D01*
X148506Y205198D01*
X148516Y205181D01*
X148595Y205114D01*
X148670Y205042D01*
X148688Y205034D01*
X148703Y205021D01*
X148799Y204982D01*
X148893Y204939D01*
X148913Y204937D01*
X148931Y204929D01*
X149098Y204911D01*
X149826Y204911D01*
X150571Y204166D01*
X150571Y185614D01*
X149826Y184869D01*
X143002Y184869D01*
X142982Y184866D01*
X142963Y184868D01*
X142861Y184846D01*
X142759Y184830D01*
X142742Y184820D01*
X142722Y184816D01*
X142633Y184763D01*
X142542Y184714D01*
X142528Y184700D01*
X142511Y184690D01*
X142444Y184611D01*
X142372Y184536D01*
X142364Y184518D01*
X142351Y184503D01*
X142312Y184407D01*
X142269Y184313D01*
X142267Y184293D01*
X142259Y184275D01*
X142241Y184108D01*
X142241Y184037D01*
X142255Y183947D01*
X142263Y183856D01*
X142275Y183827D01*
X142280Y183795D01*
X142323Y183714D01*
X142359Y183630D01*
X142385Y183598D01*
X142396Y183577D01*
X142419Y183555D01*
X142464Y183499D01*
X182889Y143074D01*
X182926Y143047D01*
X182957Y143014D01*
X183025Y142976D01*
X183088Y142931D01*
X183132Y142917D01*
X183172Y142895D01*
X183249Y142881D01*
X183323Y142858D01*
X183369Y142859D01*
X183414Y142851D01*
X183491Y142863D01*
X183569Y142865D01*
X183612Y142880D01*
X183658Y142887D01*
X183727Y142922D01*
X183800Y142949D01*
X183836Y142978D01*
X183877Y142999D01*
X183931Y143054D01*
X183992Y143103D01*
X184017Y143141D01*
X184049Y143174D01*
X184115Y143294D01*
X184125Y143310D01*
X184127Y143315D01*
X184130Y143321D01*
X184336Y143819D01*
X186381Y145864D01*
X189054Y146971D01*
X191946Y146971D01*
X194619Y145864D01*
X196664Y143819D01*
X197771Y141146D01*
X197771Y138254D01*
X196664Y135581D01*
X194619Y133536D01*
X191946Y132429D01*
X189054Y132429D01*
X186381Y133536D01*
X184336Y135581D01*
X183456Y137705D01*
X183395Y137805D01*
X183335Y137905D01*
X183330Y137909D01*
X183327Y137914D01*
X183236Y137989D01*
X183148Y138065D01*
X183142Y138067D01*
X183137Y138071D01*
X183029Y138113D01*
X182920Y138157D01*
X182912Y138158D01*
X182908Y138159D01*
X182889Y138160D01*
X182753Y138175D01*
X182038Y138175D01*
X138175Y182038D01*
X138175Y184108D01*
X138172Y184128D01*
X138174Y184147D01*
X138152Y184249D01*
X138136Y184351D01*
X138126Y184368D01*
X138122Y184388D01*
X138069Y184477D01*
X138020Y184568D01*
X138006Y184582D01*
X137996Y184599D01*
X137917Y184666D01*
X137842Y184738D01*
X137824Y184746D01*
X137809Y184759D01*
X137713Y184798D01*
X137619Y184841D01*
X137599Y184843D01*
X137581Y184851D01*
X137414Y184869D01*
X129499Y184869D01*
X129498Y184870D01*
X129397Y184895D01*
X129298Y184926D01*
X129278Y184925D01*
X129259Y184930D01*
X129156Y184922D01*
X129053Y184919D01*
X129034Y184913D01*
X129014Y184911D01*
X128919Y184871D01*
X128822Y184835D01*
X128806Y184822D01*
X128788Y184815D01*
X128657Y184710D01*
X121128Y177181D01*
X119714Y175767D01*
X110885Y175767D01*
X110795Y175753D01*
X110704Y175745D01*
X110675Y175733D01*
X110643Y175728D01*
X110562Y175685D01*
X110478Y175649D01*
X110446Y175623D01*
X110425Y175612D01*
X110403Y175589D01*
X110347Y175544D01*
X103997Y169194D01*
X103985Y169178D01*
X103970Y169166D01*
X103914Y169078D01*
X103853Y168995D01*
X103848Y168976D01*
X103837Y168959D01*
X103812Y168858D01*
X103781Y168759D01*
X103782Y168740D01*
X103777Y168720D01*
X103785Y168617D01*
X103787Y168514D01*
X103794Y168495D01*
X103796Y168475D01*
X103836Y168380D01*
X103872Y168283D01*
X103884Y168267D01*
X103892Y168249D01*
X103997Y168118D01*
X104141Y167974D01*
X104141Y81929D01*
X104155Y81839D01*
X104163Y81748D01*
X104175Y81719D01*
X104180Y81687D01*
X104223Y81606D01*
X104259Y81522D01*
X104285Y81490D01*
X104296Y81469D01*
X104319Y81447D01*
X104364Y81391D01*
X114761Y70994D01*
X114835Y70941D01*
X114904Y70881D01*
X114935Y70869D01*
X114961Y70850D01*
X115048Y70823D01*
X115133Y70789D01*
X115174Y70785D01*
X115196Y70778D01*
X115228Y70779D01*
X115299Y70771D01*
X115746Y70771D01*
X118419Y69664D01*
X120464Y67619D01*
X121571Y64946D01*
X121571Y62054D01*
X120464Y59381D01*
X118419Y57336D01*
X115746Y56229D01*
X112854Y56229D01*
G37*
%LPD*%
%LPC*%
G36*
X87454Y56229D02*
X87454Y56229D01*
X84781Y57336D01*
X82736Y59381D01*
X81629Y62054D01*
X81629Y64946D01*
X81703Y65125D01*
X81730Y65239D01*
X81759Y65352D01*
X81758Y65359D01*
X81760Y65365D01*
X81749Y65481D01*
X81740Y65598D01*
X81737Y65603D01*
X81736Y65610D01*
X81689Y65717D01*
X81643Y65824D01*
X81639Y65830D01*
X81636Y65834D01*
X81624Y65848D01*
X81538Y65955D01*
X39005Y108488D01*
X38931Y108541D01*
X38862Y108601D01*
X38831Y108613D01*
X38805Y108632D01*
X38718Y108659D01*
X38633Y108693D01*
X38592Y108697D01*
X38570Y108704D01*
X38538Y108703D01*
X38467Y108711D01*
X27697Y108711D01*
X27606Y108697D01*
X27516Y108689D01*
X27486Y108677D01*
X27454Y108672D01*
X27373Y108629D01*
X27289Y108593D01*
X27257Y108567D01*
X27236Y108556D01*
X27214Y108533D01*
X27158Y108488D01*
X25857Y107187D01*
X22911Y107187D01*
X20827Y109271D01*
X20827Y111095D01*
X20812Y111191D01*
X20802Y111288D01*
X20792Y111312D01*
X20788Y111337D01*
X20742Y111423D01*
X20702Y111512D01*
X20685Y111532D01*
X20672Y111555D01*
X20602Y111622D01*
X20536Y111693D01*
X20513Y111706D01*
X20494Y111724D01*
X20406Y111765D01*
X20320Y111812D01*
X20295Y111817D01*
X20271Y111828D01*
X20174Y111838D01*
X20078Y111856D01*
X20052Y111852D01*
X20027Y111855D01*
X19931Y111834D01*
X19835Y111820D01*
X19812Y111808D01*
X19786Y111803D01*
X19703Y111753D01*
X19616Y111708D01*
X19597Y111690D01*
X19575Y111676D01*
X19512Y111602D01*
X19444Y111533D01*
X19428Y111504D01*
X19415Y111489D01*
X19403Y111459D01*
X19363Y111386D01*
X18864Y110181D01*
X16819Y108136D01*
X14146Y107029D01*
X11254Y107029D01*
X8581Y108136D01*
X6536Y110181D01*
X5429Y112854D01*
X5429Y115746D01*
X6536Y118419D01*
X8581Y120464D01*
X11254Y121571D01*
X14146Y121571D01*
X16819Y120464D01*
X18864Y118419D01*
X19112Y117819D01*
X19174Y117719D01*
X19234Y117619D01*
X19239Y117615D01*
X19242Y117610D01*
X19332Y117535D01*
X19421Y117459D01*
X19427Y117457D01*
X19431Y117453D01*
X19540Y117411D01*
X19649Y117367D01*
X19656Y117366D01*
X19661Y117365D01*
X19679Y117364D01*
X19816Y117349D01*
X20183Y117349D01*
X20273Y117363D01*
X20364Y117370D01*
X20394Y117383D01*
X20426Y117388D01*
X20506Y117431D01*
X20590Y117466D01*
X20623Y117493D01*
X20644Y117504D01*
X20666Y117527D01*
X20721Y117571D01*
X79739Y176472D01*
X79750Y176489D01*
X79766Y176501D01*
X79797Y176549D01*
X79810Y176562D01*
X79820Y176585D01*
X79822Y176588D01*
X79882Y176672D01*
X79888Y176691D01*
X79899Y176708D01*
X79924Y176808D01*
X79955Y176907D01*
X79954Y176927D01*
X79959Y176947D01*
X79951Y177050D01*
X79949Y177153D01*
X79942Y177172D01*
X79940Y177192D01*
X79900Y177287D01*
X79865Y177384D01*
X79852Y177400D01*
X79844Y177418D01*
X79739Y177549D01*
X79057Y178232D01*
X79057Y181178D01*
X81140Y183262D01*
X84018Y183262D01*
X84089Y183273D01*
X84161Y183275D01*
X84209Y183293D01*
X84261Y183301D01*
X84261Y183302D01*
X84266Y183238D01*
X84277Y183214D01*
X84280Y183188D01*
X84325Y183101D01*
X84363Y183012D01*
X84383Y182987D01*
X84392Y182969D01*
X84416Y182946D01*
X84467Y182881D01*
X86170Y181178D01*
X86170Y178232D01*
X84869Y176931D01*
X84816Y176857D01*
X84757Y176787D01*
X84744Y176757D01*
X84726Y176731D01*
X84699Y176644D01*
X84665Y176559D01*
X84660Y176518D01*
X84653Y176496D01*
X84654Y176464D01*
X84646Y176392D01*
X84646Y175626D01*
X84060Y175041D01*
X84059Y175041D01*
X83240Y174221D01*
X83231Y174214D01*
X64204Y155225D01*
X64162Y155166D01*
X64113Y155114D01*
X64091Y155067D01*
X64061Y155025D01*
X64039Y154956D01*
X64009Y154891D01*
X64003Y154840D01*
X63988Y154790D01*
X63990Y154718D01*
X63982Y154647D01*
X63993Y154596D01*
X63994Y154544D01*
X64019Y154477D01*
X64034Y154406D01*
X64061Y154362D01*
X64078Y154313D01*
X64123Y154257D01*
X64160Y154195D01*
X64199Y154161D01*
X64232Y154121D01*
X64292Y154082D01*
X64347Y154035D01*
X64395Y154016D01*
X64439Y153988D01*
X64508Y153970D01*
X64575Y153943D01*
X64646Y153935D01*
X64677Y153928D01*
X64701Y153929D01*
X64742Y153925D01*
X65481Y153925D01*
X67565Y151841D01*
X67565Y148590D01*
X67568Y148570D01*
X67566Y148551D01*
X67588Y148449D01*
X67604Y148347D01*
X67614Y148330D01*
X67618Y148310D01*
X67671Y148221D01*
X67720Y148130D01*
X67734Y148116D01*
X67744Y148099D01*
X67823Y148032D01*
X67898Y147960D01*
X67916Y147952D01*
X67931Y147939D01*
X68027Y147900D01*
X68121Y147857D01*
X68141Y147855D01*
X68159Y147847D01*
X68326Y147829D01*
X70217Y147829D01*
X70307Y147843D01*
X70398Y147851D01*
X70427Y147863D01*
X70459Y147868D01*
X70540Y147911D01*
X70624Y147947D01*
X70656Y147973D01*
X70677Y147984D01*
X70699Y148007D01*
X70755Y148052D01*
X75104Y152401D01*
X78983Y152401D01*
X79074Y152415D01*
X79164Y152423D01*
X79194Y152435D01*
X79226Y152440D01*
X79307Y152483D01*
X79391Y152519D01*
X79423Y152545D01*
X79444Y152556D01*
X79466Y152579D01*
X79522Y152624D01*
X80823Y153925D01*
X83769Y153925D01*
X85853Y151841D01*
X85853Y148895D01*
X84142Y147184D01*
X84086Y147105D01*
X84023Y147030D01*
X84014Y147006D01*
X83999Y146985D01*
X83970Y146892D01*
X83938Y146807D01*
X83932Y146807D01*
X83891Y146811D01*
X80823Y146811D01*
X79522Y148112D01*
X79448Y148165D01*
X79378Y148225D01*
X79348Y148237D01*
X79322Y148256D01*
X79235Y148283D01*
X79150Y148317D01*
X79109Y148321D01*
X79087Y148328D01*
X79055Y148327D01*
X78983Y148335D01*
X77103Y148335D01*
X77013Y148321D01*
X76922Y148313D01*
X76893Y148301D01*
X76861Y148296D01*
X76780Y148253D01*
X76696Y148217D01*
X76664Y148191D01*
X76643Y148180D01*
X76621Y148157D01*
X76565Y148112D01*
X73884Y145431D01*
X73831Y145357D01*
X73771Y145288D01*
X73759Y145257D01*
X73740Y145231D01*
X73713Y145144D01*
X73679Y145059D01*
X73675Y145018D01*
X73668Y144996D01*
X73669Y144964D01*
X73661Y144893D01*
X73661Y142799D01*
X73071Y142209D01*
X73059Y142192D01*
X73043Y142180D01*
X72987Y142093D01*
X72927Y142009D01*
X72921Y141990D01*
X72910Y141973D01*
X72885Y141873D01*
X72855Y141774D01*
X72855Y141754D01*
X72850Y141735D01*
X72858Y141632D01*
X72861Y141528D01*
X72868Y141509D01*
X72870Y141489D01*
X72910Y141395D01*
X72946Y141297D01*
X72958Y141281D01*
X72966Y141263D01*
X73071Y141132D01*
X90535Y123668D01*
X91949Y122254D01*
X91949Y121416D01*
X91952Y121397D01*
X91950Y121380D01*
X91969Y121292D01*
X91985Y121185D01*
X91987Y121179D01*
X91988Y121173D01*
X91999Y121153D01*
X92002Y121139D01*
X92039Y121077D01*
X92043Y121070D01*
X92096Y120965D01*
X92101Y120961D01*
X92104Y120955D01*
X92123Y120937D01*
X92128Y120928D01*
X92171Y120892D01*
X92189Y120875D01*
X92272Y120793D01*
X92278Y120790D01*
X92282Y120786D01*
X92299Y120778D01*
X92311Y120771D01*
X92315Y120768D01*
X92323Y120765D01*
X92419Y120712D01*
X93019Y120464D01*
X95064Y118419D01*
X96171Y115746D01*
X96171Y112854D01*
X95064Y110181D01*
X93019Y108136D01*
X90346Y107029D01*
X87454Y107029D01*
X84781Y108136D01*
X82736Y110181D01*
X81629Y112854D01*
X81629Y115746D01*
X82736Y118419D01*
X84781Y120464D01*
X85997Y120967D01*
X86036Y120992D01*
X86079Y121007D01*
X86140Y121056D01*
X86206Y121097D01*
X86236Y121132D01*
X86271Y121161D01*
X86314Y121227D01*
X86363Y121287D01*
X86380Y121329D01*
X86404Y121368D01*
X86423Y121443D01*
X86451Y121516D01*
X86453Y121562D01*
X86465Y121607D01*
X86458Y121684D01*
X86462Y121762D01*
X86449Y121806D01*
X86445Y121852D01*
X86415Y121923D01*
X86393Y121998D01*
X86367Y122036D01*
X86349Y122078D01*
X86264Y122185D01*
X86253Y122200D01*
X86249Y122203D01*
X86244Y122209D01*
X68071Y140382D01*
X68071Y140959D01*
X68057Y141050D01*
X68049Y141140D01*
X68037Y141170D01*
X68032Y141202D01*
X67989Y141283D01*
X67953Y141367D01*
X67927Y141399D01*
X67916Y141420D01*
X67893Y141442D01*
X67848Y141498D01*
X66547Y142799D01*
X66547Y146050D01*
X66544Y146070D01*
X66546Y146089D01*
X66524Y146191D01*
X66508Y146293D01*
X66498Y146310D01*
X66494Y146330D01*
X66441Y146419D01*
X66392Y146510D01*
X66378Y146524D01*
X66368Y146541D01*
X66289Y146608D01*
X66214Y146680D01*
X66196Y146688D01*
X66181Y146701D01*
X66085Y146740D01*
X65991Y146783D01*
X65971Y146785D01*
X65953Y146793D01*
X65786Y146811D01*
X63641Y146811D01*
X63551Y146797D01*
X63460Y146789D01*
X63431Y146777D01*
X63399Y146772D01*
X63318Y146729D01*
X63234Y146693D01*
X63202Y146667D01*
X63181Y146656D01*
X63159Y146633D01*
X63103Y146588D01*
X57120Y140605D01*
X57067Y140531D01*
X57007Y140462D01*
X56995Y140431D01*
X56976Y140405D01*
X56949Y140318D01*
X56915Y140233D01*
X56911Y140192D01*
X56904Y140170D01*
X56905Y140138D01*
X56897Y140067D01*
X56897Y138227D01*
X54813Y136143D01*
X51867Y136143D01*
X49783Y138227D01*
X49783Y138997D01*
X49772Y139067D01*
X49770Y139139D01*
X49752Y139188D01*
X49744Y139240D01*
X49710Y139303D01*
X49686Y139370D01*
X49653Y139411D01*
X49628Y139457D01*
X49577Y139506D01*
X49532Y139562D01*
X49488Y139590D01*
X49450Y139626D01*
X49385Y139657D01*
X49325Y139695D01*
X49275Y139708D01*
X49227Y139730D01*
X49156Y139738D01*
X49087Y139755D01*
X49035Y139751D01*
X48983Y139757D01*
X48913Y139742D01*
X48842Y139737D01*
X48793Y139716D01*
X48742Y139705D01*
X48681Y139668D01*
X48615Y139640D01*
X48559Y139595D01*
X48531Y139579D01*
X48516Y139561D01*
X48484Y139536D01*
X24502Y115601D01*
X24460Y115542D01*
X24410Y115490D01*
X24388Y115443D01*
X24358Y115401D01*
X24337Y115332D01*
X24307Y115267D01*
X24301Y115216D01*
X24286Y115166D01*
X24287Y115094D01*
X24280Y115023D01*
X24291Y114972D01*
X24292Y114920D01*
X24316Y114853D01*
X24332Y114782D01*
X24358Y114738D01*
X24376Y114689D01*
X24421Y114633D01*
X24458Y114571D01*
X24497Y114537D01*
X24530Y114497D01*
X24590Y114458D01*
X24645Y114411D01*
X24693Y114392D01*
X24736Y114364D01*
X24806Y114346D01*
X24873Y114319D01*
X24944Y114311D01*
X24975Y114304D01*
X24998Y114305D01*
X25040Y114301D01*
X25857Y114301D01*
X27158Y113000D01*
X27232Y112947D01*
X27302Y112887D01*
X27332Y112875D01*
X27358Y112856D01*
X27445Y112829D01*
X27530Y112795D01*
X27571Y112791D01*
X27593Y112784D01*
X27625Y112785D01*
X27697Y112777D01*
X40466Y112777D01*
X83642Y69601D01*
X83658Y69589D01*
X83671Y69574D01*
X83758Y69518D01*
X83842Y69457D01*
X83861Y69451D01*
X83877Y69441D01*
X83978Y69415D01*
X84077Y69385D01*
X84097Y69385D01*
X84116Y69381D01*
X84219Y69389D01*
X84323Y69391D01*
X84341Y69398D01*
X84361Y69400D01*
X84456Y69440D01*
X84554Y69476D01*
X84569Y69488D01*
X84588Y69496D01*
X84719Y69601D01*
X84782Y69664D01*
X87454Y70771D01*
X90346Y70771D01*
X93019Y69664D01*
X95064Y67619D01*
X96171Y64946D01*
X96171Y62054D01*
X95064Y59381D01*
X93019Y57336D01*
X90346Y56229D01*
X87454Y56229D01*
G37*
%LPD*%
G36*
X142189Y252999D02*
X142189Y252999D01*
X142280Y253007D01*
X142309Y253019D01*
X142341Y253024D01*
X142422Y253067D01*
X142506Y253103D01*
X142538Y253129D01*
X142559Y253140D01*
X142581Y253163D01*
X142637Y253208D01*
X144048Y254619D01*
X144101Y254693D01*
X144161Y254762D01*
X144173Y254793D01*
X144192Y254819D01*
X144219Y254906D01*
X144253Y254991D01*
X144257Y255032D01*
X144264Y255054D01*
X144263Y255086D01*
X144271Y255157D01*
X144271Y256608D01*
X144268Y256628D01*
X144270Y256647D01*
X144248Y256749D01*
X144232Y256851D01*
X144222Y256868D01*
X144218Y256888D01*
X144165Y256977D01*
X144116Y257068D01*
X144102Y257082D01*
X144092Y257099D01*
X144013Y257166D01*
X143938Y257238D01*
X143920Y257246D01*
X143905Y257259D01*
X143809Y257298D01*
X143715Y257341D01*
X143695Y257343D01*
X143677Y257351D01*
X143510Y257369D01*
X142274Y257369D01*
X141529Y258114D01*
X141529Y276666D01*
X142201Y277338D01*
X142243Y277396D01*
X142292Y277448D01*
X142314Y277495D01*
X142344Y277537D01*
X142365Y277606D01*
X142396Y277671D01*
X142401Y277723D01*
X142417Y277773D01*
X142415Y277844D01*
X142423Y277915D01*
X142412Y277966D01*
X142410Y278018D01*
X142386Y278086D01*
X142370Y278156D01*
X142344Y278201D01*
X142326Y278249D01*
X142281Y278305D01*
X142244Y278367D01*
X142205Y278401D01*
X142172Y278441D01*
X142112Y278480D01*
X142057Y278527D01*
X142009Y278546D01*
X141965Y278574D01*
X141896Y278592D01*
X141829Y278619D01*
X141758Y278627D01*
X141727Y278635D01*
X141703Y278633D01*
X141662Y278637D01*
X139410Y278637D01*
X139316Y278622D01*
X139221Y278613D01*
X139196Y278602D01*
X139168Y278598D01*
X139084Y278553D01*
X138996Y278515D01*
X138975Y278496D01*
X138950Y278482D01*
X138885Y278413D01*
X138814Y278349D01*
X138800Y278325D01*
X138781Y278304D01*
X138741Y278218D01*
X138694Y278134D01*
X138689Y278107D01*
X138677Y278081D01*
X138667Y277986D01*
X138649Y277893D01*
X138653Y277865D01*
X138650Y277837D01*
X138670Y277743D01*
X138684Y277649D01*
X138698Y277617D01*
X138703Y277596D01*
X138719Y277568D01*
X138751Y277495D01*
X138968Y277121D01*
X139141Y276474D01*
X139141Y268913D01*
X134112Y268913D01*
X134092Y268910D01*
X134073Y268912D01*
X133971Y268890D01*
X133869Y268873D01*
X133852Y268864D01*
X133832Y268860D01*
X133743Y268807D01*
X133652Y268758D01*
X133638Y268744D01*
X133621Y268734D01*
X133554Y268655D01*
X133483Y268580D01*
X133474Y268562D01*
X133461Y268547D01*
X133422Y268451D01*
X133379Y268357D01*
X133377Y268337D01*
X133369Y268319D01*
X133351Y268152D01*
X133351Y267389D01*
X133349Y267389D01*
X133349Y268152D01*
X133346Y268172D01*
X133348Y268191D01*
X133326Y268293D01*
X133309Y268395D01*
X133300Y268412D01*
X133296Y268432D01*
X133243Y268521D01*
X133194Y268612D01*
X133180Y268626D01*
X133170Y268643D01*
X133091Y268710D01*
X133016Y268781D01*
X132998Y268790D01*
X132983Y268803D01*
X132887Y268842D01*
X132793Y268885D01*
X132773Y268887D01*
X132755Y268895D01*
X132588Y268913D01*
X127559Y268913D01*
X127559Y276474D01*
X127732Y277121D01*
X127949Y277495D01*
X127982Y277585D01*
X128023Y277671D01*
X128026Y277699D01*
X128036Y277725D01*
X128039Y277821D01*
X128050Y277915D01*
X128044Y277943D01*
X128045Y277971D01*
X128018Y278063D01*
X127997Y278156D01*
X127983Y278180D01*
X127975Y278207D01*
X127920Y278285D01*
X127871Y278367D01*
X127850Y278385D01*
X127834Y278408D01*
X127757Y278465D01*
X127684Y278527D01*
X127658Y278537D01*
X127635Y278554D01*
X127545Y278583D01*
X127456Y278619D01*
X127421Y278623D01*
X127401Y278629D01*
X127368Y278629D01*
X127290Y278637D01*
X112696Y278637D01*
X99622Y291712D01*
X99605Y291723D01*
X99593Y291739D01*
X99506Y291795D01*
X99422Y291855D01*
X99403Y291861D01*
X99386Y291872D01*
X99286Y291897D01*
X99187Y291928D01*
X99167Y291927D01*
X99148Y291932D01*
X99045Y291924D01*
X98941Y291921D01*
X98922Y291914D01*
X98902Y291913D01*
X98807Y291872D01*
X98710Y291837D01*
X98694Y291824D01*
X98676Y291816D01*
X98545Y291712D01*
X97663Y290829D01*
X90297Y290829D01*
X85089Y296037D01*
X85089Y303403D01*
X90297Y308611D01*
X97663Y308611D01*
X102871Y303403D01*
X102871Y296037D01*
X102496Y295663D01*
X102485Y295647D01*
X102469Y295634D01*
X102413Y295547D01*
X102353Y295463D01*
X102347Y295444D01*
X102336Y295427D01*
X102311Y295327D01*
X102280Y295228D01*
X102281Y295208D01*
X102276Y295189D01*
X102284Y295086D01*
X102287Y294982D01*
X102294Y294963D01*
X102295Y294944D01*
X102336Y294849D01*
X102371Y294751D01*
X102384Y294736D01*
X102392Y294717D01*
X102496Y294586D01*
X114157Y282926D01*
X114231Y282873D01*
X114300Y282813D01*
X114331Y282801D01*
X114357Y282782D01*
X114444Y282755D01*
X114529Y282721D01*
X114570Y282717D01*
X114592Y282710D01*
X114624Y282711D01*
X114695Y282703D01*
X170768Y282703D01*
X172721Y280750D01*
X172721Y278172D01*
X172724Y278152D01*
X172722Y278133D01*
X172744Y278031D01*
X172760Y277929D01*
X172770Y277912D01*
X172774Y277892D01*
X172827Y277803D01*
X172876Y277712D01*
X172890Y277698D01*
X172900Y277681D01*
X172979Y277614D01*
X173054Y277542D01*
X173072Y277534D01*
X173087Y277521D01*
X173183Y277482D01*
X173277Y277439D01*
X173297Y277437D01*
X173315Y277429D01*
X173482Y277411D01*
X175514Y277411D01*
X175534Y277414D01*
X175553Y277412D01*
X175655Y277434D01*
X175757Y277450D01*
X175774Y277460D01*
X175794Y277464D01*
X175883Y277517D01*
X175974Y277566D01*
X175988Y277580D01*
X176005Y277590D01*
X176072Y277669D01*
X176144Y277744D01*
X176152Y277762D01*
X176165Y277777D01*
X176204Y277873D01*
X176247Y277967D01*
X176249Y277987D01*
X176257Y278005D01*
X176275Y278172D01*
X176275Y280275D01*
X176261Y280365D01*
X176253Y280456D01*
X176241Y280485D01*
X176236Y280517D01*
X176193Y280598D01*
X176157Y280682D01*
X176131Y280714D01*
X176120Y280735D01*
X176097Y280757D01*
X176052Y280813D01*
X171593Y285272D01*
X171519Y285325D01*
X171450Y285385D01*
X171419Y285397D01*
X171393Y285416D01*
X171306Y285443D01*
X171221Y285477D01*
X171180Y285481D01*
X171158Y285488D01*
X171126Y285487D01*
X171055Y285495D01*
X116506Y285495D01*
X106171Y295830D01*
X106171Y304913D01*
X106170Y304919D01*
X106170Y304920D01*
X106170Y304922D01*
X106157Y305003D01*
X106149Y305094D01*
X106137Y305123D01*
X106132Y305155D01*
X106089Y305236D01*
X106053Y305320D01*
X106027Y305352D01*
X106016Y305373D01*
X105993Y305395D01*
X105948Y305451D01*
X100219Y311180D01*
X100145Y311233D01*
X100076Y311293D01*
X100045Y311305D01*
X100019Y311324D01*
X99932Y311351D01*
X99847Y311385D01*
X99806Y311389D01*
X99784Y311396D01*
X99752Y311395D01*
X99681Y311403D01*
X80024Y311403D01*
X79954Y311392D01*
X79882Y311390D01*
X79833Y311372D01*
X79782Y311364D01*
X79718Y311330D01*
X79651Y311305D01*
X79610Y311273D01*
X79564Y311248D01*
X79515Y311196D01*
X79459Y311152D01*
X79431Y311108D01*
X79395Y311070D01*
X79365Y311005D01*
X79326Y310945D01*
X79313Y310894D01*
X79291Y310847D01*
X79283Y310776D01*
X79266Y310706D01*
X79270Y310654D01*
X79264Y310603D01*
X79279Y310532D01*
X79285Y310461D01*
X79305Y310413D01*
X79316Y310362D01*
X79353Y310301D01*
X79381Y310235D01*
X79426Y310179D01*
X79442Y310151D01*
X79460Y310136D01*
X79486Y310104D01*
X82741Y306849D01*
X82741Y294845D01*
X82756Y294755D01*
X82763Y294664D01*
X82776Y294634D01*
X82781Y294602D01*
X82824Y294521D01*
X82859Y294438D01*
X82885Y294405D01*
X82896Y294385D01*
X82919Y294363D01*
X82964Y294307D01*
X124063Y253208D01*
X124137Y253155D01*
X124206Y253095D01*
X124237Y253083D01*
X124263Y253064D01*
X124350Y253037D01*
X124435Y253003D01*
X124476Y252999D01*
X124498Y252992D01*
X124530Y252993D01*
X124601Y252985D01*
X142099Y252985D01*
X142189Y252999D01*
G37*
%LPC*%
G36*
X160910Y315393D02*
X160910Y315393D01*
X160165Y316138D01*
X160165Y320802D01*
X160162Y320822D01*
X160164Y320841D01*
X160142Y320943D01*
X160126Y321045D01*
X160116Y321062D01*
X160112Y321082D01*
X160059Y321171D01*
X160010Y321262D01*
X159996Y321276D01*
X159986Y321293D01*
X159907Y321360D01*
X159832Y321432D01*
X159814Y321440D01*
X159799Y321453D01*
X159703Y321492D01*
X159609Y321535D01*
X159589Y321537D01*
X159571Y321545D01*
X159404Y321563D01*
X154112Y321563D01*
X154022Y321549D01*
X153931Y321541D01*
X153901Y321529D01*
X153869Y321524D01*
X153789Y321481D01*
X153705Y321445D01*
X153673Y321419D01*
X153652Y321408D01*
X153630Y321385D01*
X153574Y321340D01*
X148463Y316229D01*
X141097Y316229D01*
X135889Y321437D01*
X135889Y328803D01*
X141097Y334011D01*
X148463Y334011D01*
X153671Y328803D01*
X153671Y327406D01*
X153674Y327386D01*
X153672Y327367D01*
X153694Y327265D01*
X153710Y327163D01*
X153720Y327146D01*
X153724Y327126D01*
X153777Y327037D01*
X153826Y326946D01*
X153840Y326932D01*
X153850Y326915D01*
X153929Y326848D01*
X154004Y326776D01*
X154022Y326768D01*
X154037Y326755D01*
X154133Y326716D01*
X154227Y326673D01*
X154247Y326671D01*
X154265Y326663D01*
X154432Y326645D01*
X159404Y326645D01*
X159424Y326648D01*
X159444Y326646D01*
X159545Y326668D01*
X159647Y326684D01*
X159664Y326694D01*
X159684Y326698D01*
X159773Y326751D01*
X159864Y326800D01*
X159878Y326814D01*
X159895Y326824D01*
X159962Y326903D01*
X160034Y326978D01*
X160042Y326996D01*
X160055Y327011D01*
X160094Y327107D01*
X160137Y327201D01*
X160139Y327221D01*
X160147Y327239D01*
X160165Y327406D01*
X160165Y330190D01*
X160910Y330935D01*
X177962Y330935D01*
X178707Y330190D01*
X178707Y327406D01*
X178710Y327386D01*
X178708Y327367D01*
X178730Y327265D01*
X178747Y327163D01*
X178756Y327146D01*
X178760Y327126D01*
X178813Y327037D01*
X178862Y326946D01*
X178876Y326932D01*
X178886Y326915D01*
X178965Y326848D01*
X179040Y326776D01*
X179058Y326768D01*
X179073Y326755D01*
X179169Y326716D01*
X179263Y326673D01*
X179283Y326671D01*
X179301Y326663D01*
X179468Y326645D01*
X179724Y326645D01*
X179744Y326648D01*
X179764Y326646D01*
X179865Y326668D01*
X179967Y326684D01*
X179984Y326694D01*
X180004Y326698D01*
X180093Y326751D01*
X180184Y326800D01*
X180198Y326814D01*
X180215Y326824D01*
X180282Y326903D01*
X180354Y326978D01*
X180362Y326996D01*
X180375Y327011D01*
X180414Y327107D01*
X180457Y327201D01*
X180459Y327221D01*
X180467Y327239D01*
X180485Y327406D01*
X180485Y330190D01*
X181230Y330935D01*
X198282Y330935D01*
X199027Y330190D01*
X199027Y316138D01*
X198282Y315393D01*
X181230Y315393D01*
X180485Y316138D01*
X180485Y320802D01*
X180482Y320822D01*
X180484Y320841D01*
X180462Y320943D01*
X180446Y321045D01*
X180436Y321062D01*
X180432Y321082D01*
X180379Y321171D01*
X180330Y321262D01*
X180316Y321276D01*
X180306Y321293D01*
X180227Y321360D01*
X180152Y321432D01*
X180134Y321440D01*
X180119Y321453D01*
X180023Y321492D01*
X179929Y321535D01*
X179909Y321537D01*
X179891Y321545D01*
X179724Y321563D01*
X179468Y321563D01*
X179448Y321560D01*
X179429Y321562D01*
X179327Y321540D01*
X179225Y321524D01*
X179208Y321514D01*
X179188Y321510D01*
X179099Y321457D01*
X179008Y321408D01*
X178994Y321394D01*
X178977Y321384D01*
X178910Y321305D01*
X178839Y321230D01*
X178830Y321212D01*
X178817Y321197D01*
X178778Y321101D01*
X178735Y321007D01*
X178733Y320987D01*
X178725Y320969D01*
X178707Y320802D01*
X178707Y316138D01*
X177962Y315393D01*
X160910Y315393D01*
G37*
%LPD*%
%LPC*%
G36*
X107362Y49275D02*
X107362Y49275D01*
X100075Y56562D01*
X100075Y66915D01*
X100061Y67005D01*
X100053Y67096D01*
X100041Y67125D01*
X100036Y67157D01*
X99993Y67238D01*
X99957Y67322D01*
X99931Y67354D01*
X99920Y67375D01*
X99897Y67397D01*
X99852Y67453D01*
X93869Y73436D01*
X93795Y73489D01*
X93726Y73549D01*
X93695Y73561D01*
X93669Y73580D01*
X93582Y73607D01*
X93497Y73641D01*
X93456Y73645D01*
X93434Y73652D01*
X93402Y73651D01*
X93331Y73659D01*
X82978Y73659D01*
X70992Y85645D01*
X70992Y90794D01*
X70978Y90885D01*
X70970Y90975D01*
X70958Y91005D01*
X70953Y91037D01*
X70910Y91118D01*
X70874Y91202D01*
X70848Y91234D01*
X70837Y91255D01*
X70814Y91277D01*
X70769Y91333D01*
X69468Y92634D01*
X69468Y95580D01*
X71552Y97664D01*
X74498Y97664D01*
X76582Y95580D01*
X76582Y92634D01*
X75281Y91333D01*
X75228Y91259D01*
X75168Y91189D01*
X75156Y91159D01*
X75137Y91133D01*
X75110Y91046D01*
X75076Y90961D01*
X75072Y90920D01*
X75065Y90898D01*
X75066Y90866D01*
X75058Y90794D01*
X75058Y87644D01*
X75072Y87554D01*
X75080Y87463D01*
X75092Y87434D01*
X75097Y87402D01*
X75140Y87321D01*
X75176Y87237D01*
X75202Y87205D01*
X75213Y87184D01*
X75236Y87162D01*
X75281Y87106D01*
X84439Y77948D01*
X84513Y77895D01*
X84582Y77835D01*
X84613Y77823D01*
X84639Y77804D01*
X84726Y77777D01*
X84811Y77743D01*
X84852Y77739D01*
X84874Y77732D01*
X84906Y77733D01*
X84977Y77725D01*
X95330Y77725D01*
X104141Y68914D01*
X104141Y58561D01*
X104155Y58471D01*
X104163Y58380D01*
X104175Y58351D01*
X104180Y58319D01*
X104223Y58238D01*
X104259Y58154D01*
X104285Y58122D01*
X104296Y58101D01*
X104319Y58079D01*
X104364Y58023D01*
X108823Y53564D01*
X108897Y53511D01*
X108966Y53451D01*
X108997Y53439D01*
X109023Y53420D01*
X109110Y53393D01*
X109195Y53359D01*
X109236Y53355D01*
X109258Y53348D01*
X109290Y53349D01*
X109361Y53341D01*
X137781Y53341D01*
X137871Y53355D01*
X137962Y53363D01*
X137991Y53375D01*
X138023Y53380D01*
X138104Y53423D01*
X138188Y53459D01*
X138220Y53485D01*
X138241Y53496D01*
X138263Y53519D01*
X138319Y53564D01*
X158399Y73644D01*
X159813Y75058D01*
X181817Y75058D01*
X183231Y73644D01*
X186608Y70266D01*
X186704Y70198D01*
X186797Y70128D01*
X186803Y70127D01*
X186808Y70123D01*
X186920Y70089D01*
X187031Y70052D01*
X187037Y70052D01*
X187043Y70051D01*
X187160Y70054D01*
X187277Y70055D01*
X187284Y70057D01*
X187289Y70057D01*
X187306Y70063D01*
X187438Y70101D01*
X189054Y70771D01*
X191946Y70771D01*
X194619Y69664D01*
X196664Y67619D01*
X197771Y64946D01*
X197771Y62054D01*
X196664Y59381D01*
X194619Y57336D01*
X191946Y56229D01*
X189054Y56229D01*
X186381Y57336D01*
X184336Y59381D01*
X183229Y62054D01*
X183229Y64946D01*
X183899Y66562D01*
X183925Y66676D01*
X183954Y66789D01*
X183953Y66795D01*
X183955Y66802D01*
X183944Y66918D01*
X183935Y67034D01*
X183932Y67040D01*
X183932Y67046D01*
X183884Y67154D01*
X183838Y67261D01*
X183834Y67267D01*
X183832Y67271D01*
X183819Y67285D01*
X183734Y67392D01*
X180356Y70769D01*
X180282Y70822D01*
X180213Y70882D01*
X180182Y70894D01*
X180156Y70913D01*
X180069Y70940D01*
X179984Y70974D01*
X179943Y70978D01*
X179921Y70985D01*
X179889Y70984D01*
X179818Y70992D01*
X161812Y70992D01*
X161722Y70978D01*
X161631Y70970D01*
X161602Y70958D01*
X161570Y70953D01*
X161489Y70910D01*
X161405Y70874D01*
X161373Y70848D01*
X161352Y70837D01*
X161330Y70814D01*
X161274Y70769D01*
X139780Y49275D01*
X107362Y49275D01*
G37*
%LPD*%
%LPC*%
G36*
X123495Y117855D02*
X123495Y117855D01*
X121411Y119939D01*
X121411Y122885D01*
X122712Y124186D01*
X122765Y124260D01*
X122825Y124330D01*
X122837Y124360D01*
X122856Y124386D01*
X122883Y124473D01*
X122917Y124558D01*
X122921Y124599D01*
X122928Y124621D01*
X122927Y124653D01*
X122935Y124725D01*
X122935Y130923D01*
X122921Y131013D01*
X122913Y131104D01*
X122901Y131133D01*
X122896Y131165D01*
X122853Y131246D01*
X122817Y131330D01*
X122791Y131362D01*
X122780Y131383D01*
X122757Y131405D01*
X122712Y131461D01*
X120066Y134107D01*
X120050Y134119D01*
X120037Y134134D01*
X119950Y134190D01*
X119866Y134251D01*
X119847Y134257D01*
X119831Y134267D01*
X119730Y134293D01*
X119631Y134323D01*
X119611Y134323D01*
X119592Y134327D01*
X119489Y134319D01*
X119385Y134317D01*
X119367Y134310D01*
X119347Y134308D01*
X119252Y134268D01*
X119154Y134232D01*
X119139Y134220D01*
X119120Y134212D01*
X118990Y134107D01*
X118419Y133536D01*
X115746Y132429D01*
X112854Y132429D01*
X110181Y133536D01*
X108136Y135581D01*
X107029Y138254D01*
X107029Y141146D01*
X108136Y143819D01*
X110181Y145864D01*
X112854Y146971D01*
X115746Y146971D01*
X118419Y145864D01*
X120464Y143819D01*
X121571Y141146D01*
X121571Y138667D01*
X121585Y138577D01*
X121593Y138486D01*
X121605Y138457D01*
X121610Y138425D01*
X121653Y138344D01*
X121689Y138260D01*
X121715Y138228D01*
X121726Y138207D01*
X121749Y138185D01*
X121794Y138129D01*
X127001Y132922D01*
X127001Y124725D01*
X127015Y124634D01*
X127023Y124544D01*
X127035Y124514D01*
X127040Y124482D01*
X127083Y124401D01*
X127119Y124317D01*
X127145Y124285D01*
X127156Y124264D01*
X127179Y124242D01*
X127224Y124186D01*
X128240Y123170D01*
X128256Y123159D01*
X128268Y123143D01*
X128356Y123087D01*
X128439Y123027D01*
X128458Y123021D01*
X128475Y123010D01*
X128576Y122985D01*
X128675Y122954D01*
X128694Y122955D01*
X128714Y122950D01*
X128817Y122958D01*
X128920Y122961D01*
X128939Y122968D01*
X128959Y122969D01*
X129054Y123009D01*
X129151Y123045D01*
X129167Y123058D01*
X129185Y123065D01*
X129316Y123170D01*
X130332Y124186D01*
X130385Y124260D01*
X130445Y124330D01*
X130457Y124360D01*
X130476Y124386D01*
X130503Y124473D01*
X130537Y124558D01*
X130541Y124599D01*
X130548Y124621D01*
X130547Y124653D01*
X130555Y124725D01*
X130555Y134863D01*
X130541Y134954D01*
X130533Y135044D01*
X130521Y135074D01*
X130516Y135106D01*
X130473Y135187D01*
X130437Y135271D01*
X130411Y135303D01*
X130400Y135324D01*
X130377Y135346D01*
X130332Y135402D01*
X129031Y136703D01*
X129031Y139649D01*
X131115Y141733D01*
X134061Y141733D01*
X136145Y139649D01*
X136145Y136703D01*
X134844Y135402D01*
X134791Y135328D01*
X134731Y135258D01*
X134719Y135228D01*
X134700Y135202D01*
X134673Y135115D01*
X134639Y135030D01*
X134635Y134989D01*
X134628Y134967D01*
X134629Y134935D01*
X134621Y134863D01*
X134621Y124725D01*
X134635Y124634D01*
X134643Y124544D01*
X134655Y124514D01*
X134660Y124482D01*
X134703Y124401D01*
X134739Y124317D01*
X134765Y124285D01*
X134776Y124264D01*
X134799Y124242D01*
X134844Y124186D01*
X136145Y122885D01*
X136145Y119939D01*
X134061Y117855D01*
X131115Y117855D01*
X129316Y119654D01*
X129300Y119665D01*
X129288Y119681D01*
X129200Y119737D01*
X129117Y119797D01*
X129098Y119803D01*
X129081Y119814D01*
X128980Y119839D01*
X128881Y119870D01*
X128862Y119869D01*
X128842Y119874D01*
X128739Y119866D01*
X128636Y119863D01*
X128617Y119856D01*
X128597Y119855D01*
X128502Y119814D01*
X128405Y119779D01*
X128389Y119766D01*
X128371Y119759D01*
X128240Y119654D01*
X126441Y117855D01*
X123495Y117855D01*
G37*
%LPD*%
%LPC*%
G36*
X141896Y71161D02*
X141896Y71161D01*
X139614Y73443D01*
X139614Y76671D01*
X141254Y78311D01*
X141307Y78385D01*
X141367Y78454D01*
X141379Y78484D01*
X141398Y78510D01*
X141425Y78597D01*
X141459Y78682D01*
X141463Y78723D01*
X141470Y78745D01*
X141469Y78778D01*
X141477Y78849D01*
X141477Y122127D01*
X157806Y138456D01*
X157859Y138530D01*
X157919Y138599D01*
X157931Y138630D01*
X157950Y138656D01*
X157977Y138743D01*
X158011Y138828D01*
X158015Y138869D01*
X158022Y138891D01*
X158021Y138923D01*
X158029Y138994D01*
X158029Y141314D01*
X160311Y143596D01*
X163539Y143596D01*
X165821Y141314D01*
X165821Y138086D01*
X163539Y135804D01*
X161219Y135804D01*
X161129Y135790D01*
X161038Y135782D01*
X161009Y135770D01*
X160977Y135765D01*
X160896Y135722D01*
X160812Y135686D01*
X160780Y135660D01*
X160759Y135649D01*
X160737Y135626D01*
X160681Y135581D01*
X145766Y120666D01*
X145713Y120592D01*
X145653Y120523D01*
X145641Y120492D01*
X145622Y120466D01*
X145595Y120379D01*
X145561Y120294D01*
X145557Y120253D01*
X145550Y120231D01*
X145551Y120199D01*
X145543Y120128D01*
X145543Y78849D01*
X145557Y78759D01*
X145565Y78668D01*
X145577Y78638D01*
X145582Y78606D01*
X145625Y78526D01*
X145661Y78442D01*
X145687Y78409D01*
X145698Y78389D01*
X145721Y78367D01*
X145766Y78311D01*
X147406Y76671D01*
X147406Y73443D01*
X145124Y71161D01*
X141896Y71161D01*
G37*
%LPD*%
%LPC*%
G36*
X166286Y47149D02*
X166286Y47149D01*
X162610Y48672D01*
X159797Y51485D01*
X158274Y55161D01*
X158274Y59139D01*
X159797Y62815D01*
X162610Y65628D01*
X166286Y67151D01*
X170264Y67151D01*
X173940Y65628D01*
X176753Y62815D01*
X178276Y59139D01*
X178276Y55161D01*
X176753Y51485D01*
X173940Y48672D01*
X170264Y47149D01*
X166286Y47149D01*
G37*
%LPD*%
%LPC*%
G36*
X32936Y47149D02*
X32936Y47149D01*
X29260Y48672D01*
X26447Y51485D01*
X24924Y55161D01*
X24924Y59139D01*
X26447Y62815D01*
X29260Y65628D01*
X32936Y67151D01*
X36914Y67151D01*
X40590Y65628D01*
X43403Y62815D01*
X44926Y59139D01*
X44926Y55161D01*
X43403Y51485D01*
X40590Y48672D01*
X36914Y47149D01*
X32936Y47149D01*
G37*
%LPD*%
%LPC*%
G36*
X14097Y316229D02*
X14097Y316229D01*
X8889Y321437D01*
X8889Y328803D01*
X14097Y334011D01*
X21463Y334011D01*
X26671Y328803D01*
X26671Y321437D01*
X21463Y316229D01*
X14097Y316229D01*
G37*
%LPD*%
%LPC*%
G36*
X115697Y316229D02*
X115697Y316229D01*
X110489Y321437D01*
X110489Y328803D01*
X115697Y334011D01*
X123063Y334011D01*
X128271Y328803D01*
X128271Y321437D01*
X123063Y316229D01*
X115697Y316229D01*
G37*
%LPD*%
%LPC*%
G36*
X154974Y184869D02*
X154974Y184869D01*
X154229Y185614D01*
X154229Y204166D01*
X154974Y204911D01*
X155702Y204911D01*
X155722Y204914D01*
X155741Y204912D01*
X155843Y204934D01*
X155945Y204950D01*
X155962Y204960D01*
X155982Y204964D01*
X156071Y205017D01*
X156162Y205066D01*
X156176Y205080D01*
X156193Y205090D01*
X156260Y205169D01*
X156332Y205244D01*
X156340Y205262D01*
X156353Y205277D01*
X156392Y205373D01*
X156435Y205467D01*
X156437Y205487D01*
X156445Y205505D01*
X156463Y205672D01*
X156463Y209539D01*
X156449Y209630D01*
X156441Y209720D01*
X156429Y209750D01*
X156424Y209782D01*
X156381Y209863D01*
X156345Y209947D01*
X156319Y209979D01*
X156308Y210000D01*
X156285Y210022D01*
X156240Y210078D01*
X154939Y211379D01*
X154939Y214325D01*
X157023Y216409D01*
X159969Y216409D01*
X162053Y214325D01*
X162053Y211379D01*
X160752Y210078D01*
X160699Y210004D01*
X160639Y209934D01*
X160627Y209904D01*
X160608Y209878D01*
X160581Y209791D01*
X160547Y209706D01*
X160543Y209665D01*
X160536Y209643D01*
X160537Y209611D01*
X160529Y209539D01*
X160529Y205672D01*
X160532Y205652D01*
X160530Y205633D01*
X160552Y205531D01*
X160568Y205429D01*
X160578Y205412D01*
X160582Y205392D01*
X160635Y205303D01*
X160684Y205212D01*
X160698Y205198D01*
X160708Y205181D01*
X160787Y205114D01*
X160862Y205042D01*
X160880Y205034D01*
X160895Y205021D01*
X160991Y204982D01*
X161085Y204939D01*
X161105Y204937D01*
X161123Y204929D01*
X161290Y204911D01*
X162526Y204911D01*
X163271Y204166D01*
X163271Y185614D01*
X162526Y184869D01*
X154974Y184869D01*
G37*
%LPD*%
%LPC*%
G36*
X183974Y208629D02*
X183974Y208629D01*
X183229Y209374D01*
X183229Y222426D01*
X183974Y223171D01*
X197026Y223171D01*
X197771Y222426D01*
X197771Y209374D01*
X197026Y208629D01*
X183974Y208629D01*
G37*
%LPD*%
%LPC*%
G36*
X87454Y183229D02*
X87454Y183229D01*
X85297Y184123D01*
X85202Y184145D01*
X85109Y184173D01*
X85083Y184173D01*
X85058Y184179D01*
X84961Y184170D01*
X84863Y184167D01*
X84839Y184158D01*
X84813Y184156D01*
X84763Y184134D01*
X84757Y184204D01*
X84737Y184252D01*
X84726Y184303D01*
X84689Y184364D01*
X84661Y184430D01*
X84616Y184486D01*
X84600Y184514D01*
X84582Y184529D01*
X84556Y184561D01*
X82736Y186381D01*
X81629Y189054D01*
X81629Y191946D01*
X82736Y194619D01*
X84781Y196664D01*
X87454Y197771D01*
X90346Y197771D01*
X93019Y196664D01*
X95064Y194619D01*
X96171Y191946D01*
X96171Y189054D01*
X95064Y186381D01*
X93019Y184336D01*
X90346Y183229D01*
X87454Y183229D01*
G37*
%LPD*%
%LPC*%
G36*
X87454Y132429D02*
X87454Y132429D01*
X84781Y133536D01*
X82736Y135581D01*
X81629Y138254D01*
X81629Y141146D01*
X82736Y143819D01*
X84429Y145512D01*
X84471Y145570D01*
X84521Y145622D01*
X84543Y145669D01*
X84573Y145711D01*
X84594Y145780D01*
X84624Y145845D01*
X84629Y145888D01*
X84713Y145895D01*
X84811Y145896D01*
X84842Y145905D01*
X84862Y145907D01*
X84892Y145919D01*
X84972Y145943D01*
X87454Y146971D01*
X90346Y146971D01*
X93019Y145864D01*
X95064Y143819D01*
X96171Y141146D01*
X96171Y138254D01*
X95064Y135581D01*
X93019Y133536D01*
X90346Y132429D01*
X87454Y132429D01*
G37*
%LPD*%
%LPC*%
G36*
X189054Y183229D02*
X189054Y183229D01*
X186381Y184336D01*
X184336Y186381D01*
X183229Y189054D01*
X183229Y191946D01*
X184336Y194619D01*
X186381Y196664D01*
X189054Y197771D01*
X191946Y197771D01*
X194619Y196664D01*
X196664Y194619D01*
X197771Y191946D01*
X197771Y189054D01*
X196664Y186381D01*
X194619Y184336D01*
X191946Y183229D01*
X189054Y183229D01*
G37*
%LPD*%
%LPC*%
G36*
X112854Y157829D02*
X112854Y157829D01*
X110181Y158936D01*
X108136Y160981D01*
X107029Y163654D01*
X107029Y166546D01*
X108136Y169219D01*
X110181Y171264D01*
X112854Y172371D01*
X115746Y172371D01*
X118419Y171264D01*
X120464Y169219D01*
X121571Y166546D01*
X121571Y163654D01*
X120464Y160981D01*
X118419Y158936D01*
X115746Y157829D01*
X112854Y157829D01*
G37*
%LPD*%
%LPC*%
G36*
X112854Y107029D02*
X112854Y107029D01*
X110181Y108136D01*
X108136Y110181D01*
X107029Y112854D01*
X107029Y115746D01*
X108136Y118419D01*
X110181Y120464D01*
X112854Y121571D01*
X115746Y121571D01*
X118419Y120464D01*
X120464Y118419D01*
X121571Y115746D01*
X121571Y112854D01*
X120464Y110181D01*
X118419Y108136D01*
X115746Y107029D01*
X112854Y107029D01*
G37*
%LPD*%
%LPC*%
G36*
X189054Y107029D02*
X189054Y107029D01*
X186381Y108136D01*
X184336Y110181D01*
X183229Y112854D01*
X183229Y115746D01*
X184336Y118419D01*
X186381Y120464D01*
X189054Y121571D01*
X191946Y121571D01*
X194619Y120464D01*
X196664Y118419D01*
X197771Y115746D01*
X197771Y112854D01*
X196664Y110181D01*
X194619Y108136D01*
X191946Y107029D01*
X189054Y107029D01*
G37*
%LPD*%
%LPC*%
G36*
X112854Y81629D02*
X112854Y81629D01*
X110181Y82736D01*
X108136Y84781D01*
X107029Y87454D01*
X107029Y90346D01*
X108136Y93019D01*
X110181Y95064D01*
X112854Y96171D01*
X115746Y96171D01*
X118419Y95064D01*
X120464Y93019D01*
X121571Y90346D01*
X121571Y87454D01*
X120464Y84781D01*
X118419Y82736D01*
X115746Y81629D01*
X112854Y81629D01*
G37*
%LPD*%
%LPC*%
G36*
X189054Y81629D02*
X189054Y81629D01*
X186381Y82736D01*
X184336Y84781D01*
X183229Y87454D01*
X183229Y90346D01*
X184336Y93019D01*
X186381Y95064D01*
X189054Y96171D01*
X191946Y96171D01*
X194619Y95064D01*
X196664Y93019D01*
X197771Y90346D01*
X197771Y87454D01*
X196664Y84781D01*
X194619Y82736D01*
X191946Y81629D01*
X189054Y81629D01*
G37*
%LPD*%
%LPC*%
G36*
X87454Y81629D02*
X87454Y81629D01*
X84781Y82736D01*
X82736Y84781D01*
X81629Y87454D01*
X81629Y90346D01*
X82736Y93019D01*
X84781Y95064D01*
X87454Y96171D01*
X90346Y96171D01*
X93019Y95064D01*
X95064Y93019D01*
X96171Y90346D01*
X96171Y87454D01*
X95064Y84781D01*
X93019Y82736D01*
X90346Y81629D01*
X87454Y81629D01*
G37*
%LPD*%
%LPC*%
G36*
X11254Y81629D02*
X11254Y81629D01*
X8581Y82736D01*
X6536Y84781D01*
X5429Y87454D01*
X5429Y90346D01*
X6536Y93019D01*
X8581Y95064D01*
X11254Y96171D01*
X14146Y96171D01*
X16819Y95064D01*
X18864Y93019D01*
X19971Y90346D01*
X19971Y87454D01*
X18864Y84781D01*
X16819Y82736D01*
X14146Y81629D01*
X11254Y81629D01*
G37*
%LPD*%
%LPC*%
G36*
X11254Y56229D02*
X11254Y56229D01*
X8581Y57336D01*
X6536Y59381D01*
X5429Y62054D01*
X5429Y64946D01*
X6536Y67619D01*
X8581Y69664D01*
X11254Y70771D01*
X14146Y70771D01*
X16819Y69664D01*
X18864Y67619D01*
X19971Y64946D01*
X19971Y62054D01*
X18864Y59381D01*
X16819Y57336D01*
X14146Y56229D01*
X11254Y56229D01*
G37*
%LPD*%
%LPC*%
G36*
X170959Y304687D02*
X170959Y304687D01*
X170959Y312205D01*
X177771Y312205D01*
X178417Y312032D01*
X178996Y311697D01*
X179058Y311635D01*
X179074Y311624D01*
X179086Y311608D01*
X179174Y311552D01*
X179257Y311492D01*
X179276Y311486D01*
X179293Y311475D01*
X179394Y311450D01*
X179492Y311419D01*
X179512Y311420D01*
X179532Y311415D01*
X179635Y311423D01*
X179738Y311426D01*
X179757Y311433D01*
X179777Y311434D01*
X179872Y311475D01*
X179969Y311510D01*
X179985Y311523D01*
X180003Y311531D01*
X180134Y311635D01*
X180196Y311697D01*
X180775Y312032D01*
X181422Y312205D01*
X188233Y312205D01*
X188233Y304687D01*
X170959Y304687D01*
G37*
%LPD*%
%LPC*%
G36*
X170959Y294123D02*
X170959Y294123D01*
X170959Y301641D01*
X188233Y301641D01*
X188233Y294123D01*
X181422Y294123D01*
X180775Y294296D01*
X180196Y294631D01*
X180134Y294693D01*
X180118Y294704D01*
X180106Y294720D01*
X180018Y294776D01*
X179935Y294836D01*
X179916Y294842D01*
X179899Y294853D01*
X179798Y294878D01*
X179699Y294908D01*
X179679Y294908D01*
X179660Y294913D01*
X179557Y294905D01*
X179454Y294902D01*
X179435Y294895D01*
X179415Y294894D01*
X179320Y294853D01*
X179223Y294818D01*
X179207Y294805D01*
X179189Y294797D01*
X179058Y294692D01*
X178996Y294631D01*
X178417Y294296D01*
X177771Y294123D01*
X170959Y294123D01*
G37*
%LPD*%
%LPC*%
G36*
X158895Y304687D02*
X158895Y304687D01*
X158895Y309998D01*
X159068Y310645D01*
X159403Y311224D01*
X159876Y311697D01*
X160455Y312032D01*
X161102Y312205D01*
X167913Y312205D01*
X167913Y304687D01*
X158895Y304687D01*
G37*
%LPD*%
%LPC*%
G36*
X161102Y294123D02*
X161102Y294123D01*
X160455Y294296D01*
X159876Y294631D01*
X159403Y295104D01*
X159068Y295683D01*
X158895Y296329D01*
X158895Y301641D01*
X167913Y301641D01*
X167913Y294123D01*
X161102Y294123D01*
G37*
%LPD*%
%LPC*%
G36*
X146303Y301243D02*
X146303Y301243D01*
X146303Y309881D01*
X148989Y309881D01*
X154941Y303929D01*
X154941Y301243D01*
X146303Y301243D01*
G37*
%LPD*%
%LPC*%
G36*
X7619Y301243D02*
X7619Y301243D01*
X7619Y303929D01*
X13571Y309881D01*
X16257Y309881D01*
X16257Y301243D01*
X7619Y301243D01*
G37*
%LPD*%
%LPC*%
G36*
X134619Y301243D02*
X134619Y301243D01*
X134619Y303929D01*
X140571Y309881D01*
X143257Y309881D01*
X143257Y301243D01*
X134619Y301243D01*
G37*
%LPD*%
%LPC*%
G36*
X13571Y289559D02*
X13571Y289559D01*
X7619Y295511D01*
X7619Y298197D01*
X16257Y298197D01*
X16257Y289559D01*
X13571Y289559D01*
G37*
%LPD*%
G36*
X61511Y236548D02*
X61511Y236548D01*
X61614Y236550D01*
X61633Y236557D01*
X61653Y236559D01*
X61748Y236599D01*
X61845Y236635D01*
X61861Y236647D01*
X61879Y236655D01*
X62010Y236760D01*
X62230Y236979D01*
X62263Y236987D01*
X62365Y237003D01*
X62383Y237013D01*
X62402Y237017D01*
X62491Y237070D01*
X62583Y237118D01*
X62596Y237133D01*
X62614Y237143D01*
X62681Y237222D01*
X62752Y237297D01*
X62761Y237315D01*
X62773Y237330D01*
X62812Y237426D01*
X62856Y237520D01*
X62858Y237540D01*
X62865Y237558D01*
X62873Y237622D01*
X63088Y237837D01*
X63099Y237854D01*
X63115Y237866D01*
X63171Y237953D01*
X63231Y238037D01*
X63237Y238056D01*
X63248Y238073D01*
X63273Y238173D01*
X63304Y238272D01*
X63303Y238292D01*
X63308Y238311D01*
X63300Y238414D01*
X63297Y238518D01*
X63290Y238537D01*
X63289Y238557D01*
X63249Y238652D01*
X63213Y238749D01*
X63200Y238765D01*
X63193Y238783D01*
X63088Y238914D01*
X53750Y248252D01*
X53734Y248264D01*
X53721Y248279D01*
X53634Y248335D01*
X53550Y248395D01*
X53531Y248401D01*
X53514Y248412D01*
X53414Y248437D01*
X53315Y248468D01*
X53295Y248467D01*
X53276Y248472D01*
X53173Y248464D01*
X53069Y248461D01*
X53050Y248455D01*
X53030Y248453D01*
X52935Y248413D01*
X52838Y248377D01*
X52822Y248365D01*
X52804Y248357D01*
X52673Y248252D01*
X51596Y247174D01*
X51584Y247158D01*
X51568Y247146D01*
X51512Y247058D01*
X51452Y246975D01*
X51446Y246956D01*
X51435Y246939D01*
X51410Y246838D01*
X51380Y246740D01*
X51380Y246720D01*
X51375Y246700D01*
X51383Y246597D01*
X51386Y246494D01*
X51393Y246475D01*
X51395Y246455D01*
X51435Y246360D01*
X51471Y246263D01*
X51483Y246247D01*
X51491Y246229D01*
X51596Y246098D01*
X60934Y236760D01*
X60950Y236748D01*
X60962Y236733D01*
X61049Y236677D01*
X61133Y236616D01*
X61152Y236610D01*
X61169Y236600D01*
X61269Y236574D01*
X61368Y236544D01*
X61388Y236544D01*
X61408Y236540D01*
X61511Y236548D01*
G37*
%LPC*%
G36*
X134873Y256099D02*
X134873Y256099D01*
X134873Y265867D01*
X139141Y265867D01*
X139141Y258306D01*
X138968Y257659D01*
X138633Y257080D01*
X138160Y256607D01*
X137581Y256272D01*
X136934Y256099D01*
X134873Y256099D01*
G37*
%LPD*%
%LPC*%
G36*
X129766Y256099D02*
X129766Y256099D01*
X129119Y256272D01*
X128540Y256607D01*
X128067Y257080D01*
X127732Y257659D01*
X127559Y258306D01*
X127559Y265867D01*
X131827Y265867D01*
X131827Y256099D01*
X129766Y256099D01*
G37*
%LPD*%
%LPC*%
G36*
X169435Y303163D02*
X169435Y303163D01*
X169435Y303165D01*
X169437Y303165D01*
X169437Y303163D01*
X169435Y303163D01*
G37*
%LPD*%
D10*
X190500Y215900D03*
D11*
X190500Y190500D03*
X190500Y165100D03*
X190500Y139700D03*
X190500Y114300D03*
X190500Y88900D03*
X190500Y63500D03*
X114300Y63500D03*
X114300Y88900D03*
X114300Y114300D03*
X114300Y139700D03*
X114300Y165100D03*
X114300Y190500D03*
X114300Y215900D03*
D10*
X88900Y215900D03*
D11*
X88900Y190500D03*
X88900Y165100D03*
X88900Y139700D03*
X88900Y114300D03*
X88900Y88900D03*
X88900Y63500D03*
X12700Y63500D03*
X12700Y88900D03*
X12700Y114300D03*
X12700Y139700D03*
X12700Y165100D03*
X12700Y190500D03*
X12700Y215900D03*
D12*
G36*
X48598Y266806D02*
X42942Y272462D01*
X45064Y274584D01*
X50720Y268928D01*
X48598Y266806D01*
G37*
G36*
X45062Y263270D02*
X39406Y268926D01*
X41528Y271048D01*
X47184Y265392D01*
X45062Y263270D01*
G37*
G36*
X41526Y259735D02*
X35870Y265391D01*
X37992Y267513D01*
X43648Y261857D01*
X41526Y259735D01*
G37*
G36*
X37991Y256199D02*
X32335Y261855D01*
X34457Y263977D01*
X40113Y258321D01*
X37991Y256199D01*
G37*
G36*
X34455Y252664D02*
X28799Y258320D01*
X30921Y260442D01*
X36577Y254786D01*
X34455Y252664D01*
G37*
G36*
X30920Y249128D02*
X25264Y254784D01*
X27386Y256906D01*
X33042Y251250D01*
X30920Y249128D01*
G37*
G36*
X33042Y244177D02*
X27386Y238521D01*
X25264Y240643D01*
X30920Y246299D01*
X33042Y244177D01*
G37*
G36*
X36577Y240642D02*
X30921Y234986D01*
X28799Y237108D01*
X34455Y242764D01*
X36577Y240642D01*
G37*
G36*
X40113Y237106D02*
X34457Y231450D01*
X32335Y233572D01*
X37991Y239228D01*
X40113Y237106D01*
G37*
G36*
X43648Y233571D02*
X37992Y227915D01*
X35870Y230037D01*
X41526Y235693D01*
X43648Y233571D01*
G37*
G36*
X47184Y230035D02*
X41528Y224379D01*
X39406Y226501D01*
X45062Y232157D01*
X47184Y230035D01*
G37*
G36*
X50720Y226500D02*
X45064Y220844D01*
X42942Y222966D01*
X48598Y228622D01*
X50720Y226500D01*
G37*
G36*
X59204Y220844D02*
X53548Y226500D01*
X55670Y228622D01*
X61326Y222966D01*
X59204Y220844D01*
G37*
G36*
X62740Y224379D02*
X57084Y230035D01*
X59206Y232157D01*
X64862Y226501D01*
X62740Y224379D01*
G37*
G36*
X66275Y227915D02*
X60619Y233571D01*
X62741Y235693D01*
X68397Y230037D01*
X66275Y227915D01*
G37*
G36*
X69811Y231450D02*
X64155Y237106D01*
X66277Y239228D01*
X71933Y233572D01*
X69811Y231450D01*
G37*
G36*
X73346Y234986D02*
X67690Y240642D01*
X69812Y242764D01*
X75468Y237108D01*
X73346Y234986D01*
G37*
G36*
X76882Y238521D02*
X71226Y244177D01*
X73348Y246299D01*
X79004Y240643D01*
X76882Y238521D01*
G37*
G36*
X79004Y254784D02*
X73348Y249128D01*
X71226Y251250D01*
X76882Y256906D01*
X79004Y254784D01*
G37*
G36*
X75468Y258320D02*
X69812Y252664D01*
X67690Y254786D01*
X73346Y260442D01*
X75468Y258320D01*
G37*
G36*
X71933Y261855D02*
X66277Y256199D01*
X64155Y258321D01*
X69811Y263977D01*
X71933Y261855D01*
G37*
G36*
X68397Y265391D02*
X62741Y259735D01*
X60619Y261857D01*
X66275Y267513D01*
X68397Y265391D01*
G37*
G36*
X64862Y268926D02*
X59206Y263270D01*
X57084Y265392D01*
X62740Y271048D01*
X64862Y268926D01*
G37*
G36*
X61326Y272462D02*
X55670Y266806D01*
X53548Y268928D01*
X59204Y274584D01*
X61326Y272462D01*
G37*
D13*
G36*
X71932Y247714D02*
X52134Y227916D01*
X32336Y247714D01*
X52134Y267512D01*
X71932Y247714D01*
G37*
D14*
X171450Y267390D03*
X158750Y267390D03*
X146050Y267390D03*
X133350Y267390D03*
X133350Y194890D03*
X146050Y194890D03*
X158750Y194890D03*
X171450Y194890D03*
D15*
X17780Y299720D03*
X17780Y325120D03*
X43180Y299720D03*
X43180Y325120D03*
X68580Y299720D03*
X68580Y325120D03*
X93980Y299720D03*
X93980Y325120D03*
X119380Y299720D03*
X119380Y325120D03*
X144780Y299720D03*
X144780Y325120D03*
D16*
X169436Y323164D03*
X169436Y303164D03*
X189756Y323164D03*
X189756Y303164D03*
D17*
X34925Y57150D03*
X168275Y57150D03*
X193675Y247650D03*
D18*
X42672Y228092D02*
X42672Y227838D01*
X37211Y222377D01*
X37211Y221996D01*
D19*
X42672Y228092D02*
X43295Y228268D01*
D18*
X170688Y324104D02*
X188976Y324104D01*
D19*
X170688Y324104D02*
X169436Y323164D01*
X188976Y324104D02*
X189756Y323164D01*
D18*
X172212Y212852D02*
X172212Y196088D01*
D19*
X171450Y194890D01*
D18*
X169164Y324104D02*
X144780Y324104D01*
D19*
X169164Y324104D02*
X169436Y323164D01*
X144780Y324104D02*
X144780Y325120D01*
D20*
X37211Y221996D03*
X172212Y212852D03*
D18*
X34481Y269177D02*
X23876Y258572D01*
X34481Y269177D02*
X39719Y263938D01*
X34481Y269177D02*
X30607Y273050D01*
D19*
X39719Y263938D02*
X39759Y263624D01*
D18*
X29153Y253017D02*
X23876Y258294D01*
D19*
X23876Y258572D01*
D21*
X24920Y273050D03*
D18*
X30607Y273050D01*
D19*
X53531Y246317D02*
X60897Y246317D01*
X53531Y246317D02*
X52134Y247714D01*
X60897Y246317D02*
X70104Y255524D01*
X71579Y256553D01*
D21*
X121920Y101600D03*
X156210Y114935D03*
X144145Y157480D03*
X52388Y247968D03*
X136525Y240665D03*
X30480Y321310D03*
X81280Y320040D03*
X64770Y124460D03*
X72708Y186373D03*
X114300Y271463D03*
X41275Y88900D03*
X92075Y152400D03*
X9525Y25400D03*
X28575Y25400D03*
X19050Y15875D03*
X9525Y6350D03*
X28575Y6350D03*
X73025Y25400D03*
X73025Y6350D03*
X82550Y15875D03*
X92075Y25400D03*
X92075Y6350D03*
X101600Y15875D03*
X111125Y25400D03*
X130175Y25400D03*
X120650Y15875D03*
X111125Y6350D03*
X130175Y6350D03*
X174625Y25400D03*
X193675Y25400D03*
X184150Y15875D03*
X174625Y6350D03*
X193675Y6350D03*
X98425Y241300D03*
X9525Y44450D03*
X19050Y34925D03*
X184150Y34925D03*
X193675Y44450D03*
D19*
X46355Y270724D02*
X46355Y271272D01*
X42672Y274955D01*
X42672Y279908D01*
X46355Y270724D02*
X46831Y270695D01*
X132588Y208280D02*
X132588Y196088D01*
X133350Y194890D01*
D20*
X42672Y279908D03*
X132588Y208280D03*
D19*
X42672Y267716D02*
X42418Y267716D01*
X36576Y273558D01*
X36576Y281432D01*
X40513Y285369D01*
X44831Y285369D01*
X50292Y279908D01*
X42672Y267716D02*
X43295Y267159D01*
X158496Y212852D02*
X158496Y196088D01*
X158750Y194890D01*
D20*
X50292Y279908D03*
X158496Y212852D03*
D19*
X158496Y254000D02*
X158496Y266192D01*
X158750Y267390D01*
D20*
X158496Y254000D03*
D19*
X146304Y254000D02*
X146304Y266192D01*
X146304Y254000D02*
X143256Y250952D01*
X123444Y250952D01*
X80709Y293688D01*
X80709Y306007D01*
X76708Y310007D01*
X51308Y310007D01*
X43180Y301879D01*
X43180Y299720D01*
X146050Y267390D02*
X146304Y266192D01*
X146304Y220853D02*
X146304Y196088D01*
X146304Y220853D02*
X68580Y298577D01*
X68580Y299720D01*
X146304Y196088D02*
X146050Y194890D01*
X170688Y267716D02*
X170688Y279908D01*
X169926Y280670D01*
X113538Y280670D01*
X94488Y299720D01*
X170688Y267716D02*
X171450Y267390D01*
X94488Y299720D02*
X93980Y299720D01*
X28956Y243332D02*
X24384Y247904D01*
X70104Y144272D02*
X70104Y141224D01*
X89916Y121412D01*
X70231Y144272D02*
X70041Y144463D01*
X70104Y144272D02*
X70231Y144272D01*
X89916Y121412D02*
X89916Y115316D01*
X29153Y242410D02*
X28956Y243332D01*
X89916Y115316D02*
X88900Y114300D01*
X70041Y144463D02*
X75946Y150368D01*
X82296Y150368D01*
D20*
X24384Y247904D03*
X70104Y144272D03*
X82296Y150368D03*
D19*
X32004Y237236D02*
X32004Y238760D01*
X32004Y237236D02*
X27432Y232664D01*
X25908Y232664D01*
X32004Y238760D02*
X32688Y238875D01*
D20*
X25908Y232664D03*
D19*
X35052Y232664D02*
X35052Y234188D01*
X35052Y232664D02*
X28956Y226568D01*
X24384Y226568D01*
X18923Y232029D01*
X18923Y280543D01*
X32004Y293624D01*
X32004Y302768D01*
X42672Y313436D01*
X100838Y313436D01*
X108204Y306070D01*
X108204Y296672D01*
X117348Y287528D01*
X172212Y287528D01*
X178308Y281432D01*
X178308Y179324D01*
X190500Y167132D01*
X190500Y165100D01*
X36224Y235339D02*
X35052Y234188D01*
D21*
X143510Y75057D03*
D19*
X143510Y121285D01*
X161925Y139700D01*
D21*
X161925Y139700D03*
D19*
X39624Y231140D02*
X38100Y231140D01*
X26924Y219964D02*
X26162Y219202D01*
X26924Y219964D02*
X38100Y231140D01*
X26289Y219202D02*
X26162Y219202D01*
X26416Y219964D02*
X26924Y219964D01*
X26289Y219202D02*
X22987Y215900D01*
X12700Y215900D01*
X39624Y231140D02*
X39759Y231804D01*
X189992Y140208D02*
X190500Y139700D01*
X189992Y140208D02*
X182880Y140208D01*
X140208Y182880D01*
X140208Y222377D01*
X80010Y282575D01*
X64008Y282575D02*
X54483Y292100D01*
X64008Y282575D02*
X80010Y282575D01*
X35433Y314452D02*
X32766Y314452D01*
X28956Y310642D01*
X28956Y296672D01*
X15240Y282956D01*
X15240Y231140D01*
X26416Y219964D01*
D20*
X54483Y292100D03*
X35433Y314452D03*
D19*
X45720Y223520D02*
X45720Y220472D01*
X16764Y191516D01*
X13716Y191516D01*
X45720Y223520D02*
X46831Y224733D01*
X13716Y191516D02*
X12700Y190500D01*
X114300Y139700D02*
X114427Y139573D01*
X117475Y139573D01*
X124968Y132080D01*
X124968Y121412D01*
D20*
X124968Y121412D03*
D19*
X58420Y223750D02*
X57437Y224733D01*
X58420Y223750D02*
X58420Y218465D01*
X19050Y179052D01*
X19050Y175514D01*
X19304Y175260D01*
D20*
X19304Y175260D03*
D19*
X64516Y226060D02*
X62484Y228092D01*
X64516Y226060D02*
X64516Y216408D01*
X39497Y191389D01*
X64008Y150368D02*
X53340Y139700D01*
X62484Y228092D02*
X60973Y228268D01*
D20*
X39497Y191389D03*
X64008Y150368D03*
X53340Y139700D03*
D19*
X64508Y231804D02*
X65884Y231804D01*
X70104Y227584D01*
X70104Y214376D01*
X24384Y168656D01*
X24384Y110744D02*
X39624Y110744D01*
X86868Y63500D01*
X88900Y63500D01*
D20*
X24384Y168656D03*
X24384Y110744D03*
D19*
X68580Y234188D02*
X70104Y234188D01*
X74676Y229616D01*
X74676Y211328D01*
X50292Y186944D01*
X56642Y169926D02*
X37910Y151194D01*
X37465Y151194D01*
X73025Y94107D02*
X73025Y86487D01*
X83820Y75692D01*
X94488Y75692D01*
X102108Y68072D01*
X102108Y57404D01*
X108204Y51308D01*
X138938Y51308D01*
X160655Y73025D01*
X180975Y73025D02*
X190500Y63500D01*
X180975Y73025D02*
X160655Y73025D01*
X68580Y234188D02*
X68044Y235339D01*
D20*
X50292Y186944D03*
X56642Y169926D03*
X37465Y151194D03*
X73025Y94107D03*
D19*
X71579Y237793D02*
X71579Y238875D01*
X71579Y237793D02*
X78994Y230378D01*
X78994Y208026D01*
X33528Y162560D01*
X30480Y162560D01*
D20*
X30480Y162560D03*
D19*
X80391Y237236D02*
X82296Y237236D01*
X80391Y237236D02*
X75344Y242284D01*
X82614Y179705D02*
X82614Y176470D01*
X21339Y115316D01*
X13716Y115316D01*
X75344Y242284D02*
X75115Y242410D01*
X13716Y115316D02*
X12700Y114300D01*
D20*
X82296Y237236D03*
X82614Y179705D03*
D19*
X102108Y200533D02*
X102108Y226505D01*
X79375Y249238D01*
X79200Y249238D01*
X75629Y253017D02*
X75115Y253017D01*
X75629Y253017D02*
X79200Y249238D01*
X112141Y190500D02*
X114300Y190500D01*
X112141Y190500D02*
X102108Y200533D01*
X17145Y139700D02*
X12700Y139700D01*
X17145Y139700D02*
X81153Y203708D01*
X98933Y203708D02*
X102108Y200533D01*
X98933Y203708D02*
X81153Y203708D01*
X90265Y261144D02*
X86297Y265113D01*
X73025Y265113D01*
X68263Y260350D01*
X68580Y260096D01*
X90265Y261144D02*
X114300Y237461D01*
X114300Y215900D01*
X68580Y260096D02*
X68044Y260088D01*
X64508Y263624D02*
X71616Y270764D01*
X85662Y270764D01*
X126492Y229934D01*
X126492Y185420D01*
X118872Y177800D01*
X109728Y177800D01*
X100584Y168656D02*
X96012Y164084D01*
X100584Y168656D02*
X109728Y177800D01*
X96012Y164084D02*
X89916Y164084D01*
X88900Y165100D01*
X102108Y80772D02*
X114300Y68580D01*
X114300Y63500D01*
X102108Y80772D02*
X102108Y167132D01*
X100584Y168656D01*
X60973Y267792D02*
X66993Y273812D01*
X60973Y267792D02*
X60973Y267159D01*
X35306Y142939D02*
X21336Y128969D01*
X21336Y127064D01*
X132588Y121412D02*
X132588Y138176D01*
D20*
X66993Y273812D03*
X21336Y127064D03*
X35306Y142939D03*
X132588Y121412D03*
X132588Y138176D03*
D19*
X59563Y272821D02*
X59563Y278257D01*
X59563Y272821D02*
X57437Y270695D01*
X59563Y278257D02*
X48768Y289052D01*
X38100Y289052D01*
X30480Y281432D01*
D20*
X30480Y281432D03*
M02*
