G04 EAGLE Gerber RS-274X export*
G75*
%MOMM*%
%FSLAX34Y34*%
%LPD*%
%INBottom Copper*%
%IPPOS*%
%AMOC8*
5,1,8,0,0,1.08239X$1,22.5*%
G01*
%ADD10R,1.200000X1.200000*%
%ADD11C,1.200000*%
%ADD12P,1.649562X8X22.500000*%
%ADD13C,1.000000*%
%ADD14C,0.254000*%
%ADD15C,0.152400*%
%ADD16C,0.457200*%
%ADD17C,0.525000*%

G36*
X42511Y-1127D02*
X42511Y-1127D01*
X42608Y-1117D01*
X42632Y-1107D01*
X42658Y-1103D01*
X42744Y-1057D01*
X42833Y-1017D01*
X42852Y-1000D01*
X42875Y-987D01*
X42942Y-917D01*
X43014Y-851D01*
X43027Y-828D01*
X43045Y-809D01*
X43086Y-721D01*
X43133Y-635D01*
X43137Y-610D01*
X43148Y-586D01*
X43159Y-489D01*
X43176Y-393D01*
X43173Y-367D01*
X43176Y-342D01*
X43155Y-246D01*
X43141Y-150D01*
X43129Y-127D01*
X43123Y-101D01*
X43073Y-18D01*
X43029Y69D01*
X43010Y88D01*
X42997Y110D01*
X42923Y173D01*
X42854Y241D01*
X42825Y257D01*
X42810Y270D01*
X42779Y282D01*
X42707Y322D01*
X42568Y380D01*
X38480Y4468D01*
X36267Y9809D01*
X36267Y15591D01*
X38480Y20932D01*
X42568Y25020D01*
X47909Y27233D01*
X53691Y27233D01*
X59032Y25020D01*
X63120Y20932D01*
X65333Y15591D01*
X65333Y9809D01*
X63120Y4468D01*
X59032Y380D01*
X58893Y322D01*
X58810Y271D01*
X58725Y225D01*
X58707Y207D01*
X58684Y193D01*
X58622Y118D01*
X58555Y47D01*
X58544Y23D01*
X58528Y3D01*
X58493Y-88D01*
X58452Y-176D01*
X58449Y-202D01*
X58439Y-226D01*
X58435Y-324D01*
X58424Y-420D01*
X58430Y-446D01*
X58429Y-472D01*
X58456Y-566D01*
X58477Y-661D01*
X58490Y-683D01*
X58497Y-708D01*
X58553Y-788D01*
X58603Y-872D01*
X58623Y-889D01*
X58638Y-910D01*
X58716Y-968D01*
X58790Y-1032D01*
X58814Y-1042D01*
X58835Y-1057D01*
X58927Y-1087D01*
X59018Y-1124D01*
X59050Y-1127D01*
X59069Y-1133D01*
X59102Y-1133D01*
X59185Y-1142D01*
X144015Y-1142D01*
X144111Y-1127D01*
X144208Y-1117D01*
X144232Y-1107D01*
X144258Y-1103D01*
X144344Y-1057D01*
X144433Y-1017D01*
X144452Y-1000D01*
X144475Y-987D01*
X144542Y-917D01*
X144614Y-851D01*
X144627Y-828D01*
X144645Y-809D01*
X144686Y-721D01*
X144733Y-635D01*
X144737Y-610D01*
X144748Y-586D01*
X144759Y-489D01*
X144776Y-393D01*
X144773Y-367D01*
X144776Y-342D01*
X144755Y-246D01*
X144741Y-150D01*
X144729Y-127D01*
X144723Y-101D01*
X144673Y-18D01*
X144629Y69D01*
X144610Y88D01*
X144597Y110D01*
X144523Y173D01*
X144454Y241D01*
X144425Y257D01*
X144410Y270D01*
X144379Y282D01*
X144307Y322D01*
X144168Y380D01*
X140080Y4468D01*
X137867Y9809D01*
X137867Y15591D01*
X140080Y20932D01*
X144168Y25020D01*
X149509Y27233D01*
X155291Y27233D01*
X160632Y25020D01*
X164720Y20932D01*
X166933Y15591D01*
X166933Y9809D01*
X164720Y4468D01*
X160632Y380D01*
X160493Y322D01*
X160410Y271D01*
X160325Y225D01*
X160307Y207D01*
X160284Y193D01*
X160222Y118D01*
X160155Y47D01*
X160144Y23D01*
X160128Y3D01*
X160093Y-88D01*
X160052Y-176D01*
X160049Y-202D01*
X160039Y-226D01*
X160035Y-324D01*
X160024Y-420D01*
X160030Y-446D01*
X160029Y-472D01*
X160056Y-566D01*
X160077Y-661D01*
X160090Y-683D01*
X160097Y-708D01*
X160153Y-788D01*
X160203Y-872D01*
X160223Y-889D01*
X160238Y-910D01*
X160316Y-968D01*
X160390Y-1032D01*
X160414Y-1042D01*
X160435Y-1057D01*
X160527Y-1087D01*
X160618Y-1124D01*
X160650Y-1127D01*
X160669Y-1133D01*
X160702Y-1133D01*
X160785Y-1142D01*
X200916Y-1142D01*
X200936Y-1139D01*
X200955Y-1141D01*
X201057Y-1119D01*
X201159Y-1103D01*
X201176Y-1093D01*
X201196Y-1089D01*
X201285Y-1036D01*
X201376Y-987D01*
X201390Y-973D01*
X201407Y-963D01*
X201474Y-884D01*
X201546Y-809D01*
X201554Y-791D01*
X201567Y-776D01*
X201606Y-680D01*
X201649Y-586D01*
X201651Y-566D01*
X201659Y-548D01*
X201677Y-381D01*
X201677Y239671D01*
X201666Y239742D01*
X201664Y239814D01*
X201646Y239863D01*
X201638Y239914D01*
X201604Y239977D01*
X201579Y240045D01*
X201547Y240085D01*
X201522Y240131D01*
X201470Y240181D01*
X201426Y240237D01*
X201382Y240265D01*
X201344Y240301D01*
X201279Y240331D01*
X201219Y240370D01*
X201168Y240382D01*
X201121Y240404D01*
X201050Y240412D01*
X200980Y240430D01*
X200928Y240426D01*
X200877Y240432D01*
X200806Y240416D01*
X200735Y240411D01*
X200687Y240390D01*
X200636Y240379D01*
X200575Y240342D01*
X200509Y240314D01*
X200453Y240270D01*
X200425Y240253D01*
X200410Y240235D01*
X200378Y240210D01*
X199340Y239172D01*
X195664Y237649D01*
X191686Y237649D01*
X188010Y239172D01*
X185197Y241985D01*
X183674Y245661D01*
X183674Y249639D01*
X185197Y253315D01*
X188010Y256128D01*
X191686Y257651D01*
X195664Y257651D01*
X199340Y256128D01*
X200378Y255090D01*
X200436Y255049D01*
X200488Y254999D01*
X200535Y254977D01*
X200577Y254947D01*
X200646Y254926D01*
X200711Y254896D01*
X200763Y254890D01*
X200813Y254875D01*
X200884Y254876D01*
X200955Y254868D01*
X201006Y254880D01*
X201058Y254881D01*
X201126Y254906D01*
X201196Y254921D01*
X201241Y254947D01*
X201289Y254965D01*
X201345Y255010D01*
X201407Y255047D01*
X201441Y255086D01*
X201481Y255119D01*
X201520Y255179D01*
X201567Y255234D01*
X201586Y255282D01*
X201614Y255326D01*
X201632Y255395D01*
X201659Y255462D01*
X201667Y255533D01*
X201675Y255564D01*
X201673Y255588D01*
X201677Y255629D01*
X201677Y340006D01*
X201674Y340026D01*
X201676Y340045D01*
X201654Y340147D01*
X201638Y340249D01*
X201628Y340266D01*
X201624Y340286D01*
X201571Y340375D01*
X201522Y340466D01*
X201508Y340480D01*
X201498Y340497D01*
X201419Y340564D01*
X201344Y340636D01*
X201326Y340644D01*
X201311Y340657D01*
X201215Y340696D01*
X201121Y340739D01*
X201101Y340741D01*
X201083Y340749D01*
X200916Y340767D01*
X135072Y340767D01*
X135001Y340756D01*
X134929Y340754D01*
X134880Y340736D01*
X134829Y340728D01*
X134766Y340694D01*
X134698Y340669D01*
X134657Y340637D01*
X134612Y340612D01*
X134562Y340561D01*
X134506Y340516D01*
X134478Y340472D01*
X134442Y340434D01*
X134412Y340369D01*
X134373Y340309D01*
X134360Y340258D01*
X134339Y340211D01*
X134331Y340140D01*
X134313Y340070D01*
X134317Y340018D01*
X134311Y339967D01*
X134327Y339896D01*
X134332Y339825D01*
X134353Y339777D01*
X134364Y339726D01*
X134401Y339665D01*
X134429Y339599D01*
X134473Y339543D01*
X134490Y339515D01*
X134508Y339500D01*
X134533Y339468D01*
X140006Y333996D01*
X140022Y333984D01*
X140034Y333968D01*
X140122Y333912D01*
X140205Y333852D01*
X140224Y333846D01*
X140241Y333835D01*
X140342Y333810D01*
X140440Y333780D01*
X140460Y333780D01*
X140480Y333775D01*
X140583Y333783D01*
X140686Y333786D01*
X140705Y333793D01*
X140725Y333794D01*
X140820Y333835D01*
X140917Y333870D01*
X140933Y333883D01*
X140951Y333891D01*
X141082Y333996D01*
X141097Y334011D01*
X148463Y334011D01*
X153671Y328803D01*
X153671Y321317D01*
X153661Y321277D01*
X153630Y321178D01*
X153631Y321158D01*
X153626Y321139D01*
X153634Y321036D01*
X153636Y320932D01*
X153643Y320913D01*
X153645Y320893D01*
X153685Y320798D01*
X153721Y320701D01*
X153733Y320685D01*
X153741Y320667D01*
X153846Y320536D01*
X174753Y299629D01*
X174753Y215657D01*
X174767Y215566D01*
X174775Y215476D01*
X174787Y215446D01*
X174792Y215414D01*
X174835Y215333D01*
X174871Y215249D01*
X174897Y215217D01*
X174908Y215196D01*
X174931Y215174D01*
X174976Y215118D01*
X175769Y214325D01*
X175769Y211379D01*
X173685Y209295D01*
X170739Y209295D01*
X168655Y211379D01*
X168655Y214325D01*
X169448Y215118D01*
X169501Y215192D01*
X169561Y215262D01*
X169573Y215292D01*
X169592Y215318D01*
X169619Y215405D01*
X169653Y215490D01*
X169657Y215531D01*
X169664Y215553D01*
X169663Y215585D01*
X169671Y215657D01*
X169671Y297209D01*
X169657Y297299D01*
X169649Y297390D01*
X169637Y297420D01*
X169632Y297452D01*
X169589Y297533D01*
X169553Y297617D01*
X169527Y297649D01*
X169516Y297669D01*
X169493Y297692D01*
X169448Y297748D01*
X150253Y316943D01*
X150237Y316955D01*
X150224Y316970D01*
X150137Y317026D01*
X150053Y317086D01*
X150034Y317092D01*
X150017Y317103D01*
X149917Y317128D01*
X149818Y317159D01*
X149798Y317158D01*
X149779Y317163D01*
X149676Y317155D01*
X149572Y317152D01*
X149553Y317146D01*
X149534Y317144D01*
X149439Y317104D01*
X149341Y317068D01*
X149326Y317056D01*
X149307Y317048D01*
X149176Y316943D01*
X148463Y316229D01*
X141097Y316229D01*
X136301Y321025D01*
X136243Y321067D01*
X136191Y321117D01*
X136144Y321139D01*
X136102Y321169D01*
X136033Y321190D01*
X135968Y321220D01*
X135916Y321226D01*
X135866Y321241D01*
X135795Y321239D01*
X135724Y321247D01*
X135673Y321236D01*
X135621Y321235D01*
X135553Y321210D01*
X135483Y321195D01*
X135438Y321168D01*
X135390Y321150D01*
X135334Y321106D01*
X135272Y321069D01*
X135238Y321029D01*
X135198Y320997D01*
X135159Y320936D01*
X135112Y320882D01*
X135093Y320834D01*
X135065Y320790D01*
X135047Y320720D01*
X135020Y320654D01*
X135012Y320582D01*
X135004Y320551D01*
X135006Y320528D01*
X135002Y320487D01*
X135002Y306149D01*
X135013Y306078D01*
X135015Y306007D01*
X135033Y305958D01*
X135041Y305906D01*
X135075Y305843D01*
X135100Y305776D01*
X135132Y305735D01*
X135157Y305689D01*
X135209Y305639D01*
X135253Y305583D01*
X135297Y305555D01*
X135335Y305519D01*
X135400Y305489D01*
X135460Y305450D01*
X135511Y305438D01*
X135558Y305416D01*
X135629Y305408D01*
X135699Y305390D01*
X135751Y305394D01*
X135802Y305389D01*
X135873Y305404D01*
X135944Y305410D01*
X135992Y305430D01*
X136043Y305441D01*
X136104Y305478D01*
X136170Y305506D01*
X136226Y305551D01*
X136254Y305567D01*
X136269Y305585D01*
X136301Y305611D01*
X140571Y309881D01*
X143257Y309881D01*
X143257Y300482D01*
X143260Y300462D01*
X143258Y300443D01*
X143280Y300341D01*
X143297Y300239D01*
X143306Y300222D01*
X143310Y300202D01*
X143363Y300113D01*
X143412Y300022D01*
X143426Y300008D01*
X143436Y299991D01*
X143515Y299924D01*
X143590Y299853D01*
X143608Y299844D01*
X143623Y299831D01*
X143719Y299793D01*
X143813Y299749D01*
X143833Y299747D01*
X143851Y299739D01*
X144018Y299721D01*
X144781Y299721D01*
X144781Y299719D01*
X144018Y299719D01*
X143998Y299716D01*
X143979Y299718D01*
X143877Y299696D01*
X143775Y299679D01*
X143758Y299670D01*
X143738Y299666D01*
X143649Y299613D01*
X143558Y299564D01*
X143544Y299550D01*
X143527Y299540D01*
X143460Y299461D01*
X143389Y299386D01*
X143380Y299368D01*
X143367Y299353D01*
X143328Y299257D01*
X143285Y299163D01*
X143283Y299143D01*
X143275Y299125D01*
X143257Y298958D01*
X143257Y289559D01*
X140571Y289559D01*
X136301Y293829D01*
X136243Y293871D01*
X136191Y293921D01*
X136144Y293942D01*
X136102Y293973D01*
X136033Y293994D01*
X135968Y294024D01*
X135916Y294030D01*
X135866Y294045D01*
X135795Y294043D01*
X135724Y294051D01*
X135673Y294040D01*
X135621Y294039D01*
X135553Y294014D01*
X135483Y293999D01*
X135438Y293972D01*
X135390Y293954D01*
X135334Y293910D01*
X135272Y293873D01*
X135238Y293833D01*
X135198Y293801D01*
X135159Y293740D01*
X135112Y293686D01*
X135093Y293638D01*
X135065Y293594D01*
X135047Y293524D01*
X135020Y293458D01*
X135012Y293386D01*
X135004Y293355D01*
X135006Y293332D01*
X135002Y293291D01*
X135002Y292876D01*
X135016Y292786D01*
X135024Y292695D01*
X135036Y292666D01*
X135041Y292634D01*
X135084Y292553D01*
X135120Y292469D01*
X135146Y292437D01*
X135157Y292416D01*
X135180Y292394D01*
X135225Y292338D01*
X160529Y267034D01*
X160529Y257313D01*
X160543Y257222D01*
X160551Y257132D01*
X160563Y257102D01*
X160568Y257070D01*
X160611Y256989D01*
X160647Y256905D01*
X160673Y256873D01*
X160684Y256852D01*
X160707Y256830D01*
X160752Y256774D01*
X162053Y255473D01*
X162053Y252527D01*
X159969Y250443D01*
X157023Y250443D01*
X154939Y252527D01*
X154939Y255473D01*
X156240Y256774D01*
X156293Y256848D01*
X156353Y256918D01*
X156365Y256948D01*
X156384Y256974D01*
X156411Y257061D01*
X156445Y257146D01*
X156449Y257187D01*
X156456Y257209D01*
X156455Y257241D01*
X156463Y257313D01*
X156463Y265035D01*
X156449Y265125D01*
X156441Y265216D01*
X156429Y265245D01*
X156424Y265277D01*
X156381Y265358D01*
X156345Y265442D01*
X156319Y265474D01*
X156308Y265495D01*
X156285Y265517D01*
X156240Y265573D01*
X130936Y290877D01*
X130936Y325614D01*
X130922Y325704D01*
X130914Y325795D01*
X130902Y325825D01*
X130897Y325856D01*
X130854Y325937D01*
X130818Y326021D01*
X130792Y326053D01*
X130781Y326074D01*
X130758Y326096D01*
X130713Y326152D01*
X129570Y327295D01*
X129512Y327337D01*
X129460Y327386D01*
X129413Y327408D01*
X129371Y327439D01*
X129302Y327460D01*
X129237Y327490D01*
X129185Y327496D01*
X129135Y327511D01*
X129064Y327509D01*
X128993Y327517D01*
X128942Y327506D01*
X128890Y327505D01*
X128822Y327480D01*
X128752Y327465D01*
X128707Y327438D01*
X128659Y327420D01*
X128603Y327375D01*
X128541Y327339D01*
X128507Y327299D01*
X128467Y327266D01*
X128428Y327206D01*
X128381Y327152D01*
X128362Y327103D01*
X128334Y327059D01*
X128316Y326990D01*
X128289Y326923D01*
X128281Y326852D01*
X128273Y326821D01*
X128275Y326798D01*
X128271Y326757D01*
X128271Y321437D01*
X123063Y316229D01*
X115697Y316229D01*
X115323Y316604D01*
X115307Y316615D01*
X115294Y316631D01*
X115207Y316687D01*
X115123Y316747D01*
X115104Y316753D01*
X115087Y316764D01*
X114987Y316789D01*
X114888Y316820D01*
X114868Y316819D01*
X114849Y316824D01*
X114746Y316816D01*
X114642Y316813D01*
X114623Y316806D01*
X114604Y316805D01*
X114509Y316764D01*
X114411Y316729D01*
X114396Y316716D01*
X114377Y316708D01*
X114246Y316604D01*
X110460Y312817D01*
X110407Y312743D01*
X110347Y312674D01*
X110335Y312643D01*
X110316Y312617D01*
X110289Y312530D01*
X110255Y312445D01*
X110251Y312404D01*
X110244Y312382D01*
X110245Y312350D01*
X110237Y312279D01*
X110237Y304988D01*
X110248Y304917D01*
X110250Y304845D01*
X110268Y304797D01*
X110276Y304745D01*
X110310Y304682D01*
X110335Y304614D01*
X110367Y304574D01*
X110392Y304528D01*
X110444Y304478D01*
X110488Y304422D01*
X110532Y304394D01*
X110570Y304358D01*
X110635Y304328D01*
X110695Y304289D01*
X110746Y304277D01*
X110793Y304255D01*
X110864Y304247D01*
X110934Y304229D01*
X110986Y304233D01*
X111037Y304228D01*
X111108Y304243D01*
X111179Y304249D01*
X111227Y304269D01*
X111278Y304280D01*
X111339Y304317D01*
X111405Y304345D01*
X111461Y304390D01*
X111489Y304406D01*
X111504Y304424D01*
X111536Y304450D01*
X115697Y308611D01*
X123063Y308611D01*
X128271Y303403D01*
X128271Y296037D01*
X123063Y290829D01*
X115697Y290829D01*
X114815Y291712D01*
X114799Y291723D01*
X114786Y291739D01*
X114699Y291795D01*
X114615Y291855D01*
X114596Y291861D01*
X114579Y291872D01*
X114479Y291897D01*
X114380Y291928D01*
X114360Y291927D01*
X114341Y291932D01*
X114238Y291924D01*
X114134Y291921D01*
X114115Y291914D01*
X114096Y291913D01*
X114001Y291872D01*
X113903Y291837D01*
X113888Y291824D01*
X113869Y291816D01*
X113738Y291712D01*
X112316Y290289D01*
X112304Y290273D01*
X112288Y290260D01*
X112232Y290173D01*
X112172Y290089D01*
X112166Y290070D01*
X112155Y290053D01*
X112130Y289953D01*
X112100Y289854D01*
X112100Y289834D01*
X112095Y289815D01*
X112103Y289712D01*
X112106Y289608D01*
X112113Y289589D01*
X112114Y289570D01*
X112155Y289475D01*
X112190Y289377D01*
X112203Y289361D01*
X112211Y289343D01*
X112316Y289212D01*
X160529Y240999D01*
X160529Y216165D01*
X160543Y216074D01*
X160551Y215984D01*
X160563Y215954D01*
X160568Y215922D01*
X160611Y215841D01*
X160647Y215757D01*
X160673Y215725D01*
X160684Y215704D01*
X160707Y215682D01*
X160752Y215626D01*
X162053Y214325D01*
X162053Y211379D01*
X159969Y209295D01*
X157023Y209295D01*
X154939Y211379D01*
X154939Y214325D01*
X156240Y215626D01*
X156293Y215700D01*
X156353Y215770D01*
X156365Y215800D01*
X156384Y215826D01*
X156411Y215913D01*
X156445Y215998D01*
X156449Y216039D01*
X156456Y216061D01*
X156455Y216093D01*
X156463Y216165D01*
X156463Y239000D01*
X156449Y239090D01*
X156441Y239181D01*
X156429Y239210D01*
X156424Y239242D01*
X156381Y239323D01*
X156345Y239407D01*
X156319Y239439D01*
X156308Y239460D01*
X156285Y239482D01*
X156240Y239538D01*
X109441Y286337D01*
X109425Y286349D01*
X109412Y286365D01*
X109325Y286421D01*
X109241Y286481D01*
X109222Y286487D01*
X109205Y286498D01*
X109105Y286523D01*
X109006Y286553D01*
X108986Y286553D01*
X108967Y286558D01*
X108864Y286550D01*
X108760Y286547D01*
X108741Y286540D01*
X108721Y286539D01*
X108627Y286498D01*
X108529Y286463D01*
X108513Y286450D01*
X108495Y286442D01*
X108364Y286337D01*
X99902Y277875D01*
X69797Y277875D01*
X69726Y277864D01*
X69655Y277862D01*
X69606Y277844D01*
X69554Y277836D01*
X69491Y277802D01*
X69424Y277777D01*
X69383Y277745D01*
X69337Y277720D01*
X69287Y277668D01*
X69232Y277624D01*
X69203Y277580D01*
X69168Y277542D01*
X69137Y277477D01*
X69099Y277417D01*
X69086Y277366D01*
X69064Y277319D01*
X69056Y277248D01*
X69038Y277178D01*
X69043Y277126D01*
X69037Y277075D01*
X69052Y277004D01*
X69058Y276933D01*
X69078Y276885D01*
X69089Y276834D01*
X69126Y276773D01*
X69154Y276707D01*
X69199Y276651D01*
X69215Y276623D01*
X69233Y276608D01*
X69259Y276576D01*
X69767Y276068D01*
X69841Y276014D01*
X69910Y275955D01*
X69940Y275943D01*
X69967Y275924D01*
X70054Y275897D01*
X70138Y275863D01*
X70179Y275859D01*
X70202Y275852D01*
X70234Y275853D01*
X70305Y275845D01*
X86948Y275845D01*
X158226Y204567D01*
X158300Y204514D01*
X158369Y204454D01*
X158400Y204442D01*
X158426Y204423D01*
X158513Y204396D01*
X158598Y204362D01*
X158639Y204358D01*
X158661Y204351D01*
X158693Y204352D01*
X158764Y204344D01*
X176008Y204344D01*
X176098Y204358D01*
X176189Y204366D01*
X176218Y204378D01*
X176250Y204383D01*
X176331Y204426D01*
X176415Y204462D01*
X176447Y204488D01*
X176468Y204499D01*
X176490Y204522D01*
X176546Y204567D01*
X183006Y211027D01*
X183059Y211101D01*
X183119Y211170D01*
X183131Y211201D01*
X183150Y211227D01*
X183177Y211314D01*
X183211Y211399D01*
X183215Y211440D01*
X183222Y211462D01*
X183221Y211494D01*
X183229Y211565D01*
X183229Y222426D01*
X183974Y223171D01*
X197026Y223171D01*
X197771Y222426D01*
X197771Y209374D01*
X197026Y208629D01*
X186673Y208629D01*
X186583Y208615D01*
X186492Y208607D01*
X186463Y208595D01*
X186431Y208590D01*
X186350Y208547D01*
X186266Y208511D01*
X186234Y208485D01*
X186213Y208474D01*
X186191Y208451D01*
X186135Y208406D01*
X178007Y200278D01*
X155589Y200278D01*
X155499Y200264D01*
X155408Y200256D01*
X155379Y200244D01*
X155347Y200239D01*
X155266Y200196D01*
X155182Y200160D01*
X155150Y200134D01*
X155129Y200123D01*
X155107Y200100D01*
X155051Y200055D01*
X134844Y179848D01*
X134791Y179774D01*
X134731Y179705D01*
X134719Y179674D01*
X134700Y179648D01*
X134673Y179561D01*
X134639Y179476D01*
X134635Y179435D01*
X134628Y179413D01*
X134629Y179381D01*
X134621Y179310D01*
X134621Y141489D01*
X134635Y141398D01*
X134643Y141308D01*
X134655Y141278D01*
X134660Y141246D01*
X134703Y141165D01*
X134739Y141081D01*
X134765Y141049D01*
X134776Y141028D01*
X134799Y141006D01*
X134844Y140950D01*
X136145Y139649D01*
X136145Y136703D01*
X134061Y134619D01*
X131115Y134619D01*
X129031Y136703D01*
X129031Y139649D01*
X130332Y140950D01*
X130385Y141024D01*
X130445Y141094D01*
X130457Y141124D01*
X130476Y141150D01*
X130503Y141237D01*
X130537Y141322D01*
X130541Y141363D01*
X130548Y141385D01*
X130547Y141417D01*
X130555Y141489D01*
X130555Y181309D01*
X152606Y203360D01*
X152618Y203376D01*
X152634Y203389D01*
X152690Y203476D01*
X152750Y203560D01*
X152756Y203579D01*
X152767Y203596D01*
X152792Y203696D01*
X152822Y203795D01*
X152822Y203815D01*
X152827Y203834D01*
X152819Y203937D01*
X152816Y204041D01*
X152809Y204060D01*
X152808Y204080D01*
X152767Y204174D01*
X152732Y204272D01*
X152719Y204288D01*
X152711Y204306D01*
X152606Y204437D01*
X85487Y271556D01*
X85413Y271609D01*
X85344Y271669D01*
X85313Y271681D01*
X85287Y271700D01*
X85200Y271727D01*
X85115Y271761D01*
X85074Y271765D01*
X85052Y271772D01*
X85020Y271771D01*
X84949Y271779D01*
X70305Y271779D01*
X70215Y271765D01*
X70124Y271757D01*
X70094Y271745D01*
X70062Y271740D01*
X69982Y271697D01*
X69898Y271661D01*
X69866Y271635D01*
X69845Y271624D01*
X69823Y271601D01*
X69767Y271556D01*
X68466Y270255D01*
X65519Y270255D01*
X63436Y272339D01*
X63436Y275285D01*
X64726Y276576D01*
X64768Y276634D01*
X64817Y276686D01*
X64839Y276733D01*
X64870Y276775D01*
X64891Y276844D01*
X64921Y276909D01*
X64927Y276961D01*
X64942Y277011D01*
X64940Y277082D01*
X64948Y277153D01*
X64937Y277204D01*
X64936Y277256D01*
X64911Y277324D01*
X64896Y277394D01*
X64869Y277439D01*
X64851Y277487D01*
X64806Y277543D01*
X64770Y277605D01*
X64730Y277639D01*
X64698Y277679D01*
X64637Y277718D01*
X64583Y277765D01*
X64535Y277784D01*
X64491Y277812D01*
X64421Y277830D01*
X64355Y277857D01*
X64283Y277865D01*
X64252Y277873D01*
X64229Y277871D01*
X64188Y277875D01*
X53605Y277875D01*
X53514Y277861D01*
X53424Y277853D01*
X53394Y277841D01*
X53362Y277836D01*
X53281Y277793D01*
X53197Y277757D01*
X53165Y277731D01*
X53144Y277720D01*
X53122Y277697D01*
X53066Y277652D01*
X51765Y276351D01*
X50941Y276351D01*
X50871Y276340D01*
X50799Y276338D01*
X50750Y276320D01*
X50699Y276312D01*
X50635Y276278D01*
X50568Y276253D01*
X50527Y276221D01*
X50481Y276196D01*
X50432Y276144D01*
X50376Y276100D01*
X50348Y276056D01*
X50312Y276018D01*
X50282Y275953D01*
X50243Y275893D01*
X50230Y275842D01*
X50208Y275795D01*
X50200Y275724D01*
X50183Y275654D01*
X50187Y275602D01*
X50181Y275551D01*
X50196Y275480D01*
X50202Y275409D01*
X50222Y275361D01*
X50233Y275310D01*
X50270Y275249D01*
X50298Y275183D01*
X50343Y275127D01*
X50359Y275099D01*
X50377Y275084D01*
X50403Y275052D01*
X59293Y266162D01*
X59367Y266109D01*
X59436Y266049D01*
X59467Y266037D01*
X59493Y266018D01*
X59580Y265991D01*
X59665Y265957D01*
X59706Y265953D01*
X59728Y265946D01*
X59760Y265947D01*
X59831Y265939D01*
X85742Y265939D01*
X134621Y217060D01*
X134621Y211593D01*
X134635Y211502D01*
X134643Y211412D01*
X134655Y211382D01*
X134660Y211350D01*
X134703Y211269D01*
X134739Y211185D01*
X134765Y211153D01*
X134776Y211132D01*
X134799Y211110D01*
X134844Y211054D01*
X136145Y209753D01*
X136145Y206807D01*
X134061Y204723D01*
X131115Y204723D01*
X129031Y206807D01*
X129031Y209753D01*
X130332Y211054D01*
X130385Y211128D01*
X130445Y211198D01*
X130457Y211228D01*
X130476Y211254D01*
X130503Y211341D01*
X130537Y211426D01*
X130541Y211467D01*
X130548Y211489D01*
X130547Y211521D01*
X130555Y211593D01*
X130555Y215060D01*
X130553Y215077D01*
X130554Y215092D01*
X130540Y215158D01*
X130533Y215241D01*
X130521Y215271D01*
X130516Y215303D01*
X130503Y215326D01*
X130502Y215333D01*
X130483Y215364D01*
X130473Y215384D01*
X130437Y215467D01*
X130411Y215500D01*
X130400Y215520D01*
X130377Y215542D01*
X130332Y215598D01*
X84280Y261650D01*
X84207Y261703D01*
X84137Y261763D01*
X84107Y261775D01*
X84081Y261794D01*
X83994Y261821D01*
X83909Y261855D01*
X83868Y261859D01*
X83846Y261866D01*
X83813Y261865D01*
X83742Y261873D01*
X57832Y261873D01*
X43577Y276128D01*
X43503Y276181D01*
X43434Y276241D01*
X43403Y276253D01*
X43377Y276272D01*
X43290Y276299D01*
X43205Y276333D01*
X43164Y276337D01*
X43142Y276344D01*
X43110Y276343D01*
X43039Y276351D01*
X41199Y276351D01*
X40416Y277134D01*
X40358Y277176D01*
X40306Y277225D01*
X40259Y277247D01*
X40217Y277277D01*
X40148Y277298D01*
X40083Y277329D01*
X40031Y277334D01*
X39981Y277350D01*
X39910Y277348D01*
X39839Y277356D01*
X39788Y277345D01*
X39736Y277343D01*
X39668Y277319D01*
X39598Y277303D01*
X39553Y277277D01*
X39505Y277259D01*
X39449Y277214D01*
X39387Y277177D01*
X39353Y277138D01*
X39313Y277105D01*
X39274Y277045D01*
X39227Y276990D01*
X39208Y276942D01*
X39180Y276898D01*
X39162Y276829D01*
X39135Y276762D01*
X39127Y276691D01*
X39119Y276660D01*
X39121Y276636D01*
X39117Y276595D01*
X39117Y225436D01*
X39131Y225345D01*
X39139Y225255D01*
X39151Y225225D01*
X39156Y225193D01*
X39199Y225112D01*
X39235Y225028D01*
X39261Y224996D01*
X39272Y224975D01*
X39295Y224953D01*
X39340Y224897D01*
X40768Y223469D01*
X40768Y220523D01*
X39477Y219232D01*
X39435Y219174D01*
X39386Y219122D01*
X39364Y219075D01*
X39334Y219033D01*
X39313Y218964D01*
X39282Y218899D01*
X39277Y218847D01*
X39261Y218797D01*
X39263Y218726D01*
X39255Y218655D01*
X39266Y218604D01*
X39268Y218552D01*
X39292Y218484D01*
X39308Y218414D01*
X39334Y218369D01*
X39352Y218321D01*
X39397Y218265D01*
X39434Y218203D01*
X39473Y218169D01*
X39506Y218129D01*
X39566Y218090D01*
X39621Y218043D01*
X39669Y218024D01*
X39713Y217996D01*
X39782Y217978D01*
X39849Y217951D01*
X39920Y217943D01*
X39951Y217935D01*
X39975Y217937D01*
X40016Y217933D01*
X80868Y217933D01*
X80888Y217936D01*
X80907Y217934D01*
X81009Y217956D01*
X81111Y217972D01*
X81128Y217982D01*
X81148Y217986D01*
X81237Y218039D01*
X81328Y218088D01*
X81342Y218102D01*
X81359Y218112D01*
X81426Y218191D01*
X81498Y218266D01*
X81506Y218284D01*
X81519Y218299D01*
X81558Y218395D01*
X81601Y218489D01*
X81603Y218509D01*
X81611Y218527D01*
X81629Y218694D01*
X81629Y222426D01*
X82374Y223171D01*
X95426Y223171D01*
X96171Y222426D01*
X96171Y211565D01*
X96185Y211475D01*
X96193Y211384D01*
X96205Y211355D01*
X96210Y211323D01*
X96253Y211242D01*
X96289Y211158D01*
X96315Y211126D01*
X96326Y211105D01*
X96349Y211083D01*
X96394Y211027D01*
X98776Y208645D01*
X98834Y208603D01*
X98886Y208554D01*
X98933Y208532D01*
X98975Y208501D01*
X99044Y208480D01*
X99109Y208450D01*
X99161Y208444D01*
X99211Y208429D01*
X99282Y208431D01*
X99353Y208423D01*
X99404Y208434D01*
X99456Y208435D01*
X99524Y208460D01*
X99594Y208475D01*
X99639Y208502D01*
X99687Y208520D01*
X99743Y208565D01*
X99805Y208601D01*
X99839Y208641D01*
X99879Y208674D01*
X99918Y208734D01*
X99965Y208788D01*
X99984Y208837D01*
X100012Y208881D01*
X100030Y208950D01*
X100057Y209017D01*
X100065Y209088D01*
X100073Y209119D01*
X100071Y209142D01*
X100075Y209183D01*
X100075Y222363D01*
X100061Y222453D01*
X100053Y222544D01*
X100041Y222573D01*
X100036Y222605D01*
X99993Y222686D01*
X99957Y222770D01*
X99931Y222802D01*
X99920Y222823D01*
X99897Y222845D01*
X99852Y222901D01*
X87773Y234980D01*
X87699Y235033D01*
X87630Y235093D01*
X87599Y235105D01*
X87573Y235124D01*
X87486Y235151D01*
X87401Y235185D01*
X87360Y235189D01*
X87338Y235196D01*
X87306Y235195D01*
X87235Y235203D01*
X85609Y235203D01*
X85518Y235189D01*
X85428Y235181D01*
X85398Y235169D01*
X85366Y235164D01*
X85285Y235121D01*
X85201Y235085D01*
X85169Y235059D01*
X85148Y235048D01*
X85126Y235025D01*
X85070Y234980D01*
X83769Y233679D01*
X80823Y233679D01*
X78739Y235763D01*
X78739Y238709D01*
X80823Y240793D01*
X83769Y240793D01*
X85070Y239492D01*
X85144Y239439D01*
X85214Y239379D01*
X85244Y239367D01*
X85270Y239348D01*
X85357Y239321D01*
X85442Y239287D01*
X85483Y239283D01*
X85505Y239276D01*
X85537Y239277D01*
X85609Y239269D01*
X89234Y239269D01*
X104141Y224362D01*
X104141Y186577D01*
X104155Y186487D01*
X104163Y186396D01*
X104175Y186367D01*
X104180Y186335D01*
X104223Y186254D01*
X104259Y186170D01*
X104285Y186138D01*
X104296Y186117D01*
X104319Y186095D01*
X104364Y186039D01*
X110347Y180056D01*
X110421Y180003D01*
X110490Y179943D01*
X110521Y179931D01*
X110547Y179912D01*
X110634Y179885D01*
X110719Y179851D01*
X110760Y179847D01*
X110782Y179840D01*
X110814Y179841D01*
X110885Y179833D01*
X119714Y179833D01*
X123160Y176387D01*
X123218Y176345D01*
X123270Y176296D01*
X123317Y176274D01*
X123359Y176243D01*
X123428Y176222D01*
X123493Y176192D01*
X123545Y176186D01*
X123595Y176171D01*
X123666Y176173D01*
X123737Y176165D01*
X123788Y176176D01*
X123840Y176177D01*
X123908Y176202D01*
X123978Y176217D01*
X124023Y176244D01*
X124071Y176262D01*
X124127Y176307D01*
X124189Y176343D01*
X124223Y176383D01*
X124263Y176416D01*
X124302Y176476D01*
X124349Y176530D01*
X124368Y176579D01*
X124396Y176623D01*
X124414Y176692D01*
X124441Y176759D01*
X124449Y176830D01*
X124457Y176861D01*
X124455Y176884D01*
X124459Y176925D01*
X124459Y194931D01*
X124445Y195021D01*
X124437Y195112D01*
X124425Y195141D01*
X124420Y195173D01*
X124377Y195254D01*
X124341Y195338D01*
X124315Y195370D01*
X124304Y195391D01*
X124281Y195413D01*
X124236Y195469D01*
X113791Y205914D01*
X113791Y207123D01*
X113777Y207213D01*
X113769Y207304D01*
X113757Y207333D01*
X113752Y207365D01*
X113709Y207446D01*
X113673Y207530D01*
X113647Y207562D01*
X113636Y207583D01*
X113613Y207605D01*
X113568Y207661D01*
X112528Y208702D01*
X112475Y208740D01*
X112428Y208786D01*
X112355Y208826D01*
X112328Y208845D01*
X112309Y208851D01*
X112281Y208867D01*
X110181Y209736D01*
X108136Y211781D01*
X107029Y214454D01*
X107029Y217346D01*
X108136Y220019D01*
X110181Y222064D01*
X112854Y223171D01*
X115746Y223171D01*
X118419Y222064D01*
X120464Y220019D01*
X121571Y217346D01*
X121571Y214454D01*
X120464Y211781D01*
X118419Y209736D01*
X118327Y209698D01*
X118227Y209636D01*
X118127Y209577D01*
X118123Y209572D01*
X118118Y209569D01*
X118043Y209479D01*
X117967Y209390D01*
X117965Y209384D01*
X117961Y209379D01*
X117919Y209270D01*
X117875Y209162D01*
X117874Y209154D01*
X117873Y209149D01*
X117872Y209131D01*
X117857Y208995D01*
X117857Y207913D01*
X117871Y207823D01*
X117879Y207732D01*
X117891Y207703D01*
X117896Y207671D01*
X117939Y207590D01*
X117975Y207506D01*
X118001Y207474D01*
X118012Y207453D01*
X118035Y207431D01*
X118080Y207375D01*
X128525Y196930D01*
X128525Y155495D01*
X127111Y154081D01*
X122889Y149859D01*
X103265Y149859D01*
X103175Y149845D01*
X103084Y149837D01*
X103055Y149825D01*
X103023Y149820D01*
X102942Y149777D01*
X102858Y149741D01*
X102826Y149715D01*
X102805Y149704D01*
X102783Y149681D01*
X102727Y149636D01*
X95964Y142873D01*
X95896Y142779D01*
X95826Y142685D01*
X95824Y142679D01*
X95820Y142674D01*
X95786Y142562D01*
X95750Y142451D01*
X95750Y142444D01*
X95748Y142438D01*
X95751Y142322D01*
X95752Y142205D01*
X95754Y142198D01*
X95754Y142193D01*
X95761Y142175D01*
X95799Y142044D01*
X96171Y141146D01*
X96171Y138254D01*
X95064Y135581D01*
X93371Y133888D01*
X93329Y133830D01*
X93279Y133778D01*
X93257Y133731D01*
X93227Y133689D01*
X93206Y133620D01*
X93176Y133555D01*
X93170Y133503D01*
X93155Y133453D01*
X93157Y133382D01*
X93149Y133311D01*
X93160Y133260D01*
X93161Y133208D01*
X93186Y133140D01*
X93201Y133070D01*
X93228Y133025D01*
X93246Y132977D01*
X93290Y132921D01*
X93327Y132859D01*
X93367Y132825D01*
X93399Y132785D01*
X93460Y132746D01*
X93514Y132699D01*
X93562Y132680D01*
X93606Y132652D01*
X93676Y132634D01*
X93742Y132607D01*
X93814Y132599D01*
X93845Y132591D01*
X93868Y132593D01*
X93909Y132589D01*
X109291Y132589D01*
X109362Y132600D01*
X109434Y132602D01*
X109482Y132620D01*
X109534Y132628D01*
X109597Y132662D01*
X109665Y132687D01*
X109705Y132719D01*
X109751Y132744D01*
X109801Y132796D01*
X109857Y132840D01*
X109885Y132884D01*
X109921Y132922D01*
X109951Y132987D01*
X109990Y133047D01*
X110002Y133098D01*
X110024Y133145D01*
X110032Y133216D01*
X110050Y133286D01*
X110046Y133338D01*
X110051Y133389D01*
X110036Y133460D01*
X110030Y133531D01*
X110010Y133579D01*
X109999Y133630D01*
X109962Y133691D01*
X109934Y133757D01*
X109889Y133813D01*
X109873Y133841D01*
X109855Y133856D01*
X109829Y133888D01*
X108136Y135581D01*
X107029Y138254D01*
X107029Y141146D01*
X108136Y143819D01*
X110181Y145864D01*
X112854Y146971D01*
X115746Y146971D01*
X118419Y145864D01*
X120464Y143819D01*
X121571Y141146D01*
X121571Y138254D01*
X120464Y135581D01*
X118771Y133888D01*
X118729Y133830D01*
X118679Y133778D01*
X118657Y133731D01*
X118627Y133689D01*
X118606Y133620D01*
X118576Y133555D01*
X118570Y133503D01*
X118555Y133453D01*
X118557Y133382D01*
X118549Y133311D01*
X118560Y133260D01*
X118561Y133208D01*
X118586Y133140D01*
X118601Y133070D01*
X118628Y133025D01*
X118646Y132977D01*
X118690Y132921D01*
X118727Y132859D01*
X118767Y132825D01*
X118799Y132785D01*
X118860Y132746D01*
X118914Y132699D01*
X118962Y132680D01*
X119006Y132652D01*
X119076Y132634D01*
X119142Y132607D01*
X119214Y132599D01*
X119245Y132591D01*
X119268Y132593D01*
X119309Y132589D01*
X133971Y132589D01*
X134061Y132603D01*
X134152Y132611D01*
X134181Y132623D01*
X134213Y132628D01*
X134294Y132671D01*
X134378Y132707D01*
X134410Y132733D01*
X134431Y132744D01*
X134453Y132767D01*
X134509Y132812D01*
X185669Y183972D01*
X185681Y183988D01*
X185696Y184001D01*
X185753Y184088D01*
X185813Y184172D01*
X185819Y184191D01*
X185829Y184207D01*
X185855Y184308D01*
X185885Y184407D01*
X185885Y184427D01*
X185889Y184446D01*
X185881Y184549D01*
X185879Y184653D01*
X185872Y184671D01*
X185870Y184691D01*
X185830Y184786D01*
X185794Y184884D01*
X185782Y184899D01*
X185774Y184918D01*
X185669Y185048D01*
X184336Y186381D01*
X183229Y189054D01*
X183229Y191946D01*
X184336Y194619D01*
X186381Y196664D01*
X189054Y197771D01*
X191946Y197771D01*
X194619Y196664D01*
X196664Y194619D01*
X197771Y191946D01*
X197771Y189054D01*
X196664Y186381D01*
X194619Y184336D01*
X191946Y183229D01*
X190991Y183229D01*
X190901Y183215D01*
X190810Y183207D01*
X190781Y183195D01*
X190749Y183190D01*
X190668Y183147D01*
X190584Y183111D01*
X190552Y183085D01*
X190531Y183074D01*
X190509Y183051D01*
X190453Y183006D01*
X138287Y130840D01*
X138245Y130782D01*
X138196Y130730D01*
X138174Y130683D01*
X138143Y130641D01*
X138122Y130572D01*
X138092Y130507D01*
X138086Y130455D01*
X138071Y130405D01*
X138073Y130334D01*
X138065Y130263D01*
X138076Y130212D01*
X138077Y130160D01*
X138102Y130092D01*
X138117Y130022D01*
X138144Y129977D01*
X138162Y129929D01*
X138207Y129873D01*
X138243Y129811D01*
X138283Y129777D01*
X138316Y129737D01*
X138376Y129698D01*
X138430Y129651D01*
X138479Y129632D01*
X138523Y129604D01*
X138592Y129586D01*
X138659Y129559D01*
X138730Y129551D01*
X138761Y129543D01*
X138784Y129545D01*
X138825Y129541D01*
X176610Y129541D01*
X178024Y128127D01*
X185531Y120620D01*
X185625Y120552D01*
X185719Y120482D01*
X185725Y120480D01*
X185730Y120477D01*
X185841Y120442D01*
X185953Y120406D01*
X185959Y120406D01*
X185965Y120404D01*
X186082Y120407D01*
X186199Y120408D01*
X186206Y120410D01*
X186211Y120411D01*
X186229Y120417D01*
X186360Y120455D01*
X189054Y121571D01*
X191946Y121571D01*
X194619Y120464D01*
X196664Y118419D01*
X197771Y115746D01*
X197771Y112854D01*
X196664Y110181D01*
X194619Y108136D01*
X191946Y107029D01*
X189054Y107029D01*
X186381Y108136D01*
X184336Y110181D01*
X183229Y112854D01*
X183229Y115746D01*
X183452Y116284D01*
X183479Y116397D01*
X183507Y116512D01*
X183507Y116518D01*
X183508Y116524D01*
X183497Y116640D01*
X183488Y116757D01*
X183486Y116763D01*
X183485Y116769D01*
X183437Y116877D01*
X183392Y116983D01*
X183387Y116989D01*
X183385Y116994D01*
X183372Y117008D01*
X183287Y117114D01*
X175149Y125252D01*
X175075Y125305D01*
X175006Y125365D01*
X174975Y125377D01*
X174949Y125396D01*
X174862Y125423D01*
X174777Y125457D01*
X174736Y125461D01*
X174714Y125468D01*
X174682Y125467D01*
X174611Y125475D01*
X135393Y125475D01*
X135322Y125464D01*
X135250Y125462D01*
X135201Y125444D01*
X135150Y125436D01*
X135086Y125402D01*
X135019Y125377D01*
X134978Y125345D01*
X134932Y125320D01*
X134883Y125268D01*
X134827Y125224D01*
X134799Y125180D01*
X134763Y125142D01*
X134733Y125077D01*
X134694Y125017D01*
X134681Y124966D01*
X134659Y124919D01*
X134651Y124848D01*
X134634Y124778D01*
X134638Y124726D01*
X134632Y124675D01*
X134648Y124604D01*
X134653Y124533D01*
X134673Y124485D01*
X134685Y124434D01*
X134721Y124373D01*
X134749Y124307D01*
X134794Y124251D01*
X134811Y124223D01*
X134829Y124208D01*
X134854Y124176D01*
X136145Y122885D01*
X136145Y119939D01*
X134844Y118638D01*
X134791Y118564D01*
X134731Y118494D01*
X134719Y118464D01*
X134700Y118438D01*
X134673Y118351D01*
X134639Y118266D01*
X134635Y118225D01*
X134628Y118203D01*
X134629Y118171D01*
X134621Y118099D01*
X134621Y88566D01*
X133207Y87152D01*
X124444Y78389D01*
X124402Y78331D01*
X124353Y78279D01*
X124331Y78232D01*
X124300Y78190D01*
X124279Y78121D01*
X124249Y78056D01*
X124243Y78004D01*
X124228Y77954D01*
X124230Y77883D01*
X124222Y77812D01*
X124233Y77761D01*
X124234Y77709D01*
X124259Y77641D01*
X124274Y77571D01*
X124301Y77526D01*
X124319Y77478D01*
X124364Y77422D01*
X124400Y77360D01*
X124440Y77326D01*
X124473Y77286D01*
X124533Y77247D01*
X124587Y77200D01*
X124636Y77181D01*
X124680Y77153D01*
X124749Y77135D01*
X124816Y77108D01*
X124887Y77100D01*
X124918Y77092D01*
X124941Y77094D01*
X124982Y77090D01*
X139718Y77090D01*
X139808Y77104D01*
X139899Y77112D01*
X139929Y77124D01*
X139961Y77129D01*
X140041Y77172D01*
X140125Y77208D01*
X140157Y77234D01*
X140178Y77245D01*
X140200Y77268D01*
X140256Y77313D01*
X141896Y78953D01*
X145124Y78953D01*
X147406Y76671D01*
X147406Y73443D01*
X145124Y71161D01*
X141896Y71161D01*
X140256Y72801D01*
X140182Y72854D01*
X140113Y72914D01*
X140083Y72926D01*
X140057Y72945D01*
X139970Y72972D01*
X139885Y73006D01*
X139844Y73010D01*
X139821Y73017D01*
X139789Y73016D01*
X139718Y73024D01*
X27954Y73024D01*
X27864Y73010D01*
X27773Y73002D01*
X27744Y72990D01*
X27712Y72985D01*
X27631Y72942D01*
X27547Y72906D01*
X27515Y72880D01*
X27494Y72869D01*
X27472Y72846D01*
X27416Y72801D01*
X20194Y65579D01*
X20141Y65505D01*
X20081Y65436D01*
X20069Y65405D01*
X20050Y65379D01*
X20023Y65292D01*
X19989Y65207D01*
X19985Y65166D01*
X19978Y65144D01*
X19979Y65112D01*
X19971Y65041D01*
X19971Y62054D01*
X18864Y59381D01*
X16819Y57336D01*
X14146Y56229D01*
X11254Y56229D01*
X8581Y57336D01*
X6536Y59381D01*
X5429Y62054D01*
X5429Y64946D01*
X6536Y67619D01*
X8581Y69664D01*
X11254Y70771D01*
X14146Y70771D01*
X16819Y69664D01*
X17136Y69347D01*
X17152Y69335D01*
X17164Y69320D01*
X17251Y69264D01*
X17335Y69203D01*
X17354Y69197D01*
X17371Y69187D01*
X17471Y69161D01*
X17570Y69131D01*
X17590Y69131D01*
X17610Y69127D01*
X17713Y69135D01*
X17816Y69137D01*
X17835Y69144D01*
X17855Y69146D01*
X17950Y69186D01*
X18047Y69222D01*
X18063Y69234D01*
X18081Y69242D01*
X18212Y69347D01*
X24541Y75676D01*
X25955Y77090D01*
X77710Y77090D01*
X77780Y77101D01*
X77852Y77103D01*
X77901Y77121D01*
X77952Y77129D01*
X78016Y77163D01*
X78083Y77188D01*
X78124Y77220D01*
X78170Y77245D01*
X78219Y77297D01*
X78275Y77341D01*
X78303Y77385D01*
X78339Y77423D01*
X78369Y77488D01*
X78408Y77548D01*
X78421Y77599D01*
X78443Y77646D01*
X78451Y77717D01*
X78468Y77787D01*
X78464Y77839D01*
X78470Y77890D01*
X78455Y77961D01*
X78449Y78032D01*
X78429Y78080D01*
X78418Y78131D01*
X78381Y78192D01*
X78353Y78258D01*
X78308Y78314D01*
X78292Y78342D01*
X78274Y78357D01*
X78248Y78389D01*
X77246Y79391D01*
X33177Y123460D01*
X33119Y123502D01*
X33067Y123551D01*
X33020Y123573D01*
X32978Y123604D01*
X32909Y123625D01*
X32844Y123655D01*
X32792Y123661D01*
X32742Y123676D01*
X32671Y123674D01*
X32600Y123682D01*
X32549Y123671D01*
X32497Y123670D01*
X32429Y123645D01*
X32359Y123630D01*
X32314Y123603D01*
X32266Y123585D01*
X32210Y123540D01*
X32148Y123504D01*
X32114Y123464D01*
X32074Y123431D01*
X32035Y123371D01*
X31988Y123317D01*
X31969Y123268D01*
X31941Y123224D01*
X31923Y123155D01*
X31896Y123088D01*
X31888Y123017D01*
X31880Y122986D01*
X31882Y122963D01*
X31878Y122922D01*
X31878Y107743D01*
X18547Y94412D01*
X18535Y94396D01*
X18520Y94383D01*
X18463Y94296D01*
X18403Y94212D01*
X18397Y94193D01*
X18387Y94177D01*
X18361Y94076D01*
X18331Y93977D01*
X18331Y93957D01*
X18327Y93938D01*
X18335Y93835D01*
X18337Y93731D01*
X18344Y93713D01*
X18346Y93693D01*
X18386Y93598D01*
X18422Y93500D01*
X18434Y93485D01*
X18442Y93466D01*
X18547Y93336D01*
X18864Y93019D01*
X19971Y90346D01*
X19971Y87454D01*
X18864Y84781D01*
X16819Y82736D01*
X14146Y81629D01*
X11254Y81629D01*
X8581Y82736D01*
X6536Y84781D01*
X5429Y87454D01*
X5429Y90346D01*
X6536Y93019D01*
X8581Y95064D01*
X11254Y96171D01*
X14241Y96171D01*
X14331Y96185D01*
X14422Y96193D01*
X14451Y96205D01*
X14483Y96210D01*
X14564Y96253D01*
X14648Y96289D01*
X14680Y96315D01*
X14701Y96326D01*
X14723Y96349D01*
X14779Y96394D01*
X24273Y105888D01*
X24315Y105946D01*
X24364Y105998D01*
X24386Y106045D01*
X24417Y106087D01*
X24438Y106156D01*
X24468Y106221D01*
X24474Y106273D01*
X24489Y106323D01*
X24487Y106394D01*
X24495Y106465D01*
X24484Y106516D01*
X24483Y106568D01*
X24458Y106636D01*
X24443Y106706D01*
X24416Y106750D01*
X24398Y106799D01*
X24353Y106855D01*
X24317Y106917D01*
X24277Y106951D01*
X24244Y106991D01*
X24184Y107030D01*
X24130Y107077D01*
X24081Y107096D01*
X24037Y107124D01*
X23968Y107142D01*
X23901Y107169D01*
X23830Y107177D01*
X23799Y107185D01*
X23776Y107183D01*
X23735Y107187D01*
X22911Y107187D01*
X20827Y109271D01*
X20827Y111095D01*
X20812Y111191D01*
X20802Y111288D01*
X20792Y111312D01*
X20788Y111337D01*
X20742Y111423D01*
X20702Y111512D01*
X20685Y111532D01*
X20672Y111555D01*
X20602Y111622D01*
X20536Y111693D01*
X20513Y111706D01*
X20494Y111724D01*
X20406Y111765D01*
X20320Y111812D01*
X20295Y111817D01*
X20271Y111828D01*
X20174Y111838D01*
X20078Y111856D01*
X20052Y111852D01*
X20027Y111855D01*
X19931Y111834D01*
X19835Y111820D01*
X19812Y111808D01*
X19786Y111803D01*
X19703Y111753D01*
X19616Y111708D01*
X19597Y111690D01*
X19575Y111676D01*
X19512Y111602D01*
X19444Y111533D01*
X19428Y111504D01*
X19415Y111489D01*
X19403Y111459D01*
X19363Y111386D01*
X18864Y110181D01*
X16819Y108136D01*
X14146Y107029D01*
X11254Y107029D01*
X8581Y108136D01*
X6536Y110181D01*
X5429Y112854D01*
X5429Y115746D01*
X6536Y118419D01*
X8581Y120464D01*
X11254Y121571D01*
X14146Y121571D01*
X16819Y120464D01*
X18864Y118419D01*
X19971Y115746D01*
X19971Y113199D01*
X19982Y113128D01*
X19984Y113056D01*
X20002Y113007D01*
X20010Y112956D01*
X20044Y112892D01*
X20069Y112825D01*
X20101Y112784D01*
X20126Y112738D01*
X20178Y112689D01*
X20222Y112633D01*
X20266Y112605D01*
X20304Y112569D01*
X20369Y112539D01*
X20429Y112500D01*
X20480Y112487D01*
X20527Y112465D01*
X20598Y112457D01*
X20668Y112440D01*
X20720Y112444D01*
X20771Y112438D01*
X20842Y112454D01*
X20913Y112459D01*
X20961Y112479D01*
X21012Y112491D01*
X21073Y112527D01*
X21139Y112555D01*
X21195Y112600D01*
X21223Y112617D01*
X21238Y112635D01*
X21270Y112660D01*
X22911Y114301D01*
X23949Y114301D01*
X23969Y114304D01*
X23990Y114302D01*
X24091Y114324D01*
X24192Y114340D01*
X24210Y114350D01*
X24230Y114355D01*
X24319Y114408D01*
X24409Y114456D01*
X24423Y114471D01*
X24441Y114481D01*
X24508Y114560D01*
X24578Y114634D01*
X24587Y114653D01*
X24601Y114669D01*
X24639Y114764D01*
X24682Y114857D01*
X24684Y114878D01*
X24692Y114897D01*
X24710Y115064D01*
X24690Y123552D01*
X24679Y123622D01*
X24677Y123692D01*
X24659Y123742D01*
X24650Y123794D01*
X24617Y123857D01*
X24592Y123923D01*
X24559Y123965D01*
X24534Y124011D01*
X24483Y124060D01*
X24439Y124115D01*
X24394Y124144D01*
X24356Y124180D01*
X24291Y124210D01*
X24232Y124248D01*
X24180Y124261D01*
X24132Y124284D01*
X24062Y124291D01*
X23993Y124308D01*
X23940Y124304D01*
X23888Y124310D01*
X23818Y124295D01*
X23748Y124289D01*
X23699Y124269D01*
X23647Y124257D01*
X23587Y124221D01*
X23522Y124193D01*
X23464Y124147D01*
X23437Y124131D01*
X23422Y124113D01*
X23391Y124088D01*
X22809Y123507D01*
X19863Y123507D01*
X17779Y125590D01*
X17779Y128537D01*
X19898Y130655D01*
X19928Y130660D01*
X19945Y130669D01*
X19965Y130674D01*
X20054Y130727D01*
X20145Y130775D01*
X20159Y130789D01*
X20176Y130800D01*
X20243Y130878D01*
X20315Y130953D01*
X20323Y130971D01*
X20336Y130987D01*
X20375Y131083D01*
X20418Y131176D01*
X20420Y131196D01*
X20428Y131215D01*
X20446Y131381D01*
X20446Y135575D01*
X20431Y135671D01*
X20421Y135768D01*
X20411Y135792D01*
X20407Y135817D01*
X20361Y135903D01*
X20321Y135993D01*
X20304Y136012D01*
X20291Y136035D01*
X20221Y136102D01*
X20155Y136174D01*
X20132Y136186D01*
X20113Y136204D01*
X20025Y136245D01*
X19939Y136292D01*
X19914Y136297D01*
X19890Y136308D01*
X19793Y136319D01*
X19697Y136336D01*
X19671Y136332D01*
X19646Y136335D01*
X19551Y136314D01*
X19454Y136300D01*
X19431Y136288D01*
X19405Y136283D01*
X19322Y136233D01*
X19235Y136189D01*
X19216Y136170D01*
X19194Y136157D01*
X19131Y136082D01*
X19063Y136013D01*
X19047Y135984D01*
X19034Y135970D01*
X19022Y135939D01*
X18982Y135866D01*
X18864Y135581D01*
X16819Y133536D01*
X14146Y132429D01*
X11254Y132429D01*
X8581Y133536D01*
X6536Y135581D01*
X5429Y138254D01*
X5429Y141146D01*
X6536Y143819D01*
X8581Y145864D01*
X11254Y146971D01*
X14146Y146971D01*
X16819Y145864D01*
X18864Y143819D01*
X18982Y143534D01*
X19033Y143451D01*
X19079Y143365D01*
X19098Y143347D01*
X19111Y143325D01*
X19186Y143263D01*
X19257Y143196D01*
X19281Y143185D01*
X19301Y143168D01*
X19392Y143133D01*
X19480Y143092D01*
X19506Y143089D01*
X19530Y143080D01*
X19628Y143076D01*
X19724Y143065D01*
X19750Y143071D01*
X19776Y143069D01*
X19870Y143097D01*
X19965Y143117D01*
X19987Y143131D01*
X20012Y143138D01*
X20092Y143194D01*
X20176Y143243D01*
X20193Y143263D01*
X20214Y143278D01*
X20272Y143356D01*
X20336Y143430D01*
X20346Y143455D01*
X20361Y143476D01*
X20391Y143568D01*
X20428Y143659D01*
X20431Y143691D01*
X20437Y143709D01*
X20437Y143743D01*
X20446Y143825D01*
X20446Y146544D01*
X20443Y146562D01*
X20445Y146580D01*
X20430Y146648D01*
X20424Y146725D01*
X20412Y146754D01*
X20407Y146786D01*
X20396Y146806D01*
X20393Y146820D01*
X20361Y146873D01*
X20328Y146951D01*
X20302Y146983D01*
X20291Y147004D01*
X20272Y147022D01*
X20267Y147031D01*
X20258Y147039D01*
X20223Y147082D01*
X11683Y155622D01*
X11683Y157143D01*
X11664Y157257D01*
X11647Y157374D01*
X11645Y157379D01*
X11644Y157385D01*
X11589Y157488D01*
X11536Y157593D01*
X11531Y157597D01*
X11528Y157603D01*
X11444Y157683D01*
X11360Y157765D01*
X11354Y157769D01*
X11350Y157772D01*
X11333Y157780D01*
X11213Y157846D01*
X8581Y158936D01*
X6536Y160981D01*
X5429Y163654D01*
X5429Y166546D01*
X6536Y169219D01*
X8581Y171264D01*
X11254Y172371D01*
X14146Y172371D01*
X15761Y171702D01*
X15828Y171686D01*
X15843Y171680D01*
X15861Y171678D01*
X15949Y171651D01*
X15975Y171652D01*
X16000Y171646D01*
X16097Y171655D01*
X16195Y171657D01*
X16219Y171666D01*
X16245Y171669D01*
X16334Y171708D01*
X16426Y171742D01*
X16446Y171758D01*
X16470Y171769D01*
X16542Y171835D01*
X16618Y171896D01*
X16632Y171918D01*
X16651Y171935D01*
X16698Y172021D01*
X16751Y172102D01*
X16757Y172128D01*
X16770Y172151D01*
X16787Y172247D01*
X16811Y172341D01*
X16809Y172367D01*
X16813Y172393D01*
X16799Y172489D01*
X16792Y172586D01*
X16781Y172610D01*
X16778Y172636D01*
X16733Y172723D01*
X16695Y172813D01*
X16675Y172838D01*
X16666Y172855D01*
X16642Y172879D01*
X16623Y172903D01*
X16616Y172914D01*
X16610Y172919D01*
X16591Y172943D01*
X15747Y173787D01*
X15747Y176733D01*
X17831Y178817D01*
X20777Y178817D01*
X20808Y178786D01*
X20882Y178733D01*
X20952Y178673D01*
X20982Y178661D01*
X21008Y178642D01*
X21095Y178615D01*
X21180Y178581D01*
X21221Y178577D01*
X21243Y178570D01*
X21275Y178571D01*
X21347Y178563D01*
X23481Y178563D01*
X23551Y178574D01*
X23623Y178576D01*
X23672Y178594D01*
X23723Y178602D01*
X23787Y178636D01*
X23854Y178661D01*
X23895Y178693D01*
X23941Y178718D01*
X23990Y178769D01*
X24046Y178814D01*
X24074Y178858D01*
X24110Y178896D01*
X24140Y178961D01*
X24179Y179021D01*
X24192Y179072D01*
X24214Y179119D01*
X24222Y179190D01*
X24239Y179260D01*
X24235Y179312D01*
X24241Y179363D01*
X24226Y179434D01*
X24220Y179505D01*
X24200Y179553D01*
X24189Y179604D01*
X24152Y179665D01*
X24124Y179731D01*
X24079Y179787D01*
X24063Y179815D01*
X24045Y179830D01*
X24019Y179862D01*
X18720Y185161D01*
X18704Y185173D01*
X18691Y185188D01*
X18618Y185236D01*
X18597Y185254D01*
X18585Y185259D01*
X18520Y185305D01*
X18501Y185311D01*
X18485Y185321D01*
X18384Y185347D01*
X18285Y185377D01*
X18265Y185377D01*
X18246Y185381D01*
X18143Y185373D01*
X18039Y185371D01*
X18021Y185364D01*
X18001Y185362D01*
X17906Y185322D01*
X17808Y185286D01*
X17793Y185274D01*
X17774Y185266D01*
X17707Y185212D01*
X17702Y185209D01*
X17695Y185203D01*
X17644Y185161D01*
X16819Y184336D01*
X14146Y183229D01*
X11254Y183229D01*
X8581Y184336D01*
X6536Y186381D01*
X5429Y189054D01*
X5429Y191946D01*
X6536Y194619D01*
X8581Y196664D01*
X11254Y197771D01*
X14146Y197771D01*
X16819Y196664D01*
X18864Y194619D01*
X19971Y191946D01*
X19971Y189975D01*
X19985Y189885D01*
X19993Y189794D01*
X20005Y189765D01*
X20010Y189733D01*
X20053Y189652D01*
X20089Y189568D01*
X20115Y189536D01*
X20126Y189515D01*
X20149Y189493D01*
X20194Y189437D01*
X36165Y173466D01*
X36223Y173424D01*
X36275Y173375D01*
X36322Y173353D01*
X36364Y173322D01*
X36433Y173301D01*
X36498Y173271D01*
X36550Y173265D01*
X36600Y173250D01*
X36671Y173252D01*
X36742Y173244D01*
X36793Y173255D01*
X36845Y173256D01*
X36913Y173281D01*
X36983Y173296D01*
X37027Y173323D01*
X37076Y173341D01*
X37132Y173386D01*
X37194Y173422D01*
X37228Y173462D01*
X37268Y173495D01*
X37307Y173555D01*
X37354Y173609D01*
X37373Y173658D01*
X37401Y173702D01*
X37419Y173771D01*
X37446Y173838D01*
X37454Y173909D01*
X37462Y173940D01*
X37460Y173963D01*
X37464Y174004D01*
X37464Y188076D01*
X37450Y188167D01*
X37442Y188257D01*
X37430Y188287D01*
X37425Y188319D01*
X37382Y188400D01*
X37346Y188484D01*
X37320Y188516D01*
X37309Y188537D01*
X37286Y188559D01*
X37241Y188615D01*
X35940Y189916D01*
X35940Y192862D01*
X38024Y194946D01*
X40970Y194946D01*
X43054Y192862D01*
X43054Y189916D01*
X41753Y188615D01*
X41700Y188541D01*
X41640Y188471D01*
X41628Y188441D01*
X41609Y188415D01*
X41582Y188328D01*
X41548Y188243D01*
X41544Y188202D01*
X41537Y188180D01*
X41538Y188148D01*
X41530Y188076D01*
X41530Y176163D01*
X41544Y176073D01*
X41552Y175982D01*
X41564Y175953D01*
X41569Y175921D01*
X41612Y175840D01*
X41648Y175756D01*
X41674Y175724D01*
X41685Y175703D01*
X41708Y175681D01*
X41753Y175625D01*
X63230Y154148D01*
X63304Y154095D01*
X63373Y154035D01*
X63404Y154023D01*
X63430Y154004D01*
X63517Y153977D01*
X63602Y153943D01*
X63643Y153939D01*
X63665Y153932D01*
X63697Y153933D01*
X63768Y153925D01*
X65481Y153925D01*
X66772Y152634D01*
X66830Y152592D01*
X66882Y152543D01*
X66929Y152521D01*
X66971Y152491D01*
X67040Y152470D01*
X67105Y152439D01*
X67157Y152434D01*
X67207Y152418D01*
X67278Y152420D01*
X67349Y152412D01*
X67400Y152423D01*
X67452Y152425D01*
X67520Y152449D01*
X67590Y152465D01*
X67635Y152491D01*
X67683Y152509D01*
X67739Y152554D01*
X67801Y152591D01*
X67835Y152630D01*
X67875Y152663D01*
X67914Y152723D01*
X67961Y152778D01*
X67980Y152826D01*
X68008Y152870D01*
X68026Y152939D01*
X68053Y153006D01*
X68061Y153077D01*
X68069Y153108D01*
X68067Y153132D01*
X68071Y153173D01*
X68071Y173595D01*
X68057Y173685D01*
X68049Y173776D01*
X68037Y173805D01*
X68032Y173837D01*
X67989Y173918D01*
X67953Y174002D01*
X67927Y174034D01*
X67916Y174055D01*
X67893Y174077D01*
X67848Y174133D01*
X55148Y186833D01*
X55090Y186875D01*
X55038Y186924D01*
X54991Y186946D01*
X54949Y186977D01*
X54880Y186998D01*
X54815Y187028D01*
X54763Y187034D01*
X54713Y187049D01*
X54642Y187047D01*
X54571Y187055D01*
X54520Y187044D01*
X54468Y187043D01*
X54400Y187018D01*
X54330Y187003D01*
X54285Y186976D01*
X54237Y186958D01*
X54181Y186913D01*
X54119Y186877D01*
X54085Y186837D01*
X54045Y186804D01*
X54006Y186744D01*
X53959Y186690D01*
X53940Y186641D01*
X53912Y186597D01*
X53894Y186528D01*
X53867Y186461D01*
X53859Y186390D01*
X53851Y186359D01*
X53853Y186336D01*
X53849Y186295D01*
X53849Y185471D01*
X52548Y184170D01*
X52495Y184096D01*
X52435Y184026D01*
X52423Y183996D01*
X52404Y183970D01*
X52377Y183883D01*
X52343Y183798D01*
X52339Y183757D01*
X52332Y183735D01*
X52333Y183703D01*
X52325Y183631D01*
X52325Y177433D01*
X52339Y177343D01*
X52347Y177252D01*
X52359Y177223D01*
X52364Y177191D01*
X52407Y177110D01*
X52443Y177026D01*
X52469Y176994D01*
X52480Y176973D01*
X52503Y176951D01*
X52548Y176895D01*
X55737Y173706D01*
X55811Y173653D01*
X55880Y173593D01*
X55911Y173581D01*
X55937Y173562D01*
X56024Y173535D01*
X56109Y173501D01*
X56150Y173497D01*
X56172Y173490D01*
X56204Y173491D01*
X56275Y173483D01*
X58115Y173483D01*
X60199Y171399D01*
X60199Y168453D01*
X58115Y166369D01*
X55169Y166369D01*
X53085Y168453D01*
X53085Y170293D01*
X53071Y170383D01*
X53063Y170474D01*
X53051Y170503D01*
X53046Y170535D01*
X53003Y170616D01*
X52967Y170700D01*
X52941Y170732D01*
X52930Y170753D01*
X52907Y170775D01*
X52862Y170831D01*
X48259Y175434D01*
X48259Y183631D01*
X48245Y183722D01*
X48237Y183812D01*
X48225Y183842D01*
X48220Y183874D01*
X48177Y183955D01*
X48141Y184039D01*
X48115Y184071D01*
X48104Y184092D01*
X48081Y184114D01*
X48036Y184170D01*
X46735Y185471D01*
X46735Y188417D01*
X48819Y190501D01*
X49643Y190501D01*
X49713Y190512D01*
X49785Y190514D01*
X49834Y190532D01*
X49885Y190540D01*
X49949Y190574D01*
X50016Y190599D01*
X50057Y190631D01*
X50103Y190656D01*
X50152Y190708D01*
X50208Y190752D01*
X50236Y190796D01*
X50272Y190834D01*
X50302Y190899D01*
X50341Y190959D01*
X50354Y191010D01*
X50376Y191057D01*
X50384Y191128D01*
X50401Y191198D01*
X50397Y191250D01*
X50403Y191301D01*
X50388Y191372D01*
X50382Y191443D01*
X50362Y191491D01*
X50351Y191542D01*
X50314Y191603D01*
X50286Y191669D01*
X50241Y191725D01*
X50225Y191753D01*
X50207Y191768D01*
X50181Y191800D01*
X43577Y198404D01*
X43503Y198457D01*
X43434Y198517D01*
X43403Y198529D01*
X43377Y198548D01*
X43290Y198575D01*
X43205Y198609D01*
X43164Y198613D01*
X43142Y198620D01*
X43110Y198619D01*
X43039Y198627D01*
X40306Y198627D01*
X38892Y200041D01*
X21270Y217663D01*
X21212Y217705D01*
X21160Y217754D01*
X21113Y217776D01*
X21071Y217807D01*
X21002Y217828D01*
X20937Y217858D01*
X20885Y217864D01*
X20835Y217879D01*
X20764Y217877D01*
X20693Y217885D01*
X20642Y217874D01*
X20590Y217873D01*
X20522Y217848D01*
X20452Y217833D01*
X20407Y217806D01*
X20359Y217788D01*
X20303Y217743D01*
X20241Y217707D01*
X20207Y217667D01*
X20167Y217634D01*
X20128Y217574D01*
X20081Y217520D01*
X20062Y217471D01*
X20034Y217427D01*
X20016Y217358D01*
X19989Y217291D01*
X19981Y217220D01*
X19973Y217189D01*
X19975Y217166D01*
X19971Y217125D01*
X19971Y214454D01*
X18864Y211781D01*
X16819Y209736D01*
X14146Y208629D01*
X11254Y208629D01*
X8581Y209736D01*
X6536Y211781D01*
X5429Y214454D01*
X5429Y217346D01*
X6536Y220019D01*
X8581Y222064D01*
X11254Y223171D01*
X13970Y223171D01*
X13990Y223174D01*
X14009Y223172D01*
X14111Y223194D01*
X14213Y223210D01*
X14230Y223220D01*
X14250Y223224D01*
X14339Y223277D01*
X14430Y223326D01*
X14444Y223340D01*
X14461Y223350D01*
X14528Y223429D01*
X14600Y223504D01*
X14608Y223522D01*
X14621Y223537D01*
X14660Y223633D01*
X14703Y223727D01*
X14705Y223747D01*
X14713Y223765D01*
X14731Y223932D01*
X14731Y241126D01*
X16145Y242540D01*
X20604Y246999D01*
X20657Y247073D01*
X20717Y247142D01*
X20729Y247173D01*
X20748Y247199D01*
X20775Y247286D01*
X20809Y247371D01*
X20813Y247412D01*
X20820Y247434D01*
X20819Y247466D01*
X20827Y247537D01*
X20827Y249377D01*
X22911Y251461D01*
X25857Y251461D01*
X27148Y250170D01*
X27206Y250128D01*
X27258Y250079D01*
X27305Y250057D01*
X27347Y250027D01*
X27416Y250006D01*
X27481Y249975D01*
X27533Y249970D01*
X27583Y249954D01*
X27654Y249956D01*
X27725Y249948D01*
X27776Y249959D01*
X27828Y249961D01*
X27896Y249985D01*
X27966Y250001D01*
X28011Y250027D01*
X28059Y250045D01*
X28115Y250090D01*
X28177Y250127D01*
X28211Y250166D01*
X28251Y250199D01*
X28290Y250259D01*
X28337Y250314D01*
X28356Y250362D01*
X28384Y250406D01*
X28402Y250475D01*
X28429Y250542D01*
X28437Y250613D01*
X28445Y250644D01*
X28443Y250668D01*
X28447Y250709D01*
X28447Y269230D01*
X28436Y269301D01*
X28434Y269373D01*
X28416Y269421D01*
X28408Y269473D01*
X28374Y269536D01*
X28349Y269604D01*
X28317Y269644D01*
X28292Y269690D01*
X28240Y269740D01*
X28196Y269796D01*
X28152Y269824D01*
X28114Y269860D01*
X28049Y269890D01*
X27989Y269929D01*
X27938Y269941D01*
X27891Y269963D01*
X27820Y269971D01*
X27750Y269989D01*
X27698Y269985D01*
X27647Y269990D01*
X27576Y269975D01*
X27505Y269969D01*
X27457Y269949D01*
X27406Y269938D01*
X27345Y269901D01*
X27279Y269873D01*
X27223Y269828D01*
X27195Y269812D01*
X27180Y269794D01*
X27148Y269768D01*
X26534Y269154D01*
X23306Y269154D01*
X21024Y271436D01*
X21024Y273037D01*
X21010Y273127D01*
X21002Y273218D01*
X20990Y273248D01*
X20985Y273280D01*
X20942Y273361D01*
X20906Y273445D01*
X20880Y273477D01*
X20869Y273497D01*
X20846Y273520D01*
X20801Y273576D01*
X20637Y273740D01*
X20637Y284580D01*
X27746Y291689D01*
X27757Y291705D01*
X27773Y291717D01*
X27829Y291805D01*
X27889Y291888D01*
X27895Y291907D01*
X27906Y291924D01*
X27931Y292025D01*
X27961Y292124D01*
X27961Y292143D01*
X27966Y292163D01*
X27958Y292266D01*
X27955Y292369D01*
X27948Y292388D01*
X27947Y292408D01*
X27906Y292503D01*
X27871Y292600D01*
X27858Y292616D01*
X27850Y292634D01*
X27746Y292765D01*
X27096Y293415D01*
X27086Y293434D01*
X27034Y293483D01*
X26989Y293539D01*
X26945Y293567D01*
X26908Y293603D01*
X26843Y293633D01*
X26782Y293672D01*
X26732Y293685D01*
X26685Y293707D01*
X26613Y293715D01*
X26544Y293732D01*
X26492Y293728D01*
X26440Y293734D01*
X26370Y293719D01*
X26299Y293713D01*
X26251Y293693D01*
X26200Y293682D01*
X26138Y293645D01*
X26072Y293617D01*
X26016Y293572D01*
X25989Y293555D01*
X25973Y293538D01*
X25941Y293512D01*
X21989Y289559D01*
X19303Y289559D01*
X19303Y298958D01*
X19300Y298978D01*
X19302Y298997D01*
X19280Y299099D01*
X19263Y299201D01*
X19254Y299218D01*
X19250Y299238D01*
X19197Y299327D01*
X19148Y299418D01*
X19134Y299432D01*
X19124Y299449D01*
X19045Y299516D01*
X18970Y299587D01*
X18952Y299596D01*
X18937Y299609D01*
X18841Y299647D01*
X18747Y299691D01*
X18727Y299693D01*
X18709Y299701D01*
X18542Y299719D01*
X17779Y299719D01*
X17779Y299721D01*
X18542Y299721D01*
X18562Y299724D01*
X18581Y299722D01*
X18683Y299744D01*
X18785Y299761D01*
X18802Y299770D01*
X18822Y299774D01*
X18911Y299827D01*
X19002Y299876D01*
X19016Y299890D01*
X19033Y299900D01*
X19100Y299979D01*
X19171Y300054D01*
X19180Y300072D01*
X19193Y300087D01*
X19232Y300183D01*
X19275Y300277D01*
X19277Y300297D01*
X19285Y300315D01*
X19303Y300482D01*
X19303Y309881D01*
X21989Y309881D01*
X25941Y305928D01*
X25999Y305886D01*
X26051Y305837D01*
X26099Y305815D01*
X26141Y305785D01*
X26209Y305764D01*
X26275Y305733D01*
X26326Y305728D01*
X26376Y305712D01*
X26448Y305714D01*
X26519Y305706D01*
X26570Y305717D01*
X26622Y305719D01*
X26689Y305743D01*
X26759Y305758D01*
X26804Y305785D01*
X26853Y305803D01*
X26909Y305848D01*
X26970Y305885D01*
X27004Y305924D01*
X27045Y305957D01*
X27084Y306017D01*
X27130Y306072D01*
X27150Y306120D01*
X27178Y306164D01*
X27195Y306233D01*
X27222Y306300D01*
X27230Y306371D01*
X27238Y306402D01*
X27236Y306426D01*
X27241Y306466D01*
X27241Y308068D01*
X27226Y308158D01*
X27219Y308249D01*
X27206Y308279D01*
X27201Y308311D01*
X27158Y308391D01*
X27123Y308475D01*
X27097Y308507D01*
X27086Y308528D01*
X27063Y308550D01*
X27018Y308606D01*
X19618Y316006D01*
X19544Y316059D01*
X19474Y316119D01*
X19444Y316131D01*
X19418Y316150D01*
X19331Y316177D01*
X19246Y316211D01*
X19205Y316215D01*
X19183Y316222D01*
X19151Y316221D01*
X19079Y316229D01*
X14097Y316229D01*
X8889Y321437D01*
X8889Y328803D01*
X14097Y334011D01*
X21463Y334011D01*
X21732Y333742D01*
X21748Y333730D01*
X21760Y333714D01*
X21848Y333658D01*
X21932Y333598D01*
X21951Y333592D01*
X21967Y333581D01*
X22068Y333556D01*
X22167Y333526D01*
X22187Y333526D01*
X22206Y333521D01*
X22309Y333529D01*
X22413Y333532D01*
X22431Y333539D01*
X22451Y333540D01*
X22546Y333581D01*
X22644Y333616D01*
X22659Y333629D01*
X22677Y333637D01*
X22808Y333742D01*
X28535Y339468D01*
X28576Y339526D01*
X28626Y339578D01*
X28648Y339625D01*
X28678Y339667D01*
X28699Y339736D01*
X28729Y339801D01*
X28735Y339853D01*
X28751Y339903D01*
X28749Y339974D01*
X28757Y340045D01*
X28745Y340096D01*
X28744Y340148D01*
X28720Y340216D01*
X28704Y340286D01*
X28678Y340331D01*
X28660Y340379D01*
X28615Y340435D01*
X28578Y340497D01*
X28539Y340531D01*
X28506Y340571D01*
X28446Y340610D01*
X28391Y340657D01*
X28343Y340676D01*
X28299Y340704D01*
X28230Y340722D01*
X28163Y340749D01*
X28092Y340757D01*
X28061Y340765D01*
X28037Y340763D01*
X27996Y340767D01*
X2794Y340767D01*
X2774Y340764D01*
X2755Y340766D01*
X2653Y340744D01*
X2551Y340728D01*
X2534Y340718D01*
X2514Y340714D01*
X2425Y340661D01*
X2334Y340612D01*
X2320Y340598D01*
X2303Y340588D01*
X2236Y340509D01*
X2164Y340434D01*
X2156Y340416D01*
X2143Y340401D01*
X2104Y340305D01*
X2061Y340211D01*
X2059Y340191D01*
X2051Y340173D01*
X2033Y340006D01*
X2033Y-381D01*
X2036Y-401D01*
X2034Y-420D01*
X2056Y-522D01*
X2072Y-624D01*
X2082Y-641D01*
X2086Y-661D01*
X2139Y-750D01*
X2188Y-841D01*
X2202Y-855D01*
X2212Y-872D01*
X2291Y-939D01*
X2366Y-1011D01*
X2384Y-1019D01*
X2399Y-1032D01*
X2495Y-1071D01*
X2589Y-1114D01*
X2609Y-1116D01*
X2627Y-1124D01*
X2794Y-1142D01*
X42415Y-1142D01*
X42511Y-1127D01*
G37*
G36*
X97993Y288051D02*
X97993Y288051D01*
X98084Y288059D01*
X98113Y288071D01*
X98145Y288076D01*
X98226Y288119D01*
X98310Y288155D01*
X98342Y288181D01*
X98363Y288192D01*
X98385Y288215D01*
X98441Y288260D01*
X105948Y295767D01*
X106001Y295841D01*
X106061Y295910D01*
X106073Y295941D01*
X106092Y295967D01*
X106119Y296054D01*
X106153Y296139D01*
X106157Y296180D01*
X106164Y296202D01*
X106163Y296234D01*
X106171Y296305D01*
X106171Y314278D01*
X111372Y319478D01*
X111383Y319495D01*
X111399Y319507D01*
X111455Y319594D01*
X111515Y319678D01*
X111521Y319697D01*
X111532Y319714D01*
X111557Y319814D01*
X111588Y319913D01*
X111587Y319933D01*
X111592Y319952D01*
X111584Y320055D01*
X111581Y320159D01*
X111574Y320178D01*
X111573Y320198D01*
X111532Y320293D01*
X111497Y320390D01*
X111484Y320406D01*
X111476Y320424D01*
X111372Y320555D01*
X110489Y321437D01*
X110489Y328803D01*
X113380Y331694D01*
X113422Y331752D01*
X113472Y331804D01*
X113494Y331851D01*
X113524Y331893D01*
X113545Y331962D01*
X113575Y332027D01*
X113581Y332079D01*
X113596Y332129D01*
X113594Y332200D01*
X113602Y332271D01*
X113591Y332322D01*
X113590Y332374D01*
X113565Y332442D01*
X113550Y332512D01*
X113523Y332557D01*
X113505Y332605D01*
X113461Y332661D01*
X113424Y332723D01*
X113384Y332757D01*
X113352Y332797D01*
X113291Y332836D01*
X113237Y332883D01*
X113189Y332902D01*
X113145Y332930D01*
X113075Y332948D01*
X113009Y332975D01*
X112937Y332983D01*
X112906Y332991D01*
X112883Y332989D01*
X112842Y332993D01*
X100518Y332993D01*
X100447Y332982D01*
X100375Y332980D01*
X100327Y332962D01*
X100275Y332954D01*
X100212Y332920D01*
X100144Y332895D01*
X100104Y332863D01*
X100058Y332838D01*
X100008Y332786D01*
X99952Y332742D01*
X99924Y332698D01*
X99888Y332660D01*
X99858Y332595D01*
X99819Y332535D01*
X99807Y332484D01*
X99785Y332437D01*
X99777Y332366D01*
X99759Y332296D01*
X99763Y332244D01*
X99758Y332193D01*
X99773Y332122D01*
X99779Y332051D01*
X99799Y332003D01*
X99810Y331952D01*
X99847Y331891D01*
X99875Y331825D01*
X99920Y331769D01*
X99936Y331741D01*
X99954Y331726D01*
X99980Y331694D01*
X102871Y328803D01*
X102871Y321437D01*
X97663Y316229D01*
X90297Y316229D01*
X85089Y321437D01*
X85089Y328803D01*
X87980Y331694D01*
X88022Y331752D01*
X88072Y331804D01*
X88094Y331851D01*
X88124Y331893D01*
X88145Y331962D01*
X88175Y332027D01*
X88181Y332079D01*
X88196Y332129D01*
X88194Y332200D01*
X88202Y332271D01*
X88191Y332322D01*
X88190Y332374D01*
X88165Y332442D01*
X88150Y332512D01*
X88123Y332557D01*
X88105Y332605D01*
X88061Y332661D01*
X88024Y332723D01*
X87984Y332757D01*
X87952Y332797D01*
X87891Y332836D01*
X87837Y332883D01*
X87789Y332902D01*
X87745Y332930D01*
X87675Y332948D01*
X87609Y332975D01*
X87537Y332983D01*
X87506Y332991D01*
X87483Y332989D01*
X87442Y332993D01*
X75118Y332993D01*
X75047Y332982D01*
X74975Y332980D01*
X74927Y332962D01*
X74875Y332954D01*
X74812Y332920D01*
X74744Y332895D01*
X74704Y332863D01*
X74658Y332838D01*
X74608Y332786D01*
X74552Y332742D01*
X74524Y332698D01*
X74488Y332660D01*
X74458Y332595D01*
X74419Y332535D01*
X74407Y332484D01*
X74385Y332437D01*
X74377Y332366D01*
X74359Y332296D01*
X74363Y332244D01*
X74358Y332193D01*
X74373Y332122D01*
X74379Y332051D01*
X74399Y332003D01*
X74410Y331952D01*
X74447Y331891D01*
X74475Y331825D01*
X74520Y331769D01*
X74536Y331741D01*
X74554Y331726D01*
X74580Y331694D01*
X77471Y328803D01*
X77471Y321437D01*
X72263Y316229D01*
X71374Y316229D01*
X71354Y316226D01*
X71335Y316228D01*
X71233Y316206D01*
X71131Y316190D01*
X71114Y316180D01*
X71094Y316176D01*
X71005Y316123D01*
X70914Y316074D01*
X70900Y316060D01*
X70883Y316050D01*
X70816Y315971D01*
X70744Y315896D01*
X70736Y315878D01*
X70723Y315863D01*
X70684Y315767D01*
X70641Y315673D01*
X70639Y315653D01*
X70631Y315635D01*
X70613Y315468D01*
X70613Y309372D01*
X70616Y309352D01*
X70614Y309333D01*
X70636Y309231D01*
X70652Y309129D01*
X70662Y309112D01*
X70666Y309092D01*
X70719Y309003D01*
X70768Y308912D01*
X70782Y308898D01*
X70792Y308881D01*
X70871Y308814D01*
X70946Y308742D01*
X70964Y308734D01*
X70979Y308721D01*
X71075Y308682D01*
X71169Y308639D01*
X71189Y308637D01*
X71207Y308629D01*
X71374Y308611D01*
X72263Y308611D01*
X77471Y303403D01*
X77471Y296037D01*
X72263Y290829D01*
X64897Y290829D01*
X59689Y296037D01*
X59689Y303403D01*
X64897Y308611D01*
X65786Y308611D01*
X65806Y308614D01*
X65825Y308612D01*
X65927Y308634D01*
X66029Y308650D01*
X66046Y308660D01*
X66066Y308664D01*
X66155Y308717D01*
X66246Y308766D01*
X66260Y308780D01*
X66277Y308790D01*
X66344Y308869D01*
X66416Y308944D01*
X66424Y308962D01*
X66437Y308977D01*
X66476Y309073D01*
X66519Y309167D01*
X66521Y309187D01*
X66529Y309205D01*
X66547Y309372D01*
X66547Y315468D01*
X66544Y315488D01*
X66546Y315507D01*
X66524Y315609D01*
X66508Y315711D01*
X66498Y315728D01*
X66494Y315748D01*
X66441Y315837D01*
X66392Y315928D01*
X66378Y315942D01*
X66368Y315959D01*
X66289Y316026D01*
X66214Y316098D01*
X66196Y316106D01*
X66181Y316119D01*
X66085Y316158D01*
X65991Y316201D01*
X65971Y316203D01*
X65953Y316211D01*
X65786Y316229D01*
X64897Y316229D01*
X59689Y321437D01*
X59689Y328803D01*
X62580Y331694D01*
X62622Y331752D01*
X62672Y331804D01*
X62694Y331851D01*
X62724Y331893D01*
X62745Y331962D01*
X62775Y332027D01*
X62781Y332079D01*
X62796Y332129D01*
X62794Y332200D01*
X62802Y332271D01*
X62791Y332322D01*
X62790Y332374D01*
X62765Y332442D01*
X62750Y332512D01*
X62723Y332557D01*
X62705Y332605D01*
X62661Y332661D01*
X62624Y332723D01*
X62584Y332757D01*
X62552Y332797D01*
X62491Y332836D01*
X62437Y332883D01*
X62389Y332902D01*
X62345Y332930D01*
X62275Y332948D01*
X62209Y332975D01*
X62137Y332983D01*
X62106Y332991D01*
X62083Y332989D01*
X62042Y332993D01*
X54751Y332993D01*
X54661Y332979D01*
X54570Y332971D01*
X54541Y332959D01*
X54509Y332954D01*
X54428Y332911D01*
X54344Y332875D01*
X54312Y332849D01*
X54291Y332838D01*
X54269Y332815D01*
X54213Y332770D01*
X51696Y330254D01*
X51685Y330237D01*
X51669Y330225D01*
X51613Y330138D01*
X51553Y330054D01*
X51547Y330035D01*
X51536Y330018D01*
X51511Y329918D01*
X51480Y329819D01*
X51481Y329799D01*
X51476Y329780D01*
X51484Y329677D01*
X51487Y329573D01*
X51494Y329554D01*
X51495Y329534D01*
X51536Y329439D01*
X51571Y329342D01*
X51584Y329326D01*
X51592Y329308D01*
X51696Y329177D01*
X52071Y328803D01*
X52071Y321437D01*
X47061Y316427D01*
X47049Y316411D01*
X47034Y316399D01*
X46978Y316312D01*
X46917Y316228D01*
X46911Y316209D01*
X46901Y316192D01*
X46875Y316092D01*
X46845Y315993D01*
X46845Y315973D01*
X46841Y315953D01*
X46849Y315850D01*
X46851Y315747D01*
X46858Y315728D01*
X46860Y315708D01*
X46900Y315613D01*
X46936Y315516D01*
X46948Y315500D01*
X46956Y315482D01*
X47061Y315351D01*
X47341Y315071D01*
X56516Y305896D01*
X56516Y295413D01*
X56530Y295322D01*
X56538Y295232D01*
X56550Y295202D01*
X56555Y295170D01*
X56598Y295089D01*
X56634Y295005D01*
X56660Y294973D01*
X56671Y294952D01*
X56694Y294930D01*
X56739Y294874D01*
X58040Y293573D01*
X58040Y290627D01*
X56749Y289336D01*
X56707Y289278D01*
X56658Y289226D01*
X56636Y289179D01*
X56606Y289137D01*
X56585Y289068D01*
X56554Y289003D01*
X56549Y288951D01*
X56533Y288901D01*
X56535Y288830D01*
X56527Y288759D01*
X56538Y288708D01*
X56540Y288656D01*
X56564Y288588D01*
X56580Y288518D01*
X56606Y288473D01*
X56624Y288425D01*
X56669Y288369D01*
X56706Y288307D01*
X56745Y288273D01*
X56778Y288233D01*
X56838Y288194D01*
X56893Y288147D01*
X56941Y288128D01*
X56985Y288100D01*
X57054Y288082D01*
X57121Y288055D01*
X57192Y288047D01*
X57223Y288039D01*
X57247Y288041D01*
X57288Y288037D01*
X97903Y288037D01*
X97993Y288051D01*
G37*
G36*
X84713Y145895D02*
X84713Y145895D01*
X84811Y145896D01*
X84842Y145905D01*
X84862Y145907D01*
X84892Y145919D01*
X84972Y145943D01*
X87454Y146971D01*
X90346Y146971D01*
X92681Y146004D01*
X92794Y145977D01*
X92908Y145949D01*
X92914Y145949D01*
X92920Y145948D01*
X93037Y145959D01*
X93153Y145968D01*
X93159Y145970D01*
X93165Y145971D01*
X93272Y146019D01*
X93379Y146064D01*
X93385Y146069D01*
X93390Y146071D01*
X93403Y146083D01*
X93510Y146169D01*
X101266Y153925D01*
X102983Y153925D01*
X103053Y153936D01*
X103125Y153938D01*
X103174Y153956D01*
X103225Y153964D01*
X103289Y153998D01*
X103356Y154023D01*
X103397Y154055D01*
X103443Y154080D01*
X103492Y154132D01*
X103548Y154176D01*
X103576Y154220D01*
X103612Y154258D01*
X103642Y154323D01*
X103681Y154383D01*
X103694Y154434D01*
X103716Y154481D01*
X103724Y154552D01*
X103741Y154622D01*
X103737Y154674D01*
X103743Y154725D01*
X103728Y154796D01*
X103722Y154867D01*
X103702Y154915D01*
X103691Y154966D01*
X103654Y155027D01*
X103626Y155093D01*
X103581Y155149D01*
X103565Y155177D01*
X103547Y155192D01*
X103521Y155224D01*
X101489Y157256D01*
X100075Y158670D01*
X100075Y169023D01*
X100061Y169113D01*
X100053Y169204D01*
X100041Y169233D01*
X100036Y169265D01*
X99993Y169346D01*
X99957Y169430D01*
X99931Y169462D01*
X99920Y169483D01*
X99897Y169505D01*
X99852Y169561D01*
X92281Y177132D01*
X92208Y177185D01*
X92138Y177244D01*
X92108Y177257D01*
X92082Y177275D01*
X91995Y177302D01*
X91910Y177336D01*
X91869Y177341D01*
X91847Y177348D01*
X91814Y177347D01*
X91743Y177355D01*
X85609Y177355D01*
X85518Y177340D01*
X85428Y177333D01*
X85398Y177320D01*
X85366Y177315D01*
X85285Y177272D01*
X85201Y177237D01*
X85169Y177211D01*
X85148Y177200D01*
X85126Y177177D01*
X85070Y177132D01*
X84087Y176148D01*
X81140Y176148D01*
X79532Y177756D01*
X79474Y177798D01*
X79422Y177847D01*
X79375Y177869D01*
X79333Y177900D01*
X79264Y177921D01*
X79199Y177951D01*
X79147Y177957D01*
X79097Y177972D01*
X79026Y177970D01*
X78955Y177978D01*
X78904Y177967D01*
X78852Y177966D01*
X78784Y177941D01*
X78714Y177926D01*
X78669Y177899D01*
X78621Y177881D01*
X78565Y177836D01*
X78503Y177800D01*
X78469Y177760D01*
X78429Y177728D01*
X78390Y177667D01*
X78343Y177613D01*
X78324Y177565D01*
X78296Y177521D01*
X78278Y177451D01*
X78251Y177385D01*
X78243Y177313D01*
X78235Y177282D01*
X78237Y177259D01*
X78233Y177218D01*
X78233Y153173D01*
X78244Y153102D01*
X78246Y153030D01*
X78264Y152981D01*
X78272Y152930D01*
X78306Y152866D01*
X78331Y152799D01*
X78363Y152758D01*
X78388Y152712D01*
X78440Y152663D01*
X78484Y152607D01*
X78528Y152579D01*
X78566Y152543D01*
X78631Y152513D01*
X78691Y152474D01*
X78742Y152461D01*
X78789Y152439D01*
X78860Y152431D01*
X78930Y152414D01*
X78982Y152418D01*
X79033Y152412D01*
X79104Y152428D01*
X79175Y152433D01*
X79223Y152453D01*
X79274Y152465D01*
X79335Y152501D01*
X79401Y152529D01*
X79457Y152574D01*
X79485Y152591D01*
X79500Y152609D01*
X79532Y152634D01*
X80823Y153925D01*
X83769Y153925D01*
X85853Y151841D01*
X85853Y148895D01*
X84142Y147184D01*
X84086Y147105D01*
X84023Y147030D01*
X84014Y147006D01*
X83999Y146985D01*
X83970Y146892D01*
X83935Y146801D01*
X83934Y146775D01*
X83926Y146749D01*
X83929Y146652D01*
X83925Y146555D01*
X83932Y146530D01*
X83933Y146504D01*
X83966Y146412D01*
X83993Y146319D01*
X84008Y146297D01*
X84017Y146273D01*
X84078Y146196D01*
X84134Y146117D01*
X84155Y146101D01*
X84171Y146081D01*
X84253Y146028D01*
X84331Y145970D01*
X84356Y145962D01*
X84378Y145948D01*
X84472Y145924D01*
X84565Y145894D01*
X84591Y145894D01*
X84616Y145887D01*
X84713Y145895D01*
G37*
G36*
X73496Y146327D02*
X73496Y146327D01*
X73548Y146329D01*
X73616Y146353D01*
X73686Y146369D01*
X73731Y146395D01*
X73779Y146413D01*
X73835Y146458D01*
X73897Y146495D01*
X73931Y146534D01*
X73971Y146567D01*
X74010Y146627D01*
X74057Y146682D01*
X74076Y146730D01*
X74104Y146774D01*
X74122Y146843D01*
X74149Y146910D01*
X74157Y146981D01*
X74165Y147012D01*
X74163Y147036D01*
X74167Y147077D01*
X74167Y181881D01*
X81406Y189120D01*
X81459Y189194D01*
X81519Y189263D01*
X81531Y189293D01*
X81550Y189319D01*
X81577Y189406D01*
X81611Y189491D01*
X81615Y189532D01*
X81622Y189554D01*
X81621Y189587D01*
X81629Y189658D01*
X81629Y192041D01*
X81615Y192131D01*
X81607Y192222D01*
X81595Y192251D01*
X81590Y192283D01*
X81547Y192364D01*
X81511Y192448D01*
X81485Y192480D01*
X81474Y192501D01*
X81451Y192523D01*
X81406Y192579D01*
X71771Y202214D01*
X71697Y202267D01*
X71628Y202327D01*
X71597Y202339D01*
X71571Y202358D01*
X71484Y202385D01*
X71399Y202419D01*
X71358Y202423D01*
X71336Y202430D01*
X71304Y202429D01*
X71233Y202437D01*
X47131Y202437D01*
X47061Y202426D01*
X46989Y202424D01*
X46940Y202406D01*
X46889Y202398D01*
X46825Y202364D01*
X46758Y202339D01*
X46717Y202307D01*
X46671Y202282D01*
X46622Y202230D01*
X46566Y202186D01*
X46538Y202142D01*
X46502Y202104D01*
X46472Y202039D01*
X46433Y201979D01*
X46420Y201928D01*
X46398Y201881D01*
X46390Y201810D01*
X46373Y201740D01*
X46377Y201688D01*
X46371Y201637D01*
X46386Y201566D01*
X46392Y201495D01*
X46412Y201447D01*
X46423Y201396D01*
X46460Y201335D01*
X46488Y201269D01*
X46533Y201213D01*
X46549Y201185D01*
X46567Y201170D01*
X46593Y201138D01*
X70723Y177008D01*
X72137Y175594D01*
X72137Y147585D01*
X72151Y147495D01*
X72159Y147404D01*
X72171Y147374D01*
X72176Y147342D01*
X72219Y147261D01*
X72255Y147177D01*
X72281Y147145D01*
X72292Y147124D01*
X72315Y147102D01*
X72360Y147046D01*
X72868Y146538D01*
X72926Y146496D01*
X72978Y146447D01*
X73025Y146425D01*
X73067Y146395D01*
X73136Y146374D01*
X73201Y146343D01*
X73253Y146338D01*
X73303Y146322D01*
X73374Y146324D01*
X73445Y146316D01*
X73496Y146327D01*
G37*
G36*
X122123Y82057D02*
X122123Y82057D01*
X122214Y82065D01*
X122243Y82077D01*
X122275Y82082D01*
X122356Y82125D01*
X122440Y82161D01*
X122472Y82187D01*
X122493Y82198D01*
X122515Y82221D01*
X122571Y82266D01*
X130332Y90027D01*
X130385Y90101D01*
X130445Y90170D01*
X130457Y90201D01*
X130476Y90227D01*
X130503Y90314D01*
X130537Y90399D01*
X130541Y90440D01*
X130548Y90462D01*
X130547Y90494D01*
X130555Y90565D01*
X130555Y118099D01*
X130541Y118190D01*
X130533Y118280D01*
X130521Y118310D01*
X130516Y118342D01*
X130473Y118423D01*
X130437Y118507D01*
X130411Y118539D01*
X130400Y118560D01*
X130377Y118582D01*
X130332Y118638D01*
X129316Y119654D01*
X129300Y119665D01*
X129288Y119681D01*
X129200Y119737D01*
X129117Y119797D01*
X129098Y119803D01*
X129081Y119814D01*
X128980Y119839D01*
X128881Y119870D01*
X128862Y119869D01*
X128842Y119874D01*
X128739Y119866D01*
X128636Y119863D01*
X128617Y119856D01*
X128597Y119855D01*
X128502Y119814D01*
X128405Y119779D01*
X128389Y119766D01*
X128371Y119759D01*
X128240Y119654D01*
X126441Y117855D01*
X123495Y117855D01*
X121411Y119939D01*
X121411Y121666D01*
X121408Y121686D01*
X121410Y121705D01*
X121388Y121807D01*
X121372Y121909D01*
X121362Y121926D01*
X121358Y121946D01*
X121305Y122035D01*
X121256Y122126D01*
X121242Y122140D01*
X121232Y122157D01*
X121153Y122224D01*
X121078Y122296D01*
X121060Y122304D01*
X121045Y122317D01*
X120949Y122356D01*
X120855Y122399D01*
X120835Y122401D01*
X120817Y122409D01*
X120650Y122427D01*
X117505Y122427D01*
X117409Y122412D01*
X117312Y122402D01*
X117288Y122392D01*
X117263Y122388D01*
X117177Y122342D01*
X117088Y122302D01*
X117068Y122285D01*
X117045Y122272D01*
X116978Y122202D01*
X116907Y122136D01*
X116894Y122113D01*
X116876Y122094D01*
X116835Y122006D01*
X116788Y121920D01*
X116783Y121895D01*
X116772Y121871D01*
X116762Y121774D01*
X116744Y121678D01*
X116748Y121652D01*
X116745Y121627D01*
X116766Y121531D01*
X116780Y121435D01*
X116792Y121412D01*
X116797Y121386D01*
X116847Y121303D01*
X116892Y121216D01*
X116910Y121197D01*
X116924Y121175D01*
X116998Y121112D01*
X117067Y121044D01*
X117096Y121028D01*
X117111Y121015D01*
X117141Y121003D01*
X117214Y120963D01*
X118419Y120464D01*
X120464Y118419D01*
X121571Y115746D01*
X121571Y112854D01*
X120464Y110181D01*
X118419Y108136D01*
X115746Y107029D01*
X112854Y107029D01*
X112675Y107103D01*
X112561Y107130D01*
X112448Y107159D01*
X112441Y107158D01*
X112435Y107160D01*
X112319Y107149D01*
X112202Y107140D01*
X112197Y107137D01*
X112190Y107137D01*
X112083Y107089D01*
X111976Y107043D01*
X111970Y107039D01*
X111966Y107037D01*
X111952Y107024D01*
X111845Y106938D01*
X107045Y102138D01*
X107033Y102122D01*
X107018Y102110D01*
X106987Y102061D01*
X106980Y102055D01*
X106975Y102043D01*
X106962Y102022D01*
X106901Y101939D01*
X106896Y101920D01*
X106885Y101903D01*
X106860Y101802D01*
X106829Y101703D01*
X106830Y101684D01*
X106825Y101664D01*
X106833Y101561D01*
X106835Y101458D01*
X106842Y101439D01*
X106844Y101419D01*
X106884Y101324D01*
X106920Y101227D01*
X106932Y101211D01*
X106940Y101193D01*
X107045Y101062D01*
X111845Y96262D01*
X111940Y96193D01*
X112034Y96124D01*
X112040Y96122D01*
X112045Y96118D01*
X112156Y96084D01*
X112268Y96047D01*
X112274Y96048D01*
X112280Y96046D01*
X112397Y96049D01*
X112514Y96050D01*
X112521Y96052D01*
X112526Y96052D01*
X112543Y96058D01*
X112675Y96097D01*
X112854Y96171D01*
X115746Y96171D01*
X118419Y95064D01*
X120464Y93019D01*
X121571Y90346D01*
X121571Y87454D01*
X120464Y84781D01*
X119025Y83342D01*
X118983Y83284D01*
X118933Y83232D01*
X118911Y83185D01*
X118881Y83143D01*
X118860Y83074D01*
X118830Y83009D01*
X118824Y82957D01*
X118809Y82907D01*
X118811Y82836D01*
X118803Y82765D01*
X118814Y82714D01*
X118815Y82662D01*
X118840Y82594D01*
X118855Y82524D01*
X118882Y82479D01*
X118900Y82431D01*
X118944Y82375D01*
X118981Y82313D01*
X119021Y82279D01*
X119053Y82239D01*
X119114Y82200D01*
X119168Y82153D01*
X119216Y82134D01*
X119260Y82106D01*
X119330Y82088D01*
X119396Y82061D01*
X119468Y82053D01*
X119499Y82045D01*
X119522Y82047D01*
X119563Y82043D01*
X122033Y82043D01*
X122123Y82057D01*
G37*
G36*
X80828Y101231D02*
X80828Y101231D01*
X80900Y101233D01*
X80949Y101251D01*
X81000Y101259D01*
X81064Y101293D01*
X81131Y101318D01*
X81172Y101350D01*
X81218Y101375D01*
X81267Y101426D01*
X81323Y101471D01*
X81351Y101515D01*
X81387Y101553D01*
X81417Y101618D01*
X81456Y101678D01*
X81469Y101729D01*
X81491Y101776D01*
X81499Y101847D01*
X81516Y101917D01*
X81512Y101969D01*
X81518Y102020D01*
X81503Y102091D01*
X81497Y102162D01*
X81477Y102210D01*
X81466Y102261D01*
X81429Y102322D01*
X81401Y102388D01*
X81356Y102444D01*
X81340Y102472D01*
X81322Y102487D01*
X81296Y102519D01*
X80929Y102886D01*
X75437Y108378D01*
X75437Y123303D01*
X75423Y123393D01*
X75415Y123484D01*
X75403Y123513D01*
X75398Y123545D01*
X75355Y123626D01*
X75319Y123710D01*
X75293Y123742D01*
X75282Y123763D01*
X75259Y123785D01*
X75214Y123841D01*
X58196Y140859D01*
X58138Y140901D01*
X58086Y140950D01*
X58039Y140972D01*
X57997Y141003D01*
X57928Y141024D01*
X57863Y141054D01*
X57811Y141060D01*
X57761Y141075D01*
X57690Y141073D01*
X57619Y141081D01*
X57568Y141070D01*
X57516Y141069D01*
X57448Y141044D01*
X57378Y141029D01*
X57333Y141002D01*
X57285Y140984D01*
X57229Y140939D01*
X57167Y140903D01*
X57133Y140863D01*
X57093Y140830D01*
X57054Y140770D01*
X57007Y140716D01*
X56988Y140667D01*
X56960Y140623D01*
X56942Y140554D01*
X56915Y140487D01*
X56907Y140416D01*
X56899Y140385D01*
X56901Y140362D01*
X56897Y140321D01*
X56897Y138227D01*
X55596Y136926D01*
X55543Y136852D01*
X55483Y136782D01*
X55471Y136752D01*
X55452Y136726D01*
X55425Y136639D01*
X55391Y136554D01*
X55387Y136513D01*
X55380Y136491D01*
X55381Y136459D01*
X55373Y136387D01*
X55373Y122950D01*
X55387Y122860D01*
X55395Y122769D01*
X55407Y122740D01*
X55412Y122708D01*
X55433Y122668D01*
X55435Y122662D01*
X55452Y122633D01*
X55455Y122627D01*
X55491Y122543D01*
X55517Y122511D01*
X55528Y122490D01*
X55550Y122469D01*
X55561Y122451D01*
X55573Y122440D01*
X55596Y122412D01*
X76565Y101443D01*
X76639Y101390D01*
X76708Y101330D01*
X76739Y101318D01*
X76765Y101299D01*
X76852Y101272D01*
X76937Y101238D01*
X76978Y101234D01*
X77000Y101227D01*
X77032Y101228D01*
X77103Y101220D01*
X80758Y101220D01*
X80828Y101231D01*
G37*
%LPC*%
G36*
X160311Y135804D02*
X160311Y135804D01*
X158029Y138086D01*
X158029Y141314D01*
X160311Y143596D01*
X162631Y143596D01*
X162721Y143610D01*
X162812Y143618D01*
X162841Y143630D01*
X162873Y143635D01*
X162954Y143678D01*
X163038Y143714D01*
X163070Y143740D01*
X163091Y143751D01*
X163113Y143774D01*
X163169Y143819D01*
X183006Y163656D01*
X183059Y163730D01*
X183119Y163799D01*
X183131Y163830D01*
X183150Y163856D01*
X183177Y163943D01*
X183211Y164028D01*
X183215Y164069D01*
X183222Y164091D01*
X183221Y164123D01*
X183229Y164194D01*
X183229Y166546D01*
X184336Y169219D01*
X186381Y171264D01*
X189054Y172371D01*
X191946Y172371D01*
X194619Y171264D01*
X196664Y169219D01*
X197771Y166546D01*
X197771Y163654D01*
X196664Y160981D01*
X194619Y158936D01*
X191946Y157829D01*
X189054Y157829D01*
X186381Y158936D01*
X185747Y159571D01*
X185731Y159582D01*
X185718Y159598D01*
X185631Y159654D01*
X185547Y159714D01*
X185528Y159720D01*
X185511Y159731D01*
X185411Y159756D01*
X185312Y159787D01*
X185292Y159786D01*
X185273Y159791D01*
X185170Y159783D01*
X185066Y159780D01*
X185047Y159773D01*
X185028Y159772D01*
X184933Y159731D01*
X184835Y159696D01*
X184820Y159683D01*
X184801Y159675D01*
X184670Y159571D01*
X166044Y140944D01*
X165991Y140870D01*
X165931Y140801D01*
X165919Y140770D01*
X165900Y140744D01*
X165873Y140657D01*
X165839Y140572D01*
X165835Y140531D01*
X165828Y140509D01*
X165829Y140477D01*
X165821Y140406D01*
X165821Y138086D01*
X163539Y135804D01*
X160311Y135804D01*
G37*
%LPD*%
%LPC*%
G36*
X166286Y47149D02*
X166286Y47149D01*
X162610Y48672D01*
X159797Y51485D01*
X158274Y55161D01*
X158274Y59139D01*
X159797Y62815D01*
X162610Y65628D01*
X166286Y67151D01*
X170264Y67151D01*
X173940Y65628D01*
X176753Y62815D01*
X178276Y59139D01*
X178276Y55161D01*
X176753Y51485D01*
X173940Y48672D01*
X170264Y47149D01*
X166286Y47149D01*
G37*
%LPD*%
%LPC*%
G36*
X32936Y47149D02*
X32936Y47149D01*
X29260Y48672D01*
X26447Y51485D01*
X24924Y55161D01*
X24924Y59139D01*
X26447Y62815D01*
X29260Y65628D01*
X32936Y67151D01*
X36914Y67151D01*
X40590Y65628D01*
X43403Y62815D01*
X44926Y59139D01*
X44926Y55161D01*
X43403Y51485D01*
X40590Y48672D01*
X36914Y47149D01*
X32936Y47149D01*
G37*
%LPD*%
%LPC*%
G36*
X90297Y290829D02*
X90297Y290829D01*
X85089Y296037D01*
X85089Y303403D01*
X90297Y308611D01*
X97663Y308611D01*
X102871Y303403D01*
X102871Y296037D01*
X97663Y290829D01*
X90297Y290829D01*
G37*
%LPD*%
G36*
X31205Y312023D02*
X31205Y312023D01*
X31257Y312024D01*
X31325Y312048D01*
X31395Y312064D01*
X31440Y312090D01*
X31488Y312108D01*
X31544Y312153D01*
X31606Y312190D01*
X31640Y312229D01*
X31680Y312262D01*
X31719Y312322D01*
X31766Y312377D01*
X31785Y312425D01*
X31813Y312469D01*
X31831Y312538D01*
X31858Y312605D01*
X31866Y312676D01*
X31874Y312707D01*
X31872Y312731D01*
X31876Y312772D01*
X31876Y315925D01*
X33960Y318009D01*
X35880Y318009D01*
X35951Y318020D01*
X36023Y318022D01*
X36071Y318040D01*
X36123Y318048D01*
X36186Y318082D01*
X36254Y318107D01*
X36294Y318139D01*
X36340Y318164D01*
X36390Y318216D01*
X36446Y318260D01*
X36474Y318304D01*
X36510Y318342D01*
X36540Y318407D01*
X36579Y318467D01*
X36591Y318518D01*
X36613Y318565D01*
X36621Y318636D01*
X36639Y318706D01*
X36635Y318758D01*
X36640Y318809D01*
X36625Y318880D01*
X36619Y318951D01*
X36599Y318999D01*
X36588Y319050D01*
X36551Y319111D01*
X36523Y319177D01*
X36478Y319233D01*
X36462Y319261D01*
X36444Y319276D01*
X36418Y319308D01*
X34289Y321437D01*
X34289Y328803D01*
X39497Y334011D01*
X46863Y334011D01*
X47745Y333128D01*
X47761Y333117D01*
X47774Y333101D01*
X47861Y333045D01*
X47945Y332985D01*
X47964Y332979D01*
X47981Y332968D01*
X48081Y332943D01*
X48180Y332912D01*
X48200Y332913D01*
X48219Y332908D01*
X48322Y332916D01*
X48426Y332919D01*
X48445Y332926D01*
X48464Y332927D01*
X48559Y332968D01*
X48657Y333003D01*
X48672Y333016D01*
X48691Y333024D01*
X48822Y333128D01*
X50562Y334869D01*
X50604Y334927D01*
X50653Y334979D01*
X50675Y335026D01*
X50706Y335068D01*
X50727Y335137D01*
X50757Y335202D01*
X50763Y335254D01*
X50778Y335304D01*
X50776Y335375D01*
X50784Y335446D01*
X50773Y335497D01*
X50772Y335549D01*
X50747Y335617D01*
X50732Y335687D01*
X50705Y335731D01*
X50687Y335780D01*
X50642Y335836D01*
X50606Y335898D01*
X50566Y335932D01*
X50533Y335972D01*
X50473Y336011D01*
X50419Y336058D01*
X50370Y336077D01*
X50326Y336105D01*
X50257Y336123D01*
X50190Y336150D01*
X50119Y336158D01*
X50088Y336166D01*
X50065Y336164D01*
X50024Y336168D01*
X32737Y336168D01*
X32647Y336154D01*
X32556Y336146D01*
X32526Y336134D01*
X32494Y336129D01*
X32413Y336086D01*
X32329Y336050D01*
X32297Y336024D01*
X32277Y336013D01*
X32254Y335990D01*
X32198Y335945D01*
X26402Y330148D01*
X26390Y330132D01*
X26374Y330120D01*
X26318Y330033D01*
X26258Y329949D01*
X26252Y329930D01*
X26241Y329913D01*
X26216Y329812D01*
X26186Y329714D01*
X26186Y329694D01*
X26181Y329674D01*
X26189Y329571D01*
X26192Y329468D01*
X26199Y329449D01*
X26200Y329429D01*
X26241Y329334D01*
X26276Y329237D01*
X26289Y329221D01*
X26297Y329203D01*
X26402Y329072D01*
X26671Y328803D01*
X26671Y321437D01*
X24560Y319327D01*
X24548Y319311D01*
X24533Y319298D01*
X24477Y319211D01*
X24417Y319127D01*
X24411Y319108D01*
X24400Y319091D01*
X24375Y318991D01*
X24344Y318892D01*
X24345Y318872D01*
X24340Y318853D01*
X24348Y318750D01*
X24351Y318646D01*
X24357Y318627D01*
X24359Y318607D01*
X24399Y318513D01*
X24435Y318415D01*
X24447Y318399D01*
X24455Y318381D01*
X24560Y318250D01*
X30577Y312233D01*
X30635Y312192D01*
X30687Y312142D01*
X30734Y312120D01*
X30776Y312090D01*
X30845Y312069D01*
X30910Y312039D01*
X30962Y312033D01*
X31012Y312017D01*
X31083Y312019D01*
X31154Y312011D01*
X31205Y312023D01*
G37*
%LPC*%
G36*
X112854Y183229D02*
X112854Y183229D01*
X110181Y184336D01*
X108136Y186381D01*
X107029Y189054D01*
X107029Y191946D01*
X108136Y194619D01*
X110181Y196664D01*
X112854Y197771D01*
X115746Y197771D01*
X118419Y196664D01*
X120464Y194619D01*
X121571Y191946D01*
X121571Y189054D01*
X120464Y186381D01*
X118419Y184336D01*
X115746Y183229D01*
X112854Y183229D01*
G37*
%LPD*%
%LPC*%
G36*
X87454Y157829D02*
X87454Y157829D01*
X84781Y158936D01*
X82736Y160981D01*
X81629Y163654D01*
X81629Y166546D01*
X82736Y169219D01*
X84781Y171264D01*
X87454Y172371D01*
X90346Y172371D01*
X93019Y171264D01*
X95064Y169219D01*
X96171Y166546D01*
X96171Y163654D01*
X95064Y160981D01*
X93019Y158936D01*
X90346Y157829D01*
X87454Y157829D01*
G37*
%LPD*%
%LPC*%
G36*
X189054Y132429D02*
X189054Y132429D01*
X186381Y133536D01*
X184336Y135581D01*
X183229Y138254D01*
X183229Y141146D01*
X184336Y143819D01*
X186381Y145864D01*
X189054Y146971D01*
X191946Y146971D01*
X194619Y145864D01*
X196664Y143819D01*
X197771Y141146D01*
X197771Y138254D01*
X196664Y135581D01*
X194619Y133536D01*
X191946Y132429D01*
X189054Y132429D01*
G37*
%LPD*%
%LPC*%
G36*
X189054Y81629D02*
X189054Y81629D01*
X186381Y82736D01*
X184336Y84781D01*
X183229Y87454D01*
X183229Y90346D01*
X184336Y93019D01*
X186381Y95064D01*
X189054Y96171D01*
X191946Y96171D01*
X194619Y95064D01*
X196664Y93019D01*
X197771Y90346D01*
X197771Y87454D01*
X196664Y84781D01*
X194619Y82736D01*
X191946Y81629D01*
X189054Y81629D01*
G37*
%LPD*%
%LPC*%
G36*
X189054Y56229D02*
X189054Y56229D01*
X186381Y57336D01*
X184336Y59381D01*
X183229Y62054D01*
X183229Y64946D01*
X184336Y67619D01*
X186381Y69664D01*
X189054Y70771D01*
X191946Y70771D01*
X194619Y69664D01*
X196664Y67619D01*
X197771Y64946D01*
X197771Y62054D01*
X196664Y59381D01*
X194619Y57336D01*
X191946Y56229D01*
X189054Y56229D01*
G37*
%LPD*%
%LPC*%
G36*
X112854Y56229D02*
X112854Y56229D01*
X110181Y57336D01*
X108136Y59381D01*
X107029Y62054D01*
X107029Y64946D01*
X108136Y67619D01*
X110181Y69664D01*
X112854Y70771D01*
X115746Y70771D01*
X118419Y69664D01*
X120464Y67619D01*
X121571Y64946D01*
X121571Y62054D01*
X120464Y59381D01*
X118419Y57336D01*
X115746Y56229D01*
X112854Y56229D01*
G37*
%LPD*%
%LPC*%
G36*
X87454Y56229D02*
X87454Y56229D01*
X84781Y57336D01*
X82736Y59381D01*
X81629Y62054D01*
X81629Y64946D01*
X82736Y67619D01*
X84781Y69664D01*
X87454Y70771D01*
X90346Y70771D01*
X93019Y69664D01*
X95064Y67619D01*
X96171Y64946D01*
X96171Y62054D01*
X95064Y59381D01*
X93019Y57336D01*
X90346Y56229D01*
X87454Y56229D01*
G37*
%LPD*%
%LPC*%
G36*
X146303Y301243D02*
X146303Y301243D01*
X146303Y309881D01*
X148989Y309881D01*
X154941Y303929D01*
X154941Y301243D01*
X146303Y301243D01*
G37*
%LPD*%
%LPC*%
G36*
X7619Y301243D02*
X7619Y301243D01*
X7619Y303929D01*
X13571Y309881D01*
X16257Y309881D01*
X16257Y301243D01*
X7619Y301243D01*
G37*
%LPD*%
%LPC*%
G36*
X146303Y289559D02*
X146303Y289559D01*
X146303Y298197D01*
X154941Y298197D01*
X154941Y295511D01*
X148989Y289559D01*
X146303Y289559D01*
G37*
%LPD*%
%LPC*%
G36*
X13571Y289559D02*
X13571Y289559D01*
X7619Y295511D01*
X7619Y298197D01*
X16257Y298197D01*
X16257Y289559D01*
X13571Y289559D01*
G37*
%LPD*%
D10*
X190500Y215900D03*
D11*
X190500Y190500D03*
X190500Y165100D03*
X190500Y139700D03*
X190500Y114300D03*
X190500Y88900D03*
X190500Y63500D03*
X114300Y63500D03*
X114300Y88900D03*
X114300Y114300D03*
X114300Y139700D03*
X114300Y165100D03*
X114300Y190500D03*
X114300Y215900D03*
D10*
X88900Y215900D03*
D11*
X88900Y190500D03*
X88900Y165100D03*
X88900Y139700D03*
X88900Y114300D03*
X88900Y88900D03*
X88900Y63500D03*
X12700Y63500D03*
X12700Y88900D03*
X12700Y114300D03*
X12700Y139700D03*
X12700Y165100D03*
X12700Y190500D03*
X12700Y215900D03*
D12*
X17780Y299720D03*
X17780Y325120D03*
X43180Y299720D03*
X43180Y325120D03*
X68580Y299720D03*
X68580Y325120D03*
X93980Y299720D03*
X93980Y325120D03*
X119380Y299720D03*
X119380Y325120D03*
X144780Y299720D03*
X144780Y325120D03*
D13*
X34925Y57150D03*
X168275Y57150D03*
X193675Y247650D03*
D14*
X36576Y222631D02*
X36576Y287528D01*
X36576Y222631D02*
X37211Y221996D01*
X31877Y292227D02*
X29782Y294323D01*
X31877Y292227D02*
X36576Y287528D01*
X29782Y294323D02*
X29782Y309436D01*
X17780Y321437D01*
X17780Y325120D01*
X172212Y298577D02*
X172212Y212852D01*
X172212Y298577D02*
X145415Y325374D01*
D15*
X145034Y325374D01*
X144780Y325120D01*
D14*
X31369Y338709D02*
X17780Y325120D01*
X31369Y338709D02*
X131699Y338709D01*
X144780Y325628D01*
D15*
X144780Y325120D01*
D16*
X37211Y221996D03*
X172212Y212852D03*
D17*
X24920Y273050D03*
D14*
X23178Y274793D01*
X23178Y283528D01*
X31877Y292227D01*
D17*
X121920Y101600D03*
X156210Y114935D03*
X144145Y157480D03*
X52388Y247968D03*
X136525Y240665D03*
X30480Y321310D03*
X81280Y320040D03*
X64770Y124460D03*
X72708Y186373D03*
X114300Y271463D03*
X41275Y88900D03*
X92075Y152400D03*
X9525Y25400D03*
X28575Y25400D03*
X19050Y15875D03*
X9525Y6350D03*
X28575Y6350D03*
X73025Y25400D03*
X73025Y6350D03*
X82550Y15875D03*
X92075Y25400D03*
X92075Y6350D03*
X101600Y15875D03*
X111125Y25400D03*
X130175Y25400D03*
X120650Y15875D03*
X111125Y6350D03*
X130175Y6350D03*
X174625Y25400D03*
X193675Y25400D03*
X184150Y15875D03*
X174625Y6350D03*
X193675Y6350D03*
X98425Y241300D03*
X9525Y44450D03*
X19050Y34925D03*
X184150Y34925D03*
X193675Y44450D03*
D15*
X42672Y279908D02*
X48768Y286004D01*
X99060Y286004D01*
X108204Y295148D01*
X108204Y313436D01*
X118872Y324104D01*
X119380Y325120D01*
X132588Y216218D02*
X132588Y208280D01*
X132588Y216218D02*
X84900Y263906D01*
X58674Y263906D01*
X42672Y279908D01*
D16*
X42672Y279908D03*
X132588Y208280D03*
D15*
X99060Y279908D02*
X50292Y279908D01*
X108903Y289751D02*
X118872Y299720D01*
X108903Y289751D02*
X99060Y279908D01*
X118872Y299720D02*
X119380Y299720D01*
X158496Y240157D02*
X158496Y212852D01*
X158496Y240157D02*
X108903Y289751D01*
D16*
X50292Y279908D03*
X158496Y212852D03*
D15*
X158496Y254000D02*
X158496Y266192D01*
X132969Y291719D01*
X132969Y326771D01*
X124714Y335026D01*
X53594Y335026D01*
X44196Y325628D01*
X43180Y325120D01*
D16*
X158496Y254000D03*
D15*
X68580Y299720D02*
X68580Y325120D01*
X24384Y247904D02*
X16764Y240284D01*
X16764Y225044D01*
X41148Y200660D01*
X44196Y200660D01*
X70104Y174752D01*
X70104Y144272D01*
X189992Y189484D02*
X190500Y189992D01*
X189992Y189484D02*
X189992Y185420D01*
X135128Y130556D01*
X85344Y130556D01*
X79248Y136652D01*
X79248Y147320D01*
X82296Y150368D01*
X190500Y189992D02*
X190500Y190500D01*
D16*
X24384Y247904D03*
X70104Y144272D03*
X82296Y150368D03*
D15*
X25908Y225044D02*
X25908Y232664D01*
X25908Y225044D02*
X35052Y215900D01*
X88646Y215900D01*
X98933Y180975D02*
X114300Y165608D01*
X98933Y180975D02*
X98933Y205613D01*
X88646Y215900D01*
X114300Y165608D02*
X114300Y165100D01*
X88900Y215900D02*
X88646Y215900D01*
D16*
X25908Y232664D03*
D15*
X16764Y66548D02*
X13716Y63500D01*
X16764Y66548D02*
X18288Y66548D01*
X26797Y75057D01*
X143510Y75057D01*
X13716Y63500D02*
X12700Y63500D01*
D17*
X143510Y75057D03*
X161925Y139700D03*
D15*
X187325Y165100D01*
X190500Y165100D01*
X54483Y292100D02*
X54483Y305054D01*
X45085Y314452D01*
X35433Y314452D01*
D16*
X54483Y292100D03*
X35433Y314452D03*
D15*
X121920Y124460D02*
X124968Y121412D01*
X121920Y124460D02*
X82296Y124460D01*
X16764Y189992D01*
X12700Y189992D01*
X12700Y190500D01*
D16*
X124968Y121412D03*
D15*
X25400Y176530D02*
X20574Y176530D01*
X19304Y175260D01*
X25400Y176530D02*
X77470Y124460D01*
X77470Y109220D01*
X83185Y103505D01*
X105537Y103505D01*
X114300Y112268D01*
X114300Y114300D01*
D16*
X19304Y175260D03*
D15*
X39497Y175006D02*
X39497Y191389D01*
X64008Y150495D02*
X64008Y150368D01*
X64008Y150495D02*
X39497Y175006D01*
X53340Y139700D02*
X53340Y121793D01*
X75946Y99187D01*
X106045Y99187D01*
X114300Y90932D01*
X114300Y88900D01*
D16*
X39497Y191389D03*
X64008Y150368D03*
X53340Y139700D03*
D15*
X24384Y168656D02*
X23876Y168656D01*
X22860Y167640D01*
X22860Y154305D02*
X26660Y150506D01*
X22860Y154305D02*
X22860Y167640D01*
X26660Y150506D02*
X26748Y113108D01*
X24384Y110744D01*
D16*
X24384Y168656D03*
X24384Y110744D03*
D15*
X50292Y176276D02*
X50292Y186944D01*
X50292Y176276D02*
X56642Y169926D01*
X44356Y144302D02*
X44356Y124585D01*
X44356Y144302D02*
X37465Y151194D01*
X44356Y124585D02*
X73025Y94107D01*
D16*
X50292Y186944D03*
X56642Y169926D03*
X37465Y151194D03*
X73025Y94107D03*
D15*
X29845Y161925D02*
X30480Y162560D01*
X29845Y161925D02*
X29845Y108585D01*
X13716Y92456D01*
X13716Y89408D01*
X12700Y88900D01*
D16*
X30480Y162560D03*
D15*
X82296Y237236D02*
X88392Y237236D01*
X102108Y223520D01*
X102108Y185420D01*
X109728Y177800D01*
X118872Y177800D01*
X123444Y173228D01*
X123444Y157861D01*
X121158Y155575D01*
X106045Y155575D01*
X102108Y159512D01*
X102108Y170180D01*
X92901Y179388D01*
X83503Y179388D01*
X83238Y179705D01*
X82614Y179705D01*
D16*
X82296Y237236D03*
X82614Y179705D03*
D15*
X102108Y151892D02*
X89916Y139700D01*
X102108Y151892D02*
X122047Y151892D01*
X126492Y156337D01*
X126492Y196088D01*
X115824Y206756D01*
X115824Y208280D01*
X114300Y209804D01*
X114300Y215900D01*
X89916Y139700D02*
X88900Y139700D01*
X86106Y273812D02*
X66993Y273812D01*
X86106Y273812D02*
X157607Y202311D01*
X177165Y202311D01*
X157607Y202311D02*
X154432Y202311D01*
X190500Y215646D02*
X190500Y215900D01*
X190500Y215646D02*
X177165Y202311D01*
X13716Y164084D02*
X13716Y156464D01*
X22479Y147701D01*
X22479Y128207D01*
X21336Y127064D01*
X35306Y124206D02*
X35306Y142939D01*
X35306Y124206D02*
X79502Y80010D01*
X123190Y80010D01*
X132588Y89408D01*
X132588Y121412D01*
X132588Y138176D02*
X132588Y180467D01*
X154432Y202311D01*
X13716Y164084D02*
X12700Y165100D01*
D16*
X66993Y273812D03*
X21336Y127064D03*
X35306Y142939D03*
X132588Y121412D03*
X132588Y138176D03*
D15*
X30480Y245491D02*
X30480Y281432D01*
X30480Y245491D02*
X19812Y234823D01*
X19812Y226568D01*
X41910Y204470D01*
X72390Y204470D01*
X85344Y191516D01*
X88392Y191516D01*
X88900Y190500D01*
X188976Y114300D02*
X190500Y114300D01*
X188976Y114300D02*
X175768Y127508D01*
X83820Y127508D01*
X76200Y135128D01*
X76200Y181039D01*
X85662Y190500D02*
X88900Y190500D01*
X85662Y190500D02*
X76200Y181039D01*
D16*
X30480Y281432D03*
M02*
