G04 EAGLE Gerber RS-274X export*
G75*
%MOMM*%
%FSLAX34Y34*%
%LPD*%
%INTop Copper*%
%IPPOS*%
%AMOC8*
5,1,8,0,0,1.08239X$1,22.5*%
G01*
%ADD10R,1.200000X1.200000*%
%ADD11C,1.200000*%
%ADD12R,0.800000X0.300000*%
%ADD13R,2.800000X2.800000*%
%ADD14R,0.650000X1.750000*%
%ADD15P,1.649562X8X22.500000*%
%ADD16R,1.600000X1.300000*%
%ADD17C,1.000000*%
%ADD18C,0.254000*%
%ADD19C,0.152400*%
%ADD20C,0.457200*%
%ADD21C,0.525000*%

G36*
X42511Y-1127D02*
X42511Y-1127D01*
X42608Y-1117D01*
X42632Y-1107D01*
X42658Y-1103D01*
X42744Y-1057D01*
X42833Y-1017D01*
X42852Y-1000D01*
X42875Y-987D01*
X42942Y-917D01*
X43014Y-851D01*
X43027Y-828D01*
X43045Y-809D01*
X43086Y-721D01*
X43133Y-635D01*
X43137Y-610D01*
X43148Y-586D01*
X43159Y-489D01*
X43176Y-393D01*
X43173Y-367D01*
X43176Y-342D01*
X43155Y-246D01*
X43141Y-150D01*
X43129Y-127D01*
X43123Y-101D01*
X43073Y-18D01*
X43029Y69D01*
X43010Y88D01*
X42997Y110D01*
X42923Y173D01*
X42854Y241D01*
X42825Y257D01*
X42810Y270D01*
X42779Y282D01*
X42707Y322D01*
X42568Y380D01*
X38480Y4468D01*
X36267Y9809D01*
X36267Y15591D01*
X38480Y20932D01*
X42568Y25020D01*
X47909Y27233D01*
X53691Y27233D01*
X59032Y25020D01*
X63120Y20932D01*
X65333Y15591D01*
X65333Y9809D01*
X63120Y4468D01*
X59032Y380D01*
X58893Y322D01*
X58810Y271D01*
X58725Y225D01*
X58707Y207D01*
X58684Y193D01*
X58622Y118D01*
X58555Y47D01*
X58544Y23D01*
X58528Y3D01*
X58493Y-88D01*
X58452Y-176D01*
X58449Y-202D01*
X58439Y-226D01*
X58435Y-324D01*
X58424Y-420D01*
X58430Y-446D01*
X58429Y-472D01*
X58456Y-566D01*
X58477Y-661D01*
X58490Y-683D01*
X58497Y-708D01*
X58553Y-788D01*
X58603Y-872D01*
X58623Y-889D01*
X58638Y-910D01*
X58716Y-968D01*
X58790Y-1032D01*
X58814Y-1042D01*
X58835Y-1057D01*
X58927Y-1087D01*
X59018Y-1124D01*
X59050Y-1127D01*
X59069Y-1133D01*
X59102Y-1133D01*
X59185Y-1142D01*
X144015Y-1142D01*
X144111Y-1127D01*
X144208Y-1117D01*
X144232Y-1107D01*
X144258Y-1103D01*
X144344Y-1057D01*
X144433Y-1017D01*
X144452Y-1000D01*
X144475Y-987D01*
X144542Y-917D01*
X144614Y-851D01*
X144627Y-828D01*
X144645Y-809D01*
X144686Y-721D01*
X144733Y-635D01*
X144737Y-610D01*
X144748Y-586D01*
X144759Y-489D01*
X144776Y-393D01*
X144773Y-367D01*
X144776Y-342D01*
X144755Y-246D01*
X144741Y-150D01*
X144729Y-127D01*
X144723Y-101D01*
X144673Y-18D01*
X144629Y69D01*
X144610Y88D01*
X144597Y110D01*
X144523Y173D01*
X144454Y241D01*
X144425Y257D01*
X144410Y270D01*
X144379Y282D01*
X144307Y322D01*
X144168Y380D01*
X140080Y4468D01*
X137867Y9809D01*
X137867Y15591D01*
X140080Y20932D01*
X144168Y25020D01*
X149509Y27233D01*
X155291Y27233D01*
X160632Y25020D01*
X164720Y20932D01*
X166933Y15591D01*
X166933Y9809D01*
X164720Y4468D01*
X160632Y380D01*
X160493Y322D01*
X160410Y271D01*
X160325Y225D01*
X160307Y207D01*
X160284Y193D01*
X160222Y118D01*
X160155Y47D01*
X160144Y23D01*
X160128Y3D01*
X160093Y-88D01*
X160052Y-176D01*
X160049Y-202D01*
X160039Y-226D01*
X160035Y-324D01*
X160024Y-420D01*
X160030Y-446D01*
X160029Y-472D01*
X160056Y-566D01*
X160077Y-661D01*
X160090Y-683D01*
X160097Y-708D01*
X160153Y-788D01*
X160203Y-872D01*
X160223Y-889D01*
X160238Y-910D01*
X160316Y-968D01*
X160390Y-1032D01*
X160414Y-1042D01*
X160435Y-1057D01*
X160527Y-1087D01*
X160618Y-1124D01*
X160650Y-1127D01*
X160669Y-1133D01*
X160702Y-1133D01*
X160785Y-1142D01*
X200916Y-1142D01*
X200936Y-1139D01*
X200955Y-1141D01*
X201057Y-1119D01*
X201159Y-1103D01*
X201176Y-1093D01*
X201196Y-1089D01*
X201285Y-1036D01*
X201376Y-987D01*
X201390Y-973D01*
X201407Y-963D01*
X201474Y-884D01*
X201546Y-809D01*
X201554Y-791D01*
X201567Y-776D01*
X201606Y-680D01*
X201649Y-586D01*
X201651Y-566D01*
X201659Y-548D01*
X201677Y-381D01*
X201677Y239671D01*
X201666Y239742D01*
X201664Y239814D01*
X201646Y239863D01*
X201638Y239914D01*
X201604Y239977D01*
X201579Y240045D01*
X201547Y240085D01*
X201522Y240131D01*
X201470Y240181D01*
X201426Y240237D01*
X201382Y240265D01*
X201344Y240301D01*
X201279Y240331D01*
X201219Y240370D01*
X201168Y240382D01*
X201121Y240404D01*
X201050Y240412D01*
X200980Y240430D01*
X200928Y240426D01*
X200877Y240432D01*
X200806Y240416D01*
X200735Y240411D01*
X200687Y240390D01*
X200636Y240379D01*
X200575Y240342D01*
X200509Y240314D01*
X200453Y240270D01*
X200425Y240253D01*
X200410Y240235D01*
X200378Y240210D01*
X199340Y239172D01*
X195664Y237649D01*
X191686Y237649D01*
X188010Y239172D01*
X185197Y241985D01*
X183674Y245661D01*
X183674Y249639D01*
X185197Y253315D01*
X188010Y256128D01*
X191686Y257651D01*
X195664Y257651D01*
X199340Y256128D01*
X200378Y255090D01*
X200436Y255049D01*
X200488Y254999D01*
X200535Y254977D01*
X200577Y254947D01*
X200646Y254926D01*
X200711Y254896D01*
X200763Y254890D01*
X200813Y254875D01*
X200884Y254876D01*
X200955Y254868D01*
X201006Y254880D01*
X201058Y254881D01*
X201126Y254906D01*
X201196Y254921D01*
X201241Y254947D01*
X201289Y254965D01*
X201345Y255010D01*
X201407Y255047D01*
X201441Y255086D01*
X201481Y255119D01*
X201520Y255179D01*
X201567Y255234D01*
X201586Y255282D01*
X201614Y255326D01*
X201632Y255395D01*
X201659Y255462D01*
X201667Y255533D01*
X201675Y255564D01*
X201673Y255588D01*
X201677Y255629D01*
X201677Y295699D01*
X201673Y295723D01*
X201676Y295747D01*
X201654Y295844D01*
X201638Y295942D01*
X201626Y295963D01*
X201621Y295987D01*
X201569Y296072D01*
X201522Y296160D01*
X201505Y296176D01*
X201492Y296197D01*
X201416Y296261D01*
X201344Y296329D01*
X201322Y296339D01*
X201304Y296355D01*
X201211Y296391D01*
X201121Y296433D01*
X201097Y296435D01*
X201075Y296444D01*
X200975Y296449D01*
X200877Y296460D01*
X200853Y296455D01*
X200829Y296456D01*
X200733Y296428D01*
X200636Y296407D01*
X200616Y296395D01*
X200592Y296388D01*
X200510Y296332D01*
X200425Y296281D01*
X200409Y296263D01*
X200390Y296249D01*
X200330Y296170D01*
X200265Y296094D01*
X200256Y296072D01*
X200242Y296053D01*
X200181Y295896D01*
X200124Y295683D01*
X199789Y295104D01*
X199316Y294631D01*
X198737Y294296D01*
X198091Y294123D01*
X191279Y294123D01*
X191279Y302402D01*
X191276Y302422D01*
X191278Y302441D01*
X191256Y302543D01*
X191239Y302645D01*
X191230Y302662D01*
X191226Y302682D01*
X191173Y302771D01*
X191124Y302862D01*
X191110Y302876D01*
X191100Y302893D01*
X191021Y302960D01*
X190946Y303031D01*
X190928Y303040D01*
X190913Y303053D01*
X190817Y303091D01*
X190723Y303135D01*
X190703Y303137D01*
X190685Y303145D01*
X190518Y303163D01*
X189755Y303163D01*
X189755Y303165D01*
X190518Y303165D01*
X190538Y303168D01*
X190557Y303166D01*
X190659Y303188D01*
X190761Y303205D01*
X190778Y303214D01*
X190798Y303218D01*
X190887Y303271D01*
X190978Y303320D01*
X190992Y303334D01*
X191009Y303344D01*
X191076Y303423D01*
X191147Y303498D01*
X191156Y303516D01*
X191169Y303531D01*
X191208Y303627D01*
X191251Y303721D01*
X191253Y303741D01*
X191261Y303759D01*
X191279Y303926D01*
X191279Y312205D01*
X198091Y312205D01*
X198737Y312032D01*
X199316Y311697D01*
X199789Y311224D01*
X200124Y310645D01*
X200181Y310432D01*
X200191Y310410D01*
X200195Y310386D01*
X200241Y310298D01*
X200282Y310207D01*
X200298Y310190D01*
X200310Y310168D01*
X200382Y310100D01*
X200449Y310027D01*
X200470Y310016D01*
X200488Y309999D01*
X200578Y309957D01*
X200665Y309910D01*
X200689Y309906D01*
X200711Y309895D01*
X200810Y309884D01*
X200908Y309867D01*
X200932Y309871D01*
X200955Y309868D01*
X201052Y309889D01*
X201151Y309904D01*
X201172Y309915D01*
X201196Y309921D01*
X201281Y309972D01*
X201369Y310017D01*
X201386Y310034D01*
X201407Y310047D01*
X201472Y310122D01*
X201541Y310194D01*
X201551Y310215D01*
X201567Y310234D01*
X201604Y310326D01*
X201647Y310416D01*
X201650Y310439D01*
X201659Y310462D01*
X201677Y310629D01*
X201677Y340006D01*
X201674Y340026D01*
X201676Y340045D01*
X201654Y340147D01*
X201638Y340249D01*
X201628Y340266D01*
X201624Y340286D01*
X201571Y340375D01*
X201522Y340466D01*
X201508Y340480D01*
X201498Y340497D01*
X201419Y340564D01*
X201344Y340636D01*
X201326Y340644D01*
X201311Y340657D01*
X201215Y340696D01*
X201121Y340739D01*
X201101Y340741D01*
X201083Y340749D01*
X200916Y340767D01*
X2794Y340767D01*
X2774Y340764D01*
X2755Y340766D01*
X2653Y340744D01*
X2551Y340728D01*
X2534Y340718D01*
X2514Y340714D01*
X2425Y340661D01*
X2334Y340612D01*
X2320Y340598D01*
X2303Y340588D01*
X2236Y340509D01*
X2164Y340434D01*
X2156Y340416D01*
X2143Y340401D01*
X2104Y340305D01*
X2061Y340211D01*
X2059Y340191D01*
X2051Y340173D01*
X2033Y340006D01*
X2033Y-381D01*
X2036Y-401D01*
X2034Y-420D01*
X2056Y-522D01*
X2072Y-624D01*
X2082Y-641D01*
X2086Y-661D01*
X2139Y-750D01*
X2188Y-841D01*
X2202Y-855D01*
X2212Y-872D01*
X2291Y-939D01*
X2366Y-1011D01*
X2384Y-1019D01*
X2399Y-1032D01*
X2495Y-1071D01*
X2589Y-1114D01*
X2609Y-1116D01*
X2627Y-1124D01*
X2794Y-1142D01*
X42415Y-1142D01*
X42511Y-1127D01*
G37*
%LPC*%
G36*
X87454Y56229D02*
X87454Y56229D01*
X84781Y57336D01*
X82736Y59381D01*
X81629Y62054D01*
X81629Y64946D01*
X81703Y65125D01*
X81730Y65239D01*
X81759Y65352D01*
X81758Y65359D01*
X81760Y65365D01*
X81749Y65481D01*
X81740Y65598D01*
X81737Y65603D01*
X81736Y65610D01*
X81689Y65717D01*
X81643Y65824D01*
X81639Y65830D01*
X81636Y65834D01*
X81624Y65848D01*
X81538Y65955D01*
X39005Y108488D01*
X38931Y108541D01*
X38862Y108601D01*
X38831Y108613D01*
X38805Y108632D01*
X38718Y108659D01*
X38633Y108693D01*
X38592Y108697D01*
X38570Y108704D01*
X38538Y108703D01*
X38467Y108711D01*
X27697Y108711D01*
X27606Y108697D01*
X27516Y108689D01*
X27486Y108677D01*
X27454Y108672D01*
X27373Y108629D01*
X27289Y108593D01*
X27257Y108567D01*
X27236Y108556D01*
X27214Y108533D01*
X27158Y108488D01*
X25857Y107187D01*
X22911Y107187D01*
X20827Y109271D01*
X20827Y111095D01*
X20812Y111191D01*
X20802Y111288D01*
X20792Y111312D01*
X20788Y111337D01*
X20742Y111423D01*
X20702Y111512D01*
X20685Y111532D01*
X20672Y111555D01*
X20602Y111622D01*
X20536Y111693D01*
X20513Y111706D01*
X20494Y111724D01*
X20406Y111765D01*
X20320Y111812D01*
X20295Y111817D01*
X20271Y111828D01*
X20174Y111838D01*
X20078Y111856D01*
X20052Y111852D01*
X20027Y111855D01*
X19931Y111834D01*
X19835Y111820D01*
X19812Y111808D01*
X19786Y111803D01*
X19703Y111753D01*
X19616Y111708D01*
X19597Y111690D01*
X19575Y111676D01*
X19512Y111602D01*
X19444Y111533D01*
X19428Y111504D01*
X19415Y111489D01*
X19403Y111459D01*
X19363Y111386D01*
X18864Y110181D01*
X16819Y108136D01*
X14146Y107029D01*
X11254Y107029D01*
X8581Y108136D01*
X6536Y110181D01*
X5429Y112854D01*
X5429Y115746D01*
X6536Y118419D01*
X8581Y120464D01*
X11254Y121571D01*
X14146Y121571D01*
X16819Y120464D01*
X18864Y118419D01*
X19112Y117819D01*
X19174Y117719D01*
X19234Y117619D01*
X19239Y117615D01*
X19242Y117610D01*
X19332Y117535D01*
X19421Y117459D01*
X19427Y117457D01*
X19431Y117453D01*
X19540Y117411D01*
X19649Y117367D01*
X19656Y117366D01*
X19661Y117365D01*
X19679Y117364D01*
X19816Y117349D01*
X20179Y117349D01*
X20269Y117363D01*
X20360Y117371D01*
X20389Y117383D01*
X20421Y117388D01*
X20502Y117431D01*
X20586Y117467D01*
X20618Y117493D01*
X20639Y117504D01*
X20661Y117527D01*
X20717Y117572D01*
X39640Y136495D01*
X39682Y136553D01*
X39731Y136605D01*
X39753Y136652D01*
X39784Y136694D01*
X39805Y136763D01*
X39835Y136828D01*
X39841Y136880D01*
X39856Y136930D01*
X39854Y137001D01*
X39862Y137072D01*
X39851Y137123D01*
X39850Y137175D01*
X39825Y137243D01*
X39810Y137313D01*
X39783Y137358D01*
X39765Y137406D01*
X39720Y137462D01*
X39684Y137524D01*
X39644Y137558D01*
X39611Y137598D01*
X39551Y137637D01*
X39497Y137684D01*
X39448Y137703D01*
X39404Y137731D01*
X39335Y137749D01*
X39268Y137776D01*
X39197Y137784D01*
X39166Y137792D01*
X39143Y137790D01*
X39102Y137794D01*
X38114Y137794D01*
X38024Y137780D01*
X37933Y137772D01*
X37904Y137760D01*
X37872Y137755D01*
X37791Y137712D01*
X37707Y137676D01*
X37675Y137650D01*
X37654Y137639D01*
X37632Y137616D01*
X37576Y137571D01*
X25116Y125111D01*
X25063Y125037D01*
X25003Y124968D01*
X24991Y124937D01*
X24972Y124911D01*
X24945Y124824D01*
X24911Y124739D01*
X24907Y124698D01*
X24900Y124676D01*
X24901Y124644D01*
X24893Y124573D01*
X24893Y124003D01*
X22809Y121919D01*
X19863Y121919D01*
X17779Y124003D01*
X17779Y126949D01*
X19863Y129033D01*
X22973Y129033D01*
X23063Y129047D01*
X23154Y129055D01*
X23183Y129067D01*
X23215Y129072D01*
X23296Y129115D01*
X23380Y129151D01*
X23412Y129177D01*
X23433Y129188D01*
X23455Y129211D01*
X23511Y129256D01*
X34701Y140446D01*
X34754Y140520D01*
X34814Y140589D01*
X34826Y140620D01*
X34845Y140646D01*
X34872Y140733D01*
X34906Y140818D01*
X34910Y140859D01*
X34917Y140881D01*
X34916Y140913D01*
X34924Y140984D01*
X34924Y142824D01*
X37008Y144908D01*
X39954Y144908D01*
X42038Y142824D01*
X42038Y140730D01*
X42049Y140660D01*
X42051Y140588D01*
X42069Y140539D01*
X42077Y140488D01*
X42111Y140424D01*
X42136Y140357D01*
X42168Y140316D01*
X42193Y140270D01*
X42244Y140221D01*
X42289Y140165D01*
X42333Y140137D01*
X42371Y140101D01*
X42436Y140071D01*
X42496Y140032D01*
X42547Y140019D01*
X42594Y139997D01*
X42665Y139989D01*
X42735Y139972D01*
X42787Y139976D01*
X42838Y139970D01*
X42909Y139985D01*
X42980Y139991D01*
X43028Y140011D01*
X43079Y140022D01*
X43140Y140059D01*
X43206Y140087D01*
X43262Y140132D01*
X43290Y140148D01*
X43305Y140166D01*
X43337Y140192D01*
X46562Y143416D01*
X46603Y143474D01*
X46653Y143526D01*
X46675Y143574D01*
X46705Y143616D01*
X46726Y143684D01*
X46756Y143750D01*
X46762Y143801D01*
X46777Y143851D01*
X46776Y143923D01*
X46783Y143994D01*
X46772Y144045D01*
X46771Y144097D01*
X46746Y144164D01*
X46731Y144234D01*
X46705Y144279D01*
X46687Y144328D01*
X46642Y144384D01*
X46605Y144445D01*
X46565Y144479D01*
X46533Y144520D01*
X46473Y144559D01*
X46418Y144605D01*
X46370Y144625D01*
X46326Y144653D01*
X46257Y144670D01*
X46190Y144697D01*
X46119Y144705D01*
X46087Y144713D01*
X46064Y144711D01*
X46023Y144716D01*
X44945Y144716D01*
X42862Y146799D01*
X42862Y149746D01*
X44945Y151829D01*
X46785Y151829D01*
X46875Y151844D01*
X46966Y151851D01*
X46996Y151864D01*
X47028Y151869D01*
X47109Y151912D01*
X47192Y151947D01*
X47225Y151973D01*
X47245Y151984D01*
X47267Y152007D01*
X47323Y152052D01*
X52799Y157528D01*
X52852Y157601D01*
X52911Y157671D01*
X52924Y157701D01*
X52942Y157727D01*
X52969Y157814D01*
X53003Y157899D01*
X53008Y157940D01*
X53015Y157962D01*
X53014Y157995D01*
X53022Y158066D01*
X53022Y161851D01*
X53007Y161941D01*
X53000Y162032D01*
X52987Y162062D01*
X52982Y162094D01*
X52939Y162174D01*
X52904Y162258D01*
X52878Y162290D01*
X52867Y162311D01*
X52844Y162333D01*
X52799Y162389D01*
X51498Y163690D01*
X51498Y166637D01*
X53581Y168720D01*
X56528Y168720D01*
X58611Y166637D01*
X58611Y163690D01*
X57310Y162389D01*
X57257Y162315D01*
X57198Y162246D01*
X57186Y162216D01*
X57167Y162190D01*
X57140Y162102D01*
X57106Y162018D01*
X57101Y161977D01*
X57094Y161954D01*
X57095Y161922D01*
X57087Y161851D01*
X57087Y155780D01*
X57099Y155709D01*
X57101Y155637D01*
X57119Y155588D01*
X57127Y155537D01*
X57161Y155474D01*
X57185Y155406D01*
X57218Y155366D01*
X57242Y155320D01*
X57294Y155270D01*
X57339Y155214D01*
X57383Y155186D01*
X57420Y155150D01*
X57485Y155120D01*
X57546Y155081D01*
X57596Y155069D01*
X57643Y155047D01*
X57715Y155039D01*
X57784Y155021D01*
X57836Y155025D01*
X57888Y155020D01*
X57958Y155035D01*
X58029Y155040D01*
X58077Y155061D01*
X58128Y155072D01*
X58190Y155109D01*
X58256Y155137D01*
X58312Y155181D01*
X58339Y155198D01*
X58355Y155216D01*
X58387Y155241D01*
X80040Y176895D01*
X80093Y176969D01*
X80153Y177038D01*
X80165Y177069D01*
X80184Y177095D01*
X80211Y177182D01*
X80245Y177267D01*
X80249Y177308D01*
X80256Y177330D01*
X80255Y177362D01*
X80263Y177433D01*
X80263Y177749D01*
X82347Y179833D01*
X85293Y179833D01*
X87377Y177749D01*
X87377Y174803D01*
X85877Y173303D01*
X85820Y173223D01*
X85758Y173149D01*
X85748Y173124D01*
X85733Y173103D01*
X85704Y173010D01*
X85670Y172919D01*
X85668Y172893D01*
X85661Y172868D01*
X85663Y172771D01*
X85659Y172673D01*
X85666Y172648D01*
X85667Y172622D01*
X85701Y172530D01*
X85728Y172437D01*
X85743Y172416D01*
X85752Y172391D01*
X85812Y172315D01*
X85868Y172235D01*
X85889Y172219D01*
X85905Y172199D01*
X85987Y172146D01*
X86065Y172088D01*
X86090Y172080D01*
X86112Y172066D01*
X86207Y172042D01*
X86299Y172012D01*
X86325Y172012D01*
X86351Y172006D01*
X86448Y172013D01*
X86545Y172014D01*
X86577Y172024D01*
X86596Y172025D01*
X86626Y172038D01*
X86706Y172061D01*
X87454Y172371D01*
X90346Y172371D01*
X93019Y171264D01*
X95064Y169219D01*
X95567Y168003D01*
X95592Y167964D01*
X95607Y167921D01*
X95656Y167860D01*
X95697Y167794D01*
X95732Y167764D01*
X95761Y167729D01*
X95826Y167687D01*
X95887Y167637D01*
X95929Y167620D01*
X95968Y167596D01*
X96044Y167577D01*
X96116Y167549D01*
X96162Y167547D01*
X96207Y167536D01*
X96284Y167542D01*
X96362Y167538D01*
X96406Y167551D01*
X96452Y167555D01*
X96523Y167585D01*
X96598Y167607D01*
X96636Y167633D01*
X96678Y167651D01*
X96785Y167736D01*
X96800Y167747D01*
X96803Y167751D01*
X96809Y167756D01*
X98328Y169275D01*
X99965Y170912D01*
X108886Y179833D01*
X117715Y179833D01*
X117805Y179847D01*
X117896Y179855D01*
X117925Y179867D01*
X117957Y179872D01*
X118038Y179915D01*
X118122Y179951D01*
X118154Y179977D01*
X118175Y179988D01*
X118197Y180011D01*
X118253Y180056D01*
X124236Y186039D01*
X124289Y186113D01*
X124349Y186182D01*
X124361Y186213D01*
X124380Y186239D01*
X124407Y186326D01*
X124441Y186411D01*
X124445Y186452D01*
X124452Y186474D01*
X124451Y186506D01*
X124459Y186577D01*
X124459Y220839D01*
X124445Y220929D01*
X124437Y221020D01*
X124425Y221049D01*
X124420Y221081D01*
X124377Y221162D01*
X124341Y221246D01*
X124315Y221278D01*
X124304Y221299D01*
X124281Y221321D01*
X124236Y221377D01*
X117632Y227981D01*
X117574Y228023D01*
X117522Y228072D01*
X117475Y228094D01*
X117433Y228125D01*
X117364Y228146D01*
X117299Y228176D01*
X117247Y228182D01*
X117197Y228197D01*
X117126Y228195D01*
X117055Y228203D01*
X117004Y228192D01*
X116952Y228191D01*
X116884Y228166D01*
X116814Y228151D01*
X116769Y228124D01*
X116721Y228106D01*
X116665Y228061D01*
X116603Y228025D01*
X116569Y227985D01*
X116529Y227952D01*
X116490Y227892D01*
X116443Y227838D01*
X116424Y227789D01*
X116396Y227745D01*
X116378Y227676D01*
X116351Y227609D01*
X116343Y227538D01*
X116335Y227507D01*
X116337Y227484D01*
X116333Y227443D01*
X116333Y223436D01*
X116352Y223322D01*
X116369Y223206D01*
X116371Y223200D01*
X116372Y223194D01*
X116427Y223091D01*
X116480Y222986D01*
X116485Y222982D01*
X116488Y222976D01*
X116572Y222896D01*
X116656Y222814D01*
X116662Y222810D01*
X116666Y222807D01*
X116683Y222799D01*
X116719Y222779D01*
X116723Y222776D01*
X116732Y222772D01*
X116803Y222733D01*
X118419Y222064D01*
X120464Y220019D01*
X121571Y217346D01*
X121571Y214454D01*
X120464Y211781D01*
X118419Y209736D01*
X115746Y208629D01*
X112854Y208629D01*
X110181Y209736D01*
X108136Y211781D01*
X107029Y214454D01*
X107029Y217346D01*
X108136Y220019D01*
X110181Y222064D01*
X111797Y222733D01*
X111897Y222795D01*
X111915Y222806D01*
X111942Y222820D01*
X111946Y222824D01*
X111997Y222855D01*
X112001Y222859D01*
X112006Y222863D01*
X112081Y222953D01*
X112157Y223042D01*
X112159Y223047D01*
X112163Y223052D01*
X112205Y223161D01*
X112249Y223270D01*
X112250Y223277D01*
X112251Y223282D01*
X112252Y223300D01*
X112267Y223436D01*
X112267Y228459D01*
X112253Y228549D01*
X112245Y228640D01*
X112233Y228669D01*
X112228Y228701D01*
X112185Y228782D01*
X112149Y228866D01*
X112123Y228898D01*
X112112Y228919D01*
X112089Y228941D01*
X112044Y228997D01*
X77168Y263873D01*
X77095Y263926D01*
X77025Y263985D01*
X76995Y263998D01*
X76969Y264016D01*
X76882Y264043D01*
X76797Y264077D01*
X76756Y264082D01*
X76734Y264089D01*
X76701Y264088D01*
X76630Y264096D01*
X75198Y264096D01*
X75108Y264081D01*
X75017Y264074D01*
X74988Y264061D01*
X74956Y264056D01*
X74875Y264013D01*
X74791Y263978D01*
X74759Y263952D01*
X74738Y263941D01*
X74716Y263918D01*
X74660Y263873D01*
X74566Y263778D01*
X74497Y263683D01*
X74426Y263586D01*
X74424Y263582D01*
X74422Y263579D01*
X74387Y263466D01*
X74351Y263352D01*
X74351Y263348D01*
X74350Y263344D01*
X74353Y263225D01*
X74355Y263106D01*
X74356Y263102D01*
X74356Y263098D01*
X74397Y262985D01*
X74437Y262874D01*
X74439Y262871D01*
X74441Y262867D01*
X74515Y262774D01*
X74588Y262680D01*
X74592Y262677D01*
X74594Y262675D01*
X74606Y262667D01*
X74723Y262581D01*
X74907Y262475D01*
X75666Y261716D01*
X71041Y257091D01*
X71029Y257075D01*
X71014Y257063D01*
X70958Y256975D01*
X70898Y256892D01*
X70892Y256873D01*
X70881Y256856D01*
X70855Y256755D01*
X70825Y256656D01*
X70826Y256636D01*
X70821Y256617D01*
X70829Y256514D01*
X70832Y256411D01*
X70838Y256392D01*
X70840Y256372D01*
X70880Y256277D01*
X70916Y256180D01*
X70928Y256164D01*
X70936Y256146D01*
X71041Y256015D01*
X71041Y256014D01*
X71057Y256003D01*
X71070Y255987D01*
X71157Y255931D01*
X71241Y255871D01*
X71260Y255865D01*
X71277Y255854D01*
X71377Y255829D01*
X71476Y255799D01*
X71496Y255799D01*
X71515Y255794D01*
X71618Y255802D01*
X71722Y255805D01*
X71741Y255812D01*
X71761Y255813D01*
X71855Y255854D01*
X71953Y255889D01*
X71969Y255902D01*
X71987Y255910D01*
X72118Y256014D01*
X76743Y260639D01*
X77501Y259880D01*
X77836Y259301D01*
X78009Y258655D01*
X78009Y257892D01*
X78024Y257802D01*
X78031Y257711D01*
X78044Y257681D01*
X78049Y257649D01*
X78091Y257569D01*
X78127Y257485D01*
X78153Y257453D01*
X78164Y257432D01*
X78187Y257410D01*
X78232Y257354D01*
X80275Y255311D01*
X80275Y254258D01*
X79322Y253306D01*
X79310Y253289D01*
X79295Y253277D01*
X79238Y253190D01*
X79178Y253106D01*
X79172Y253087D01*
X79162Y253070D01*
X79136Y252970D01*
X79106Y252871D01*
X79106Y252851D01*
X79101Y252832D01*
X79109Y252729D01*
X79112Y252625D01*
X79119Y252606D01*
X79121Y252586D01*
X79161Y252491D01*
X79197Y252394D01*
X79209Y252378D01*
X79217Y252360D01*
X79322Y252229D01*
X104141Y227410D01*
X104141Y204992D01*
X104155Y204902D01*
X104163Y204811D01*
X104175Y204782D01*
X104180Y204750D01*
X104223Y204669D01*
X104259Y204585D01*
X104285Y204553D01*
X104296Y204532D01*
X104303Y204526D01*
X104307Y204496D01*
X104350Y204415D01*
X104386Y204331D01*
X104412Y204299D01*
X104423Y204278D01*
X104446Y204256D01*
X104491Y204200D01*
X111127Y197564D01*
X111221Y197496D01*
X111315Y197426D01*
X111321Y197424D01*
X111326Y197420D01*
X111438Y197386D01*
X111549Y197350D01*
X111556Y197350D01*
X111562Y197348D01*
X111678Y197351D01*
X111795Y197352D01*
X111802Y197354D01*
X111807Y197354D01*
X111825Y197361D01*
X111956Y197399D01*
X112854Y197771D01*
X115746Y197771D01*
X118419Y196664D01*
X120464Y194619D01*
X121571Y191946D01*
X121571Y189054D01*
X120464Y186381D01*
X118419Y184336D01*
X115746Y183229D01*
X112854Y183229D01*
X110181Y184336D01*
X108136Y186381D01*
X107029Y189054D01*
X107029Y191946D01*
X107996Y194281D01*
X108023Y194394D01*
X108051Y194508D01*
X108051Y194514D01*
X108052Y194520D01*
X108041Y194637D01*
X108032Y194753D01*
X108030Y194759D01*
X108029Y194765D01*
X107981Y194872D01*
X107936Y194979D01*
X107931Y194985D01*
X107929Y194990D01*
X107917Y195003D01*
X107831Y195110D01*
X101552Y201389D01*
X101489Y201452D01*
X101415Y201505D01*
X101346Y201565D01*
X101315Y201577D01*
X101289Y201596D01*
X101202Y201623D01*
X101117Y201657D01*
X101076Y201661D01*
X101054Y201668D01*
X101022Y201667D01*
X100951Y201675D01*
X83898Y201675D01*
X83808Y201661D01*
X83717Y201653D01*
X83687Y201641D01*
X83655Y201636D01*
X83574Y201593D01*
X83491Y201557D01*
X83458Y201531D01*
X83438Y201520D01*
X83416Y201497D01*
X83360Y201452D01*
X22623Y140715D01*
X20732Y140715D01*
X20712Y140712D01*
X20693Y140714D01*
X20591Y140692D01*
X20489Y140676D01*
X20472Y140666D01*
X20452Y140662D01*
X20363Y140609D01*
X20272Y140560D01*
X20258Y140546D01*
X20241Y140536D01*
X20174Y140457D01*
X20102Y140382D01*
X20094Y140364D01*
X20081Y140349D01*
X20042Y140253D01*
X19999Y140159D01*
X19997Y140139D01*
X19989Y140121D01*
X19971Y139954D01*
X19971Y138254D01*
X18864Y135581D01*
X16819Y133536D01*
X14146Y132429D01*
X11254Y132429D01*
X8581Y133536D01*
X6536Y135581D01*
X5429Y138254D01*
X5429Y141146D01*
X6536Y143819D01*
X8581Y145864D01*
X11254Y146971D01*
X14146Y146971D01*
X16819Y145864D01*
X17679Y145004D01*
X17753Y144951D01*
X17822Y144891D01*
X17852Y144879D01*
X17878Y144860D01*
X17965Y144833D01*
X18050Y144799D01*
X18091Y144795D01*
X18114Y144788D01*
X18146Y144789D01*
X18217Y144781D01*
X20623Y144781D01*
X20713Y144795D01*
X20804Y144803D01*
X20834Y144815D01*
X20866Y144820D01*
X20947Y144863D01*
X21030Y144899D01*
X21063Y144925D01*
X21083Y144936D01*
X21105Y144959D01*
X21161Y145004D01*
X81898Y205741D01*
X99314Y205741D01*
X99334Y205744D01*
X99353Y205742D01*
X99455Y205764D01*
X99557Y205780D01*
X99574Y205790D01*
X99594Y205794D01*
X99683Y205847D01*
X99774Y205896D01*
X99788Y205910D01*
X99805Y205920D01*
X99872Y205999D01*
X99944Y206074D01*
X99952Y206092D01*
X99965Y206107D01*
X100004Y206203D01*
X100047Y206297D01*
X100049Y206317D01*
X100057Y206335D01*
X100075Y206502D01*
X100075Y225411D01*
X100061Y225501D01*
X100053Y225592D01*
X100041Y225621D01*
X100036Y225653D01*
X99993Y225734D01*
X99957Y225818D01*
X99931Y225850D01*
X99920Y225871D01*
X99897Y225893D01*
X99852Y225949D01*
X87152Y238649D01*
X87094Y238691D01*
X87042Y238740D01*
X86995Y238762D01*
X86953Y238793D01*
X86884Y238814D01*
X86819Y238844D01*
X86767Y238850D01*
X86717Y238865D01*
X86646Y238863D01*
X86575Y238871D01*
X86524Y238860D01*
X86472Y238859D01*
X86404Y238834D01*
X86334Y238819D01*
X86289Y238792D01*
X86241Y238774D01*
X86185Y238729D01*
X86123Y238693D01*
X86089Y238653D01*
X86049Y238620D01*
X86010Y238560D01*
X85963Y238506D01*
X85944Y238457D01*
X85916Y238413D01*
X85898Y238344D01*
X85871Y238277D01*
X85863Y238206D01*
X85855Y238175D01*
X85857Y238152D01*
X85853Y238111D01*
X85853Y235763D01*
X83769Y233679D01*
X80823Y233679D01*
X78727Y235775D01*
X78725Y235788D01*
X78717Y235879D01*
X78705Y235908D01*
X78700Y235940D01*
X78657Y236021D01*
X78621Y236105D01*
X78595Y236137D01*
X78584Y236158D01*
X78561Y236180D01*
X78516Y236236D01*
X77993Y236759D01*
X77977Y236770D01*
X77965Y236786D01*
X77878Y236842D01*
X77794Y236902D01*
X77775Y236908D01*
X77758Y236919D01*
X77657Y236944D01*
X77559Y236975D01*
X77539Y236974D01*
X77519Y236979D01*
X77416Y236971D01*
X77313Y236968D01*
X77294Y236961D01*
X77274Y236960D01*
X77179Y236919D01*
X77082Y236884D01*
X77066Y236871D01*
X77048Y236864D01*
X76917Y236759D01*
X76741Y236583D01*
X76729Y236566D01*
X76714Y236554D01*
X76658Y236467D01*
X76597Y236383D01*
X76591Y236364D01*
X76581Y236347D01*
X76555Y236246D01*
X76525Y236148D01*
X76525Y236128D01*
X76520Y236108D01*
X76529Y236005D01*
X76531Y235902D01*
X76538Y235883D01*
X76540Y235863D01*
X76580Y235768D01*
X76616Y235671D01*
X76628Y235655D01*
X76636Y235637D01*
X76741Y235506D01*
X79613Y232634D01*
X81027Y231220D01*
X81027Y223662D01*
X81038Y223591D01*
X81040Y223519D01*
X81058Y223470D01*
X81066Y223419D01*
X81100Y223356D01*
X81125Y223288D01*
X81157Y223247D01*
X81182Y223201D01*
X81233Y223152D01*
X81278Y223096D01*
X81322Y223068D01*
X81360Y223032D01*
X81425Y223002D01*
X81485Y222963D01*
X81536Y222950D01*
X81583Y222928D01*
X81654Y222921D01*
X81724Y222903D01*
X81776Y222907D01*
X81827Y222901D01*
X81898Y222917D01*
X81969Y222922D01*
X82017Y222943D01*
X82068Y222954D01*
X82129Y222990D01*
X82195Y223019D01*
X82251Y223063D01*
X82279Y223080D01*
X82294Y223098D01*
X82326Y223123D01*
X82374Y223171D01*
X95426Y223171D01*
X96171Y222426D01*
X96171Y209374D01*
X95426Y208629D01*
X82374Y208629D01*
X82326Y208677D01*
X82268Y208719D01*
X82216Y208768D01*
X82169Y208790D01*
X82127Y208820D01*
X82058Y208841D01*
X81993Y208872D01*
X81941Y208877D01*
X81891Y208893D01*
X81820Y208891D01*
X81749Y208899D01*
X81698Y208888D01*
X81646Y208886D01*
X81578Y208862D01*
X81508Y208846D01*
X81463Y208820D01*
X81415Y208802D01*
X81359Y208757D01*
X81297Y208720D01*
X81263Y208681D01*
X81223Y208648D01*
X81184Y208588D01*
X81137Y208533D01*
X81118Y208485D01*
X81090Y208441D01*
X81072Y208372D01*
X81045Y208305D01*
X81037Y208234D01*
X81029Y208203D01*
X81031Y208179D01*
X81027Y208138D01*
X81027Y207184D01*
X34370Y160527D01*
X33793Y160527D01*
X33702Y160513D01*
X33612Y160505D01*
X33582Y160493D01*
X33550Y160488D01*
X33469Y160445D01*
X33385Y160409D01*
X33353Y160383D01*
X33332Y160372D01*
X33310Y160349D01*
X33254Y160304D01*
X31953Y159003D01*
X29007Y159003D01*
X26923Y161087D01*
X26923Y164338D01*
X26920Y164358D01*
X26922Y164377D01*
X26900Y164479D01*
X26884Y164581D01*
X26874Y164598D01*
X26870Y164618D01*
X26817Y164707D01*
X26768Y164798D01*
X26754Y164812D01*
X26744Y164829D01*
X26665Y164896D01*
X26590Y164968D01*
X26572Y164976D01*
X26557Y164989D01*
X26461Y165028D01*
X26367Y165071D01*
X26347Y165073D01*
X26329Y165081D01*
X26162Y165099D01*
X22911Y165099D01*
X21270Y166740D01*
X21212Y166782D01*
X21160Y166831D01*
X21113Y166853D01*
X21071Y166883D01*
X21002Y166904D01*
X20937Y166935D01*
X20885Y166940D01*
X20835Y166956D01*
X20764Y166954D01*
X20693Y166962D01*
X20642Y166951D01*
X20590Y166949D01*
X20522Y166925D01*
X20452Y166909D01*
X20407Y166883D01*
X20359Y166865D01*
X20303Y166820D01*
X20241Y166783D01*
X20207Y166744D01*
X20167Y166711D01*
X20128Y166651D01*
X20081Y166596D01*
X20062Y166548D01*
X20034Y166504D01*
X20016Y166435D01*
X19989Y166368D01*
X19981Y166297D01*
X19973Y166266D01*
X19975Y166242D01*
X19971Y166201D01*
X19971Y163654D01*
X18864Y160981D01*
X16819Y158936D01*
X14146Y157829D01*
X11254Y157829D01*
X8581Y158936D01*
X6536Y160981D01*
X5429Y163654D01*
X5429Y166546D01*
X6536Y169219D01*
X8581Y171264D01*
X11254Y172371D01*
X14146Y172371D01*
X16819Y171264D01*
X18864Y169219D01*
X19363Y168014D01*
X19414Y167931D01*
X19460Y167845D01*
X19479Y167827D01*
X19492Y167805D01*
X19567Y167743D01*
X19638Y167676D01*
X19662Y167665D01*
X19682Y167648D01*
X19773Y167613D01*
X19861Y167572D01*
X19887Y167569D01*
X19911Y167560D01*
X20009Y167556D01*
X20105Y167545D01*
X20131Y167551D01*
X20157Y167550D01*
X20251Y167577D01*
X20346Y167597D01*
X20368Y167611D01*
X20393Y167618D01*
X20473Y167674D01*
X20557Y167724D01*
X20574Y167743D01*
X20595Y167758D01*
X20654Y167837D01*
X20717Y167911D01*
X20727Y167935D01*
X20742Y167956D01*
X20772Y168048D01*
X20809Y168139D01*
X20812Y168171D01*
X20818Y168190D01*
X20818Y168223D01*
X20827Y168305D01*
X20827Y170129D01*
X22911Y172213D01*
X24751Y172213D01*
X24841Y172227D01*
X24932Y172235D01*
X24961Y172247D01*
X24993Y172252D01*
X25074Y172295D01*
X25158Y172331D01*
X25190Y172357D01*
X25211Y172368D01*
X25233Y172391D01*
X25289Y172436D01*
X39386Y186533D01*
X39428Y186591D01*
X39477Y186643D01*
X39499Y186690D01*
X39530Y186732D01*
X39551Y186801D01*
X39581Y186866D01*
X39587Y186918D01*
X39602Y186968D01*
X39600Y187039D01*
X39608Y187110D01*
X39597Y187161D01*
X39596Y187213D01*
X39571Y187281D01*
X39556Y187351D01*
X39529Y187396D01*
X39511Y187444D01*
X39466Y187500D01*
X39430Y187562D01*
X39390Y187596D01*
X39357Y187636D01*
X39297Y187675D01*
X39243Y187722D01*
X39194Y187741D01*
X39150Y187769D01*
X39081Y187787D01*
X39014Y187814D01*
X38943Y187822D01*
X38912Y187830D01*
X38889Y187828D01*
X38848Y187832D01*
X38024Y187832D01*
X35940Y189916D01*
X35940Y191245D01*
X35929Y191316D01*
X35927Y191388D01*
X35909Y191437D01*
X35901Y191488D01*
X35867Y191551D01*
X35842Y191619D01*
X35810Y191660D01*
X35785Y191705D01*
X35733Y191755D01*
X35688Y191811D01*
X35645Y191839D01*
X35607Y191875D01*
X35542Y191905D01*
X35481Y191944D01*
X35431Y191956D01*
X35384Y191978D01*
X35313Y191986D01*
X35243Y192004D01*
X35191Y192000D01*
X35140Y192005D01*
X35069Y191990D01*
X34998Y191984D01*
X34950Y191964D01*
X34899Y191953D01*
X34837Y191916D01*
X34771Y191888D01*
X34716Y191843D01*
X34688Y191827D01*
X34673Y191809D01*
X34640Y191783D01*
X22564Y179693D01*
X22552Y179677D01*
X22537Y179665D01*
X22481Y179578D01*
X22421Y179494D01*
X22415Y179475D01*
X22404Y179458D01*
X22379Y179358D01*
X22348Y179259D01*
X22349Y179239D01*
X22344Y179220D01*
X22352Y179116D01*
X22355Y179013D01*
X22362Y178994D01*
X22363Y178974D01*
X22404Y178879D01*
X22439Y178782D01*
X22452Y178766D01*
X22459Y178748D01*
X22564Y178617D01*
X22861Y178321D01*
X22861Y175374D01*
X20777Y173291D01*
X17831Y173291D01*
X15747Y175374D01*
X15747Y178321D01*
X16794Y179367D01*
X16847Y179441D01*
X16907Y179511D01*
X16919Y179541D01*
X16937Y179567D01*
X16964Y179654D01*
X16998Y179739D01*
X17003Y179780D01*
X17010Y179802D01*
X17009Y179834D01*
X17015Y179892D01*
X17623Y180500D01*
X57128Y220048D01*
X57139Y220064D01*
X57155Y220076D01*
X57211Y220163D01*
X57271Y220247D01*
X57277Y220266D01*
X57288Y220283D01*
X57313Y220383D01*
X57344Y220483D01*
X57343Y220502D01*
X57348Y220521D01*
X57340Y220625D01*
X57337Y220729D01*
X57330Y220747D01*
X57329Y220767D01*
X57288Y220862D01*
X57252Y220959D01*
X57240Y220975D01*
X57232Y220993D01*
X57128Y221124D01*
X53100Y225151D01*
X53026Y225204D01*
X52957Y225264D01*
X52927Y225276D01*
X52901Y225295D01*
X52814Y225321D01*
X52729Y225356D01*
X52688Y225360D01*
X52666Y225367D01*
X52633Y225366D01*
X52562Y225374D01*
X51705Y225374D01*
X51615Y225359D01*
X51524Y225352D01*
X51495Y225340D01*
X51463Y225334D01*
X51382Y225292D01*
X51298Y225256D01*
X51266Y225230D01*
X51245Y225219D01*
X51223Y225196D01*
X51167Y225151D01*
X47976Y221960D01*
X47923Y221886D01*
X47863Y221816D01*
X47851Y221786D01*
X47832Y221760D01*
X47805Y221673D01*
X47771Y221588D01*
X47767Y221547D01*
X47760Y221525D01*
X47761Y221493D01*
X47753Y221421D01*
X47753Y219630D01*
X20194Y192071D01*
X20141Y191997D01*
X20081Y191928D01*
X20069Y191897D01*
X20050Y191871D01*
X20023Y191784D01*
X19989Y191699D01*
X19985Y191658D01*
X19978Y191636D01*
X19979Y191604D01*
X19971Y191533D01*
X19971Y189054D01*
X18864Y186381D01*
X16819Y184336D01*
X14146Y183229D01*
X11254Y183229D01*
X8581Y184336D01*
X6536Y186381D01*
X5429Y189054D01*
X5429Y191946D01*
X6536Y194619D01*
X8581Y196664D01*
X11254Y197771D01*
X14146Y197771D01*
X16819Y196664D01*
X17390Y196093D01*
X17406Y196081D01*
X17418Y196066D01*
X17505Y196010D01*
X17589Y195949D01*
X17608Y195943D01*
X17625Y195933D01*
X17726Y195907D01*
X17824Y195877D01*
X17844Y195877D01*
X17864Y195873D01*
X17967Y195881D01*
X18070Y195883D01*
X18089Y195890D01*
X18109Y195892D01*
X18204Y195932D01*
X18301Y195968D01*
X18317Y195980D01*
X18335Y195988D01*
X18466Y196093D01*
X39513Y217140D01*
X39555Y217198D01*
X39604Y217250D01*
X39626Y217297D01*
X39657Y217339D01*
X39678Y217408D01*
X39708Y217473D01*
X39714Y217525D01*
X39729Y217575D01*
X39727Y217646D01*
X39735Y217717D01*
X39724Y217768D01*
X39723Y217820D01*
X39698Y217888D01*
X39683Y217958D01*
X39656Y218002D01*
X39638Y218051D01*
X39593Y218107D01*
X39557Y218169D01*
X39517Y218203D01*
X39484Y218243D01*
X39424Y218282D01*
X39370Y218329D01*
X39321Y218348D01*
X39277Y218376D01*
X39208Y218394D01*
X39141Y218421D01*
X39070Y218429D01*
X39039Y218437D01*
X39016Y218435D01*
X38975Y218439D01*
X35738Y218439D01*
X33654Y220523D01*
X33654Y221982D01*
X33643Y222052D01*
X33641Y222124D01*
X33623Y222173D01*
X33615Y222224D01*
X33581Y222288D01*
X33556Y222355D01*
X33524Y222396D01*
X33499Y222442D01*
X33447Y222491D01*
X33403Y222547D01*
X33359Y222575D01*
X33321Y222611D01*
X33256Y222641D01*
X33196Y222680D01*
X33145Y222693D01*
X33098Y222715D01*
X33027Y222723D01*
X32957Y222740D01*
X32905Y222736D01*
X32854Y222742D01*
X32783Y222727D01*
X32712Y222721D01*
X32664Y222701D01*
X32613Y222690D01*
X32552Y222653D01*
X32486Y222625D01*
X32430Y222580D01*
X32402Y222564D01*
X32387Y222546D01*
X32355Y222520D01*
X28545Y218710D01*
X28492Y218636D01*
X28432Y218567D01*
X28420Y218536D01*
X28401Y218510D01*
X28374Y218423D01*
X28367Y218405D01*
X25353Y215391D01*
X20732Y215391D01*
X20712Y215388D01*
X20693Y215390D01*
X20591Y215368D01*
X20489Y215352D01*
X20472Y215342D01*
X20452Y215338D01*
X20363Y215285D01*
X20272Y215236D01*
X20258Y215222D01*
X20241Y215212D01*
X20174Y215133D01*
X20102Y215058D01*
X20094Y215040D01*
X20081Y215025D01*
X20042Y214929D01*
X19999Y214835D01*
X19997Y214815D01*
X19989Y214797D01*
X19971Y214630D01*
X19971Y214454D01*
X18864Y211781D01*
X16819Y209736D01*
X14146Y208629D01*
X11254Y208629D01*
X8581Y209736D01*
X6536Y211781D01*
X5429Y214454D01*
X5429Y217346D01*
X6536Y220019D01*
X8581Y222064D01*
X11254Y223171D01*
X14146Y223171D01*
X15755Y222505D01*
X15849Y222482D01*
X15942Y222454D01*
X15969Y222454D01*
X15994Y222448D01*
X16091Y222458D01*
X16188Y222460D01*
X16213Y222469D01*
X16239Y222471D01*
X16328Y222511D01*
X16419Y222544D01*
X16440Y222561D01*
X16464Y222571D01*
X16535Y222637D01*
X16611Y222698D01*
X16625Y222720D01*
X16645Y222738D01*
X16692Y222823D01*
X16744Y222905D01*
X16751Y222930D01*
X16763Y222953D01*
X16781Y223049D01*
X16804Y223144D01*
X16802Y223170D01*
X16807Y223195D01*
X16793Y223292D01*
X16785Y223389D01*
X16775Y223413D01*
X16771Y223439D01*
X16727Y223526D01*
X16689Y223615D01*
X16669Y223641D01*
X16660Y223658D01*
X16636Y223681D01*
X16584Y223746D01*
X11620Y228710D01*
X11620Y282211D01*
X19080Y289671D01*
X19133Y289745D01*
X19193Y289814D01*
X19205Y289845D01*
X19224Y289871D01*
X19251Y289958D01*
X19285Y290043D01*
X19289Y290083D01*
X19296Y290106D01*
X19295Y290138D01*
X19303Y290209D01*
X19303Y298958D01*
X19300Y298978D01*
X19302Y298997D01*
X19280Y299099D01*
X19263Y299201D01*
X19254Y299218D01*
X19250Y299238D01*
X19197Y299327D01*
X19148Y299418D01*
X19134Y299432D01*
X19124Y299449D01*
X19045Y299516D01*
X18970Y299587D01*
X18952Y299596D01*
X18937Y299609D01*
X18841Y299647D01*
X18747Y299691D01*
X18727Y299693D01*
X18709Y299701D01*
X18542Y299719D01*
X17779Y299719D01*
X17779Y299721D01*
X18542Y299721D01*
X18562Y299724D01*
X18581Y299722D01*
X18683Y299744D01*
X18785Y299761D01*
X18802Y299770D01*
X18822Y299774D01*
X18911Y299827D01*
X19002Y299876D01*
X19016Y299890D01*
X19033Y299900D01*
X19100Y299979D01*
X19171Y300054D01*
X19180Y300072D01*
X19193Y300087D01*
X19232Y300183D01*
X19275Y300277D01*
X19277Y300297D01*
X19285Y300315D01*
X19303Y300482D01*
X19303Y309881D01*
X21989Y309881D01*
X25624Y306246D01*
X25682Y306204D01*
X25734Y306154D01*
X25781Y306133D01*
X25823Y306102D01*
X25892Y306081D01*
X25957Y306051D01*
X26009Y306045D01*
X26059Y306030D01*
X26130Y306032D01*
X26201Y306024D01*
X26252Y306035D01*
X26304Y306036D01*
X26372Y306061D01*
X26442Y306076D01*
X26487Y306103D01*
X26535Y306121D01*
X26591Y306165D01*
X26653Y306202D01*
X26687Y306242D01*
X26727Y306274D01*
X26766Y306335D01*
X26813Y306389D01*
X26832Y306437D01*
X26860Y306481D01*
X26878Y306551D01*
X26905Y306617D01*
X26913Y306689D01*
X26921Y306720D01*
X26919Y306743D01*
X26923Y306784D01*
X26923Y311484D01*
X31924Y316485D01*
X32120Y316485D01*
X32211Y316499D01*
X32301Y316507D01*
X32331Y316519D01*
X32363Y316524D01*
X32444Y316567D01*
X32528Y316603D01*
X32560Y316629D01*
X32581Y316640D01*
X32603Y316663D01*
X32659Y316708D01*
X33960Y318009D01*
X35880Y318009D01*
X35951Y318020D01*
X36023Y318022D01*
X36071Y318040D01*
X36123Y318048D01*
X36186Y318082D01*
X36254Y318107D01*
X36294Y318139D01*
X36340Y318164D01*
X36390Y318216D01*
X36446Y318260D01*
X36474Y318304D01*
X36510Y318342D01*
X36540Y318407D01*
X36579Y318467D01*
X36591Y318518D01*
X36613Y318565D01*
X36621Y318636D01*
X36639Y318706D01*
X36635Y318758D01*
X36640Y318809D01*
X36625Y318880D01*
X36619Y318951D01*
X36599Y318999D01*
X36588Y319050D01*
X36551Y319111D01*
X36523Y319177D01*
X36478Y319233D01*
X36462Y319261D01*
X36444Y319276D01*
X36418Y319308D01*
X34289Y321437D01*
X34289Y328803D01*
X39497Y334011D01*
X46863Y334011D01*
X52071Y328803D01*
X52071Y321437D01*
X47402Y316768D01*
X47360Y316710D01*
X47310Y316658D01*
X47288Y316611D01*
X47258Y316569D01*
X47237Y316500D01*
X47207Y316435D01*
X47201Y316383D01*
X47186Y316333D01*
X47188Y316262D01*
X47180Y316191D01*
X47191Y316140D01*
X47192Y316088D01*
X47217Y316020D01*
X47232Y315950D01*
X47259Y315905D01*
X47277Y315857D01*
X47321Y315801D01*
X47358Y315739D01*
X47398Y315705D01*
X47430Y315665D01*
X47491Y315626D01*
X47545Y315579D01*
X47593Y315560D01*
X47637Y315532D01*
X47707Y315514D01*
X47773Y315487D01*
X47845Y315479D01*
X47876Y315471D01*
X47899Y315473D01*
X47940Y315469D01*
X63820Y315469D01*
X63891Y315480D01*
X63963Y315482D01*
X64011Y315500D01*
X64063Y315508D01*
X64126Y315542D01*
X64194Y315567D01*
X64234Y315599D01*
X64280Y315624D01*
X64330Y315676D01*
X64386Y315720D01*
X64414Y315764D01*
X64450Y315802D01*
X64480Y315867D01*
X64519Y315927D01*
X64531Y315978D01*
X64553Y316025D01*
X64561Y316096D01*
X64579Y316166D01*
X64575Y316218D01*
X64580Y316269D01*
X64565Y316340D01*
X64559Y316411D01*
X64539Y316459D01*
X64528Y316510D01*
X64491Y316571D01*
X64463Y316637D01*
X64418Y316693D01*
X64402Y316721D01*
X64384Y316736D01*
X64358Y316768D01*
X59689Y321437D01*
X59689Y328803D01*
X64897Y334011D01*
X72263Y334011D01*
X77471Y328803D01*
X77471Y321437D01*
X72802Y316768D01*
X72760Y316710D01*
X72710Y316658D01*
X72688Y316611D01*
X72658Y316569D01*
X72637Y316500D01*
X72607Y316435D01*
X72601Y316383D01*
X72586Y316333D01*
X72588Y316262D01*
X72580Y316191D01*
X72591Y316140D01*
X72592Y316088D01*
X72617Y316020D01*
X72632Y315950D01*
X72659Y315905D01*
X72677Y315857D01*
X72721Y315801D01*
X72758Y315739D01*
X72798Y315705D01*
X72830Y315665D01*
X72891Y315626D01*
X72945Y315579D01*
X72993Y315560D01*
X73037Y315532D01*
X73107Y315514D01*
X73173Y315487D01*
X73245Y315479D01*
X73276Y315471D01*
X73299Y315473D01*
X73340Y315469D01*
X89220Y315469D01*
X89291Y315480D01*
X89363Y315482D01*
X89411Y315500D01*
X89463Y315508D01*
X89526Y315542D01*
X89594Y315567D01*
X89634Y315599D01*
X89680Y315624D01*
X89730Y315676D01*
X89786Y315720D01*
X89814Y315764D01*
X89850Y315802D01*
X89880Y315867D01*
X89919Y315927D01*
X89931Y315978D01*
X89953Y316025D01*
X89961Y316096D01*
X89979Y316166D01*
X89975Y316218D01*
X89980Y316269D01*
X89965Y316340D01*
X89959Y316411D01*
X89939Y316459D01*
X89928Y316510D01*
X89891Y316571D01*
X89863Y316637D01*
X89818Y316693D01*
X89802Y316721D01*
X89784Y316736D01*
X89758Y316768D01*
X85089Y321437D01*
X85089Y328803D01*
X90297Y334011D01*
X97663Y334011D01*
X102871Y328803D01*
X102871Y321437D01*
X98202Y316768D01*
X98160Y316710D01*
X98110Y316658D01*
X98088Y316611D01*
X98058Y316569D01*
X98037Y316500D01*
X98007Y316435D01*
X98001Y316383D01*
X97986Y316333D01*
X97988Y316262D01*
X97980Y316191D01*
X97991Y316140D01*
X97992Y316088D01*
X98017Y316020D01*
X98032Y315950D01*
X98059Y315905D01*
X98077Y315857D01*
X98121Y315801D01*
X98158Y315739D01*
X98198Y315705D01*
X98230Y315665D01*
X98291Y315626D01*
X98345Y315579D01*
X98393Y315560D01*
X98437Y315532D01*
X98507Y315514D01*
X98573Y315487D01*
X98645Y315479D01*
X98676Y315471D01*
X98699Y315473D01*
X98740Y315469D01*
X101680Y315469D01*
X110237Y306912D01*
X110237Y304988D01*
X110248Y304917D01*
X110250Y304845D01*
X110268Y304797D01*
X110276Y304745D01*
X110310Y304682D01*
X110335Y304614D01*
X110367Y304574D01*
X110392Y304528D01*
X110444Y304478D01*
X110488Y304422D01*
X110532Y304394D01*
X110570Y304358D01*
X110635Y304328D01*
X110695Y304289D01*
X110746Y304277D01*
X110793Y304255D01*
X110864Y304247D01*
X110934Y304229D01*
X110986Y304233D01*
X111037Y304228D01*
X111108Y304243D01*
X111179Y304249D01*
X111227Y304269D01*
X111278Y304280D01*
X111339Y304317D01*
X111405Y304345D01*
X111461Y304390D01*
X111489Y304406D01*
X111504Y304424D01*
X111536Y304450D01*
X115697Y308611D01*
X123063Y308611D01*
X128271Y303403D01*
X128271Y296037D01*
X123063Y290829D01*
X115584Y290829D01*
X115514Y290818D01*
X115442Y290816D01*
X115393Y290798D01*
X115342Y290790D01*
X115278Y290756D01*
X115211Y290731D01*
X115170Y290699D01*
X115124Y290674D01*
X115075Y290622D01*
X115019Y290578D01*
X114991Y290534D01*
X114955Y290496D01*
X114925Y290431D01*
X114886Y290371D01*
X114873Y290320D01*
X114851Y290273D01*
X114843Y290202D01*
X114826Y290132D01*
X114830Y290080D01*
X114824Y290029D01*
X114839Y289958D01*
X114845Y289887D01*
X114865Y289839D01*
X114876Y289788D01*
X114913Y289727D01*
X114941Y289661D01*
X114986Y289605D01*
X115002Y289577D01*
X115020Y289562D01*
X115046Y289530D01*
X116380Y288196D01*
X116454Y288143D01*
X116523Y288084D01*
X116553Y288072D01*
X116579Y288053D01*
X116666Y288026D01*
X116751Y287992D01*
X116792Y287987D01*
X116814Y287980D01*
X116847Y287981D01*
X116918Y287973D01*
X174642Y287973D01*
X181928Y280687D01*
X181928Y222963D01*
X181940Y222892D01*
X181942Y222821D01*
X181960Y222772D01*
X181968Y222720D01*
X182002Y222657D01*
X182026Y222590D01*
X182059Y222549D01*
X182083Y222503D01*
X182135Y222454D01*
X182180Y222398D01*
X182224Y222369D01*
X182261Y222334D01*
X182326Y222303D01*
X182387Y222265D01*
X182437Y222252D01*
X182484Y222230D01*
X182556Y222222D01*
X182625Y222205D01*
X182677Y222209D01*
X182729Y222203D01*
X182799Y222218D01*
X182870Y222224D01*
X182918Y222244D01*
X182969Y222255D01*
X183031Y222292D01*
X183097Y222320D01*
X183153Y222365D01*
X183180Y222381D01*
X183196Y222399D01*
X183228Y222425D01*
X183974Y223171D01*
X197026Y223171D01*
X197771Y222426D01*
X197771Y209374D01*
X197026Y208629D01*
X183974Y208629D01*
X183228Y209375D01*
X183170Y209417D01*
X183118Y209466D01*
X183070Y209488D01*
X183028Y209519D01*
X182960Y209540D01*
X182894Y209570D01*
X182843Y209576D01*
X182793Y209591D01*
X182721Y209589D01*
X182650Y209597D01*
X182599Y209586D01*
X182547Y209585D01*
X182480Y209560D01*
X182410Y209545D01*
X182365Y209518D01*
X182316Y209500D01*
X182260Y209455D01*
X182199Y209419D01*
X182165Y209379D01*
X182124Y209347D01*
X182085Y209286D01*
X182039Y209232D01*
X182019Y209183D01*
X181991Y209140D01*
X181974Y209070D01*
X181947Y209004D01*
X181939Y208932D01*
X181931Y208901D01*
X181933Y208878D01*
X181928Y208837D01*
X181928Y192632D01*
X181944Y192536D01*
X181953Y192439D01*
X181964Y192415D01*
X181968Y192390D01*
X182013Y192304D01*
X182053Y192215D01*
X182071Y192195D01*
X182083Y192172D01*
X182154Y192105D01*
X182220Y192033D01*
X182242Y192021D01*
X182261Y192003D01*
X182350Y191962D01*
X182435Y191915D01*
X182461Y191910D01*
X182484Y191899D01*
X182581Y191888D01*
X182677Y191871D01*
X182703Y191875D01*
X182729Y191872D01*
X182824Y191893D01*
X182920Y191907D01*
X182944Y191919D01*
X182969Y191924D01*
X183053Y191974D01*
X183140Y192018D01*
X183158Y192037D01*
X183180Y192051D01*
X183244Y192124D01*
X183312Y192194D01*
X183328Y192223D01*
X183340Y192237D01*
X183353Y192268D01*
X183393Y192341D01*
X184336Y194619D01*
X186381Y196664D01*
X189054Y197771D01*
X191946Y197771D01*
X194619Y196664D01*
X196664Y194619D01*
X197771Y191946D01*
X197771Y189054D01*
X196664Y186381D01*
X194619Y184336D01*
X191946Y183229D01*
X189054Y183229D01*
X186381Y184336D01*
X184336Y186381D01*
X183393Y188659D01*
X183341Y188742D01*
X183296Y188828D01*
X183277Y188846D01*
X183263Y188868D01*
X183188Y188930D01*
X183118Y188997D01*
X183094Y189008D01*
X183074Y189025D01*
X182983Y189060D01*
X182894Y189101D01*
X182868Y189104D01*
X182844Y189113D01*
X182747Y189117D01*
X182650Y189128D01*
X182625Y189122D01*
X182598Y189123D01*
X182505Y189096D01*
X182410Y189076D01*
X182387Y189062D01*
X182362Y189055D01*
X182282Y188999D01*
X182199Y188949D01*
X182182Y188930D01*
X182160Y188915D01*
X182102Y188837D01*
X182039Y188763D01*
X182029Y188738D01*
X182013Y188717D01*
X181983Y188625D01*
X181947Y188534D01*
X181943Y188502D01*
X181937Y188483D01*
X181937Y188450D01*
X181928Y188368D01*
X181928Y178894D01*
X181943Y178804D01*
X181950Y178713D01*
X181963Y178683D01*
X181968Y178651D01*
X182011Y178570D01*
X182046Y178487D01*
X182072Y178454D01*
X182083Y178434D01*
X182106Y178412D01*
X182151Y178356D01*
X188045Y172462D01*
X188140Y172393D01*
X188234Y172324D01*
X188240Y172322D01*
X188245Y172318D01*
X188356Y172284D01*
X188468Y172247D01*
X188474Y172248D01*
X188480Y172246D01*
X188597Y172249D01*
X188714Y172250D01*
X188721Y172252D01*
X188726Y172252D01*
X188743Y172258D01*
X188875Y172297D01*
X189054Y172371D01*
X191946Y172371D01*
X194619Y171264D01*
X196664Y169219D01*
X197771Y166546D01*
X197771Y163654D01*
X196664Y160981D01*
X194619Y158936D01*
X191946Y157829D01*
X189054Y157829D01*
X186381Y158936D01*
X184336Y160981D01*
X183229Y163654D01*
X183229Y166546D01*
X184336Y169218D01*
X184399Y169281D01*
X184411Y169298D01*
X184426Y169310D01*
X184482Y169397D01*
X184543Y169481D01*
X184549Y169500D01*
X184559Y169517D01*
X184585Y169617D01*
X184615Y169716D01*
X184615Y169736D01*
X184619Y169756D01*
X184611Y169859D01*
X184609Y169962D01*
X184602Y169981D01*
X184600Y170001D01*
X184560Y170096D01*
X184524Y170193D01*
X184512Y170209D01*
X184504Y170227D01*
X184399Y170358D01*
X177863Y176894D01*
X177863Y278687D01*
X177848Y278777D01*
X177841Y278868D01*
X177828Y278898D01*
X177823Y278930D01*
X177780Y279011D01*
X177745Y279094D01*
X177719Y279127D01*
X177708Y279147D01*
X177685Y279169D01*
X177640Y279225D01*
X173180Y283685D01*
X173107Y283738D01*
X173037Y283797D01*
X173007Y283810D01*
X172981Y283828D01*
X172894Y283855D01*
X172809Y283889D01*
X172768Y283894D01*
X172746Y283901D01*
X172713Y283900D01*
X172642Y283908D01*
X171401Y283908D01*
X171330Y283896D01*
X171258Y283894D01*
X171209Y283876D01*
X171158Y283868D01*
X171095Y283834D01*
X171027Y283810D01*
X170987Y283777D01*
X170941Y283753D01*
X170891Y283701D01*
X170835Y283656D01*
X170807Y283612D01*
X170771Y283575D01*
X170741Y283510D01*
X170702Y283449D01*
X170690Y283399D01*
X170668Y283352D01*
X170660Y283280D01*
X170642Y283211D01*
X170646Y283159D01*
X170641Y283107D01*
X170656Y283037D01*
X170661Y282966D01*
X170682Y282918D01*
X170693Y282867D01*
X170730Y282805D01*
X170758Y282739D01*
X170802Y282683D01*
X170819Y282656D01*
X170837Y282640D01*
X170862Y282608D01*
X172721Y280750D01*
X172721Y278172D01*
X172724Y278152D01*
X172722Y278133D01*
X172744Y278031D01*
X172760Y277929D01*
X172770Y277912D01*
X172774Y277892D01*
X172827Y277803D01*
X172876Y277712D01*
X172890Y277698D01*
X172900Y277681D01*
X172979Y277614D01*
X173054Y277542D01*
X173072Y277534D01*
X173087Y277521D01*
X173183Y277482D01*
X173277Y277439D01*
X173297Y277437D01*
X173315Y277429D01*
X173482Y277411D01*
X175226Y277411D01*
X175971Y276666D01*
X175971Y258114D01*
X175226Y257369D01*
X167674Y257369D01*
X166929Y258114D01*
X166929Y276666D01*
X167674Y277411D01*
X167894Y277411D01*
X167914Y277414D01*
X167933Y277412D01*
X168035Y277434D01*
X168137Y277450D01*
X168154Y277460D01*
X168174Y277464D01*
X168263Y277517D01*
X168354Y277566D01*
X168368Y277580D01*
X168385Y277590D01*
X168452Y277669D01*
X168524Y277744D01*
X168532Y277762D01*
X168545Y277777D01*
X168584Y277873D01*
X168627Y277967D01*
X168629Y277987D01*
X168637Y278005D01*
X168655Y278172D01*
X168655Y278751D01*
X168641Y278841D01*
X168633Y278932D01*
X168621Y278961D01*
X168616Y278993D01*
X168573Y279074D01*
X168537Y279158D01*
X168511Y279190D01*
X168500Y279211D01*
X168477Y279233D01*
X168432Y279289D01*
X167719Y280002D01*
X167646Y280055D01*
X167576Y280114D01*
X167546Y280127D01*
X167520Y280145D01*
X167433Y280172D01*
X167348Y280206D01*
X167307Y280211D01*
X167285Y280218D01*
X167252Y280217D01*
X167181Y280225D01*
X111108Y280225D01*
X99622Y291712D01*
X99605Y291723D01*
X99593Y291739D01*
X99506Y291795D01*
X99422Y291855D01*
X99403Y291861D01*
X99386Y291872D01*
X99286Y291897D01*
X99187Y291928D01*
X99167Y291927D01*
X99148Y291932D01*
X99045Y291924D01*
X98941Y291921D01*
X98922Y291914D01*
X98902Y291913D01*
X98807Y291872D01*
X98710Y291837D01*
X98694Y291824D01*
X98676Y291816D01*
X98545Y291712D01*
X97663Y290829D01*
X90297Y290829D01*
X85628Y295498D01*
X85570Y295540D01*
X85518Y295590D01*
X85471Y295612D01*
X85429Y295642D01*
X85360Y295663D01*
X85295Y295693D01*
X85243Y295699D01*
X85193Y295714D01*
X85122Y295712D01*
X85051Y295720D01*
X85000Y295709D01*
X84948Y295708D01*
X84880Y295683D01*
X84810Y295668D01*
X84765Y295641D01*
X84717Y295623D01*
X84661Y295579D01*
X84599Y295542D01*
X84565Y295502D01*
X84525Y295470D01*
X84486Y295409D01*
X84439Y295355D01*
X84420Y295307D01*
X84392Y295263D01*
X84374Y295193D01*
X84347Y295127D01*
X84339Y295055D01*
X84331Y295024D01*
X84333Y295001D01*
X84329Y294960D01*
X84329Y291670D01*
X84343Y291580D01*
X84351Y291489D01*
X84363Y291459D01*
X84368Y291427D01*
X84411Y291346D01*
X84447Y291263D01*
X84473Y291230D01*
X84484Y291210D01*
X84507Y291188D01*
X84552Y291132D01*
X122476Y253208D01*
X122549Y253155D01*
X122619Y253095D01*
X122649Y253083D01*
X122675Y253064D01*
X122762Y253037D01*
X122847Y253003D01*
X122888Y252999D01*
X122910Y252992D01*
X122943Y252993D01*
X123014Y252985D01*
X142099Y252985D01*
X142189Y252999D01*
X142280Y253007D01*
X142309Y253019D01*
X142341Y253024D01*
X142422Y253067D01*
X142506Y253103D01*
X142538Y253129D01*
X142559Y253140D01*
X142581Y253163D01*
X142637Y253208D01*
X144048Y254619D01*
X144101Y254693D01*
X144161Y254762D01*
X144173Y254793D01*
X144192Y254819D01*
X144219Y254906D01*
X144253Y254991D01*
X144257Y255032D01*
X144264Y255054D01*
X144263Y255086D01*
X144271Y255157D01*
X144271Y256608D01*
X144268Y256628D01*
X144270Y256647D01*
X144248Y256749D01*
X144232Y256851D01*
X144222Y256868D01*
X144218Y256888D01*
X144165Y256977D01*
X144116Y257068D01*
X144102Y257082D01*
X144092Y257099D01*
X144013Y257166D01*
X143938Y257238D01*
X143920Y257246D01*
X143905Y257259D01*
X143809Y257298D01*
X143715Y257341D01*
X143695Y257343D01*
X143677Y257351D01*
X143510Y257369D01*
X142274Y257369D01*
X141529Y258114D01*
X141529Y276666D01*
X142274Y277411D01*
X149826Y277411D01*
X150571Y276666D01*
X150571Y258114D01*
X149826Y257369D01*
X149098Y257369D01*
X149078Y257366D01*
X149059Y257368D01*
X148957Y257346D01*
X148855Y257330D01*
X148838Y257320D01*
X148818Y257316D01*
X148729Y257263D01*
X148638Y257214D01*
X148624Y257200D01*
X148607Y257190D01*
X148540Y257111D01*
X148468Y257036D01*
X148460Y257018D01*
X148447Y257003D01*
X148408Y256907D01*
X148365Y256813D01*
X148363Y256793D01*
X148355Y256775D01*
X148337Y256608D01*
X148337Y253158D01*
X144098Y248919D01*
X121014Y248919D01*
X80263Y289670D01*
X80263Y301674D01*
X80249Y301764D01*
X80241Y301855D01*
X80229Y301885D01*
X80224Y301917D01*
X80181Y301997D01*
X80145Y302081D01*
X80119Y302114D01*
X80108Y302134D01*
X80085Y302156D01*
X80040Y302212D01*
X78770Y303483D01*
X78712Y303524D01*
X78660Y303574D01*
X78613Y303596D01*
X78571Y303626D01*
X78502Y303647D01*
X78437Y303677D01*
X78385Y303683D01*
X78335Y303698D01*
X78264Y303697D01*
X78193Y303704D01*
X78142Y303693D01*
X78090Y303692D01*
X78022Y303667D01*
X77952Y303652D01*
X77907Y303625D01*
X77859Y303608D01*
X77803Y303563D01*
X77741Y303526D01*
X77707Y303486D01*
X77667Y303454D01*
X77628Y303394D01*
X77581Y303339D01*
X77562Y303291D01*
X77534Y303247D01*
X77516Y303177D01*
X77489Y303111D01*
X77481Y303040D01*
X77473Y303008D01*
X77475Y302985D01*
X77471Y302944D01*
X77471Y296037D01*
X73096Y291662D01*
X73084Y291646D01*
X73069Y291634D01*
X73013Y291547D01*
X72952Y291463D01*
X72946Y291444D01*
X72936Y291427D01*
X72910Y291326D01*
X72880Y291228D01*
X72880Y291208D01*
X72876Y291188D01*
X72884Y291085D01*
X72886Y290982D01*
X72893Y290963D01*
X72895Y290943D01*
X72935Y290848D01*
X72971Y290751D01*
X72983Y290735D01*
X72991Y290717D01*
X73096Y290586D01*
X148337Y215345D01*
X148337Y205672D01*
X148340Y205652D01*
X148338Y205633D01*
X148360Y205531D01*
X148376Y205429D01*
X148386Y205412D01*
X148390Y205392D01*
X148443Y205303D01*
X148492Y205212D01*
X148506Y205198D01*
X148516Y205181D01*
X148595Y205114D01*
X148670Y205042D01*
X148688Y205034D01*
X148703Y205021D01*
X148799Y204982D01*
X148893Y204939D01*
X148913Y204937D01*
X148931Y204929D01*
X149098Y204911D01*
X149826Y204911D01*
X150571Y204166D01*
X150571Y185614D01*
X149826Y184869D01*
X143002Y184869D01*
X142982Y184866D01*
X142963Y184868D01*
X142861Y184846D01*
X142759Y184830D01*
X142742Y184820D01*
X142722Y184816D01*
X142633Y184763D01*
X142542Y184714D01*
X142528Y184700D01*
X142511Y184690D01*
X142444Y184611D01*
X142372Y184536D01*
X142364Y184518D01*
X142351Y184503D01*
X142312Y184407D01*
X142269Y184313D01*
X142267Y184293D01*
X142259Y184275D01*
X142241Y184108D01*
X142241Y184037D01*
X142255Y183947D01*
X142263Y183856D01*
X142275Y183827D01*
X142280Y183795D01*
X142323Y183714D01*
X142359Y183630D01*
X142385Y183598D01*
X142396Y183577D01*
X142419Y183555D01*
X142464Y183499D01*
X182889Y143074D01*
X182926Y143047D01*
X182957Y143014D01*
X183025Y142976D01*
X183088Y142931D01*
X183132Y142917D01*
X183172Y142895D01*
X183249Y142881D01*
X183323Y142858D01*
X183369Y142859D01*
X183414Y142851D01*
X183491Y142863D01*
X183569Y142865D01*
X183612Y142880D01*
X183658Y142887D01*
X183727Y142922D01*
X183800Y142949D01*
X183836Y142978D01*
X183877Y142999D01*
X183931Y143054D01*
X183992Y143103D01*
X184017Y143141D01*
X184049Y143174D01*
X184115Y143294D01*
X184125Y143310D01*
X184127Y143315D01*
X184130Y143321D01*
X184336Y143819D01*
X186381Y145864D01*
X189054Y146971D01*
X191946Y146971D01*
X194619Y145864D01*
X196664Y143819D01*
X197771Y141146D01*
X197771Y138254D01*
X196664Y135581D01*
X194619Y133536D01*
X191946Y132429D01*
X189054Y132429D01*
X186381Y133536D01*
X184336Y135581D01*
X183456Y137705D01*
X183395Y137805D01*
X183335Y137905D01*
X183330Y137909D01*
X183327Y137914D01*
X183236Y137989D01*
X183148Y138065D01*
X183142Y138067D01*
X183137Y138071D01*
X183029Y138113D01*
X182920Y138157D01*
X182912Y138158D01*
X182908Y138159D01*
X182889Y138160D01*
X182753Y138175D01*
X182038Y138175D01*
X138175Y182038D01*
X138175Y184108D01*
X138172Y184128D01*
X138174Y184147D01*
X138152Y184249D01*
X138136Y184351D01*
X138126Y184368D01*
X138122Y184388D01*
X138069Y184477D01*
X138020Y184568D01*
X138006Y184582D01*
X137996Y184599D01*
X137917Y184666D01*
X137842Y184738D01*
X137824Y184746D01*
X137809Y184759D01*
X137713Y184798D01*
X137619Y184841D01*
X137599Y184843D01*
X137581Y184851D01*
X137414Y184869D01*
X129499Y184869D01*
X129498Y184870D01*
X129397Y184895D01*
X129298Y184926D01*
X129278Y184925D01*
X129259Y184930D01*
X129156Y184922D01*
X129053Y184919D01*
X129034Y184913D01*
X129014Y184911D01*
X128919Y184871D01*
X128822Y184835D01*
X128806Y184822D01*
X128788Y184815D01*
X128657Y184710D01*
X121128Y177181D01*
X119714Y175767D01*
X110885Y175767D01*
X110795Y175753D01*
X110704Y175745D01*
X110675Y175733D01*
X110643Y175728D01*
X110562Y175685D01*
X110478Y175649D01*
X110446Y175623D01*
X110425Y175612D01*
X110403Y175589D01*
X110347Y175544D01*
X103997Y169194D01*
X103985Y169178D01*
X103970Y169166D01*
X103914Y169078D01*
X103853Y168995D01*
X103848Y168976D01*
X103837Y168959D01*
X103812Y168858D01*
X103781Y168759D01*
X103782Y168740D01*
X103777Y168720D01*
X103785Y168617D01*
X103787Y168514D01*
X103794Y168495D01*
X103796Y168475D01*
X103836Y168380D01*
X103872Y168283D01*
X103884Y168267D01*
X103892Y168249D01*
X103997Y168118D01*
X104141Y167974D01*
X104141Y81929D01*
X104155Y81839D01*
X104163Y81748D01*
X104175Y81719D01*
X104180Y81687D01*
X104223Y81606D01*
X104259Y81522D01*
X104285Y81490D01*
X104296Y81469D01*
X104319Y81447D01*
X104364Y81391D01*
X114761Y70994D01*
X114835Y70941D01*
X114904Y70881D01*
X114935Y70869D01*
X114961Y70850D01*
X115048Y70823D01*
X115133Y70789D01*
X115174Y70785D01*
X115196Y70778D01*
X115228Y70779D01*
X115299Y70771D01*
X115746Y70771D01*
X118419Y69664D01*
X120464Y67619D01*
X121571Y64946D01*
X121571Y62054D01*
X120464Y59381D01*
X118419Y57336D01*
X115746Y56229D01*
X112854Y56229D01*
X110181Y57336D01*
X108136Y59381D01*
X107029Y62054D01*
X107029Y64946D01*
X108136Y67619D01*
X109723Y69206D01*
X109735Y69222D01*
X109750Y69234D01*
X109806Y69321D01*
X109867Y69405D01*
X109873Y69424D01*
X109883Y69441D01*
X109909Y69542D01*
X109939Y69640D01*
X109939Y69660D01*
X109943Y69680D01*
X109935Y69783D01*
X109933Y69886D01*
X109926Y69905D01*
X109924Y69925D01*
X109884Y70020D01*
X109848Y70117D01*
X109836Y70133D01*
X109828Y70151D01*
X109723Y70282D01*
X101489Y78516D01*
X100075Y79930D01*
X100075Y163435D01*
X100064Y163505D01*
X100062Y163577D01*
X100044Y163626D01*
X100036Y163677D01*
X100002Y163741D01*
X99977Y163808D01*
X99945Y163849D01*
X99920Y163895D01*
X99868Y163944D01*
X99824Y164000D01*
X99780Y164028D01*
X99742Y164064D01*
X99677Y164094D01*
X99617Y164133D01*
X99566Y164146D01*
X99519Y164168D01*
X99448Y164176D01*
X99378Y164193D01*
X99326Y164189D01*
X99275Y164195D01*
X99204Y164180D01*
X99133Y164174D01*
X99085Y164154D01*
X99034Y164143D01*
X98973Y164106D01*
X98907Y164078D01*
X98851Y164033D01*
X98823Y164017D01*
X98808Y163999D01*
X98776Y163973D01*
X98268Y163465D01*
X96854Y162051D01*
X96016Y162051D01*
X95901Y162033D01*
X95785Y162015D01*
X95779Y162013D01*
X95773Y162012D01*
X95670Y161957D01*
X95565Y161904D01*
X95561Y161899D01*
X95555Y161896D01*
X95475Y161811D01*
X95393Y161728D01*
X95390Y161722D01*
X95386Y161718D01*
X95378Y161701D01*
X95312Y161581D01*
X95064Y160981D01*
X93019Y158936D01*
X90346Y157829D01*
X87454Y157829D01*
X84781Y158936D01*
X82736Y160981D01*
X81629Y163654D01*
X81629Y166546D01*
X82736Y169219D01*
X84793Y171276D01*
X84842Y171306D01*
X84928Y171352D01*
X84946Y171371D01*
X84968Y171384D01*
X85030Y171459D01*
X85098Y171530D01*
X85109Y171554D01*
X85125Y171574D01*
X85160Y171665D01*
X85201Y171753D01*
X85204Y171779D01*
X85213Y171803D01*
X85218Y171901D01*
X85228Y171997D01*
X85223Y172023D01*
X85224Y172049D01*
X85197Y172142D01*
X85176Y172238D01*
X85163Y172260D01*
X85155Y172285D01*
X85100Y172365D01*
X85050Y172449D01*
X85030Y172466D01*
X85015Y172487D01*
X84937Y172546D01*
X84863Y172609D01*
X84839Y172619D01*
X84818Y172634D01*
X84725Y172664D01*
X84635Y172701D01*
X84602Y172704D01*
X84584Y172710D01*
X84551Y172710D01*
X84468Y172719D01*
X82237Y172719D01*
X82183Y172733D01*
X82084Y172763D01*
X82064Y172763D01*
X82045Y172768D01*
X81942Y172760D01*
X81838Y172757D01*
X81819Y172750D01*
X81799Y172748D01*
X81705Y172708D01*
X81607Y172672D01*
X81591Y172660D01*
X81573Y172652D01*
X81442Y172547D01*
X64119Y155224D01*
X64077Y155166D01*
X64028Y155114D01*
X64006Y155067D01*
X63975Y155025D01*
X63954Y154956D01*
X63924Y154891D01*
X63918Y154839D01*
X63903Y154789D01*
X63905Y154718D01*
X63897Y154647D01*
X63908Y154596D01*
X63909Y154544D01*
X63934Y154476D01*
X63949Y154406D01*
X63976Y154362D01*
X63994Y154313D01*
X64039Y154257D01*
X64075Y154195D01*
X64115Y154161D01*
X64148Y154121D01*
X64208Y154082D01*
X64262Y154035D01*
X64311Y154016D01*
X64355Y153988D01*
X64424Y153970D01*
X64491Y153943D01*
X64562Y153935D01*
X64593Y153927D01*
X64616Y153929D01*
X64657Y153925D01*
X65481Y153925D01*
X67565Y151841D01*
X67565Y148590D01*
X67568Y148570D01*
X67566Y148551D01*
X67588Y148449D01*
X67604Y148347D01*
X67614Y148330D01*
X67618Y148310D01*
X67671Y148221D01*
X67720Y148130D01*
X67734Y148116D01*
X67744Y148099D01*
X67823Y148032D01*
X67898Y147960D01*
X67916Y147952D01*
X67931Y147939D01*
X68027Y147900D01*
X68121Y147857D01*
X68141Y147855D01*
X68159Y147847D01*
X68326Y147829D01*
X71577Y147829D01*
X73691Y145715D01*
X73708Y145703D01*
X73720Y145687D01*
X73807Y145631D01*
X73891Y145571D01*
X73910Y145565D01*
X73927Y145554D01*
X74027Y145529D01*
X74126Y145499D01*
X74146Y145499D01*
X74165Y145494D01*
X74268Y145502D01*
X74372Y145505D01*
X74391Y145512D01*
X74411Y145514D01*
X74505Y145554D01*
X74603Y145590D01*
X74619Y145602D01*
X74637Y145610D01*
X74768Y145715D01*
X78516Y149463D01*
X78569Y149537D01*
X78629Y149606D01*
X78641Y149637D01*
X78660Y149663D01*
X78687Y149750D01*
X78721Y149835D01*
X78725Y149876D01*
X78732Y149898D01*
X78731Y149930D01*
X78739Y150001D01*
X78739Y151841D01*
X80823Y153925D01*
X83769Y153925D01*
X85853Y151841D01*
X85853Y148895D01*
X84142Y147184D01*
X84086Y147105D01*
X84023Y147030D01*
X84014Y147006D01*
X83999Y146985D01*
X83970Y146892D01*
X83938Y146807D01*
X83932Y146807D01*
X83891Y146811D01*
X81929Y146811D01*
X81839Y146797D01*
X81748Y146789D01*
X81719Y146777D01*
X81687Y146772D01*
X81606Y146729D01*
X81522Y146693D01*
X81490Y146667D01*
X81469Y146656D01*
X81447Y146633D01*
X81391Y146588D01*
X75041Y140238D01*
X75029Y140222D01*
X75014Y140210D01*
X74958Y140122D01*
X74897Y140039D01*
X74892Y140020D01*
X74881Y140003D01*
X74856Y139902D01*
X74825Y139803D01*
X74826Y139784D01*
X74821Y139764D01*
X74829Y139661D01*
X74831Y139558D01*
X74838Y139539D01*
X74840Y139519D01*
X74878Y139430D01*
X74882Y139409D01*
X74891Y139395D01*
X74916Y139327D01*
X74928Y139311D01*
X74936Y139293D01*
X74998Y139215D01*
X75008Y139198D01*
X75019Y139189D01*
X75041Y139162D01*
X90535Y123668D01*
X91949Y122254D01*
X91949Y121416D01*
X91952Y121397D01*
X91950Y121380D01*
X91969Y121292D01*
X91985Y121185D01*
X91987Y121179D01*
X91988Y121173D01*
X91999Y121153D01*
X92002Y121139D01*
X92039Y121077D01*
X92043Y121070D01*
X92096Y120965D01*
X92101Y120961D01*
X92104Y120955D01*
X92123Y120937D01*
X92128Y120928D01*
X92171Y120892D01*
X92189Y120875D01*
X92272Y120793D01*
X92278Y120790D01*
X92282Y120786D01*
X92299Y120778D01*
X92311Y120771D01*
X92315Y120768D01*
X92323Y120765D01*
X92419Y120712D01*
X93019Y120464D01*
X95064Y118419D01*
X96171Y115746D01*
X96171Y112854D01*
X95064Y110181D01*
X93019Y108136D01*
X90346Y107029D01*
X87454Y107029D01*
X84781Y108136D01*
X82736Y110181D01*
X81629Y112854D01*
X81629Y115746D01*
X82736Y118419D01*
X84781Y120464D01*
X85997Y120967D01*
X86036Y120992D01*
X86079Y121007D01*
X86140Y121056D01*
X86206Y121097D01*
X86236Y121132D01*
X86271Y121161D01*
X86314Y121227D01*
X86363Y121287D01*
X86380Y121329D01*
X86404Y121368D01*
X86423Y121443D01*
X86451Y121516D01*
X86453Y121562D01*
X86465Y121607D01*
X86458Y121684D01*
X86462Y121762D01*
X86449Y121806D01*
X86445Y121852D01*
X86415Y121923D01*
X86393Y121998D01*
X86367Y122036D01*
X86349Y122078D01*
X86264Y122185D01*
X86253Y122200D01*
X86249Y122203D01*
X86244Y122209D01*
X71009Y137444D01*
X69372Y139081D01*
X68071Y140382D01*
X68071Y140959D01*
X68057Y141050D01*
X68049Y141140D01*
X68037Y141170D01*
X68032Y141202D01*
X67989Y141283D01*
X67953Y141367D01*
X67927Y141399D01*
X67916Y141420D01*
X67893Y141442D01*
X67848Y141498D01*
X66547Y142799D01*
X66547Y145020D01*
X66544Y145039D01*
X66546Y145057D01*
X66535Y145108D01*
X66534Y145162D01*
X66516Y145211D01*
X66508Y145262D01*
X66498Y145281D01*
X66494Y145298D01*
X66469Y145339D01*
X66449Y145393D01*
X66417Y145434D01*
X66392Y145480D01*
X66375Y145496D01*
X66368Y145509D01*
X66333Y145538D01*
X66296Y145585D01*
X66252Y145613D01*
X66214Y145649D01*
X66191Y145660D01*
X66181Y145669D01*
X66141Y145685D01*
X66089Y145718D01*
X66038Y145731D01*
X65991Y145753D01*
X65965Y145756D01*
X65953Y145761D01*
X65895Y145767D01*
X65850Y145778D01*
X65817Y145776D01*
X65786Y145779D01*
X65784Y145779D01*
X65772Y145777D01*
X65747Y145780D01*
X65676Y145765D01*
X65605Y145759D01*
X65569Y145744D01*
X65541Y145739D01*
X65529Y145733D01*
X65506Y145728D01*
X65445Y145691D01*
X65379Y145663D01*
X65343Y145634D01*
X65324Y145624D01*
X65312Y145612D01*
X65295Y145602D01*
X65280Y145584D01*
X65248Y145558D01*
X57120Y137430D01*
X57067Y137356D01*
X57007Y137287D01*
X56995Y137256D01*
X56976Y137230D01*
X56949Y137143D01*
X56915Y137058D01*
X56911Y137017D01*
X56904Y136995D01*
X56905Y136963D01*
X56897Y136892D01*
X56897Y135052D01*
X54813Y132968D01*
X51867Y132968D01*
X49783Y135052D01*
X49783Y137998D01*
X51867Y140082D01*
X53707Y140082D01*
X53797Y140096D01*
X53888Y140104D01*
X53917Y140116D01*
X53949Y140121D01*
X54030Y140164D01*
X54114Y140200D01*
X54146Y140226D01*
X54167Y140237D01*
X54189Y140260D01*
X54245Y140305D01*
X61105Y147165D01*
X61116Y147181D01*
X61132Y147193D01*
X61188Y147280D01*
X61248Y147364D01*
X61254Y147383D01*
X61265Y147400D01*
X61290Y147501D01*
X61321Y147599D01*
X61320Y147619D01*
X61325Y147639D01*
X61317Y147742D01*
X61314Y147845D01*
X61308Y147864D01*
X61306Y147884D01*
X61266Y147979D01*
X61230Y148076D01*
X61217Y148092D01*
X61210Y148110D01*
X61105Y148241D01*
X60451Y148895D01*
X60451Y149719D01*
X60440Y149789D01*
X60438Y149861D01*
X60420Y149910D01*
X60412Y149961D01*
X60378Y150025D01*
X60353Y150092D01*
X60321Y150133D01*
X60296Y150179D01*
X60245Y150228D01*
X60200Y150284D01*
X60156Y150312D01*
X60118Y150348D01*
X60053Y150378D01*
X59993Y150417D01*
X59942Y150430D01*
X59895Y150452D01*
X59824Y150460D01*
X59754Y150477D01*
X59702Y150473D01*
X59651Y150479D01*
X59580Y150464D01*
X59509Y150458D01*
X59461Y150438D01*
X59410Y150427D01*
X59349Y150390D01*
X59283Y150362D01*
X59227Y150317D01*
X59199Y150301D01*
X59184Y150283D01*
X59152Y150257D01*
X24495Y115600D01*
X24453Y115542D01*
X24404Y115490D01*
X24382Y115443D01*
X24351Y115401D01*
X24330Y115332D01*
X24300Y115267D01*
X24294Y115215D01*
X24279Y115165D01*
X24281Y115094D01*
X24273Y115023D01*
X24284Y114972D01*
X24285Y114920D01*
X24310Y114852D01*
X24325Y114782D01*
X24352Y114738D01*
X24370Y114689D01*
X24415Y114633D01*
X24451Y114571D01*
X24491Y114537D01*
X24524Y114497D01*
X24584Y114458D01*
X24638Y114411D01*
X24687Y114392D01*
X24731Y114364D01*
X24800Y114346D01*
X24867Y114319D01*
X24938Y114311D01*
X24969Y114303D01*
X24992Y114305D01*
X25033Y114301D01*
X25857Y114301D01*
X27158Y113000D01*
X27232Y112947D01*
X27302Y112887D01*
X27332Y112875D01*
X27358Y112856D01*
X27445Y112829D01*
X27530Y112795D01*
X27571Y112791D01*
X27593Y112784D01*
X27625Y112785D01*
X27697Y112777D01*
X40466Y112777D01*
X83642Y69601D01*
X83658Y69589D01*
X83671Y69574D01*
X83758Y69518D01*
X83842Y69457D01*
X83861Y69451D01*
X83877Y69441D01*
X83978Y69415D01*
X84077Y69385D01*
X84097Y69385D01*
X84116Y69381D01*
X84219Y69389D01*
X84323Y69391D01*
X84341Y69398D01*
X84361Y69400D01*
X84456Y69440D01*
X84554Y69476D01*
X84569Y69488D01*
X84588Y69496D01*
X84719Y69601D01*
X84782Y69664D01*
X87454Y70771D01*
X90346Y70771D01*
X93019Y69664D01*
X95064Y67619D01*
X96171Y64946D01*
X96171Y62054D01*
X95064Y59381D01*
X93019Y57336D01*
X90346Y56229D01*
X87454Y56229D01*
G37*
%LPD*%
%LPC*%
G36*
X160910Y315393D02*
X160910Y315393D01*
X160165Y316138D01*
X160165Y320802D01*
X160162Y320822D01*
X160164Y320841D01*
X160142Y320943D01*
X160126Y321045D01*
X160116Y321062D01*
X160112Y321082D01*
X160059Y321171D01*
X160010Y321262D01*
X159996Y321276D01*
X159986Y321293D01*
X159907Y321360D01*
X159832Y321432D01*
X159814Y321440D01*
X159799Y321453D01*
X159703Y321492D01*
X159609Y321535D01*
X159589Y321537D01*
X159571Y321545D01*
X159404Y321563D01*
X154112Y321563D01*
X154022Y321549D01*
X153931Y321541D01*
X153901Y321529D01*
X153869Y321524D01*
X153789Y321481D01*
X153705Y321445D01*
X153673Y321419D01*
X153652Y321408D01*
X153630Y321385D01*
X153574Y321340D01*
X148463Y316229D01*
X141097Y316229D01*
X135889Y321437D01*
X135889Y328803D01*
X141097Y334011D01*
X148463Y334011D01*
X153671Y328803D01*
X153671Y327406D01*
X153674Y327386D01*
X153672Y327367D01*
X153694Y327265D01*
X153710Y327163D01*
X153720Y327146D01*
X153724Y327126D01*
X153777Y327037D01*
X153826Y326946D01*
X153840Y326932D01*
X153850Y326915D01*
X153929Y326848D01*
X154004Y326776D01*
X154022Y326768D01*
X154037Y326755D01*
X154133Y326716D01*
X154227Y326673D01*
X154247Y326671D01*
X154265Y326663D01*
X154432Y326645D01*
X159404Y326645D01*
X159424Y326648D01*
X159444Y326646D01*
X159545Y326668D01*
X159647Y326684D01*
X159664Y326694D01*
X159684Y326698D01*
X159773Y326751D01*
X159864Y326800D01*
X159878Y326814D01*
X159895Y326824D01*
X159962Y326903D01*
X160034Y326978D01*
X160042Y326996D01*
X160055Y327011D01*
X160094Y327107D01*
X160137Y327201D01*
X160139Y327221D01*
X160147Y327239D01*
X160165Y327406D01*
X160165Y330190D01*
X160910Y330935D01*
X177962Y330935D01*
X178707Y330190D01*
X178707Y327406D01*
X178710Y327386D01*
X178708Y327367D01*
X178730Y327265D01*
X178747Y327163D01*
X178756Y327146D01*
X178760Y327126D01*
X178813Y327037D01*
X178862Y326946D01*
X178876Y326932D01*
X178886Y326915D01*
X178965Y326848D01*
X179040Y326776D01*
X179058Y326768D01*
X179073Y326755D01*
X179169Y326716D01*
X179263Y326673D01*
X179283Y326671D01*
X179301Y326663D01*
X179468Y326645D01*
X179724Y326645D01*
X179744Y326648D01*
X179764Y326646D01*
X179865Y326668D01*
X179967Y326684D01*
X179984Y326694D01*
X180004Y326698D01*
X180093Y326751D01*
X180184Y326800D01*
X180198Y326814D01*
X180215Y326824D01*
X180282Y326903D01*
X180354Y326978D01*
X180362Y326996D01*
X180375Y327011D01*
X180414Y327107D01*
X180457Y327201D01*
X180459Y327221D01*
X180467Y327239D01*
X180485Y327406D01*
X180485Y330190D01*
X181230Y330935D01*
X198282Y330935D01*
X199027Y330190D01*
X199027Y316138D01*
X198282Y315393D01*
X181230Y315393D01*
X180485Y316138D01*
X180485Y320802D01*
X180482Y320822D01*
X180484Y320841D01*
X180462Y320943D01*
X180446Y321045D01*
X180436Y321062D01*
X180432Y321082D01*
X180379Y321171D01*
X180330Y321262D01*
X180316Y321276D01*
X180306Y321293D01*
X180227Y321360D01*
X180152Y321432D01*
X180134Y321440D01*
X180119Y321453D01*
X180023Y321492D01*
X179929Y321535D01*
X179909Y321537D01*
X179891Y321545D01*
X179724Y321563D01*
X179468Y321563D01*
X179448Y321560D01*
X179429Y321562D01*
X179327Y321540D01*
X179225Y321524D01*
X179208Y321514D01*
X179188Y321510D01*
X179099Y321457D01*
X179008Y321408D01*
X178994Y321394D01*
X178977Y321384D01*
X178910Y321305D01*
X178839Y321230D01*
X178830Y321212D01*
X178817Y321197D01*
X178778Y321101D01*
X178735Y321007D01*
X178733Y320987D01*
X178725Y320969D01*
X178707Y320802D01*
X178707Y316138D01*
X177962Y315393D01*
X160910Y315393D01*
G37*
%LPD*%
%LPC*%
G36*
X107362Y49275D02*
X107362Y49275D01*
X100075Y56562D01*
X100075Y66915D01*
X100061Y67005D01*
X100053Y67096D01*
X100041Y67125D01*
X100036Y67157D01*
X99993Y67238D01*
X99957Y67322D01*
X99931Y67354D01*
X99920Y67375D01*
X99897Y67397D01*
X99852Y67453D01*
X93869Y73436D01*
X93795Y73489D01*
X93726Y73549D01*
X93695Y73561D01*
X93669Y73580D01*
X93582Y73607D01*
X93497Y73641D01*
X93456Y73645D01*
X93434Y73652D01*
X93402Y73651D01*
X93331Y73659D01*
X82978Y73659D01*
X74167Y82470D01*
X74167Y87619D01*
X74153Y87710D01*
X74145Y87800D01*
X74133Y87830D01*
X74128Y87862D01*
X74085Y87943D01*
X74049Y88027D01*
X74023Y88059D01*
X74012Y88080D01*
X73989Y88102D01*
X73944Y88158D01*
X72643Y89459D01*
X72643Y92405D01*
X74727Y94489D01*
X77673Y94489D01*
X79757Y92405D01*
X79757Y89459D01*
X78456Y88158D01*
X78403Y88084D01*
X78343Y88014D01*
X78331Y87984D01*
X78312Y87958D01*
X78285Y87871D01*
X78251Y87786D01*
X78247Y87745D01*
X78240Y87723D01*
X78241Y87691D01*
X78233Y87619D01*
X78233Y84469D01*
X78247Y84379D01*
X78255Y84288D01*
X78267Y84259D01*
X78272Y84227D01*
X78315Y84146D01*
X78351Y84062D01*
X78377Y84030D01*
X78388Y84009D01*
X78411Y83987D01*
X78456Y83931D01*
X84439Y77948D01*
X84513Y77895D01*
X84582Y77835D01*
X84613Y77823D01*
X84639Y77804D01*
X84726Y77777D01*
X84811Y77743D01*
X84852Y77739D01*
X84874Y77732D01*
X84906Y77733D01*
X84977Y77725D01*
X95330Y77725D01*
X104141Y68914D01*
X104141Y58561D01*
X104155Y58471D01*
X104163Y58380D01*
X104175Y58351D01*
X104180Y58319D01*
X104223Y58238D01*
X104259Y58154D01*
X104285Y58122D01*
X104296Y58101D01*
X104319Y58079D01*
X104364Y58023D01*
X108823Y53564D01*
X108897Y53511D01*
X108966Y53451D01*
X108997Y53439D01*
X109023Y53420D01*
X109110Y53393D01*
X109195Y53359D01*
X109236Y53355D01*
X109258Y53348D01*
X109290Y53349D01*
X109361Y53341D01*
X169531Y53341D01*
X169621Y53355D01*
X169712Y53363D01*
X169741Y53375D01*
X169773Y53380D01*
X169854Y53423D01*
X169938Y53459D01*
X169970Y53485D01*
X169991Y53496D01*
X170013Y53519D01*
X170069Y53564D01*
X180624Y64119D01*
X182038Y65533D01*
X182964Y65533D01*
X183078Y65552D01*
X183194Y65569D01*
X183200Y65571D01*
X183206Y65572D01*
X183309Y65627D01*
X183414Y65680D01*
X183418Y65685D01*
X183424Y65688D01*
X183504Y65772D01*
X183586Y65856D01*
X183590Y65862D01*
X183593Y65866D01*
X183601Y65883D01*
X183667Y66003D01*
X184336Y67619D01*
X186381Y69664D01*
X189054Y70771D01*
X191946Y70771D01*
X194619Y69664D01*
X196664Y67619D01*
X197771Y64946D01*
X197771Y62054D01*
X196664Y59381D01*
X194619Y57336D01*
X191946Y56229D01*
X189054Y56229D01*
X186381Y57336D01*
X184336Y59381D01*
X183981Y60238D01*
X183957Y60277D01*
X183941Y60320D01*
X183893Y60381D01*
X183852Y60447D01*
X183816Y60476D01*
X183788Y60512D01*
X183722Y60554D01*
X183662Y60604D01*
X183619Y60620D01*
X183581Y60645D01*
X183505Y60664D01*
X183433Y60692D01*
X183387Y60694D01*
X183342Y60705D01*
X183265Y60699D01*
X183187Y60703D01*
X183143Y60690D01*
X183097Y60686D01*
X183025Y60656D01*
X182951Y60634D01*
X182913Y60608D01*
X182871Y60590D01*
X182764Y60504D01*
X182749Y60494D01*
X182746Y60490D01*
X182740Y60485D01*
X172944Y50689D01*
X171530Y49275D01*
X107362Y49275D01*
G37*
%LPD*%
%LPC*%
G36*
X157771Y71161D02*
X157771Y71161D01*
X155489Y73443D01*
X155489Y76671D01*
X157129Y78311D01*
X157182Y78385D01*
X157242Y78454D01*
X157254Y78484D01*
X157273Y78510D01*
X157300Y78597D01*
X157334Y78682D01*
X157338Y78723D01*
X157345Y78746D01*
X157344Y78778D01*
X157352Y78849D01*
X157352Y141177D01*
X157806Y141631D01*
X157859Y141705D01*
X157919Y141774D01*
X157931Y141805D01*
X157950Y141831D01*
X157977Y141918D01*
X158011Y142003D01*
X158015Y142044D01*
X158022Y142066D01*
X158021Y142098D01*
X158029Y142169D01*
X158029Y144489D01*
X160311Y146771D01*
X163539Y146771D01*
X165821Y144489D01*
X165821Y141261D01*
X163539Y138979D01*
X162179Y138979D01*
X162159Y138976D01*
X162140Y138978D01*
X162038Y138956D01*
X161936Y138940D01*
X161919Y138930D01*
X161899Y138926D01*
X161810Y138873D01*
X161719Y138824D01*
X161705Y138810D01*
X161688Y138800D01*
X161621Y138721D01*
X161549Y138646D01*
X161541Y138628D01*
X161528Y138613D01*
X161489Y138517D01*
X161446Y138423D01*
X161444Y138403D01*
X161436Y138385D01*
X161418Y138218D01*
X161418Y78849D01*
X161432Y78759D01*
X161440Y78668D01*
X161452Y78638D01*
X161457Y78606D01*
X161500Y78525D01*
X161536Y78442D01*
X161562Y78410D01*
X161573Y78389D01*
X161596Y78367D01*
X161641Y78311D01*
X163281Y76671D01*
X163281Y73443D01*
X160999Y71161D01*
X157771Y71161D01*
G37*
%LPD*%
%LPC*%
G36*
X13886Y31274D02*
X13886Y31274D01*
X10210Y32797D01*
X7397Y35610D01*
X5874Y39286D01*
X5874Y43264D01*
X7397Y46940D01*
X10210Y49753D01*
X13886Y51276D01*
X17864Y51276D01*
X21540Y49753D01*
X24353Y46940D01*
X25876Y43264D01*
X25876Y39286D01*
X24353Y35610D01*
X21540Y32797D01*
X17864Y31274D01*
X13886Y31274D01*
G37*
%LPD*%
%LPC*%
G36*
X185336Y31274D02*
X185336Y31274D01*
X181660Y32797D01*
X178847Y35610D01*
X177324Y39286D01*
X177324Y43264D01*
X178847Y46940D01*
X181660Y49753D01*
X185336Y51276D01*
X189314Y51276D01*
X192990Y49753D01*
X195803Y46940D01*
X197326Y43264D01*
X197326Y39286D01*
X195803Y35610D01*
X192990Y32797D01*
X189314Y31274D01*
X185336Y31274D01*
G37*
%LPD*%
%LPC*%
G36*
X123495Y117855D02*
X123495Y117855D01*
X121411Y119939D01*
X121411Y122885D01*
X122712Y124186D01*
X122765Y124260D01*
X122825Y124330D01*
X122837Y124360D01*
X122856Y124386D01*
X122883Y124473D01*
X122917Y124558D01*
X122921Y124599D01*
X122928Y124621D01*
X122927Y124653D01*
X122935Y124725D01*
X122935Y130923D01*
X122921Y131013D01*
X122913Y131104D01*
X122901Y131133D01*
X122896Y131165D01*
X122853Y131246D01*
X122817Y131330D01*
X122791Y131362D01*
X122780Y131383D01*
X122757Y131405D01*
X122712Y131461D01*
X120066Y134107D01*
X120050Y134119D01*
X120037Y134134D01*
X119950Y134190D01*
X119866Y134251D01*
X119847Y134257D01*
X119831Y134267D01*
X119730Y134293D01*
X119631Y134323D01*
X119611Y134323D01*
X119592Y134327D01*
X119489Y134319D01*
X119385Y134317D01*
X119367Y134310D01*
X119347Y134308D01*
X119252Y134268D01*
X119154Y134232D01*
X119139Y134220D01*
X119120Y134212D01*
X118990Y134107D01*
X118419Y133536D01*
X115746Y132429D01*
X112854Y132429D01*
X110181Y133536D01*
X108136Y135581D01*
X107029Y138254D01*
X107029Y141146D01*
X108136Y143819D01*
X110181Y145864D01*
X112854Y146971D01*
X115746Y146971D01*
X118419Y145864D01*
X120464Y143819D01*
X121571Y141146D01*
X121571Y138667D01*
X121585Y138577D01*
X121593Y138486D01*
X121605Y138457D01*
X121610Y138425D01*
X121653Y138344D01*
X121689Y138260D01*
X121715Y138228D01*
X121726Y138207D01*
X121749Y138185D01*
X121794Y138129D01*
X127001Y132922D01*
X127001Y124725D01*
X127015Y124634D01*
X127023Y124544D01*
X127035Y124514D01*
X127040Y124482D01*
X127083Y124401D01*
X127119Y124317D01*
X127145Y124285D01*
X127156Y124264D01*
X127179Y124242D01*
X127224Y124186D01*
X128525Y122885D01*
X128525Y119939D01*
X126441Y117855D01*
X123495Y117855D01*
G37*
%LPD*%
%LPC*%
G36*
X14097Y316229D02*
X14097Y316229D01*
X8889Y321437D01*
X8889Y328803D01*
X14097Y334011D01*
X21463Y334011D01*
X26671Y328803D01*
X26671Y321437D01*
X21463Y316229D01*
X14097Y316229D01*
G37*
%LPD*%
%LPC*%
G36*
X115697Y316229D02*
X115697Y316229D01*
X110489Y321437D01*
X110489Y328803D01*
X115697Y334011D01*
X123063Y334011D01*
X128271Y328803D01*
X128271Y321437D01*
X123063Y316229D01*
X115697Y316229D01*
G37*
%LPD*%
%LPC*%
G36*
X167674Y184869D02*
X167674Y184869D01*
X166929Y185614D01*
X166929Y204166D01*
X167674Y204911D01*
X168910Y204911D01*
X168930Y204914D01*
X168949Y204912D01*
X169051Y204934D01*
X169153Y204950D01*
X169170Y204960D01*
X169190Y204964D01*
X169279Y205017D01*
X169370Y205066D01*
X169384Y205080D01*
X169401Y205090D01*
X169468Y205169D01*
X169540Y205244D01*
X169548Y205262D01*
X169561Y205277D01*
X169600Y205373D01*
X169643Y205467D01*
X169645Y205487D01*
X169653Y205505D01*
X169671Y205672D01*
X169671Y210047D01*
X169657Y210138D01*
X169649Y210228D01*
X169637Y210258D01*
X169632Y210290D01*
X169589Y210371D01*
X169553Y210455D01*
X169527Y210487D01*
X169516Y210508D01*
X169493Y210530D01*
X169448Y210586D01*
X168655Y211379D01*
X168655Y214325D01*
X170739Y216409D01*
X173685Y216409D01*
X175769Y214325D01*
X175769Y211379D01*
X174976Y210586D01*
X174923Y210512D01*
X174863Y210442D01*
X174851Y210412D01*
X174832Y210386D01*
X174805Y210299D01*
X174771Y210214D01*
X174767Y210173D01*
X174760Y210151D01*
X174761Y210119D01*
X174753Y210047D01*
X174753Y205672D01*
X174756Y205652D01*
X174754Y205633D01*
X174776Y205531D01*
X174792Y205429D01*
X174802Y205412D01*
X174806Y205392D01*
X174859Y205303D01*
X174908Y205212D01*
X174922Y205198D01*
X174932Y205181D01*
X175011Y205114D01*
X175086Y205042D01*
X175102Y205035D01*
X175971Y204166D01*
X175971Y185614D01*
X175226Y184869D01*
X167674Y184869D01*
G37*
%LPD*%
%LPC*%
G36*
X154974Y184869D02*
X154974Y184869D01*
X154229Y185614D01*
X154229Y204166D01*
X154974Y204911D01*
X155702Y204911D01*
X155722Y204914D01*
X155741Y204912D01*
X155843Y204934D01*
X155945Y204950D01*
X155962Y204960D01*
X155982Y204964D01*
X156071Y205017D01*
X156162Y205066D01*
X156176Y205080D01*
X156193Y205090D01*
X156260Y205169D01*
X156332Y205244D01*
X156340Y205262D01*
X156353Y205277D01*
X156392Y205373D01*
X156435Y205467D01*
X156437Y205487D01*
X156445Y205505D01*
X156463Y205672D01*
X156463Y209539D01*
X156449Y209630D01*
X156441Y209720D01*
X156429Y209750D01*
X156424Y209782D01*
X156381Y209863D01*
X156345Y209947D01*
X156319Y209979D01*
X156308Y210000D01*
X156285Y210022D01*
X156240Y210078D01*
X154939Y211379D01*
X154939Y214325D01*
X157023Y216409D01*
X159969Y216409D01*
X162053Y214325D01*
X162053Y211379D01*
X160752Y210078D01*
X160699Y210004D01*
X160639Y209934D01*
X160627Y209904D01*
X160608Y209878D01*
X160581Y209791D01*
X160547Y209706D01*
X160543Y209665D01*
X160536Y209643D01*
X160537Y209611D01*
X160529Y209539D01*
X160529Y205672D01*
X160532Y205652D01*
X160530Y205633D01*
X160552Y205531D01*
X160568Y205429D01*
X160578Y205412D01*
X160582Y205392D01*
X160635Y205303D01*
X160684Y205212D01*
X160698Y205198D01*
X160708Y205181D01*
X160787Y205114D01*
X160862Y205042D01*
X160880Y205034D01*
X160895Y205021D01*
X160991Y204982D01*
X161085Y204939D01*
X161105Y204937D01*
X161123Y204929D01*
X161290Y204911D01*
X162526Y204911D01*
X163271Y204166D01*
X163271Y185614D01*
X162526Y184869D01*
X154974Y184869D01*
G37*
%LPD*%
%LPC*%
G36*
X157023Y250443D02*
X157023Y250443D01*
X154939Y252527D01*
X154939Y255473D01*
X155536Y256070D01*
X155578Y256128D01*
X155627Y256180D01*
X155649Y256227D01*
X155679Y256269D01*
X155700Y256338D01*
X155731Y256403D01*
X155736Y256455D01*
X155752Y256505D01*
X155750Y256576D01*
X155758Y256647D01*
X155747Y256698D01*
X155745Y256750D01*
X155721Y256818D01*
X155705Y256888D01*
X155679Y256933D01*
X155661Y256981D01*
X155616Y257037D01*
X155579Y257099D01*
X155540Y257133D01*
X155507Y257173D01*
X155447Y257212D01*
X155392Y257259D01*
X155344Y257278D01*
X155300Y257306D01*
X155231Y257324D01*
X155164Y257351D01*
X155093Y257359D01*
X155062Y257367D01*
X155038Y257365D01*
X154997Y257369D01*
X154974Y257369D01*
X154229Y258114D01*
X154229Y276666D01*
X154974Y277411D01*
X162526Y277411D01*
X163271Y276666D01*
X163271Y258114D01*
X162526Y257369D01*
X161995Y257369D01*
X161924Y257358D01*
X161852Y257356D01*
X161803Y257338D01*
X161752Y257330D01*
X161688Y257296D01*
X161621Y257271D01*
X161580Y257239D01*
X161534Y257214D01*
X161485Y257162D01*
X161429Y257118D01*
X161401Y257074D01*
X161365Y257036D01*
X161335Y256971D01*
X161296Y256911D01*
X161283Y256860D01*
X161261Y256813D01*
X161253Y256742D01*
X161236Y256672D01*
X161240Y256620D01*
X161234Y256569D01*
X161250Y256498D01*
X161255Y256427D01*
X161275Y256379D01*
X161287Y256328D01*
X161323Y256267D01*
X161351Y256201D01*
X161396Y256145D01*
X161413Y256117D01*
X161431Y256102D01*
X161456Y256070D01*
X162053Y255473D01*
X162053Y252527D01*
X159969Y250443D01*
X157023Y250443D01*
G37*
%LPD*%
%LPC*%
G36*
X131115Y111505D02*
X131115Y111505D01*
X129031Y113589D01*
X129031Y116535D01*
X130332Y117836D01*
X130374Y117895D01*
X130423Y117946D01*
X130431Y117964D01*
X130445Y117980D01*
X130457Y118010D01*
X130476Y118036D01*
X130497Y118106D01*
X130527Y118169D01*
X130529Y118188D01*
X130537Y118208D01*
X130541Y118249D01*
X130548Y118271D01*
X130547Y118303D01*
X130555Y118375D01*
X130555Y142801D01*
X130541Y142891D01*
X130533Y142982D01*
X130521Y143012D01*
X130516Y143044D01*
X130473Y143124D01*
X130437Y143208D01*
X130411Y143240D01*
X130400Y143261D01*
X130377Y143283D01*
X130332Y143339D01*
X129031Y144640D01*
X129031Y147587D01*
X131115Y149670D01*
X134061Y149670D01*
X136145Y147587D01*
X136145Y144640D01*
X134844Y143339D01*
X134791Y143265D01*
X134731Y143196D01*
X134719Y143166D01*
X134700Y143139D01*
X134673Y143053D01*
X134639Y142968D01*
X134635Y142927D01*
X134628Y142904D01*
X134629Y142872D01*
X134621Y142801D01*
X134621Y118375D01*
X134624Y118353D01*
X134622Y118335D01*
X134637Y118268D01*
X134643Y118194D01*
X134655Y118164D01*
X134660Y118132D01*
X134671Y118113D01*
X134675Y118094D01*
X134710Y118034D01*
X134739Y117967D01*
X134765Y117935D01*
X134776Y117914D01*
X134790Y117900D01*
X134801Y117883D01*
X134818Y117868D01*
X134844Y117836D01*
X136145Y116535D01*
X136145Y113589D01*
X134061Y111505D01*
X131115Y111505D01*
G37*
%LPD*%
%LPC*%
G36*
X87454Y132429D02*
X87454Y132429D01*
X84781Y133536D01*
X82736Y135581D01*
X81629Y138254D01*
X81629Y141146D01*
X82736Y143819D01*
X84429Y145512D01*
X84471Y145570D01*
X84521Y145622D01*
X84543Y145669D01*
X84573Y145711D01*
X84594Y145780D01*
X84624Y145845D01*
X84629Y145888D01*
X84713Y145895D01*
X84811Y145896D01*
X84842Y145905D01*
X84862Y145907D01*
X84892Y145919D01*
X84972Y145943D01*
X87454Y146971D01*
X90346Y146971D01*
X93019Y145864D01*
X95064Y143819D01*
X96171Y141146D01*
X96171Y138254D01*
X95064Y135581D01*
X93019Y133536D01*
X90346Y132429D01*
X87454Y132429D01*
G37*
%LPD*%
%LPC*%
G36*
X11254Y81629D02*
X11254Y81629D01*
X8581Y82736D01*
X6536Y84781D01*
X5429Y87454D01*
X5429Y90346D01*
X6536Y93019D01*
X8581Y95064D01*
X11254Y96171D01*
X14146Y96171D01*
X16819Y95064D01*
X18864Y93019D01*
X19971Y90346D01*
X19971Y87454D01*
X18864Y84781D01*
X16819Y82736D01*
X14146Y81629D01*
X11254Y81629D01*
G37*
%LPD*%
%LPC*%
G36*
X112854Y81629D02*
X112854Y81629D01*
X110181Y82736D01*
X108136Y84781D01*
X107029Y87454D01*
X107029Y90346D01*
X108136Y93019D01*
X110181Y95064D01*
X112854Y96171D01*
X115746Y96171D01*
X118419Y95064D01*
X120464Y93019D01*
X121571Y90346D01*
X121571Y87454D01*
X120464Y84781D01*
X118419Y82736D01*
X115746Y81629D01*
X112854Y81629D01*
G37*
%LPD*%
%LPC*%
G36*
X189054Y81629D02*
X189054Y81629D01*
X186381Y82736D01*
X184336Y84781D01*
X183229Y87454D01*
X183229Y90346D01*
X184336Y93019D01*
X186381Y95064D01*
X189054Y96171D01*
X191946Y96171D01*
X194619Y95064D01*
X196664Y93019D01*
X197771Y90346D01*
X197771Y87454D01*
X196664Y84781D01*
X194619Y82736D01*
X191946Y81629D01*
X189054Y81629D01*
G37*
%LPD*%
%LPC*%
G36*
X112854Y107029D02*
X112854Y107029D01*
X110181Y108136D01*
X108136Y110181D01*
X107029Y112854D01*
X107029Y115746D01*
X108136Y118419D01*
X110181Y120464D01*
X112854Y121571D01*
X115746Y121571D01*
X118419Y120464D01*
X120464Y118419D01*
X121571Y115746D01*
X121571Y112854D01*
X120464Y110181D01*
X118419Y108136D01*
X115746Y107029D01*
X112854Y107029D01*
G37*
%LPD*%
%LPC*%
G36*
X189054Y107029D02*
X189054Y107029D01*
X186381Y108136D01*
X184336Y110181D01*
X183229Y112854D01*
X183229Y115746D01*
X184336Y118419D01*
X186381Y120464D01*
X189054Y121571D01*
X191946Y121571D01*
X194619Y120464D01*
X196664Y118419D01*
X197771Y115746D01*
X197771Y112854D01*
X196664Y110181D01*
X194619Y108136D01*
X191946Y107029D01*
X189054Y107029D01*
G37*
%LPD*%
%LPC*%
G36*
X87454Y183229D02*
X87454Y183229D01*
X84781Y184336D01*
X82736Y186381D01*
X81629Y189054D01*
X81629Y191946D01*
X82736Y194619D01*
X84781Y196664D01*
X87454Y197771D01*
X90346Y197771D01*
X93019Y196664D01*
X95064Y194619D01*
X96171Y191946D01*
X96171Y189054D01*
X95064Y186381D01*
X93019Y184336D01*
X90346Y183229D01*
X87454Y183229D01*
G37*
%LPD*%
%LPC*%
G36*
X112854Y157829D02*
X112854Y157829D01*
X110181Y158936D01*
X108136Y160981D01*
X107029Y163654D01*
X107029Y166546D01*
X108136Y169219D01*
X110181Y171264D01*
X112854Y172371D01*
X115746Y172371D01*
X118419Y171264D01*
X120464Y169219D01*
X121571Y166546D01*
X121571Y163654D01*
X120464Y160981D01*
X118419Y158936D01*
X115746Y157829D01*
X112854Y157829D01*
G37*
%LPD*%
%LPC*%
G36*
X11254Y56229D02*
X11254Y56229D01*
X8581Y57336D01*
X6536Y59381D01*
X5429Y62054D01*
X5429Y64946D01*
X6536Y67619D01*
X8581Y69664D01*
X11254Y70771D01*
X14146Y70771D01*
X16819Y69664D01*
X18864Y67619D01*
X19971Y64946D01*
X19971Y62054D01*
X18864Y59381D01*
X16819Y57336D01*
X14146Y56229D01*
X11254Y56229D01*
G37*
%LPD*%
%LPC*%
G36*
X87454Y81629D02*
X87454Y81629D01*
X84781Y82736D01*
X82736Y84781D01*
X81629Y87454D01*
X81629Y90346D01*
X82736Y93019D01*
X84781Y95064D01*
X87454Y96171D01*
X90346Y96171D01*
X93019Y95064D01*
X95064Y93019D01*
X96171Y90346D01*
X96171Y87454D01*
X95064Y84781D01*
X93019Y82736D01*
X90346Y81629D01*
X87454Y81629D01*
G37*
%LPD*%
%LPC*%
G36*
X170959Y304687D02*
X170959Y304687D01*
X170959Y312205D01*
X177771Y312205D01*
X178417Y312032D01*
X178996Y311697D01*
X179058Y311635D01*
X179074Y311624D01*
X179086Y311608D01*
X179174Y311552D01*
X179257Y311492D01*
X179276Y311486D01*
X179293Y311475D01*
X179394Y311450D01*
X179492Y311419D01*
X179512Y311420D01*
X179532Y311415D01*
X179635Y311423D01*
X179738Y311426D01*
X179757Y311433D01*
X179777Y311434D01*
X179872Y311475D01*
X179969Y311510D01*
X179985Y311523D01*
X180003Y311531D01*
X180134Y311635D01*
X180196Y311697D01*
X180775Y312032D01*
X181422Y312205D01*
X188233Y312205D01*
X188233Y304687D01*
X170959Y304687D01*
G37*
%LPD*%
%LPC*%
G36*
X170959Y294123D02*
X170959Y294123D01*
X170959Y301641D01*
X188233Y301641D01*
X188233Y294123D01*
X181422Y294123D01*
X180775Y294296D01*
X180196Y294631D01*
X180134Y294693D01*
X180118Y294704D01*
X180106Y294720D01*
X180018Y294776D01*
X179935Y294836D01*
X179916Y294842D01*
X179899Y294853D01*
X179798Y294878D01*
X179699Y294908D01*
X179679Y294908D01*
X179660Y294913D01*
X179557Y294905D01*
X179454Y294902D01*
X179435Y294895D01*
X179415Y294894D01*
X179320Y294853D01*
X179223Y294818D01*
X179207Y294805D01*
X179189Y294797D01*
X179058Y294692D01*
X178996Y294631D01*
X178417Y294296D01*
X177771Y294123D01*
X170959Y294123D01*
G37*
%LPD*%
%LPC*%
G36*
X158895Y304687D02*
X158895Y304687D01*
X158895Y309998D01*
X159068Y310645D01*
X159403Y311224D01*
X159876Y311697D01*
X160455Y312032D01*
X161102Y312205D01*
X167913Y312205D01*
X167913Y304687D01*
X158895Y304687D01*
G37*
%LPD*%
%LPC*%
G36*
X161102Y294123D02*
X161102Y294123D01*
X160455Y294296D01*
X159876Y294631D01*
X159403Y295104D01*
X159068Y295683D01*
X158895Y296329D01*
X158895Y301641D01*
X167913Y301641D01*
X167913Y294123D01*
X161102Y294123D01*
G37*
%LPD*%
%LPC*%
G36*
X146303Y301243D02*
X146303Y301243D01*
X146303Y309881D01*
X148989Y309881D01*
X154941Y303929D01*
X154941Y301243D01*
X146303Y301243D01*
G37*
%LPD*%
%LPC*%
G36*
X7619Y301243D02*
X7619Y301243D01*
X7619Y303929D01*
X13571Y309881D01*
X16257Y309881D01*
X16257Y301243D01*
X7619Y301243D01*
G37*
%LPD*%
%LPC*%
G36*
X134619Y301243D02*
X134619Y301243D01*
X134619Y303929D01*
X140571Y309881D01*
X143257Y309881D01*
X143257Y301243D01*
X134619Y301243D01*
G37*
%LPD*%
%LPC*%
G36*
X146303Y289559D02*
X146303Y289559D01*
X146303Y298197D01*
X154941Y298197D01*
X154941Y295511D01*
X148989Y289559D01*
X146303Y289559D01*
G37*
%LPD*%
%LPC*%
G36*
X140571Y289559D02*
X140571Y289559D01*
X134619Y295511D01*
X134619Y298197D01*
X143257Y298197D01*
X143257Y289559D01*
X140571Y289559D01*
G37*
%LPD*%
%LPC*%
G36*
X13571Y289559D02*
X13571Y289559D01*
X7619Y295511D01*
X7619Y298197D01*
X16257Y298197D01*
X16257Y289559D01*
X13571Y289559D01*
G37*
%LPD*%
G36*
X53250Y246963D02*
X53250Y246963D01*
X53354Y246966D01*
X53373Y246973D01*
X53392Y246974D01*
X53487Y247015D01*
X53585Y247051D01*
X53601Y247063D01*
X53619Y247071D01*
X53750Y247176D01*
X63088Y256514D01*
X63099Y256530D01*
X63115Y256542D01*
X63171Y256630D01*
X63231Y256713D01*
X63237Y256732D01*
X63248Y256749D01*
X63273Y256850D01*
X63304Y256948D01*
X63303Y256968D01*
X63308Y256988D01*
X63300Y257091D01*
X63297Y257194D01*
X63290Y257213D01*
X63289Y257233D01*
X63248Y257328D01*
X63213Y257425D01*
X63200Y257441D01*
X63193Y257459D01*
X63088Y257590D01*
X62868Y257810D01*
X62861Y257843D01*
X62844Y257945D01*
X62835Y257963D01*
X62831Y257982D01*
X62777Y258071D01*
X62729Y258163D01*
X62715Y258176D01*
X62704Y258194D01*
X62626Y258261D01*
X62551Y258332D01*
X62533Y258340D01*
X62518Y258353D01*
X62421Y258392D01*
X62328Y258436D01*
X62308Y258438D01*
X62289Y258445D01*
X62225Y258452D01*
X62010Y258668D01*
X61994Y258679D01*
X61982Y258695D01*
X61894Y258751D01*
X61810Y258811D01*
X61791Y258817D01*
X61775Y258828D01*
X61674Y258853D01*
X61575Y258884D01*
X61555Y258883D01*
X61536Y258888D01*
X61433Y258880D01*
X61330Y258877D01*
X61311Y258870D01*
X61291Y258869D01*
X61196Y258828D01*
X61099Y258793D01*
X61083Y258780D01*
X61065Y258773D01*
X60934Y258668D01*
X51596Y249330D01*
X51584Y249314D01*
X51568Y249301D01*
X51512Y249214D01*
X51452Y249130D01*
X51446Y249111D01*
X51435Y249094D01*
X51410Y248994D01*
X51380Y248895D01*
X51380Y248875D01*
X51375Y248856D01*
X51383Y248753D01*
X51386Y248649D01*
X51393Y248630D01*
X51395Y248610D01*
X51435Y248516D01*
X51471Y248418D01*
X51483Y248402D01*
X51491Y248384D01*
X51596Y248253D01*
X52673Y247176D01*
X52689Y247164D01*
X52702Y247148D01*
X52789Y247092D01*
X52873Y247032D01*
X52892Y247026D01*
X52909Y247015D01*
X53009Y246990D01*
X53108Y246960D01*
X53128Y246960D01*
X53147Y246955D01*
X53250Y246963D01*
G37*
%LPC*%
G36*
X134873Y268913D02*
X134873Y268913D01*
X134873Y278681D01*
X136935Y278681D01*
X137581Y278508D01*
X138160Y278173D01*
X138633Y277700D01*
X138968Y277121D01*
X139141Y276474D01*
X139141Y268913D01*
X134873Y268913D01*
G37*
%LPD*%
%LPC*%
G36*
X134873Y256099D02*
X134873Y256099D01*
X134873Y265867D01*
X139141Y265867D01*
X139141Y258306D01*
X138968Y257659D01*
X138633Y257080D01*
X138160Y256607D01*
X137581Y256272D01*
X136934Y256099D01*
X134873Y256099D01*
G37*
%LPD*%
%LPC*%
G36*
X127559Y268913D02*
X127559Y268913D01*
X127559Y276474D01*
X127732Y277121D01*
X128067Y277700D01*
X128540Y278173D01*
X129119Y278508D01*
X129766Y278681D01*
X131827Y278681D01*
X131827Y268913D01*
X127559Y268913D01*
G37*
%LPD*%
%LPC*%
G36*
X129766Y256099D02*
X129766Y256099D01*
X129119Y256272D01*
X128540Y256607D01*
X128067Y257080D01*
X127732Y257659D01*
X127559Y258306D01*
X127559Y265867D01*
X131827Y265867D01*
X131827Y256099D01*
X129766Y256099D01*
G37*
%LPD*%
%LPC*%
G36*
X144779Y299719D02*
X144779Y299719D01*
X144779Y299721D01*
X144781Y299721D01*
X144781Y299719D01*
X144779Y299719D01*
G37*
%LPD*%
%LPC*%
G36*
X169435Y303163D02*
X169435Y303163D01*
X169435Y303165D01*
X169437Y303165D01*
X169437Y303163D01*
X169435Y303163D01*
G37*
%LPD*%
%LPC*%
G36*
X133349Y267389D02*
X133349Y267389D01*
X133349Y267391D01*
X133351Y267391D01*
X133351Y267389D01*
X133349Y267389D01*
G37*
%LPD*%
D10*
X190500Y215900D03*
D11*
X190500Y190500D03*
X190500Y165100D03*
X190500Y139700D03*
X190500Y114300D03*
X190500Y88900D03*
X190500Y63500D03*
X114300Y63500D03*
X114300Y88900D03*
X114300Y114300D03*
X114300Y139700D03*
X114300Y165100D03*
X114300Y190500D03*
X114300Y215900D03*
D10*
X88900Y215900D03*
D11*
X88900Y190500D03*
X88900Y165100D03*
X88900Y139700D03*
X88900Y114300D03*
X88900Y88900D03*
X88900Y63500D03*
X12700Y63500D03*
X12700Y88900D03*
X12700Y114300D03*
X12700Y139700D03*
X12700Y165100D03*
X12700Y190500D03*
X12700Y215900D03*
D12*
G36*
X48598Y266806D02*
X42942Y272462D01*
X45064Y274584D01*
X50720Y268928D01*
X48598Y266806D01*
G37*
G36*
X45062Y263270D02*
X39406Y268926D01*
X41528Y271048D01*
X47184Y265392D01*
X45062Y263270D01*
G37*
G36*
X41526Y259735D02*
X35870Y265391D01*
X37992Y267513D01*
X43648Y261857D01*
X41526Y259735D01*
G37*
G36*
X37991Y256199D02*
X32335Y261855D01*
X34457Y263977D01*
X40113Y258321D01*
X37991Y256199D01*
G37*
G36*
X34455Y252664D02*
X28799Y258320D01*
X30921Y260442D01*
X36577Y254786D01*
X34455Y252664D01*
G37*
G36*
X30920Y249128D02*
X25264Y254784D01*
X27386Y256906D01*
X33042Y251250D01*
X30920Y249128D01*
G37*
G36*
X33042Y244177D02*
X27386Y238521D01*
X25264Y240643D01*
X30920Y246299D01*
X33042Y244177D01*
G37*
G36*
X36577Y240642D02*
X30921Y234986D01*
X28799Y237108D01*
X34455Y242764D01*
X36577Y240642D01*
G37*
G36*
X40113Y237106D02*
X34457Y231450D01*
X32335Y233572D01*
X37991Y239228D01*
X40113Y237106D01*
G37*
G36*
X43648Y233571D02*
X37992Y227915D01*
X35870Y230037D01*
X41526Y235693D01*
X43648Y233571D01*
G37*
G36*
X47184Y230035D02*
X41528Y224379D01*
X39406Y226501D01*
X45062Y232157D01*
X47184Y230035D01*
G37*
G36*
X50720Y226500D02*
X45064Y220844D01*
X42942Y222966D01*
X48598Y228622D01*
X50720Y226500D01*
G37*
G36*
X59204Y220844D02*
X53548Y226500D01*
X55670Y228622D01*
X61326Y222966D01*
X59204Y220844D01*
G37*
G36*
X62740Y224379D02*
X57084Y230035D01*
X59206Y232157D01*
X64862Y226501D01*
X62740Y224379D01*
G37*
G36*
X66275Y227915D02*
X60619Y233571D01*
X62741Y235693D01*
X68397Y230037D01*
X66275Y227915D01*
G37*
G36*
X69811Y231450D02*
X64155Y237106D01*
X66277Y239228D01*
X71933Y233572D01*
X69811Y231450D01*
G37*
G36*
X73346Y234986D02*
X67690Y240642D01*
X69812Y242764D01*
X75468Y237108D01*
X73346Y234986D01*
G37*
G36*
X76882Y238521D02*
X71226Y244177D01*
X73348Y246299D01*
X79004Y240643D01*
X76882Y238521D01*
G37*
G36*
X79004Y254784D02*
X73348Y249128D01*
X71226Y251250D01*
X76882Y256906D01*
X79004Y254784D01*
G37*
G36*
X75468Y258320D02*
X69812Y252664D01*
X67690Y254786D01*
X73346Y260442D01*
X75468Y258320D01*
G37*
G36*
X71933Y261855D02*
X66277Y256199D01*
X64155Y258321D01*
X69811Y263977D01*
X71933Y261855D01*
G37*
G36*
X68397Y265391D02*
X62741Y259735D01*
X60619Y261857D01*
X66275Y267513D01*
X68397Y265391D01*
G37*
G36*
X64862Y268926D02*
X59206Y263270D01*
X57084Y265392D01*
X62740Y271048D01*
X64862Y268926D01*
G37*
G36*
X61326Y272462D02*
X55670Y266806D01*
X53548Y268928D01*
X59204Y274584D01*
X61326Y272462D01*
G37*
D13*
G36*
X71932Y247714D02*
X52134Y227916D01*
X32336Y247714D01*
X52134Y267512D01*
X71932Y247714D01*
G37*
D14*
X171450Y267390D03*
X158750Y267390D03*
X146050Y267390D03*
X133350Y267390D03*
X133350Y194890D03*
X146050Y194890D03*
X158750Y194890D03*
X171450Y194890D03*
D15*
X17780Y299720D03*
X17780Y325120D03*
X43180Y299720D03*
X43180Y325120D03*
X68580Y299720D03*
X68580Y325120D03*
X93980Y299720D03*
X93980Y325120D03*
X119380Y299720D03*
X119380Y325120D03*
X144780Y299720D03*
X144780Y325120D03*
D16*
X169436Y323164D03*
X169436Y303164D03*
X189756Y323164D03*
X189756Y303164D03*
D17*
X15875Y41275D03*
X187325Y41275D03*
X193675Y247650D03*
D18*
X42672Y228092D02*
X42672Y227838D01*
X37211Y222377D01*
X37211Y221996D01*
D19*
X42672Y228092D02*
X43295Y228268D01*
D18*
X170688Y324104D02*
X188976Y324104D01*
D19*
X170688Y324104D02*
X169436Y323164D01*
X188976Y324104D02*
X189756Y323164D01*
D18*
X172212Y212852D02*
X172212Y196088D01*
D19*
X171450Y194890D01*
D18*
X169164Y324104D02*
X144780Y324104D01*
D19*
X169164Y324104D02*
X169436Y323164D01*
X144780Y324104D02*
X144780Y325120D01*
D20*
X37211Y221996D03*
X172212Y212852D03*
D18*
X34481Y269177D02*
X23876Y258572D01*
X34481Y269177D02*
X39719Y263938D01*
D19*
X39759Y263624D01*
D18*
X29153Y253017D02*
X23876Y258294D01*
D19*
X23876Y258572D01*
D18*
X34481Y269177D02*
X30607Y273050D01*
D21*
X24920Y273050D03*
D18*
X30607Y273050D01*
D19*
X53340Y247904D02*
X62484Y247904D01*
X70104Y255524D01*
X53340Y247904D02*
X52134Y247714D01*
X70104Y255524D02*
X71579Y256553D01*
D21*
X121920Y101600D03*
X143510Y86360D03*
X144145Y154305D03*
X170180Y137160D03*
X52388Y247968D03*
X131763Y239078D03*
X30480Y321310D03*
X81280Y320040D03*
X61595Y127635D03*
X74295Y184785D03*
X114300Y269875D03*
X47625Y85725D03*
X92075Y152400D03*
X76200Y120650D03*
X85725Y228600D03*
X192088Y269875D03*
X192088Y230188D03*
X163513Y246063D03*
X123825Y312738D03*
D19*
X46355Y271272D02*
X46355Y270724D01*
X46355Y271272D02*
X42672Y274955D01*
X42672Y279908D01*
X46355Y270724D02*
X46831Y270695D01*
X132588Y208280D02*
X132588Y196088D01*
X133350Y194890D01*
D20*
X42672Y279908D03*
X132588Y208280D03*
D19*
X42672Y267716D02*
X42418Y267716D01*
X36576Y273558D01*
X36576Y281432D01*
X40513Y285369D01*
X44831Y285369D01*
X50292Y279908D01*
X42672Y267716D02*
X43295Y267159D01*
X158496Y212852D02*
X158496Y196088D01*
X158750Y194890D01*
D20*
X50292Y279908D03*
X158496Y212852D03*
D19*
X158496Y254000D02*
X158496Y266192D01*
X158750Y267390D01*
D20*
X158496Y254000D03*
D19*
X146304Y254000D02*
X146304Y266192D01*
X146304Y254000D02*
X143256Y250952D01*
X121857Y250952D01*
X82296Y290513D01*
X82296Y302832D01*
X75121Y310007D01*
X54483Y310007D01*
X44196Y299720D01*
X146050Y267390D02*
X146304Y266192D01*
X44196Y299720D02*
X43180Y299720D01*
X146304Y214503D02*
X146304Y196088D01*
X146304Y214503D02*
X68580Y292227D01*
X68580Y299720D01*
X146304Y196088D02*
X146050Y194890D01*
X170688Y267716D02*
X170688Y279908D01*
X168339Y282258D01*
X111951Y282258D01*
X94488Y299720D01*
X170688Y267716D02*
X171450Y267390D01*
X94488Y299720D02*
X93980Y299720D01*
X28956Y243332D02*
X24384Y247904D01*
X70104Y144272D02*
X70104Y141224D01*
X71628Y139700D02*
X89916Y121412D01*
X71628Y139700D02*
X70104Y141224D01*
X89916Y121412D02*
X89916Y115316D01*
X29153Y242410D02*
X28956Y243332D01*
X89916Y115316D02*
X88900Y114300D01*
X71628Y139700D02*
X82296Y150368D01*
D20*
X24384Y247904D03*
X70104Y144272D03*
X82296Y150368D03*
D19*
X32004Y237236D02*
X32004Y238760D01*
X32004Y237236D02*
X27432Y232664D01*
X25908Y232664D01*
X32004Y238760D02*
X32688Y238875D01*
D20*
X25908Y232664D03*
D19*
X35052Y232664D02*
X35052Y234188D01*
X35052Y232664D02*
X28956Y226568D01*
X24384Y226568D01*
X18923Y232029D01*
X18923Y278956D01*
X32004Y292037D01*
X32004Y302768D01*
X42672Y313436D01*
X100838Y313436D01*
X108204Y306070D01*
X108204Y293497D01*
X115761Y285941D01*
X173800Y285941D01*
X179896Y279845D01*
X179896Y177737D01*
X190500Y167132D01*
X190500Y165100D01*
X36224Y235339D02*
X35052Y234188D01*
D21*
X159385Y75057D03*
D19*
X159385Y140335D01*
X161925Y142875D01*
D21*
X161925Y142875D03*
D19*
X39624Y231140D02*
X38100Y231140D01*
X26162Y219202D02*
X25083Y218123D01*
X26162Y219202D02*
X38100Y231140D01*
X26289Y219202D02*
X26162Y219202D01*
X26289Y219202D02*
X24511Y217424D01*
X15240Y217424D01*
X13716Y215900D01*
X39624Y231140D02*
X39759Y231804D01*
X13716Y215900D02*
X12700Y215900D01*
X189992Y140208D02*
X190500Y139700D01*
X189992Y140208D02*
X182880Y140208D01*
X140208Y182880D01*
X140208Y212852D01*
X60960Y292100D01*
X54483Y292100D01*
X35433Y314452D02*
X32766Y314452D01*
X28956Y310642D01*
X28956Y296672D01*
X13653Y281369D01*
X13653Y229553D01*
X25083Y218123D01*
D20*
X54483Y292100D03*
X35433Y314452D03*
D19*
X45720Y223520D02*
X45720Y220472D01*
X16764Y191516D01*
X13716Y191516D01*
X45720Y223520D02*
X46831Y224733D01*
X13716Y191516D02*
X12700Y190500D01*
X114300Y139700D02*
X114427Y139573D01*
X117475Y139573D01*
X124968Y132080D01*
X124968Y121412D01*
D20*
X124968Y121412D03*
D19*
X60008Y222162D02*
X57437Y224733D01*
X60008Y222162D02*
X60008Y220054D01*
X19050Y179052D01*
X19050Y177102D01*
X19304Y176848D01*
D20*
X19304Y176848D03*
D19*
X64516Y226060D02*
X62484Y228092D01*
X64516Y226060D02*
X64516Y216408D01*
X39497Y191389D01*
X64008Y150368D02*
X64008Y147193D01*
X53340Y136525D01*
X62484Y228092D02*
X60973Y228268D01*
D20*
X39497Y191389D03*
X64008Y150368D03*
X53340Y136525D03*
D19*
X64508Y231804D02*
X65884Y231804D01*
X70104Y227584D01*
X70104Y214376D01*
X24384Y168656D01*
X24384Y110744D02*
X39624Y110744D01*
X86868Y63500D01*
X88900Y63500D01*
D20*
X24384Y168656D03*
X24384Y110744D03*
D19*
X68580Y234188D02*
X70104Y234188D01*
X74676Y229616D01*
X74676Y211328D01*
X48705Y185357D01*
X55055Y165164D02*
X55055Y156909D01*
X46419Y148273D01*
X76200Y90932D02*
X76200Y83312D01*
X83820Y75692D01*
X94488Y75692D01*
X102108Y68072D01*
X102108Y57404D01*
X108204Y51308D01*
X170688Y51308D01*
X182880Y63500D01*
X190500Y63500D01*
X68580Y234188D02*
X68044Y235339D01*
D20*
X48705Y185357D03*
X55055Y165164D03*
X46419Y148273D03*
X76200Y90932D03*
D19*
X71579Y237793D02*
X71579Y238875D01*
X71579Y237793D02*
X78994Y230378D01*
X78994Y208026D01*
X33528Y162560D01*
X30480Y162560D01*
D20*
X30480Y162560D03*
D19*
X80391Y237236D02*
X82296Y237236D01*
X80391Y237236D02*
X75344Y242284D01*
X82296Y176276D02*
X83820Y176276D01*
X82296Y176276D02*
X21336Y115316D01*
X13716Y115316D01*
X75344Y242284D02*
X75115Y242410D01*
X13716Y115316D02*
X12700Y114300D01*
D20*
X82296Y237236D03*
X83820Y176276D03*
D19*
X102108Y226568D02*
X76200Y252476D01*
X102108Y226568D02*
X102108Y203708D01*
X102172Y203645D02*
X114300Y191516D01*
X76200Y252476D02*
X75115Y253017D01*
X16764Y142748D02*
X13716Y139700D01*
X16764Y142748D02*
X21781Y142748D01*
X82741Y203708D01*
X102235Y203708D01*
X102172Y203645D01*
X13716Y139700D02*
X12700Y139700D01*
X102108Y203708D02*
X102172Y203645D01*
X114300Y191516D02*
X114300Y190500D01*
X77788Y266129D02*
X74041Y266129D01*
X68263Y260350D01*
X68580Y260096D01*
X77788Y266129D02*
X114300Y229616D01*
X114300Y215900D01*
X68580Y260096D02*
X68044Y260088D01*
X67691Y265303D02*
X66155Y265303D01*
X67691Y265303D02*
X73152Y270764D01*
X77724Y270764D01*
X126492Y221996D01*
X126492Y185420D01*
X118872Y177800D01*
X109728Y177800D01*
X100584Y168656D02*
X96012Y164084D01*
X100584Y168656D02*
X109728Y177800D01*
X96012Y164084D02*
X89916Y164084D01*
X64508Y263624D02*
X66155Y265303D01*
X88900Y165100D02*
X89916Y164084D01*
X102108Y80772D02*
X114300Y68580D01*
X114300Y63500D01*
X102108Y80772D02*
X102108Y167132D01*
X100584Y168656D01*
X62484Y267716D02*
X68580Y273812D01*
X62484Y267716D02*
X60973Y267159D01*
X38481Y141351D02*
X22606Y125476D01*
X21336Y125476D01*
X132588Y115062D02*
X132588Y146114D01*
D20*
X68580Y273812D03*
X21336Y125476D03*
X38481Y141351D03*
X132588Y115062D03*
X132588Y146114D03*
D19*
X56388Y270764D02*
X56388Y281432D01*
X48768Y289052D01*
X38100Y289052D01*
X30480Y281432D01*
X56388Y270764D02*
X57437Y270695D01*
D20*
X30480Y281432D03*
M02*
