M48
;GenerationSoftware,Autodesk,EAGLE,9.5.1*%
;CreationDate,2020-06-24T20:58:06Z*%
FMAT,2
ICI,OFF
METRIC,TZ,000.000
T5C0.305
T4C0.350
T3C0.800
T2C1.016
T1C2.500
%
G90
M71
T1
X5080Y1270
X15240Y1270
T2
X11938Y32512
X11938Y29972
X9398Y32512
X9398Y29972
X6858Y32512
X6858Y29972
X4318Y29972
X1778Y32512
X14478Y32512
X1778Y29972
X4318Y32512
X14478Y29972
T3
X8890Y13970
X19050Y13970
X8890Y11430
X8890Y8890
X8890Y6350
X1270Y6350
X1270Y11430
X1270Y13970
X1270Y16510
X1270Y19050
X1270Y21590
X8890Y19050
X19050Y21590
X19050Y19050
X19050Y16510
X19050Y11430
X19050Y8890
X19050Y6350
X1270Y8890
X11430Y8890
X11430Y11430
X11430Y13970
X11430Y16510
X11430Y19050
X11430Y21590
X8890Y21590
X11430Y6350
X8890Y16510
T4
X7429Y18479
X2492Y27305
X12192Y10160
X14351Y8636
X14414Y15430
X17018Y13716
X5239Y24797
X3048Y32131
X8128Y32004
X6159Y12763
X15938Y7506
X12382Y31274
X16351Y24606
X13176Y23908
X19209Y23019
X19209Y26987
X8573Y22860
X7620Y12065
X9208Y15240
X4763Y8573
X11430Y26987
X16192Y14287
T5
X8230Y15037
X2591Y23266
X5448Y29210
X3543Y31445
X12497Y12141
X3950Y19139
X6401Y15037
X5334Y13652
X2438Y16866
X2438Y11074
X4870Y18536
X5505Y16516
X4642Y14827
X7620Y9093
X3048Y16256
X8230Y23724
X3721Y22200
X6858Y27381
X2134Y12548
X3848Y14135
X1930Y17685
X13259Y11506
X13259Y14611
X3048Y28143
X17221Y21285
X4267Y27991
X13259Y20828
X5029Y27991
X15850Y21285
X8382Y17628
X15850Y25400
X2438Y24790
X7010Y14427
M30