G04 EAGLE Gerber RS-274X export*
G75*
%MOMM*%
%FSLAX34Y34*%
%LPD*%
%INSilkscreen Top*%
%IPPOS*%
%AMOC8*
5,1,8,0,0,1.08239X$1,22.5*%
G01*
%ADD10C,0.152400*%
%ADD11C,0.203200*%
%ADD12C,0.127000*%
%ADD13C,0.100000*%
%ADD14C,0.250000*%
%ADD15C,0.200000*%


D10*
X79300Y275303D02*
X73194Y269196D01*
X73872Y268518D02*
X72515Y269875D01*
X78622Y275982D02*
X79979Y274625D01*
X78000Y264390D02*
X79357Y263033D01*
X78000Y264390D02*
X77941Y264452D01*
X77884Y264517D01*
X77830Y264584D01*
X77780Y264654D01*
X77732Y264726D01*
X77688Y264800D01*
X77647Y264876D01*
X77610Y264953D01*
X77576Y265033D01*
X77546Y265113D01*
X77519Y265195D01*
X77496Y265278D01*
X77477Y265362D01*
X77462Y265447D01*
X77450Y265532D01*
X77442Y265618D01*
X77438Y265704D01*
X77438Y265790D01*
X77442Y265876D01*
X77450Y265962D01*
X77462Y266047D01*
X77477Y266132D01*
X77496Y266216D01*
X77519Y266299D01*
X77546Y266381D01*
X77576Y266461D01*
X77610Y266541D01*
X77647Y266618D01*
X77688Y266694D01*
X77732Y266768D01*
X77780Y266840D01*
X77830Y266910D01*
X77884Y266977D01*
X77941Y267042D01*
X78000Y267104D01*
X81392Y270497D01*
X81454Y270556D01*
X81519Y270613D01*
X81586Y270667D01*
X81656Y270717D01*
X81728Y270765D01*
X81802Y270809D01*
X81878Y270850D01*
X81955Y270887D01*
X82035Y270921D01*
X82115Y270951D01*
X82197Y270978D01*
X82280Y271001D01*
X82364Y271020D01*
X82449Y271035D01*
X82534Y271047D01*
X82620Y271055D01*
X82706Y271059D01*
X82792Y271059D01*
X82878Y271055D01*
X82964Y271047D01*
X83049Y271035D01*
X83134Y271020D01*
X83218Y271001D01*
X83301Y270978D01*
X83383Y270951D01*
X83463Y270921D01*
X83543Y270887D01*
X83620Y270850D01*
X83696Y270809D01*
X83770Y270765D01*
X83842Y270717D01*
X83911Y270667D01*
X83979Y270613D01*
X84044Y270556D01*
X84106Y270497D01*
X85464Y269140D01*
X90031Y264573D02*
X90094Y264506D01*
X90155Y264438D01*
X90212Y264366D01*
X90267Y264293D01*
X90318Y264217D01*
X90366Y264139D01*
X90411Y264059D01*
X90452Y263977D01*
X90490Y263893D01*
X90524Y263808D01*
X90554Y263722D01*
X90581Y263634D01*
X90604Y263546D01*
X90624Y263456D01*
X90639Y263366D01*
X90651Y263275D01*
X90659Y263183D01*
X90663Y263092D01*
X90663Y263000D01*
X90659Y262909D01*
X90651Y262817D01*
X90639Y262726D01*
X90624Y262636D01*
X90604Y262546D01*
X90581Y262458D01*
X90554Y262370D01*
X90524Y262284D01*
X90490Y262199D01*
X90452Y262115D01*
X90411Y262033D01*
X90366Y261953D01*
X90318Y261875D01*
X90267Y261799D01*
X90212Y261726D01*
X90155Y261654D01*
X90094Y261586D01*
X90031Y261519D01*
X90030Y264573D02*
X89957Y264644D01*
X89880Y264712D01*
X89801Y264778D01*
X89720Y264840D01*
X89636Y264900D01*
X89551Y264956D01*
X89463Y265009D01*
X89373Y265059D01*
X89282Y265106D01*
X89189Y265149D01*
X89094Y265189D01*
X88998Y265225D01*
X88901Y265257D01*
X88802Y265286D01*
X88703Y265312D01*
X88603Y265333D01*
X88502Y265351D01*
X88400Y265365D01*
X88298Y265376D01*
X88196Y265382D01*
X88093Y265385D01*
X87990Y265384D01*
X87888Y265379D01*
X87786Y265370D01*
X87684Y265358D01*
X87582Y265342D01*
X87482Y265322D01*
X87382Y265299D01*
X87283Y265271D01*
X87185Y265240D01*
X87089Y265206D01*
X86993Y265168D01*
X86899Y265126D01*
X86807Y265081D01*
X88335Y260841D02*
X88428Y260840D01*
X88522Y260844D01*
X88616Y260851D01*
X88709Y260862D01*
X88802Y260877D01*
X88894Y260895D01*
X88985Y260917D01*
X89075Y260943D01*
X89164Y260973D01*
X89252Y261006D01*
X89339Y261043D01*
X89424Y261083D01*
X89507Y261126D01*
X89588Y261173D01*
X89668Y261223D01*
X89745Y261276D01*
X89820Y261333D01*
X89893Y261392D01*
X89963Y261454D01*
X90031Y261519D01*
X88334Y260841D02*
X82058Y260332D01*
X85451Y256939D01*
X164606Y283337D02*
X166525Y283337D01*
X164606Y283337D02*
X164520Y283339D01*
X164434Y283345D01*
X164348Y283354D01*
X164263Y283368D01*
X164179Y283385D01*
X164095Y283406D01*
X164013Y283431D01*
X163932Y283459D01*
X163852Y283491D01*
X163773Y283527D01*
X163697Y283566D01*
X163622Y283609D01*
X163549Y283654D01*
X163478Y283703D01*
X163410Y283756D01*
X163343Y283811D01*
X163280Y283869D01*
X163219Y283930D01*
X163161Y283993D01*
X163106Y284060D01*
X163053Y284128D01*
X163004Y284199D01*
X162959Y284272D01*
X162916Y284347D01*
X162877Y284423D01*
X162841Y284502D01*
X162809Y284582D01*
X162781Y284663D01*
X162756Y284745D01*
X162735Y284829D01*
X162718Y284913D01*
X162704Y284998D01*
X162695Y285084D01*
X162689Y285170D01*
X162687Y285256D01*
X162687Y290054D01*
X162689Y290140D01*
X162695Y290226D01*
X162704Y290312D01*
X162718Y290397D01*
X162735Y290481D01*
X162756Y290565D01*
X162781Y290647D01*
X162809Y290728D01*
X162841Y290808D01*
X162877Y290887D01*
X162916Y290963D01*
X162959Y291038D01*
X163004Y291111D01*
X163053Y291182D01*
X163106Y291250D01*
X163161Y291317D01*
X163219Y291380D01*
X163280Y291441D01*
X163343Y291499D01*
X163410Y291554D01*
X163478Y291606D01*
X163549Y291656D01*
X163622Y291701D01*
X163697Y291744D01*
X163773Y291783D01*
X163852Y291819D01*
X163932Y291851D01*
X164013Y291879D01*
X164095Y291904D01*
X164179Y291925D01*
X164263Y291942D01*
X164348Y291956D01*
X164434Y291965D01*
X164520Y291971D01*
X164606Y291973D01*
X166525Y291973D01*
X170345Y290054D02*
X172744Y291973D01*
X172744Y283337D01*
X170345Y283337D02*
X175143Y283337D01*
X186831Y283337D02*
X188750Y283337D01*
X186831Y283337D02*
X186745Y283339D01*
X186659Y283345D01*
X186573Y283354D01*
X186488Y283368D01*
X186404Y283385D01*
X186320Y283406D01*
X186238Y283431D01*
X186157Y283459D01*
X186077Y283491D01*
X185998Y283527D01*
X185922Y283566D01*
X185847Y283609D01*
X185774Y283654D01*
X185703Y283703D01*
X185635Y283756D01*
X185568Y283811D01*
X185505Y283869D01*
X185444Y283930D01*
X185386Y283993D01*
X185331Y284060D01*
X185278Y284128D01*
X185229Y284199D01*
X185184Y284272D01*
X185141Y284347D01*
X185102Y284423D01*
X185066Y284502D01*
X185034Y284582D01*
X185006Y284663D01*
X184981Y284745D01*
X184960Y284829D01*
X184943Y284913D01*
X184929Y284998D01*
X184920Y285084D01*
X184914Y285170D01*
X184912Y285256D01*
X184912Y290054D01*
X184914Y290140D01*
X184920Y290226D01*
X184929Y290312D01*
X184943Y290397D01*
X184960Y290481D01*
X184981Y290565D01*
X185006Y290647D01*
X185034Y290728D01*
X185066Y290808D01*
X185102Y290887D01*
X185141Y290963D01*
X185184Y291038D01*
X185229Y291111D01*
X185278Y291182D01*
X185331Y291250D01*
X185386Y291317D01*
X185444Y291380D01*
X185505Y291441D01*
X185568Y291499D01*
X185635Y291554D01*
X185703Y291606D01*
X185774Y291656D01*
X185847Y291701D01*
X185922Y291744D01*
X185998Y291783D01*
X186077Y291819D01*
X186157Y291851D01*
X186238Y291879D01*
X186320Y291904D01*
X186404Y291925D01*
X186488Y291942D01*
X186573Y291956D01*
X186659Y291965D01*
X186745Y291971D01*
X186831Y291973D01*
X188750Y291973D01*
X195209Y291973D02*
X195301Y291971D01*
X195392Y291965D01*
X195483Y291956D01*
X195574Y291942D01*
X195664Y291925D01*
X195753Y291903D01*
X195841Y291878D01*
X195928Y291850D01*
X196014Y291817D01*
X196098Y291781D01*
X196181Y291742D01*
X196262Y291699D01*
X196341Y291652D01*
X196418Y291603D01*
X196493Y291550D01*
X196565Y291494D01*
X196635Y291435D01*
X196703Y291373D01*
X196768Y291308D01*
X196830Y291240D01*
X196889Y291170D01*
X196945Y291098D01*
X196998Y291023D01*
X197047Y290946D01*
X197094Y290867D01*
X197137Y290786D01*
X197176Y290703D01*
X197212Y290619D01*
X197245Y290533D01*
X197273Y290446D01*
X197298Y290358D01*
X197320Y290269D01*
X197337Y290179D01*
X197351Y290088D01*
X197360Y289997D01*
X197366Y289906D01*
X197368Y289814D01*
X195209Y291973D02*
X195106Y291971D01*
X195004Y291965D01*
X194902Y291956D01*
X194800Y291943D01*
X194699Y291926D01*
X194598Y291905D01*
X194499Y291881D01*
X194400Y291852D01*
X194303Y291821D01*
X194206Y291785D01*
X194111Y291747D01*
X194018Y291704D01*
X193926Y291658D01*
X193836Y291609D01*
X193748Y291557D01*
X193661Y291501D01*
X193577Y291442D01*
X193496Y291381D01*
X193416Y291316D01*
X193339Y291248D01*
X193264Y291177D01*
X193193Y291104D01*
X193124Y291028D01*
X193057Y290950D01*
X192994Y290869D01*
X192934Y290786D01*
X192877Y290701D01*
X192823Y290614D01*
X192772Y290524D01*
X192725Y290433D01*
X192681Y290341D01*
X192640Y290246D01*
X192603Y290151D01*
X192570Y290054D01*
X196648Y288135D02*
X196715Y288201D01*
X196779Y288270D01*
X196840Y288341D01*
X196898Y288415D01*
X196953Y288491D01*
X197005Y288569D01*
X197054Y288649D01*
X197100Y288731D01*
X197142Y288815D01*
X197181Y288901D01*
X197216Y288988D01*
X197247Y289076D01*
X197275Y289166D01*
X197300Y289256D01*
X197321Y289348D01*
X197338Y289440D01*
X197351Y289533D01*
X197360Y289626D01*
X197366Y289720D01*
X197368Y289814D01*
X196648Y288135D02*
X192570Y283337D01*
X197368Y283337D01*
X124597Y178562D02*
X124597Y165862D01*
X124597Y178562D02*
X128125Y178562D01*
X128243Y178560D01*
X128361Y178554D01*
X128478Y178544D01*
X128595Y178531D01*
X128712Y178513D01*
X128828Y178491D01*
X128943Y178466D01*
X129057Y178437D01*
X129170Y178404D01*
X129282Y178367D01*
X129393Y178326D01*
X129502Y178282D01*
X129610Y178234D01*
X129716Y178183D01*
X129820Y178128D01*
X129923Y178069D01*
X130023Y178008D01*
X130122Y177943D01*
X130218Y177874D01*
X130311Y177803D01*
X130403Y177728D01*
X130492Y177651D01*
X130578Y177570D01*
X130661Y177487D01*
X130742Y177401D01*
X130819Y177312D01*
X130894Y177220D01*
X130965Y177127D01*
X131034Y177031D01*
X131099Y176932D01*
X131160Y176832D01*
X131219Y176729D01*
X131274Y176625D01*
X131325Y176519D01*
X131373Y176411D01*
X131417Y176302D01*
X131458Y176191D01*
X131495Y176079D01*
X131528Y175966D01*
X131557Y175852D01*
X131582Y175737D01*
X131604Y175621D01*
X131622Y175504D01*
X131635Y175387D01*
X131645Y175270D01*
X131651Y175152D01*
X131653Y175034D01*
X131651Y174916D01*
X131645Y174798D01*
X131635Y174681D01*
X131622Y174564D01*
X131604Y174447D01*
X131582Y174331D01*
X131557Y174216D01*
X131528Y174102D01*
X131495Y173989D01*
X131458Y173877D01*
X131417Y173766D01*
X131373Y173657D01*
X131325Y173549D01*
X131274Y173443D01*
X131219Y173339D01*
X131160Y173236D01*
X131099Y173136D01*
X131034Y173037D01*
X130965Y172941D01*
X130894Y172848D01*
X130819Y172756D01*
X130742Y172667D01*
X130661Y172581D01*
X130578Y172498D01*
X130492Y172417D01*
X130403Y172340D01*
X130311Y172265D01*
X130218Y172194D01*
X130122Y172125D01*
X130023Y172060D01*
X129923Y171999D01*
X129820Y171940D01*
X129716Y171885D01*
X129610Y171834D01*
X129502Y171786D01*
X129393Y171742D01*
X129282Y171701D01*
X129170Y171664D01*
X129057Y171631D01*
X128943Y171602D01*
X128828Y171577D01*
X128712Y171555D01*
X128595Y171537D01*
X128478Y171524D01*
X128361Y171514D01*
X128243Y171508D01*
X128125Y171506D01*
X124597Y171506D01*
X128831Y171506D02*
X131653Y165862D01*
X137759Y165862D02*
X143403Y165862D01*
X137759Y165862D02*
X137759Y178562D01*
X143403Y178562D01*
X141992Y172918D02*
X137759Y172918D01*
X147692Y178562D02*
X151925Y165862D01*
X156158Y178562D01*
X160533Y166568D02*
X160533Y165862D01*
X160533Y166568D02*
X161239Y166568D01*
X161239Y165862D01*
X160533Y165862D01*
X173147Y175740D02*
X176675Y178562D01*
X176675Y165862D01*
X173147Y165862D02*
X180203Y165862D01*
D11*
X45043Y208746D02*
X45043Y211709D01*
X45042Y208746D02*
X45040Y208639D01*
X45034Y208532D01*
X45025Y208426D01*
X45011Y208320D01*
X44994Y208214D01*
X44973Y208109D01*
X44948Y208005D01*
X44919Y207902D01*
X44887Y207800D01*
X44851Y207699D01*
X44811Y207600D01*
X44768Y207502D01*
X44721Y207406D01*
X44671Y207311D01*
X44618Y207218D01*
X44561Y207128D01*
X44501Y207039D01*
X44438Y206953D01*
X44372Y206869D01*
X44302Y206787D01*
X44230Y206708D01*
X44155Y206632D01*
X44077Y206558D01*
X43997Y206488D01*
X43914Y206420D01*
X43829Y206355D01*
X43742Y206294D01*
X43652Y206235D01*
X43560Y206180D01*
X43467Y206128D01*
X43371Y206080D01*
X43274Y206035D01*
X43176Y205993D01*
X43076Y205956D01*
X42974Y205921D01*
X42872Y205891D01*
X42768Y205864D01*
X42664Y205841D01*
X42558Y205822D01*
X42452Y205807D01*
X42346Y205795D01*
X42239Y205787D01*
X42132Y205783D01*
X42026Y205783D01*
X41919Y205787D01*
X41812Y205795D01*
X41706Y205807D01*
X41600Y205822D01*
X41494Y205841D01*
X41390Y205864D01*
X41286Y205891D01*
X41184Y205921D01*
X41082Y205956D01*
X40982Y205993D01*
X40884Y206035D01*
X40787Y206080D01*
X40691Y206128D01*
X40597Y206180D01*
X40506Y206235D01*
X40416Y206294D01*
X40329Y206355D01*
X40244Y206420D01*
X40161Y206488D01*
X40081Y206558D01*
X40003Y206632D01*
X39928Y206708D01*
X39856Y206787D01*
X39786Y206869D01*
X39720Y206953D01*
X39657Y207039D01*
X39597Y207128D01*
X39540Y207218D01*
X39487Y207311D01*
X39437Y207406D01*
X39390Y207502D01*
X39347Y207600D01*
X39307Y207699D01*
X39271Y207800D01*
X39239Y207902D01*
X39210Y208005D01*
X39185Y208109D01*
X39164Y208214D01*
X39147Y208320D01*
X39133Y208426D01*
X39124Y208532D01*
X39118Y208639D01*
X39116Y208746D01*
X39116Y211709D01*
X49784Y211709D01*
X49784Y208746D01*
X49782Y208649D01*
X49776Y208553D01*
X49766Y208457D01*
X49752Y208361D01*
X49735Y208266D01*
X49713Y208171D01*
X49688Y208078D01*
X49659Y207986D01*
X49626Y207895D01*
X49589Y207805D01*
X49549Y207717D01*
X49505Y207631D01*
X49458Y207547D01*
X49408Y207464D01*
X49354Y207384D01*
X49296Y207306D01*
X49236Y207230D01*
X49173Y207157D01*
X49107Y207087D01*
X49037Y207019D01*
X48966Y206954D01*
X48891Y206892D01*
X48814Y206834D01*
X48735Y206778D01*
X48654Y206726D01*
X48570Y206677D01*
X48485Y206631D01*
X48398Y206589D01*
X48309Y206551D01*
X48219Y206516D01*
X48127Y206485D01*
X48034Y206458D01*
X47941Y206434D01*
X47846Y206415D01*
X47750Y206399D01*
X47654Y206387D01*
X47558Y206379D01*
X47461Y206375D01*
X47365Y206375D01*
X47268Y206379D01*
X47172Y206387D01*
X47076Y206399D01*
X46980Y206415D01*
X46885Y206434D01*
X46792Y206458D01*
X46699Y206485D01*
X46607Y206516D01*
X46517Y206551D01*
X46428Y206589D01*
X46341Y206631D01*
X46256Y206677D01*
X46172Y206726D01*
X46091Y206778D01*
X46012Y206834D01*
X45935Y206892D01*
X45860Y206954D01*
X45789Y207019D01*
X45719Y207087D01*
X45653Y207157D01*
X45590Y207230D01*
X45530Y207306D01*
X45472Y207384D01*
X45418Y207464D01*
X45368Y207547D01*
X45321Y207631D01*
X45277Y207717D01*
X45237Y207805D01*
X45200Y207895D01*
X45167Y207986D01*
X45138Y208078D01*
X45113Y208171D01*
X45091Y208266D01*
X45074Y208361D01*
X45060Y208457D01*
X45050Y208553D01*
X45044Y208649D01*
X45042Y208746D01*
X49784Y201507D02*
X44746Y197951D01*
X49784Y194395D01*
X44746Y197951D02*
X39116Y197951D01*
X39116Y182973D02*
X49784Y182973D01*
X39116Y182973D02*
X39116Y178232D01*
X39116Y172805D02*
X49784Y172805D01*
X39116Y173990D02*
X39116Y171619D01*
X49784Y171619D02*
X49784Y173990D01*
X39116Y167217D02*
X49784Y160105D01*
X49784Y167217D02*
X39116Y160105D01*
X39116Y154517D02*
X49784Y154517D01*
X39116Y155702D02*
X39116Y153331D01*
X49784Y153331D02*
X49784Y155702D01*
X39116Y147921D02*
X39116Y143180D01*
X39116Y147921D02*
X49784Y147921D01*
X49784Y143180D01*
X45043Y144365D02*
X45043Y147921D01*
X49784Y131919D02*
X39116Y131919D01*
X39116Y127178D01*
X39116Y123021D02*
X49784Y119465D01*
X39116Y115909D01*
X41783Y116798D02*
X41783Y122132D01*
X45043Y110363D02*
X45043Y107400D01*
X45042Y107400D02*
X45040Y107293D01*
X45034Y107186D01*
X45025Y107080D01*
X45011Y106974D01*
X44994Y106868D01*
X44973Y106763D01*
X44948Y106659D01*
X44919Y106556D01*
X44887Y106454D01*
X44851Y106353D01*
X44811Y106254D01*
X44768Y106156D01*
X44721Y106060D01*
X44671Y105965D01*
X44618Y105872D01*
X44561Y105782D01*
X44501Y105693D01*
X44438Y105607D01*
X44372Y105523D01*
X44302Y105441D01*
X44230Y105362D01*
X44155Y105286D01*
X44077Y105212D01*
X43997Y105142D01*
X43914Y105074D01*
X43829Y105009D01*
X43742Y104948D01*
X43652Y104889D01*
X43560Y104834D01*
X43467Y104782D01*
X43371Y104734D01*
X43274Y104689D01*
X43176Y104647D01*
X43076Y104610D01*
X42974Y104575D01*
X42872Y104545D01*
X42768Y104518D01*
X42664Y104495D01*
X42558Y104476D01*
X42452Y104461D01*
X42346Y104449D01*
X42239Y104441D01*
X42132Y104437D01*
X42026Y104437D01*
X41919Y104441D01*
X41812Y104449D01*
X41706Y104461D01*
X41600Y104476D01*
X41494Y104495D01*
X41390Y104518D01*
X41286Y104545D01*
X41184Y104575D01*
X41082Y104610D01*
X40982Y104647D01*
X40884Y104689D01*
X40787Y104734D01*
X40691Y104782D01*
X40597Y104834D01*
X40506Y104889D01*
X40416Y104948D01*
X40329Y105009D01*
X40244Y105074D01*
X40161Y105142D01*
X40081Y105212D01*
X40003Y105286D01*
X39928Y105362D01*
X39856Y105441D01*
X39786Y105523D01*
X39720Y105607D01*
X39657Y105693D01*
X39597Y105782D01*
X39540Y105872D01*
X39487Y105965D01*
X39437Y106060D01*
X39390Y106156D01*
X39347Y106254D01*
X39307Y106353D01*
X39271Y106454D01*
X39239Y106556D01*
X39210Y106659D01*
X39185Y106763D01*
X39164Y106868D01*
X39147Y106974D01*
X39133Y107080D01*
X39124Y107186D01*
X39118Y107293D01*
X39116Y107400D01*
X39116Y110363D01*
X49784Y110363D01*
X49784Y107400D01*
X49782Y107303D01*
X49776Y107207D01*
X49766Y107111D01*
X49752Y107015D01*
X49735Y106920D01*
X49713Y106825D01*
X49688Y106732D01*
X49659Y106640D01*
X49626Y106549D01*
X49589Y106459D01*
X49549Y106371D01*
X49505Y106285D01*
X49458Y106201D01*
X49408Y106118D01*
X49354Y106038D01*
X49296Y105960D01*
X49236Y105884D01*
X49173Y105811D01*
X49107Y105741D01*
X49037Y105673D01*
X48966Y105608D01*
X48891Y105546D01*
X48814Y105488D01*
X48735Y105432D01*
X48654Y105380D01*
X48570Y105331D01*
X48485Y105285D01*
X48398Y105243D01*
X48309Y105205D01*
X48219Y105170D01*
X48127Y105139D01*
X48034Y105112D01*
X47941Y105088D01*
X47846Y105069D01*
X47750Y105053D01*
X47654Y105041D01*
X47558Y105033D01*
X47461Y105029D01*
X47365Y105029D01*
X47268Y105033D01*
X47172Y105041D01*
X47076Y105053D01*
X46980Y105069D01*
X46885Y105088D01*
X46792Y105112D01*
X46699Y105139D01*
X46607Y105170D01*
X46517Y105205D01*
X46428Y105243D01*
X46341Y105285D01*
X46256Y105331D01*
X46172Y105380D01*
X46091Y105432D01*
X46012Y105488D01*
X45935Y105546D01*
X45860Y105608D01*
X45789Y105673D01*
X45719Y105741D01*
X45653Y105811D01*
X45590Y105884D01*
X45530Y105960D01*
X45472Y106038D01*
X45418Y106118D01*
X45368Y106201D01*
X45321Y106285D01*
X45277Y106371D01*
X45237Y106459D01*
X45200Y106549D01*
X45167Y106640D01*
X45138Y106732D01*
X45113Y106825D01*
X45091Y106920D01*
X45074Y107015D01*
X45060Y107111D01*
X45050Y107207D01*
X45044Y107303D01*
X45042Y107400D01*
X39116Y96393D02*
X39118Y96298D01*
X39124Y96202D01*
X39133Y96107D01*
X39147Y96013D01*
X39164Y95919D01*
X39185Y95826D01*
X39210Y95733D01*
X39238Y95642D01*
X39270Y95552D01*
X39306Y95464D01*
X39345Y95377D01*
X39388Y95291D01*
X39434Y95208D01*
X39483Y95126D01*
X39536Y95046D01*
X39592Y94969D01*
X39650Y94893D01*
X39712Y94821D01*
X39777Y94751D01*
X39845Y94683D01*
X39915Y94618D01*
X39987Y94556D01*
X40063Y94498D01*
X40140Y94442D01*
X40220Y94389D01*
X40301Y94340D01*
X40385Y94294D01*
X40471Y94251D01*
X40558Y94212D01*
X40646Y94176D01*
X40736Y94144D01*
X40827Y94116D01*
X40920Y94091D01*
X41013Y94070D01*
X41107Y94053D01*
X41201Y94039D01*
X41296Y94030D01*
X41392Y94024D01*
X41487Y94022D01*
X39116Y96393D02*
X39118Y96529D01*
X39123Y96666D01*
X39133Y96802D01*
X39146Y96937D01*
X39162Y97073D01*
X39183Y97207D01*
X39207Y97342D01*
X39234Y97475D01*
X39266Y97608D01*
X39300Y97740D01*
X39339Y97871D01*
X39381Y98000D01*
X39426Y98129D01*
X39475Y98256D01*
X39528Y98382D01*
X39584Y98506D01*
X39643Y98629D01*
X39705Y98750D01*
X39771Y98870D01*
X39840Y98987D01*
X39913Y99103D01*
X39988Y99217D01*
X40066Y99328D01*
X40148Y99437D01*
X40232Y99545D01*
X40319Y99649D01*
X40409Y99752D01*
X40502Y99852D01*
X40598Y99949D01*
X47413Y99653D02*
X47508Y99651D01*
X47604Y99645D01*
X47699Y99636D01*
X47793Y99622D01*
X47887Y99605D01*
X47980Y99584D01*
X48073Y99559D01*
X48164Y99531D01*
X48254Y99499D01*
X48342Y99463D01*
X48429Y99424D01*
X48515Y99381D01*
X48599Y99335D01*
X48680Y99286D01*
X48760Y99233D01*
X48837Y99177D01*
X48913Y99119D01*
X48985Y99057D01*
X49055Y98992D01*
X49123Y98924D01*
X49188Y98854D01*
X49250Y98782D01*
X49308Y98706D01*
X49364Y98629D01*
X49417Y98549D01*
X49466Y98468D01*
X49512Y98384D01*
X49555Y98298D01*
X49594Y98211D01*
X49630Y98123D01*
X49662Y98033D01*
X49690Y97942D01*
X49715Y97849D01*
X49736Y97756D01*
X49753Y97662D01*
X49767Y97568D01*
X49776Y97473D01*
X49782Y97377D01*
X49784Y97282D01*
X49782Y97152D01*
X49776Y97022D01*
X49767Y96892D01*
X49754Y96763D01*
X49737Y96634D01*
X49716Y96506D01*
X49691Y96378D01*
X49663Y96251D01*
X49631Y96125D01*
X49595Y96000D01*
X49556Y95876D01*
X49513Y95754D01*
X49467Y95632D01*
X49416Y95512D01*
X49363Y95394D01*
X49306Y95277D01*
X49246Y95162D01*
X49182Y95048D01*
X49115Y94937D01*
X49045Y94827D01*
X48971Y94720D01*
X48895Y94615D01*
X45338Y98468D02*
X45389Y98549D01*
X45443Y98629D01*
X45499Y98707D01*
X45559Y98782D01*
X45622Y98855D01*
X45688Y98925D01*
X45756Y98992D01*
X45827Y99057D01*
X45901Y99119D01*
X45977Y99178D01*
X46055Y99234D01*
X46136Y99286D01*
X46218Y99336D01*
X46303Y99382D01*
X46389Y99424D01*
X46477Y99464D01*
X46566Y99499D01*
X46657Y99531D01*
X46749Y99560D01*
X46842Y99584D01*
X46935Y99605D01*
X47030Y99622D01*
X47125Y99636D01*
X47221Y99645D01*
X47317Y99651D01*
X47413Y99653D01*
X43562Y95208D02*
X43511Y95126D01*
X43457Y95046D01*
X43401Y94968D01*
X43341Y94893D01*
X43278Y94820D01*
X43212Y94750D01*
X43144Y94683D01*
X43073Y94618D01*
X42999Y94556D01*
X42923Y94497D01*
X42845Y94441D01*
X42764Y94389D01*
X42682Y94339D01*
X42597Y94293D01*
X42511Y94251D01*
X42423Y94211D01*
X42334Y94176D01*
X42243Y94144D01*
X42151Y94115D01*
X42058Y94091D01*
X41965Y94070D01*
X41870Y94053D01*
X41775Y94039D01*
X41679Y94030D01*
X41583Y94024D01*
X41487Y94022D01*
X43561Y95208D02*
X45339Y98468D01*
D12*
X57785Y212090D02*
X69215Y212090D01*
X57785Y212090D02*
X57785Y207010D01*
X60960Y202590D02*
X66040Y202590D01*
X66151Y202588D01*
X66261Y202582D01*
X66372Y202573D01*
X66482Y202559D01*
X66591Y202542D01*
X66700Y202521D01*
X66808Y202496D01*
X66915Y202467D01*
X67021Y202435D01*
X67126Y202399D01*
X67229Y202359D01*
X67331Y202316D01*
X67432Y202269D01*
X67531Y202218D01*
X67628Y202165D01*
X67722Y202108D01*
X67815Y202047D01*
X67906Y201984D01*
X67995Y201917D01*
X68081Y201847D01*
X68164Y201774D01*
X68246Y201699D01*
X68324Y201621D01*
X68399Y201539D01*
X68472Y201456D01*
X68542Y201370D01*
X68609Y201281D01*
X68672Y201190D01*
X68733Y201097D01*
X68790Y201002D01*
X68843Y200906D01*
X68894Y200807D01*
X68941Y200706D01*
X68984Y200604D01*
X69024Y200501D01*
X69060Y200396D01*
X69092Y200290D01*
X69121Y200183D01*
X69146Y200075D01*
X69167Y199966D01*
X69184Y199857D01*
X69198Y199747D01*
X69207Y199636D01*
X69213Y199526D01*
X69215Y199415D01*
X69213Y199304D01*
X69207Y199194D01*
X69198Y199083D01*
X69184Y198973D01*
X69167Y198864D01*
X69146Y198755D01*
X69121Y198647D01*
X69092Y198540D01*
X69060Y198434D01*
X69024Y198329D01*
X68984Y198226D01*
X68941Y198124D01*
X68894Y198023D01*
X68843Y197924D01*
X68790Y197827D01*
X68733Y197733D01*
X68672Y197640D01*
X68609Y197549D01*
X68542Y197460D01*
X68472Y197374D01*
X68399Y197291D01*
X68324Y197209D01*
X68246Y197131D01*
X68164Y197056D01*
X68081Y196983D01*
X67995Y196913D01*
X67906Y196846D01*
X67815Y196783D01*
X67722Y196722D01*
X67627Y196665D01*
X67531Y196612D01*
X67432Y196561D01*
X67331Y196514D01*
X67229Y196471D01*
X67126Y196431D01*
X67021Y196395D01*
X66915Y196363D01*
X66808Y196334D01*
X66700Y196309D01*
X66591Y196288D01*
X66482Y196271D01*
X66372Y196257D01*
X66261Y196248D01*
X66151Y196242D01*
X66040Y196240D01*
X60960Y196240D01*
X60849Y196242D01*
X60739Y196248D01*
X60628Y196257D01*
X60518Y196271D01*
X60409Y196288D01*
X60300Y196309D01*
X60192Y196334D01*
X60085Y196363D01*
X59979Y196395D01*
X59874Y196431D01*
X59771Y196471D01*
X59669Y196514D01*
X59568Y196561D01*
X59469Y196612D01*
X59373Y196665D01*
X59278Y196722D01*
X59185Y196783D01*
X59094Y196846D01*
X59005Y196913D01*
X58919Y196983D01*
X58836Y197056D01*
X58754Y197131D01*
X58676Y197209D01*
X58601Y197291D01*
X58528Y197374D01*
X58458Y197460D01*
X58391Y197549D01*
X58328Y197640D01*
X58267Y197733D01*
X58210Y197828D01*
X58157Y197924D01*
X58106Y198023D01*
X58059Y198124D01*
X58016Y198226D01*
X57976Y198329D01*
X57940Y198434D01*
X57908Y198540D01*
X57879Y198647D01*
X57854Y198755D01*
X57833Y198864D01*
X57816Y198973D01*
X57802Y199083D01*
X57793Y199194D01*
X57787Y199304D01*
X57785Y199415D01*
X57787Y199526D01*
X57793Y199636D01*
X57802Y199747D01*
X57816Y199857D01*
X57833Y199966D01*
X57854Y200075D01*
X57879Y200183D01*
X57908Y200290D01*
X57940Y200396D01*
X57976Y200501D01*
X58016Y200604D01*
X58059Y200706D01*
X58106Y200807D01*
X58157Y200906D01*
X58210Y201003D01*
X58267Y201097D01*
X58328Y201190D01*
X58391Y201281D01*
X58458Y201370D01*
X58528Y201456D01*
X58601Y201539D01*
X58676Y201621D01*
X58754Y201699D01*
X58836Y201774D01*
X58919Y201847D01*
X59005Y201917D01*
X59094Y201984D01*
X59185Y202047D01*
X59278Y202108D01*
X59373Y202165D01*
X59469Y202218D01*
X59568Y202269D01*
X59669Y202316D01*
X59771Y202359D01*
X59874Y202399D01*
X59979Y202435D01*
X60085Y202467D01*
X60192Y202496D01*
X60300Y202521D01*
X60409Y202542D01*
X60518Y202559D01*
X60628Y202573D01*
X60739Y202582D01*
X60849Y202588D01*
X60960Y202590D01*
X69215Y191795D02*
X57785Y187985D01*
X69215Y184175D01*
X69215Y178841D02*
X57785Y178841D01*
X57785Y180111D02*
X57785Y177571D01*
X69215Y177571D02*
X69215Y180111D01*
X69215Y172491D02*
X57785Y172491D01*
X57785Y166141D02*
X69215Y172491D01*
X69215Y166141D02*
X57785Y166141D01*
X64135Y155854D02*
X64135Y153949D01*
X57785Y153949D01*
X57785Y157759D01*
X57787Y157859D01*
X57793Y157958D01*
X57803Y158058D01*
X57816Y158156D01*
X57834Y158255D01*
X57855Y158352D01*
X57880Y158448D01*
X57909Y158544D01*
X57942Y158638D01*
X57978Y158731D01*
X58018Y158822D01*
X58062Y158912D01*
X58109Y159000D01*
X58159Y159086D01*
X58213Y159170D01*
X58270Y159252D01*
X58330Y159331D01*
X58394Y159409D01*
X58460Y159483D01*
X58529Y159555D01*
X58601Y159624D01*
X58675Y159690D01*
X58753Y159754D01*
X58832Y159814D01*
X58914Y159871D01*
X58998Y159925D01*
X59084Y159975D01*
X59172Y160022D01*
X59262Y160066D01*
X59353Y160106D01*
X59446Y160142D01*
X59540Y160175D01*
X59636Y160204D01*
X59732Y160229D01*
X59829Y160250D01*
X59928Y160268D01*
X60026Y160281D01*
X60126Y160291D01*
X60225Y160297D01*
X60325Y160299D01*
X66675Y160299D01*
X66775Y160297D01*
X66874Y160291D01*
X66974Y160281D01*
X67072Y160268D01*
X67171Y160250D01*
X67268Y160229D01*
X67364Y160204D01*
X67460Y160175D01*
X67554Y160142D01*
X67647Y160106D01*
X67738Y160066D01*
X67828Y160022D01*
X67916Y159975D01*
X68002Y159925D01*
X68086Y159871D01*
X68168Y159814D01*
X68247Y159754D01*
X68325Y159690D01*
X68399Y159624D01*
X68471Y159555D01*
X68540Y159483D01*
X68606Y159409D01*
X68670Y159331D01*
X68730Y159252D01*
X68787Y159170D01*
X68841Y159086D01*
X68891Y159000D01*
X68938Y158912D01*
X68982Y158822D01*
X69022Y158731D01*
X69058Y158638D01*
X69091Y158544D01*
X69120Y158448D01*
X69145Y158352D01*
X69166Y158255D01*
X69184Y158156D01*
X69197Y158058D01*
X69207Y157958D01*
X69213Y157859D01*
X69215Y157759D01*
X69215Y153949D01*
X69215Y148082D02*
X57785Y148082D01*
X57785Y143002D01*
X63818Y135407D02*
X69215Y139217D01*
X63818Y135407D02*
X69215Y131597D01*
X63818Y135407D02*
X57785Y135407D01*
X57785Y118554D02*
X57785Y116014D01*
X57785Y118554D02*
X57787Y118654D01*
X57793Y118753D01*
X57803Y118853D01*
X57816Y118951D01*
X57834Y119050D01*
X57855Y119147D01*
X57880Y119243D01*
X57909Y119339D01*
X57942Y119433D01*
X57978Y119526D01*
X58018Y119617D01*
X58062Y119707D01*
X58109Y119795D01*
X58159Y119881D01*
X58213Y119965D01*
X58270Y120047D01*
X58330Y120126D01*
X58394Y120204D01*
X58460Y120278D01*
X58529Y120350D01*
X58601Y120419D01*
X58675Y120485D01*
X58753Y120549D01*
X58832Y120609D01*
X58914Y120666D01*
X58998Y120720D01*
X59084Y120770D01*
X59172Y120817D01*
X59262Y120861D01*
X59353Y120901D01*
X59446Y120937D01*
X59540Y120970D01*
X59636Y120999D01*
X59732Y121024D01*
X59829Y121045D01*
X59928Y121063D01*
X60026Y121076D01*
X60126Y121086D01*
X60225Y121092D01*
X60325Y121094D01*
X66675Y121094D01*
X66775Y121092D01*
X66874Y121086D01*
X66974Y121076D01*
X67072Y121063D01*
X67171Y121045D01*
X67268Y121024D01*
X67364Y120999D01*
X67460Y120970D01*
X67554Y120937D01*
X67647Y120901D01*
X67738Y120861D01*
X67828Y120817D01*
X67916Y120770D01*
X68002Y120720D01*
X68086Y120666D01*
X68168Y120609D01*
X68247Y120549D01*
X68325Y120485D01*
X68399Y120419D01*
X68471Y120350D01*
X68540Y120278D01*
X68606Y120204D01*
X68670Y120126D01*
X68730Y120047D01*
X68787Y119965D01*
X68841Y119881D01*
X68891Y119795D01*
X68938Y119707D01*
X68982Y119617D01*
X69022Y119526D01*
X69058Y119433D01*
X69091Y119339D01*
X69120Y119243D01*
X69145Y119147D01*
X69166Y119050D01*
X69184Y118951D01*
X69197Y118853D01*
X69207Y118753D01*
X69213Y118654D01*
X69215Y118554D01*
X69215Y116014D01*
X69215Y111068D02*
X57785Y111068D01*
X69215Y111068D02*
X69215Y107893D01*
X69213Y107782D01*
X69207Y107672D01*
X69198Y107561D01*
X69184Y107451D01*
X69167Y107342D01*
X69146Y107233D01*
X69121Y107125D01*
X69092Y107018D01*
X69060Y106912D01*
X69024Y106807D01*
X68984Y106704D01*
X68941Y106602D01*
X68894Y106501D01*
X68843Y106402D01*
X68790Y106305D01*
X68733Y106211D01*
X68672Y106118D01*
X68609Y106027D01*
X68542Y105938D01*
X68472Y105852D01*
X68399Y105769D01*
X68324Y105687D01*
X68246Y105609D01*
X68164Y105534D01*
X68081Y105461D01*
X67995Y105391D01*
X67906Y105324D01*
X67815Y105261D01*
X67722Y105200D01*
X67627Y105143D01*
X67531Y105090D01*
X67432Y105039D01*
X67331Y104992D01*
X67229Y104949D01*
X67126Y104909D01*
X67021Y104873D01*
X66915Y104841D01*
X66808Y104812D01*
X66700Y104787D01*
X66591Y104766D01*
X66482Y104749D01*
X66372Y104735D01*
X66261Y104726D01*
X66151Y104720D01*
X66040Y104718D01*
X65929Y104720D01*
X65819Y104726D01*
X65708Y104735D01*
X65598Y104749D01*
X65489Y104766D01*
X65380Y104787D01*
X65272Y104812D01*
X65165Y104841D01*
X65059Y104873D01*
X64954Y104909D01*
X64851Y104949D01*
X64749Y104992D01*
X64648Y105039D01*
X64549Y105090D01*
X64453Y105143D01*
X64358Y105200D01*
X64265Y105261D01*
X64174Y105324D01*
X64085Y105391D01*
X63999Y105461D01*
X63916Y105534D01*
X63834Y105609D01*
X63756Y105687D01*
X63681Y105769D01*
X63608Y105852D01*
X63538Y105938D01*
X63471Y106027D01*
X63408Y106118D01*
X63347Y106211D01*
X63290Y106306D01*
X63237Y106402D01*
X63186Y106501D01*
X63139Y106602D01*
X63096Y106704D01*
X63056Y106807D01*
X63020Y106912D01*
X62988Y107018D01*
X62959Y107125D01*
X62934Y107233D01*
X62913Y107342D01*
X62896Y107451D01*
X62882Y107561D01*
X62873Y107672D01*
X62867Y107782D01*
X62865Y107893D01*
X62865Y111068D01*
X62865Y107258D02*
X57785Y104718D01*
X57785Y100356D02*
X69215Y96546D01*
X57785Y92736D01*
X60643Y93688D02*
X60643Y99403D01*
X57785Y87884D02*
X69215Y87884D01*
X69215Y82804D01*
X64135Y82804D02*
X64135Y87884D01*
X69215Y75972D02*
X57785Y75972D01*
X69215Y79147D02*
X69215Y72797D01*
X57785Y68072D02*
X57785Y62992D01*
X57785Y68072D02*
X69215Y68072D01*
X69215Y62992D01*
X64135Y64262D02*
X64135Y68072D01*
X69215Y58192D02*
X57785Y58192D01*
X69215Y58192D02*
X69215Y55017D01*
X69213Y54906D01*
X69207Y54796D01*
X69198Y54685D01*
X69184Y54575D01*
X69167Y54466D01*
X69146Y54357D01*
X69121Y54249D01*
X69092Y54142D01*
X69060Y54036D01*
X69024Y53931D01*
X68984Y53828D01*
X68941Y53726D01*
X68894Y53625D01*
X68843Y53526D01*
X68790Y53429D01*
X68733Y53335D01*
X68672Y53242D01*
X68609Y53151D01*
X68542Y53062D01*
X68472Y52976D01*
X68399Y52893D01*
X68324Y52811D01*
X68246Y52733D01*
X68164Y52658D01*
X68081Y52585D01*
X67995Y52515D01*
X67906Y52448D01*
X67815Y52385D01*
X67722Y52324D01*
X67627Y52267D01*
X67531Y52214D01*
X67432Y52163D01*
X67331Y52116D01*
X67229Y52073D01*
X67126Y52033D01*
X67021Y51997D01*
X66915Y51965D01*
X66808Y51936D01*
X66700Y51911D01*
X66591Y51890D01*
X66482Y51873D01*
X66372Y51859D01*
X66261Y51850D01*
X66151Y51844D01*
X66040Y51842D01*
X60960Y51842D01*
X60849Y51844D01*
X60739Y51850D01*
X60628Y51859D01*
X60518Y51873D01*
X60409Y51890D01*
X60300Y51911D01*
X60192Y51936D01*
X60085Y51965D01*
X59979Y51997D01*
X59874Y52033D01*
X59771Y52073D01*
X59669Y52116D01*
X59568Y52163D01*
X59469Y52214D01*
X59373Y52267D01*
X59278Y52324D01*
X59185Y52385D01*
X59094Y52448D01*
X59005Y52515D01*
X58919Y52585D01*
X58836Y52658D01*
X58754Y52733D01*
X58676Y52811D01*
X58601Y52893D01*
X58528Y52976D01*
X58458Y53062D01*
X58391Y53151D01*
X58328Y53242D01*
X58267Y53335D01*
X58210Y53430D01*
X58157Y53526D01*
X58106Y53625D01*
X58059Y53726D01*
X58016Y53828D01*
X57976Y53931D01*
X57940Y54036D01*
X57908Y54142D01*
X57879Y54249D01*
X57854Y54357D01*
X57833Y54466D01*
X57816Y54575D01*
X57802Y54685D01*
X57793Y54796D01*
X57787Y54906D01*
X57785Y55017D01*
X57785Y58192D01*
D10*
X111887Y242753D02*
X120523Y242753D01*
X111887Y243713D02*
X111887Y241794D01*
X120523Y241794D02*
X120523Y243713D01*
X111887Y235956D02*
X111887Y234037D01*
X111887Y235956D02*
X111889Y236042D01*
X111895Y236128D01*
X111904Y236214D01*
X111918Y236299D01*
X111935Y236383D01*
X111956Y236467D01*
X111981Y236549D01*
X112009Y236630D01*
X112041Y236710D01*
X112077Y236789D01*
X112116Y236865D01*
X112159Y236940D01*
X112204Y237013D01*
X112254Y237084D01*
X112306Y237152D01*
X112361Y237219D01*
X112419Y237282D01*
X112480Y237343D01*
X112543Y237401D01*
X112610Y237456D01*
X112678Y237509D01*
X112749Y237558D01*
X112822Y237603D01*
X112897Y237646D01*
X112973Y237685D01*
X113052Y237721D01*
X113132Y237753D01*
X113213Y237781D01*
X113296Y237806D01*
X113379Y237827D01*
X113463Y237844D01*
X113548Y237858D01*
X113634Y237867D01*
X113720Y237873D01*
X113806Y237875D01*
X118604Y237875D01*
X118690Y237873D01*
X118776Y237867D01*
X118862Y237858D01*
X118947Y237844D01*
X119031Y237827D01*
X119115Y237806D01*
X119197Y237781D01*
X119278Y237753D01*
X119358Y237721D01*
X119437Y237685D01*
X119513Y237646D01*
X119588Y237603D01*
X119661Y237558D01*
X119732Y237509D01*
X119800Y237456D01*
X119867Y237401D01*
X119930Y237343D01*
X119991Y237282D01*
X120049Y237219D01*
X120104Y237153D01*
X120156Y237084D01*
X120206Y237013D01*
X120251Y236940D01*
X120294Y236865D01*
X120333Y236789D01*
X120369Y236710D01*
X120401Y236630D01*
X120429Y236549D01*
X120454Y236467D01*
X120475Y236383D01*
X120492Y236299D01*
X120506Y236214D01*
X120515Y236128D01*
X120521Y236042D01*
X120523Y235956D01*
X120523Y234037D01*
X118604Y230217D02*
X120523Y227818D01*
X111887Y227818D01*
X111887Y230217D02*
X111887Y225419D01*
D13*
X80418Y247714D02*
X52134Y275998D01*
X80418Y247714D02*
X52134Y219430D01*
X23850Y247714D01*
X52134Y275998D01*
X48598Y272463D02*
X55669Y272463D01*
D14*
X52546Y283317D02*
X52548Y283387D01*
X52554Y283457D01*
X52564Y283526D01*
X52577Y283595D01*
X52595Y283663D01*
X52616Y283730D01*
X52641Y283795D01*
X52670Y283859D01*
X52702Y283922D01*
X52738Y283982D01*
X52777Y284040D01*
X52819Y284096D01*
X52864Y284150D01*
X52912Y284201D01*
X52963Y284249D01*
X53017Y284294D01*
X53073Y284336D01*
X53131Y284375D01*
X53191Y284411D01*
X53254Y284443D01*
X53318Y284472D01*
X53383Y284497D01*
X53450Y284518D01*
X53518Y284536D01*
X53587Y284549D01*
X53656Y284559D01*
X53726Y284565D01*
X53796Y284567D01*
X53866Y284565D01*
X53936Y284559D01*
X54005Y284549D01*
X54074Y284536D01*
X54142Y284518D01*
X54209Y284497D01*
X54274Y284472D01*
X54338Y284443D01*
X54401Y284411D01*
X54461Y284375D01*
X54519Y284336D01*
X54575Y284294D01*
X54629Y284249D01*
X54680Y284201D01*
X54728Y284150D01*
X54773Y284096D01*
X54815Y284040D01*
X54854Y283982D01*
X54890Y283922D01*
X54922Y283859D01*
X54951Y283795D01*
X54976Y283730D01*
X54997Y283663D01*
X55015Y283595D01*
X55028Y283526D01*
X55038Y283457D01*
X55044Y283387D01*
X55046Y283317D01*
X55044Y283247D01*
X55038Y283177D01*
X55028Y283108D01*
X55015Y283039D01*
X54997Y282971D01*
X54976Y282904D01*
X54951Y282839D01*
X54922Y282775D01*
X54890Y282712D01*
X54854Y282652D01*
X54815Y282594D01*
X54773Y282538D01*
X54728Y282484D01*
X54680Y282433D01*
X54629Y282385D01*
X54575Y282340D01*
X54519Y282298D01*
X54461Y282259D01*
X54401Y282223D01*
X54338Y282191D01*
X54274Y282162D01*
X54209Y282137D01*
X54142Y282116D01*
X54074Y282098D01*
X54005Y282085D01*
X53936Y282075D01*
X53866Y282069D01*
X53796Y282067D01*
X53726Y282069D01*
X53656Y282075D01*
X53587Y282085D01*
X53518Y282098D01*
X53450Y282116D01*
X53383Y282137D01*
X53318Y282162D01*
X53254Y282191D01*
X53191Y282223D01*
X53131Y282259D01*
X53073Y282298D01*
X53017Y282340D01*
X52963Y282385D01*
X52912Y282433D01*
X52864Y282484D01*
X52819Y282538D01*
X52777Y282594D01*
X52738Y282652D01*
X52702Y282712D01*
X52670Y282775D01*
X52641Y282839D01*
X52616Y282904D01*
X52595Y282971D01*
X52577Y283039D01*
X52564Y283108D01*
X52554Y283177D01*
X52548Y283247D01*
X52546Y283317D01*
D15*
X178600Y255140D02*
X178600Y207140D01*
X126200Y207140D01*
X126200Y255140D01*
X178600Y255140D01*
X178200Y258640D02*
X178200Y276140D01*
D10*
X11430Y287020D02*
X5080Y293370D01*
X24130Y287020D02*
X30480Y293370D01*
X36830Y287020D01*
X49530Y287020D02*
X55880Y293370D01*
X62230Y287020D01*
X74930Y287020D02*
X81280Y293370D01*
X87630Y287020D01*
X100330Y287020D02*
X106680Y293370D01*
X113030Y287020D01*
X125730Y287020D02*
X132080Y293370D01*
X5080Y293370D02*
X5080Y331470D01*
X11430Y337820D01*
X24130Y337820D01*
X30480Y331470D01*
X36830Y337820D01*
X49530Y337820D01*
X55880Y331470D01*
X62230Y337820D01*
X74930Y337820D01*
X81280Y331470D01*
X87630Y337820D01*
X100330Y337820D01*
X106680Y331470D01*
X113030Y337820D01*
X125730Y337820D01*
X132080Y331470D01*
X30480Y331470D02*
X30480Y293370D01*
X55880Y293370D02*
X55880Y331470D01*
X81280Y331470D02*
X81280Y293370D01*
X106680Y293370D02*
X106680Y331470D01*
X132080Y331470D02*
X132080Y293370D01*
X125730Y287020D02*
X113030Y287020D01*
X100330Y287020D02*
X87630Y287020D01*
X74930Y287020D02*
X62230Y287020D01*
X49530Y287020D02*
X36830Y287020D01*
X24130Y287020D02*
X11430Y287020D01*
X132080Y293370D02*
X138430Y287020D01*
X151130Y287020D02*
X157480Y293370D01*
X132080Y331470D02*
X138430Y337820D01*
X151130Y337820D01*
X157480Y331470D01*
X157480Y293370D01*
X151130Y287020D02*
X138430Y287020D01*
M02*
