G04 EAGLE Gerber RS-274X export*
G75*
%MOMM*%
%FSLAX34Y34*%
%LPD*%
%INSoldermask Top*%
%IPPOS*%
%AMOC8*
5,1,8,0,0,1.08239X$1,22.5*%
G01*
%ADD10C,2.627000*%
%ADD11R,1.327000X1.327000*%
%ADD12C,1.327000*%
%ADD13R,0.927000X0.427000*%
%ADD14R,2.927000X2.927000*%
%ADD15R,0.777000X1.877000*%
%ADD16P,1.787026X8X22.500000*%
%ADD17R,1.727000X1.427000*%
%ADD18C,2.000000*%
%ADD19C,0.584200*%
%ADD20C,0.652000*%


D10*
X50800Y12700D03*
X152400Y12700D03*
D11*
X190500Y215900D03*
D12*
X190500Y190500D03*
X190500Y165100D03*
X190500Y139700D03*
X190500Y114300D03*
X190500Y88900D03*
X190500Y63500D03*
X114300Y63500D03*
X114300Y88900D03*
X114300Y114300D03*
X114300Y139700D03*
X114300Y165100D03*
X114300Y190500D03*
X114300Y215900D03*
D11*
X88900Y215900D03*
D12*
X88900Y190500D03*
X88900Y165100D03*
X88900Y139700D03*
X88900Y114300D03*
X88900Y88900D03*
X88900Y63500D03*
X12700Y63500D03*
X12700Y88900D03*
X12700Y114300D03*
X12700Y139700D03*
X12700Y165100D03*
X12700Y190500D03*
X12700Y215900D03*
D13*
G36*
X48598Y265908D02*
X42044Y272462D01*
X45064Y275482D01*
X51618Y268928D01*
X48598Y265908D01*
G37*
G36*
X45062Y262372D02*
X38508Y268926D01*
X41528Y271946D01*
X48082Y265392D01*
X45062Y262372D01*
G37*
G36*
X41526Y258837D02*
X34972Y265391D01*
X37992Y268411D01*
X44546Y261857D01*
X41526Y258837D01*
G37*
G36*
X37991Y255301D02*
X31437Y261855D01*
X34457Y264875D01*
X41011Y258321D01*
X37991Y255301D01*
G37*
G36*
X34455Y251766D02*
X27901Y258320D01*
X30921Y261340D01*
X37475Y254786D01*
X34455Y251766D01*
G37*
G36*
X30920Y248230D02*
X24366Y254784D01*
X27386Y257804D01*
X33940Y251250D01*
X30920Y248230D01*
G37*
G36*
X33940Y244177D02*
X27386Y237623D01*
X24366Y240643D01*
X30920Y247197D01*
X33940Y244177D01*
G37*
G36*
X37475Y240642D02*
X30921Y234088D01*
X27901Y237108D01*
X34455Y243662D01*
X37475Y240642D01*
G37*
G36*
X41011Y237106D02*
X34457Y230552D01*
X31437Y233572D01*
X37991Y240126D01*
X41011Y237106D01*
G37*
G36*
X44546Y233571D02*
X37992Y227017D01*
X34972Y230037D01*
X41526Y236591D01*
X44546Y233571D01*
G37*
G36*
X48082Y230035D02*
X41528Y223481D01*
X38508Y226501D01*
X45062Y233055D01*
X48082Y230035D01*
G37*
G36*
X51618Y226500D02*
X45064Y219946D01*
X42044Y222966D01*
X48598Y229520D01*
X51618Y226500D01*
G37*
G36*
X59204Y219946D02*
X52650Y226500D01*
X55670Y229520D01*
X62224Y222966D01*
X59204Y219946D01*
G37*
G36*
X62740Y223481D02*
X56186Y230035D01*
X59206Y233055D01*
X65760Y226501D01*
X62740Y223481D01*
G37*
G36*
X66275Y227017D02*
X59721Y233571D01*
X62741Y236591D01*
X69295Y230037D01*
X66275Y227017D01*
G37*
G36*
X69811Y230552D02*
X63257Y237106D01*
X66277Y240126D01*
X72831Y233572D01*
X69811Y230552D01*
G37*
G36*
X73346Y234088D02*
X66792Y240642D01*
X69812Y243662D01*
X76366Y237108D01*
X73346Y234088D01*
G37*
G36*
X76882Y237623D02*
X70328Y244177D01*
X73348Y247197D01*
X79902Y240643D01*
X76882Y237623D01*
G37*
G36*
X79902Y254784D02*
X73348Y248230D01*
X70328Y251250D01*
X76882Y257804D01*
X79902Y254784D01*
G37*
G36*
X76366Y258320D02*
X69812Y251766D01*
X66792Y254786D01*
X73346Y261340D01*
X76366Y258320D01*
G37*
G36*
X72831Y261855D02*
X66277Y255301D01*
X63257Y258321D01*
X69811Y264875D01*
X72831Y261855D01*
G37*
G36*
X69295Y265391D02*
X62741Y258837D01*
X59721Y261857D01*
X66275Y268411D01*
X69295Y265391D01*
G37*
G36*
X65760Y268926D02*
X59206Y262372D01*
X56186Y265392D01*
X62740Y271946D01*
X65760Y268926D01*
G37*
G36*
X62224Y272462D02*
X55670Y265908D01*
X52650Y268928D01*
X59204Y275482D01*
X62224Y272462D01*
G37*
D14*
G36*
X72831Y247714D02*
X52134Y227017D01*
X31437Y247714D01*
X52134Y268411D01*
X72831Y247714D01*
G37*
D15*
X171450Y267390D03*
X158750Y267390D03*
X146050Y267390D03*
X133350Y267390D03*
X133350Y194890D03*
X146050Y194890D03*
X158750Y194890D03*
X171450Y194890D03*
D16*
X17780Y299720D03*
X17780Y325120D03*
X43180Y299720D03*
X43180Y325120D03*
X68580Y299720D03*
X68580Y325120D03*
X93980Y299720D03*
X93980Y325120D03*
X119380Y299720D03*
X119380Y325120D03*
X144780Y299720D03*
X144780Y325120D03*
D17*
X169436Y323164D03*
X169436Y303164D03*
X189756Y323164D03*
X189756Y303164D03*
D18*
X34925Y57150D03*
X168275Y57150D03*
X193675Y247650D03*
D19*
X37211Y221996D03*
X172212Y212852D03*
D20*
X24920Y273050D03*
X121920Y101600D03*
X156210Y114935D03*
X144145Y157480D03*
X52388Y247968D03*
X136525Y240665D03*
X30480Y321310D03*
X81280Y320040D03*
X64770Y124460D03*
X72708Y186373D03*
X114300Y271463D03*
X41275Y88900D03*
X92075Y152400D03*
X9525Y25400D03*
X28575Y25400D03*
X19050Y15875D03*
X9525Y6350D03*
X28575Y6350D03*
X73025Y25400D03*
X73025Y6350D03*
X82550Y15875D03*
X92075Y25400D03*
X92075Y6350D03*
X101600Y15875D03*
X111125Y25400D03*
X130175Y25400D03*
X120650Y15875D03*
X111125Y6350D03*
X130175Y6350D03*
X174625Y25400D03*
X193675Y25400D03*
X184150Y15875D03*
X174625Y6350D03*
X193675Y6350D03*
X98425Y241300D03*
X9525Y44450D03*
X19050Y34925D03*
X184150Y34925D03*
X193675Y44450D03*
D19*
X42672Y279908D03*
X132588Y208280D03*
X50292Y279908D03*
X158496Y212852D03*
X158496Y254000D03*
X24384Y247904D03*
X70104Y144272D03*
X82296Y150368D03*
X25908Y232664D03*
D20*
X143510Y75057D03*
X161925Y139700D03*
D19*
X54483Y292100D03*
X35433Y314452D03*
X124968Y121412D03*
X19304Y175260D03*
X39497Y191389D03*
X64008Y150368D03*
X53340Y139700D03*
X24384Y168656D03*
X24384Y110744D03*
X50292Y186944D03*
X56642Y169926D03*
X37465Y151194D03*
X73025Y94107D03*
X30480Y162560D03*
X82296Y237236D03*
X82614Y179705D03*
X66993Y273812D03*
X21336Y127064D03*
X35306Y142939D03*
X132588Y121412D03*
X132588Y138176D03*
X30480Y281432D03*
M02*
