G04 EAGLE Gerber RS-274X export*
G75*
%MOMM*%
%FSLAX34Y34*%
%LPD*%
%INSoldermask Bottom*%
%IPPOS*%
%AMOC8*
5,1,8,0,0,1.08239X$1,22.5*%
G01*
%ADD10C,2.627000*%
%ADD11R,1.327000X1.327000*%
%ADD12C,1.327000*%
%ADD13P,1.787026X8X22.500000*%
%ADD14C,2.000000*%
%ADD15C,0.584200*%
%ADD16C,0.652000*%


D10*
X50800Y12700D03*
X152400Y12700D03*
D11*
X190500Y215900D03*
D12*
X190500Y190500D03*
X190500Y165100D03*
X190500Y139700D03*
X190500Y114300D03*
X190500Y88900D03*
X190500Y63500D03*
X114300Y63500D03*
X114300Y88900D03*
X114300Y114300D03*
X114300Y139700D03*
X114300Y165100D03*
X114300Y190500D03*
X114300Y215900D03*
D11*
X88900Y215900D03*
D12*
X88900Y190500D03*
X88900Y165100D03*
X88900Y139700D03*
X88900Y114300D03*
X88900Y88900D03*
X88900Y63500D03*
X12700Y63500D03*
X12700Y88900D03*
X12700Y114300D03*
X12700Y139700D03*
X12700Y165100D03*
X12700Y190500D03*
X12700Y215900D03*
D13*
X17780Y299720D03*
X17780Y325120D03*
X43180Y299720D03*
X43180Y325120D03*
X68580Y299720D03*
X68580Y325120D03*
X93980Y299720D03*
X93980Y325120D03*
X119380Y299720D03*
X119380Y325120D03*
X144780Y299720D03*
X144780Y325120D03*
D14*
X34925Y57150D03*
X168275Y57150D03*
X193675Y247650D03*
D15*
X37211Y221996D03*
X172212Y212852D03*
D16*
X24920Y273050D03*
X121920Y101600D03*
X156210Y114935D03*
X144145Y157480D03*
X52388Y247968D03*
X136525Y240665D03*
X30480Y321310D03*
X81280Y320040D03*
X64770Y124460D03*
X72708Y186373D03*
X114300Y271463D03*
X41275Y88900D03*
X92075Y152400D03*
X9525Y25400D03*
X28575Y25400D03*
X19050Y15875D03*
X9525Y6350D03*
X28575Y6350D03*
X73025Y25400D03*
X73025Y6350D03*
X82550Y15875D03*
X92075Y25400D03*
X92075Y6350D03*
X101600Y15875D03*
X111125Y25400D03*
X130175Y25400D03*
X120650Y15875D03*
X111125Y6350D03*
X130175Y6350D03*
X174625Y25400D03*
X193675Y25400D03*
X184150Y15875D03*
X174625Y6350D03*
X193675Y6350D03*
X98425Y241300D03*
X9525Y44450D03*
X19050Y34925D03*
X184150Y34925D03*
X193675Y44450D03*
D15*
X42672Y279908D03*
X132588Y208280D03*
X50292Y279908D03*
X158496Y212852D03*
X158496Y254000D03*
X24384Y247904D03*
X70104Y144272D03*
X82296Y150368D03*
X25908Y232664D03*
D16*
X143510Y75057D03*
X161925Y139700D03*
D15*
X54483Y292100D03*
X35433Y314452D03*
X124968Y121412D03*
X19304Y175260D03*
X39497Y191389D03*
X64008Y150368D03*
X53340Y139700D03*
X24384Y168656D03*
X24384Y110744D03*
X50292Y186944D03*
X56642Y169926D03*
X37465Y151194D03*
X73025Y94107D03*
X30480Y162560D03*
X82296Y237236D03*
X82614Y179705D03*
X66993Y273812D03*
X21336Y127064D03*
X35306Y142939D03*
X132588Y121412D03*
X132588Y138176D03*
X30480Y281432D03*
M02*
