G04 EAGLE Gerber RS-274X export*
G75*
%MOMM*%
%FSLAX34Y34*%
%LPD*%
%INSolderpaste Top*%
%IPPOS*%
%AMOC8*
5,1,8,0,0,1.08239X$1,22.5*%
G01*
%ADD10R,0.800000X0.300000*%
%ADD11R,2.800000X2.800000*%
%ADD12R,0.650000X1.750000*%
%ADD13R,1.600000X1.300000*%


D10*
G36*
X48598Y266806D02*
X42942Y272462D01*
X45064Y274584D01*
X50720Y268928D01*
X48598Y266806D01*
G37*
G36*
X45062Y263270D02*
X39406Y268926D01*
X41528Y271048D01*
X47184Y265392D01*
X45062Y263270D01*
G37*
G36*
X41526Y259735D02*
X35870Y265391D01*
X37992Y267513D01*
X43648Y261857D01*
X41526Y259735D01*
G37*
G36*
X37991Y256199D02*
X32335Y261855D01*
X34457Y263977D01*
X40113Y258321D01*
X37991Y256199D01*
G37*
G36*
X34455Y252664D02*
X28799Y258320D01*
X30921Y260442D01*
X36577Y254786D01*
X34455Y252664D01*
G37*
G36*
X30920Y249128D02*
X25264Y254784D01*
X27386Y256906D01*
X33042Y251250D01*
X30920Y249128D01*
G37*
G36*
X33042Y244177D02*
X27386Y238521D01*
X25264Y240643D01*
X30920Y246299D01*
X33042Y244177D01*
G37*
G36*
X36577Y240642D02*
X30921Y234986D01*
X28799Y237108D01*
X34455Y242764D01*
X36577Y240642D01*
G37*
G36*
X40113Y237106D02*
X34457Y231450D01*
X32335Y233572D01*
X37991Y239228D01*
X40113Y237106D01*
G37*
G36*
X43648Y233571D02*
X37992Y227915D01*
X35870Y230037D01*
X41526Y235693D01*
X43648Y233571D01*
G37*
G36*
X47184Y230035D02*
X41528Y224379D01*
X39406Y226501D01*
X45062Y232157D01*
X47184Y230035D01*
G37*
G36*
X50720Y226500D02*
X45064Y220844D01*
X42942Y222966D01*
X48598Y228622D01*
X50720Y226500D01*
G37*
G36*
X59204Y220844D02*
X53548Y226500D01*
X55670Y228622D01*
X61326Y222966D01*
X59204Y220844D01*
G37*
G36*
X62740Y224379D02*
X57084Y230035D01*
X59206Y232157D01*
X64862Y226501D01*
X62740Y224379D01*
G37*
G36*
X66275Y227915D02*
X60619Y233571D01*
X62741Y235693D01*
X68397Y230037D01*
X66275Y227915D01*
G37*
G36*
X69811Y231450D02*
X64155Y237106D01*
X66277Y239228D01*
X71933Y233572D01*
X69811Y231450D01*
G37*
G36*
X73346Y234986D02*
X67690Y240642D01*
X69812Y242764D01*
X75468Y237108D01*
X73346Y234986D01*
G37*
G36*
X76882Y238521D02*
X71226Y244177D01*
X73348Y246299D01*
X79004Y240643D01*
X76882Y238521D01*
G37*
G36*
X79004Y254784D02*
X73348Y249128D01*
X71226Y251250D01*
X76882Y256906D01*
X79004Y254784D01*
G37*
G36*
X75468Y258320D02*
X69812Y252664D01*
X67690Y254786D01*
X73346Y260442D01*
X75468Y258320D01*
G37*
G36*
X71933Y261855D02*
X66277Y256199D01*
X64155Y258321D01*
X69811Y263977D01*
X71933Y261855D01*
G37*
G36*
X68397Y265391D02*
X62741Y259735D01*
X60619Y261857D01*
X66275Y267513D01*
X68397Y265391D01*
G37*
G36*
X64862Y268926D02*
X59206Y263270D01*
X57084Y265392D01*
X62740Y271048D01*
X64862Y268926D01*
G37*
G36*
X61326Y272462D02*
X55670Y266806D01*
X53548Y268928D01*
X59204Y274584D01*
X61326Y272462D01*
G37*
D11*
G36*
X71932Y247714D02*
X52134Y227916D01*
X32336Y247714D01*
X52134Y267512D01*
X71932Y247714D01*
G37*
D12*
X171450Y267390D03*
X158750Y267390D03*
X146050Y267390D03*
X133350Y267390D03*
X133350Y194890D03*
X146050Y194890D03*
X158750Y194890D03*
X171450Y194890D03*
D13*
X169436Y323164D03*
X169436Y303164D03*
X189756Y323164D03*
X189756Y303164D03*
M02*
